<svg width="82" height="72" viewBox="0 0 82 72" fill="none" xmlns="http://www.w3.org/2000/svg">
<path d="M18.8567 35.3463C18.8727 35.2942 18.894 35.2756 18.9078 35.2661C18.9274 35.2526 18.9593 35.2405 19 35.2405C19.0407 35.2405 19.0726 35.2526 19.0922 35.2661C19.106 35.2756 19.1273 35.2942 19.1433 35.3463L22.2359 45.3653C22.4753 46.1407 23.1921 46.6697 24.0036 46.6697H34.1164C34.168 46.6697 34.1922 46.6836 34.2062 46.6943C34.2252 46.7087 34.246 46.7346 34.2585 46.7716C34.271 46.8085 34.2702 46.8417 34.2639 46.8647C34.2593 46.8817 34.2485 46.9074 34.2075 46.9388L25.9394 53.2621C25.324 53.7328 25.067 54.537 25.2955 55.2773L28.4326 65.4404C28.4484 65.4915 28.4416 65.5188 28.4355 65.5348C28.4271 65.557 28.4079 65.5848 28.375 65.6077C28.3422 65.6306 28.3094 65.639 28.2856 65.6392C28.2686 65.6394 28.2406 65.6363 28.1982 65.6038L20.1239 59.4287C19.4605 58.9214 18.5395 58.9214 17.8761 59.4287L9.80184 65.6038C9.75939 65.6363 9.73144 65.6394 9.71435 65.6392C9.69058 65.639 9.65782 65.6306 9.62496 65.6077C9.59209 65.5848 9.57288 65.557 9.56447 65.5348C9.55842 65.5188 9.55163 65.4915 9.56739 65.4404L12.7045 55.2773C12.933 54.537 12.676 53.7328 12.0606 53.2621L3.79249 46.9388C3.75146 46.9074 3.74075 46.8817 3.73611 46.8647C3.72983 46.8417 3.72903 46.8085 3.74153 46.7716C3.75403 46.7346 3.77483 46.7087 3.79379 46.6943C3.8078 46.6836 3.83196 46.6697 3.88361 46.6697H13.9964C14.8079 46.6697 15.5247 46.1407 15.7641 45.3653L18.8567 35.3463Z" stroke="#1185D1" stroke-width="1.7"/>
<path d="M41.8567 3.34625C41.8727 3.29417 41.894 3.27563 41.9078 3.26609C41.9274 3.25261 41.9593 3.24049 42 3.24049C42.0407 3.24049 42.0726 3.25261 42.0922 3.26609C42.106 3.27563 42.1273 3.29417 42.1433 3.34625L45.2359 13.3653C45.4753 14.1407 46.1921 14.6697 47.0036 14.6697H57.1164C57.168 14.6697 57.1922 14.6836 57.2062 14.6943C57.2252 14.7087 57.246 14.7346 57.2585 14.7716C57.271 14.8085 57.2702 14.8417 57.2639 14.8647C57.2593 14.8817 57.2485 14.9074 57.2075 14.9388L48.9394 21.2621C48.324 21.7328 48.067 22.537 48.2955 23.2773L51.4326 33.4404C51.4484 33.4915 51.4416 33.5188 51.4355 33.5348C51.4271 33.557 51.4079 33.5848 51.375 33.6077C51.3422 33.6306 51.3094 33.639 51.2856 33.6392C51.2686 33.6394 51.2406 33.6363 51.1982 33.6038L43.1239 27.4287C42.4605 26.9214 41.5395 26.9214 40.8761 27.4287L32.8018 33.6038C32.7594 33.6363 32.7314 33.6394 32.7143 33.6392C32.6906 33.639 32.6578 33.6306 32.625 33.6077C32.5921 33.5848 32.5729 33.557 32.5645 33.5348C32.5584 33.5188 32.5516 33.4915 32.5674 33.4404L35.7045 23.2773C35.933 22.537 35.676 21.7328 35.0606 21.2621L26.7925 14.9388C26.7515 14.9074 26.7407 14.8817 26.7361 14.8647C26.7298 14.8417 26.729 14.8085 26.7415 14.7716C26.754 14.7346 26.7748 14.7087 26.7938 14.6943C26.8078 14.6836 26.832 14.6697 26.8836 14.6697H36.9964C37.8079 14.6697 38.5247 14.1407 38.7641 13.3653L41.8567 3.34625Z" stroke="#1185D1" stroke-width="1.7"/>
<path d="M62.8567 35.3463C62.8727 35.2942 62.894 35.2756 62.9078 35.2661C62.9274 35.2526 62.9593 35.2405 63 35.2405C63.0407 35.2405 63.0726 35.2526 63.0922 35.2661C63.106 35.2756 63.1273 35.2942 63.1433 35.3463L66.2359 45.3653C66.4753 46.1407 67.1921 46.6697 68.0036 46.6697H78.1164C78.168 46.6697 78.1922 46.6836 78.2062 46.6943C78.2252 46.7087 78.246 46.7346 78.2585 46.7716C78.271 46.8085 78.2702 46.8417 78.2639 46.8647C78.2593 46.8817 78.2485 46.9074 78.2075 46.9388L69.9394 53.2621C69.324 53.7328 69.067 54.537 69.2955 55.2773L72.4326 65.4404C72.4484 65.4915 72.4416 65.5188 72.4355 65.5348C72.4271 65.557 72.4079 65.5848 72.375 65.6077C72.3422 65.6306 72.3094 65.639 72.2856 65.6392C72.2686 65.6394 72.2406 65.6363 72.1982 65.6038L64.1239 59.4287C63.4605 58.9214 62.5395 58.9214 61.8761 59.4287L53.8018 65.6038C53.7594 65.6363 53.7314 65.6394 53.7143 65.6392C53.6906 65.639 53.6578 65.6306 53.625 65.6077C53.5921 65.5848 53.5729 65.557 53.5645 65.5348C53.5584 65.5188 53.5516 65.4915 53.5674 65.4404L56.7045 55.2773C56.933 54.537 56.676 53.7328 56.0606 53.2621L47.7925 46.9388C47.7515 46.9074 47.7407 46.8817 47.7361 46.8647C47.7298 46.8417 47.729 46.8085 47.7415 46.7716C47.754 46.7346 47.7748 46.7087 47.7938 46.6943C47.8078 46.6836 47.832 46.6697 47.8836 46.6697H57.9964C58.8079 46.6697 59.5247 46.1407 59.7641 45.3653L62.8567 35.3463Z" stroke="#1185D1" stroke-width="1.7"/>
</svg>
