<svg width="68" height="74" viewBox="0 0 68 74" fill="none" xmlns="http://www.w3.org/2000/svg">
<path d="M34.0002 3.9H34C27.4533 3.9 21.0536 5.85746 15.6103 9.52475C10.167 13.192 5.92465 18.4044 3.41949 24.5026C0.914335 30.6008 0.258885 37.311 1.53599 43.7848C2.8131 50.2586 5.96543 56.2052 10.5945 60.8727C15.2235 65.5402 21.1214 68.7189 27.5424 70.0067C33.9633 71.2945 40.6188 70.6336 46.6671 68.1075C52.7154 65.5814 57.8849 61.3036 61.5219 55.8153C65.1588 50.327 67.1 43.8746 67.1 37.274V37.2739C67.0867 28.427 63.5953 19.9461 57.3909 13.6901C51.1864 7.43409 42.775 3.91342 34.0002 3.9ZM33.9999 68.9693C27.7831 68.9693 21.706 67.1105 16.5368 63.6279C11.3676 60.1453 7.3386 55.1952 4.95938 49.4036C2.58015 43.6119 1.95762 37.2389 3.17055 31.0904C4.38348 24.942 7.37736 19.2944 11.7735 14.8617C16.1696 10.4291 21.7705 7.41059 27.8678 6.18768C33.9651 4.96478 40.2852 5.59241 46.0288 7.99125C51.7724 10.3901 56.6817 14.4524 60.1358 19.6647C63.5898 24.877 65.4334 31.005 65.4335 37.2739C65.4216 45.6766 62.1059 53.7317 56.2134 59.6731C50.321 65.6144 42.3327 68.9574 33.9999 68.9693Z" fill="#1185D1" stroke="#1185D1" stroke-width="0.2"/>
<path d="M26.4352 17.6469V39.182H36.1477C39.8477 39.182 42.8057 38.2185 45.0219 36.2914C47.238 34.3643 48.3461 31.7435 48.3461 28.4289C48.3461 25.1143 47.238 22.4935 45.0219 20.5664C42.825 18.6201 39.8669 17.6469 36.1477 17.6469H26.4352ZM39.2406 48.9234H26.4352V58H25.0188V48.9234H19.2375V47.6227H25.0188V40.5117H19.2375V39.182H25.0188V16.2883H36.2633C40.368 16.2883 43.644 17.3867 46.0914 19.5836C48.5581 21.7805 49.7914 24.7289 49.7914 28.4289C49.7914 32.1096 48.5581 35.0484 46.0914 37.2453C43.644 39.4229 40.368 40.5117 36.2633 40.5117H26.4352V47.6227H39.2406V48.9234Z" fill="#1185D1"/>
<path d="M26.4352 17.6469V17.3385H26.1268V17.6469H26.4352ZM26.4352 39.182H26.1268V39.4904H26.4352V39.182ZM45.0219 36.2914L44.8196 36.0587L45.0219 36.2914ZM45.0219 20.5664L44.8174 20.7972L44.8196 20.7991L45.0219 20.5664ZM39.2406 48.9234V49.2318H39.549V48.9234H39.2406ZM26.4352 48.9234V48.6151H26.1268V48.9234H26.4352ZM26.4352 58V58.3083H26.7435V58H26.4352ZM25.0188 58H24.7104V58.3083H25.0188V58ZM25.0188 48.9234H25.3271V48.6151H25.0188V48.9234ZM19.2375 48.9234H18.9292V49.2318H19.2375V48.9234ZM19.2375 47.6227V47.3143H18.9292V47.6227H19.2375ZM25.0188 47.6227V47.931H25.3271V47.6227H25.0188ZM25.0188 40.5117H25.3271V40.2034H25.0188V40.5117ZM19.2375 40.5117H18.9292V40.8201H19.2375V40.5117ZM19.2375 39.182V38.8737H18.9292V39.182H19.2375ZM25.0188 39.182V39.4904H25.3271V39.182H25.0188ZM25.0188 16.2883V15.98H24.7104V16.2883H25.0188ZM46.0914 19.5836L45.8854 19.8131L45.8863 19.8139L46.0914 19.5836ZM46.0914 37.2453L46.2964 37.4757L46.2965 37.4756L46.0914 37.2453ZM26.4352 40.5117V40.2034H26.1268V40.5117H26.4352ZM26.4352 47.6227H26.1268V47.931H26.4352V47.6227ZM39.2406 47.6227H39.549V47.3143H39.2406V47.6227ZM26.1268 17.6469V39.182H26.7435V17.6469H26.1268ZM26.4352 39.4904H36.1477V38.8737H26.4352V39.4904ZM36.1477 39.4904C39.9021 39.4904 42.9385 38.5116 45.2242 36.5241L44.8196 36.0587C42.6729 37.9254 39.7932 38.8737 36.1477 38.8737V39.4904ZM45.2242 36.5241C47.5168 34.5305 48.6544 31.8199 48.6544 28.4289H48.0378C48.0378 31.6671 46.9593 34.1981 44.8196 36.0587L45.2242 36.5241ZM48.6544 28.4289C48.6544 25.0379 47.5168 22.3273 45.2242 20.3337L44.8196 20.7991C46.9593 22.6597 48.0378 25.1908 48.0378 28.4289H48.6544ZM45.2263 20.3356C42.9592 18.3271 39.9215 17.3385 36.1477 17.3385V17.9552C39.8124 17.9552 42.6908 18.9131 44.8174 20.7972L45.2263 20.3356ZM36.1477 17.3385H26.4352V17.9552H36.1477V17.3385ZM39.2406 48.6151H26.4352V49.2318H39.2406V48.6151ZM26.1268 48.9234V58H26.7435V48.9234H26.1268ZM26.4352 57.6917H25.0188V58.3083H26.4352V57.6917ZM25.3271 58V48.9234H24.7104V58H25.3271ZM25.0188 48.6151H19.2375V49.2318H25.0188V48.6151ZM19.5458 48.9234V47.6227H18.9292V48.9234H19.5458ZM19.2375 47.931H25.0188V47.3143H19.2375V47.931ZM25.3271 47.6227V40.5117H24.7104V47.6227H25.3271ZM25.0188 40.2034H19.2375V40.8201H25.0188V40.2034ZM19.5458 40.5117V39.182H18.9292V40.5117H19.5458ZM19.2375 39.4904H25.0188V38.8737H19.2375V39.4904ZM25.3271 39.182V16.2883H24.7104V39.182H25.3271ZM25.0188 16.5966H36.2633V15.98H25.0188V16.5966ZM36.2633 16.5966C40.3116 16.5966 43.5077 17.6787 45.8854 19.813L46.2974 19.3541C43.7803 17.0947 40.4244 15.98 36.2633 15.98V16.5966ZM45.8863 19.8139C48.279 21.9448 49.4831 24.8051 49.4831 28.4289H50.0997C50.0997 24.6527 48.8371 21.6161 46.2965 19.3533L45.8863 19.8139ZM49.4831 28.4289C49.4831 32.0329 48.2794 34.8838 45.8863 37.0151L46.2965 37.4756C48.8368 35.2131 50.0997 32.1864 50.0997 28.4289H49.4831ZM45.8864 37.015C43.5087 39.1306 40.3122 40.2034 36.2633 40.2034V40.8201C40.4237 40.8201 43.7793 39.7153 46.2964 37.4757L45.8864 37.015ZM36.2633 40.2034H26.4352V40.8201H36.2633V40.2034ZM26.1268 40.5117V47.6227H26.7435V40.5117H26.1268ZM26.4352 47.931H39.2406V47.3143H26.4352V47.931ZM38.9323 47.6227V48.9234H39.549V47.6227H38.9323Z" fill="#1185D1"/>
</svg>
