<svg width="68" height="68" viewBox="0 0 68 68" fill="none" xmlns="http://www.w3.org/2000/svg">
<path d="M48.7344 19.2616L48.7345 19.2616L48.732 19.2593C48.3357 18.8885 47.8132 18.6822 47.2705 18.6822C46.7277 18.6822 46.2052 18.8885 45.8089 19.2593L45.8088 19.2593L45.8065 19.2616L29.0102 36.0566L22.1879 29.2342L22.188 29.2342L22.1855 29.2319C21.7892 28.8611 21.2667 28.6548 20.7239 28.6548C20.1812 28.6548 19.6587 28.8611 19.2624 29.2319L19.2623 29.2319L19.26 29.2342L15.0807 33.4135C14.8803 33.6009 14.7204 33.8275 14.6111 34.0792C14.5015 34.3315 14.4449 34.6036 14.4449 34.8786C14.4449 35.1537 14.5015 35.4258 14.6111 35.678C14.7204 35.9297 14.8803 36.1563 15.0807 36.3438L27.5448 48.8079C27.5449 48.808 27.5451 48.8081 27.5452 48.8083C27.7359 49.0032 27.9636 49.1582 28.215 49.264C28.4665 49.3699 28.7367 49.4244 29.0096 49.4244C29.2825 49.4244 29.5527 49.3699 29.8042 49.264C30.0556 49.1582 30.2833 49.0032 30.474 48.8083C30.4741 48.8081 30.4742 48.808 30.4744 48.8079L52.9127 26.3695C52.9129 26.3694 52.913 26.3692 52.9131 26.3691C53.1081 26.1784 53.263 25.9507 53.3688 25.6993C53.4747 25.4478 53.5293 25.1776 53.5293 24.9047C53.5293 24.6318 53.4747 24.3616 53.3688 24.1101C53.263 23.8587 53.1081 23.631 52.9131 23.4403C52.913 23.4402 52.9129 23.4401 52.9127 23.4399L48.7344 19.2616ZM51.7427 25.2054L29.3071 47.641C29.307 47.6411 29.307 47.6412 29.3069 47.6412C29.218 47.7284 29.0984 47.7772 28.9739 47.7772C28.8494 47.7772 28.7299 47.7284 28.641 47.6412C28.6409 47.6412 28.6408 47.6411 28.6407 47.641L16.176 35.1762C16.1759 35.1761 16.1758 35.176 16.1757 35.1759C16.0885 35.087 16.0397 34.9675 16.0397 34.843C16.0397 34.7185 16.0885 34.599 16.1757 34.5101C16.1758 34.51 16.1759 34.5099 16.176 34.5098L20.3545 30.3312C20.3547 30.331 20.3549 30.3308 20.3551 30.3307C20.4348 30.2539 20.5413 30.2109 20.652 30.2109C20.7627 30.2109 20.8692 30.2539 20.9489 30.3307C20.9491 30.3308 20.9493 30.331 20.9495 30.3312L28.8683 38.25L28.939 38.3207L29.0097 38.25L46.901 20.3561L46.9011 20.3562L46.9054 20.3514C46.9418 20.3099 46.9867 20.2766 47.037 20.2538C47.0874 20.2311 47.142 20.2193 47.1972 20.2193C47.2524 20.2193 47.307 20.2311 47.3574 20.2538C47.4077 20.2766 47.4526 20.3099 47.489 20.3514L47.4889 20.3515L47.4934 20.3561L51.6722 24.5349C51.7468 24.6172 51.789 24.7237 51.7911 24.8347L51.7915 24.8515L51.7972 24.8672C51.8181 24.9243 51.8239 24.9858 51.8138 25.0458C51.804 25.1042 51.7795 25.1591 51.7427 25.2054Z" fill="#1185D1" stroke="#1185D1" stroke-width="0.2"/>
<path d="M34.0002 0.9H34C27.4534 0.9 21.0539 2.84128 15.6106 6.47835C10.1674 10.1154 5.92486 15.2849 3.4196 21.3332C0.914342 27.3814 0.258851 34.0367 1.53602 40.4575C2.81319 46.8783 5.96566 52.7761 10.5948 57.4052C15.2239 62.0343 21.1217 65.1868 27.5425 66.464C33.9633 67.7411 40.6186 67.0857 46.6668 64.5804C52.7151 62.0751 57.8846 57.8326 61.5216 52.3894C65.1587 46.9461 67.1 40.5466 67.1 34V33.9998C67.0867 25.2253 63.5951 16.814 57.3906 10.6094C51.186 4.40487 42.7747 0.913307 34.0002 0.9ZM33.9999 65.4335C27.783 65.4334 21.7057 63.5899 16.5365 60.136C11.3673 56.682 7.33839 51.7728 4.95926 46.0291C2.58014 40.2853 1.95765 33.9651 3.17052 27.8676C4.38339 21.7701 7.37714 16.1692 11.7732 11.7732C16.1692 7.37712 21.7701 4.38337 27.8676 3.1705C33.9651 1.95764 40.2854 2.58013 46.0291 4.95925C51.7728 7.33838 56.682 11.3673 60.136 16.5365C63.5899 21.7057 65.4334 27.7829 65.4335 33.9999C65.4216 42.3329 62.1061 50.3213 56.2137 56.2137C50.3213 62.1061 42.3329 65.4216 33.9999 65.4335Z" fill="#1185D1" stroke="#1185D1" stroke-width="0.2"/>
</svg>
