<svg width="68" height="68" viewBox="0 0 68 68" fill="none" xmlns="http://www.w3.org/2000/svg">
<path d="M34.0002 0.9H34C27.4534 0.9 21.0539 2.84128 15.6106 6.47835C10.1674 10.1154 5.92486 15.2849 3.4196 21.3332C0.914342 27.3814 0.258851 34.0367 1.53602 40.4575C2.81319 46.8783 5.96566 52.7761 10.5948 57.4052C15.2239 62.0343 21.1217 65.1868 27.5425 66.464C33.9633 67.7411 40.6186 67.0857 46.6668 64.5804C52.7151 62.0751 57.8846 57.8326 61.5216 52.3894C65.1587 46.9461 67.1 40.5466 67.1 34V33.9998C67.0867 25.2253 63.5951 16.814 57.3906 10.6094C51.186 4.40487 42.7747 0.913307 34.0002 0.9ZM33.9999 65.4335C27.783 65.4334 21.7057 63.5899 16.5365 60.136C11.3673 56.682 7.33839 51.7728 4.95926 46.0291C2.58014 40.2853 1.95765 33.9651 3.17052 27.8676C4.38339 21.7701 7.37714 16.1692 11.7732 11.7732C16.1692 7.37712 21.7701 4.38337 27.8676 3.1705C33.9651 1.95764 40.2854 2.58013 46.0291 4.95925C51.7728 7.33838 56.682 11.3673 60.136 16.5365C63.5899 21.7057 65.4334 27.7829 65.4335 33.9999C65.4216 42.3329 62.1061 50.3213 56.2137 56.2137C50.3213 62.1061 42.3329 65.4216 33.9999 65.4335Z" fill="#1185D1" stroke="#1185D1" stroke-width="0.2"/>
<path fill-rule="evenodd" clip-rule="evenodd" d="M34.6552 12.0474C34.4171 12.1299 34.2185 12.292 34.1056 12.4962C34.054 12.5895 34.0088 12.8918 33.9788 13.3446C33.9277 14.1154 33.8736 14.4307 33.7083 14.9214C33.4452 15.7021 32.9764 16.3312 32.0817 17.1039C30.8593 18.1597 29.9336 19.07 29.5899 19.5541C29.0447 20.3223 28.6809 21.1308 28.4961 21.9851C28.3833 22.5068 28.3018 23.5443 28.3559 23.7699C28.4881 24.3213 29.0789 24.6405 29.6152 24.4504C29.8242 24.3763 30.098 24.1153 30.158 23.933C30.1857 23.8487 30.2234 23.5439 30.2416 23.2557C30.3225 21.978 30.5919 21.1792 31.197 20.4222C31.3346 20.25 31.7604 19.8345 32.143 19.499C33.9219 17.9391 34.3293 17.5209 34.8392 16.7308C35.4987 15.7091 35.8929 14.3648 35.8938 13.1352C35.894 12.7682 35.8718 12.6305 35.7869 12.474C35.5826 12.0974 35.0694 11.904 34.6552 12.0474ZM39.3171 16.5264C39.1166 16.6302 38.868 16.8856 38.8182 17.0388C38.7908 17.1231 38.7526 17.4054 38.7334 17.6662C38.6459 18.8503 38.4427 19.2085 37.3004 20.1925C35.6797 21.5886 35.1601 22.4344 34.9838 23.9638C34.8938 24.7438 35.023 25.0865 35.4867 25.2976C35.7669 25.4252 36.0131 25.4283 36.2921 25.3078C36.6998 25.1318 36.8205 24.896 36.8707 24.1779C36.9433 23.1377 37.14 22.7736 38.0661 21.9647C39.3372 20.8543 39.6842 20.4642 40.0916 19.6874C40.3947 19.1095 40.5374 18.6221 40.6225 17.8746C40.7103 17.1042 40.5772 16.7537 40.119 16.5492C39.9126 16.4572 39.4749 16.4447 39.3171 16.5264ZM20.3982 27.2279C20.1724 27.3199 19.9923 27.4731 19.8753 27.6724C19.795 27.8093 19.7872 28.3318 19.7844 33.7609C19.7826 37.0273 19.7986 39.958 19.8198 40.2737C19.9765 42.605 21.2767 44.9959 23.1746 46.4429L23.5898 46.7594L20.1192 46.7729L16.6486 46.7865L16.4228 46.927C16.0062 47.1863 15.9115 47.5938 16.0772 48.4154C16.4502 50.2658 18.2387 51.963 20.5853 52.6934C21.6229 53.0163 20.9486 52.9998 33.0549 52.9998C45.2609 52.9998 44.4873 53.0203 45.6058 52.6658C47.9347 51.9274 49.6529 50.2811 50.0406 48.4165C50.2212 47.5479 50.0765 47.0787 49.5595 46.8554C49.3608 46.7695 49.1298 46.7635 45.9508 46.7604L42.5543 46.757L42.7931 46.5721C43.9103 45.7071 44.7661 44.6818 45.3932 43.4571C45.8524 42.5602 46.0894 41.8055 46.2694 40.6668C46.2979 40.4863 46.2987 40.4859 46.6229 40.4514C47.0993 40.4007 47.8523 40.2058 48.3584 40.0021C50.4837 39.1466 51.6479 37.3159 51.9145 34.4097C52.0151 33.3136 52.0282 32.335 51.9472 31.9709C51.7307 30.998 50.8936 30.169 49.8757 29.9197C49.6288 29.8592 49.2284 29.8433 47.9563 29.8433H46.3488L46.3485 28.9325C46.3483 28.4316 46.3235 27.9382 46.2934 27.8361C46.22 27.5879 46.0024 27.354 45.7407 27.2422C45.5345 27.1541 45.0421 27.1506 33.0549 27.1514C22.0338 27.1522 20.562 27.161 20.3982 27.2279ZM44.4376 34.3601C44.4364 37.6068 44.414 39.9899 44.3819 40.3114C44.0465 43.6626 41.2466 46.3451 37.6985 46.7146C37.3707 46.7488 35.6253 46.7607 32.7099 46.7488C28.3471 46.731 28.2123 46.7276 27.7376 46.6234C26.3429 46.3173 25.2548 45.8026 24.2616 44.979C22.9957 43.9292 22.2068 42.6364 21.8168 40.9724C21.7083 40.5093 21.7052 40.3646 21.6861 34.7216L21.6665 28.945H33.0531H44.4396L44.4376 34.3601ZM49.5808 31.7122C49.8077 31.8226 50.054 32.1153 50.0964 32.3251C50.1529 32.6042 50.0264 34.4257 49.906 35.0681C49.7739 35.7726 49.4997 36.5726 49.2392 37.0134C48.9447 37.5118 48.3346 38.0671 47.8335 38.2931C47.472 38.4561 46.6754 38.6755 46.4417 38.6763C46.3541 38.6767 46.3488 38.476 46.3488 35.1583V31.6399H47.8904C49.1329 31.6399 49.4609 31.654 49.5808 31.7122ZM47.8994 48.6455C47.4756 49.617 46.5372 50.4039 45.2341 50.8804C44.2809 51.229 45.1385 51.2073 32.8691 51.1918L21.8042 51.1778L21.4327 51.0667C19.9602 50.6265 18.9017 49.8969 18.3905 48.9699L18.1635 48.5581H33.0505C47.2077 48.5581 47.9356 48.5624 47.8994 48.6455Z" fill="#1185D1"/>
</svg>
