<svg width="25" height="27" viewBox="0 0 25 27" fill="none" xmlns="http://www.w3.org/2000/svg">
<path d="M20.036 26C19.0505 26 17.8603 25.7393 16.5523 25.2188C13.6819 24.076 10.5607 21.819 7.76125 18.8641C4.96183 15.9091 2.82363 12.6136 1.74099 9.583C0.755534 6.82903 0.753144 4.56868 1.73302 3.53437C1.87482 3.38469 2.01902 3.22491 2.16719 3.06094C3.06183 2.06867 4.09667 0.941014 5.41194 1.0024C6.33605 1.04276 7.23068 1.64822 8.14842 2.85071C10.8538 6.40354 9.63417 7.66994 8.22251 9.13816L7.97236 9.39884C7.74134 9.6427 7.30398 10.7712 11.3661 15.0581C12.6933 16.4582 13.8229 17.4825 14.7255 18.1022C15.2951 18.4924 16.3117 19.081 16.7283 18.6412L16.9793 18.3738C18.3686 16.8854 19.5684 15.6022 22.9334 18.4571C24.0734 19.4241 24.6462 20.3685 24.6844 21.3447C24.7394 22.7591 23.6719 23.8288 22.7303 24.7723C22.5757 24.9278 22.4243 25.0784 22.2841 25.2264C21.795 25.7418 21.0175 26 20.036 26ZM5.31714 1.83994C4.36594 1.83994 3.50556 2.79521 2.74476 3.63948C2.59101 3.80934 2.44204 3.975 2.29625 4.12889C1.56652 4.89832 1.64141 6.92322 2.48585 9.287C3.52946 12.2075 5.60313 15.3979 8.32448 18.2704C11.0458 21.1429 14.0675 23.331 16.8335 24.4326C19.0728 25.3248 20.9912 25.4021 21.7209 24.631C21.8667 24.478 22.022 24.3216 22.1814 24.1618C23.0003 23.3402 23.9284 22.4102 23.8886 21.3775C23.8607 20.6687 23.3716 19.906 22.4339 19.1113C19.6297 16.7332 18.8466 17.5741 17.5465 18.9633L17.2915 19.2349C16.6726 19.8917 15.6632 19.7479 14.2914 18.8061C13.3434 18.1552 12.1691 17.0931 10.8029 15.6518C7.43224 12.0939 6.35358 9.91768 7.40913 8.80264L7.66326 8.53691C8.98411 7.16456 9.78075 6.33626 7.52704 3.37628C6.77341 2.38821 6.05085 1.8719 5.37928 1.84162C5.35856 1.84078 5.33705 1.83994 5.31714 1.83994Z" fill="#5B5B5B" stroke="#5B5B5B" stroke-width="0.413788"/>
<path d="M20.1736 11.3403C20.1234 11.3403 20.0732 11.3302 20.0238 11.3092C19.8199 11.2218 19.7211 10.977 19.8048 10.7626C20.3114 9.44408 20.0215 7.94138 19.0687 6.93482C18.0896 5.90134 16.5847 5.61459 15.322 6.21332C15.1237 6.30834 14.8855 6.21584 14.7954 6.00393C14.7046 5.79202 14.7931 5.54312 14.9938 5.44809C16.556 4.70137 18.4194 5.06044 19.6319 6.34114C20.8117 7.58652 21.1694 9.44576 20.5425 11.0788C20.4803 11.2403 20.3306 11.3403 20.1736 11.3403Z" fill="#5B5B5B" stroke="#5B5B5B" stroke-width="0.413788"/>
<path d="M23.7305 12.8622C23.6803 12.8622 23.6301 12.8521 23.5807 12.8311C23.3759 12.7437 23.278 12.499 23.3616 12.2845C24.449 9.45319 23.83 6.22832 21.7834 4.06803C19.6819 1.84972 16.4499 1.22745 13.7413 2.51993C13.5405 2.61243 13.3047 2.52161 13.2139 2.3097C13.1239 2.09695 13.2123 1.84804 13.4131 1.75218C16.422 0.317593 20.0117 1.00798 22.3467 3.47267C24.6203 5.87262 25.3086 9.45487 24.0993 12.5999C24.0372 12.763 23.8874 12.8622 23.7305 12.8622Z" fill="#5B5B5B" stroke="#5B5B5B" stroke-width="0.413788"/>
</svg>
