<svg width="36" height="36" viewBox="0 0 36 36" fill="none" xmlns="http://www.w3.org/2000/svg">
<circle cx="17.9605" cy="17.9605" r="17.9605" fill="#27ACC9"/>
<path d="M10.2928 22.2742L13.02 21.0897L12.2547 21.8567C12.0095 22.102 11.8721 22.4342 11.8721 22.7785V27.8833C11.8721 29.0521 13.2844 29.6191 14.0983 28.8051L16.836 26.0675L22.8017 29.0504C23.5739 29.4365 24.5079 28.9791 24.6679 28.1164L28.0717 9.40005C28.2508 8.39302 27.2594 7.57904 26.3115 7.95124L4.19491 16.6076C3.20353 16.9937 3.07134 18.3504 3.96881 18.9226L9.07184 22.1785C9.43708 22.4116 9.89799 22.4481 10.2928 22.2742ZM25.0871 11.235L22.4138 25.9405L17.1612 23.316C16.6533 23.062 16.0481 23.1681 15.6567 23.5612L14.481 24.737V23.3229L19.711 18.0929C20.725 17.0789 19.584 15.4058 18.2691 15.9745L9.89103 19.6096L7.53606 18.1069L25.0871 11.235Z" fill="white"/>
</svg>
