<svg width="36" height="36" viewBox="0 0 36 36" fill="none" xmlns="http://www.w3.org/2000/svg">
<circle cx="18.0387" cy="17.9605" r="17.9605" fill="#48C162"/>
<path fill-rule="evenodd" clip-rule="evenodd" d="M26.1393 9.44159C23.9216 7.22393 20.975 6 17.8365 6C11.3677 6 6.09976 11.2641 6.09976 17.7329C6.09592 19.8009 6.63691 21.8191 7.66516 23.5993L6 29.6806L12.2233 28.0462C13.9345 28.9823 15.8682 29.4734 17.8326 29.4773H17.8365C24.3053 29.4773 29.5694 24.2132 29.5732 17.7406C29.5732 14.6059 28.3531 11.6593 26.1393 9.44159ZM17.8365 27.4937H17.8326C16.0831 27.4937 14.3642 27.0217 12.8678 26.1354L12.511 25.9244L8.8162 26.8913L9.80225 23.2924L9.57204 22.924C8.59367 21.3701 8.07954 19.5745 8.07954 17.7329C8.07954 12.3575 12.4573 7.98362 17.8403 7.98362C20.4455 7.98362 22.8934 9.00036 24.735 10.842C26.5767 12.6875 27.5896 15.1354 27.5896 17.7406C27.5896 23.1197 23.2118 27.4937 17.8365 27.4937ZM23.1849 20.1884C22.8934 20.0426 21.4507 19.3328 21.1821 19.2369C20.9136 19.1371 20.7179 19.0911 20.5222 19.3827C20.3265 19.6781 19.7664 20.3381 19.5937 20.5337C19.4249 20.7256 19.2522 20.7524 18.9607 20.6066C18.6652 20.4608 17.7214 20.1501 16.601 19.1487C15.7301 18.3736 15.1392 17.4106 14.9704 17.119C14.7977 16.8236 14.9512 16.6663 15.097 16.5205C15.2313 16.39 15.3924 16.179 15.5382 16.0063C15.684 15.8375 15.7339 15.7147 15.8337 15.5191C15.9296 15.3234 15.8797 15.1507 15.8068 15.0049C15.7339 14.8591 15.1469 13.4127 14.9013 12.8256C14.6635 12.254 14.4217 12.3345 14.2414 12.323C14.0726 12.3153 13.8769 12.3153 13.6812 12.3153C13.4856 12.3153 13.1671 12.3882 12.8985 12.6837C12.63 12.9753 11.8741 13.6851 11.8741 15.1277C11.8741 16.5703 12.9254 17.9669 13.0712 18.1626C13.217 18.3544 15.1392 21.3164 18.082 22.5864C18.7803 22.8895 19.3251 23.0698 19.751 23.2041C20.4532 23.4267 21.0939 23.396 21.6004 23.3231C22.1644 23.2387 23.3346 22.6133 23.5801 21.9265C23.8219 21.2435 23.8219 20.6565 23.749 20.5337C23.6761 20.411 23.4804 20.3381 23.1849 20.1884Z" fill="white"/>
</svg>
