<svg width="393" height="59" viewBox="0 0 393 59" fill="none" xmlns="http://www.w3.org/2000/svg">
<path d="M270.015 1.8108C270.363 1.75386 272.261 1.33815 274.234 0.886856C279.279 -0.266924 286.037 -0.299992 288.519 0.817366C289.531 1.27285 290.859 1.66722 291.472 1.69401C292.346 1.7321 292.404 1.78611 291.743 1.94394C289.7 2.43166 290.495 2.80298 294.144 3.06715C296.33 3.22497 299.424 3.15967 301.122 2.91937C303.851 2.53338 311.079 2.87961 312.098 3.4452C312.273 3.54232 313.745 3.44561 315.369 3.23043C316.993 3.01524 320.662 2.80592 323.523 2.76573C327.821 2.70502 328.813 2.57147 329.237 1.99835C329.69 1.3842 329.99 1.36537 331.841 1.83467C333.166 2.17042 336.444 2.34291 340.788 2.30565C346.986 2.25206 347.644 2.31485 347.644 2.95915C347.644 3.59632 348.065 3.64656 351.64 3.43514C354.634 3.25764 355.806 3.33802 356.314 3.7554C356.8 4.15646 357.072 4.18117 357.283 3.84332C357.49 3.50966 358.914 3.46864 362.199 3.7014C367.068 4.04595 368.331 3.93039 368.837 3.09395C369.545 1.92384 379.254 1.68396 385.365 2.68535C389.08 3.29448 391.562 4.0698 390.045 4.14766C389.323 4.1845 389.369 4.28163 390.361 4.8154C391.618 5.49193 391.934 6.98607 390.889 7.3101C388.895 7.92844 388.736 8.04525 389.623 8.23991C391.958 8.75233 390.94 9.18101 387.387 9.18101C384.218 9.18101 383.505 9.06588 383.505 8.55305C383.505 7.83633 382.617 7.71786 381.981 8.34917C381.692 8.63552 381.151 8.63511 380.315 8.3475C379.52 8.07454 377.941 8.05319 375.911 8.28763L372.747 8.65394L375.278 8.74562C380.078 8.9202 389.199 9.86131 388.357 10.0958C387.626 10.2992 387.696 10.4051 388.885 10.8941C389.638 11.2039 390.256 11.5844 390.256 11.7393C390.256 11.8942 389.354 12.2074 388.252 12.4355C386.394 12.8199 386.353 12.8533 387.699 12.8994C389.047 12.9454 389.094 12.9907 388.348 13.5316C387.591 14.0812 387.638 14.1583 389.186 14.8921C390.089 15.32 390.901 15.8935 390.99 16.1665C391.192 16.7869 388.571 17.5375 386.037 17.5844C384.261 17.6175 384.214 17.6472 385.298 18.0403C385.937 18.2718 386.459 18.6336 386.459 18.8446C386.459 19.0556 386.886 19.2502 387.408 19.277C388.27 19.321 388.28 19.3448 387.513 19.5349C387.049 19.65 386.575 19.8832 386.459 20.0532C386.343 20.2236 385.678 20.6652 384.982 21.0349L383.716 21.7068L385.931 21.7236C387.927 21.7386 388.151 21.8332 388.195 22.6822C388.274 24.2069 388.091 25.2653 387.661 25.7869C387.384 26.1218 387.517 26.3567 388.084 26.535C388.921 26.7988 388.971 27.176 388.356 28.5952C388.113 29.1541 388.23 29.4986 388.761 29.7937C389.171 30.0215 389.866 30.5632 390.303 30.9977C390.741 31.4323 391.386 31.7877 391.736 31.7877C392.731 31.7877 391.591 33.3321 390.162 33.9195C388.505 34.6006 388.568 35.9742 390.256 35.9742C390.952 35.9742 391.521 36.1626 391.521 36.3928C391.521 36.6231 391.32 36.8115 391.075 36.8115C390.829 36.8115 390.746 37.0003 390.889 37.2309C391.033 37.4616 390.691 37.8237 390.13 38.0356C389.125 38.4144 388.276 40.6094 388.806 41.4596C388.934 41.666 388.828 41.8352 388.568 41.8352C388.309 41.8352 388.214 42.0236 388.357 42.2538C388.505 42.4912 388.15 42.6725 387.538 42.6725C386.945 42.6725 386.459 42.8608 386.459 43.0911C386.459 43.3213 387.076 43.5127 387.83 43.516C389.63 43.5244 390.361 44.0268 390.503 45.3539C390.605 46.2979 390.462 46.4402 389.408 46.4402C387.615 46.4402 387.5 47.1427 389.194 47.751C391.044 48.4146 391.081 48.8495 389.306 49.068C388.232 49.2003 388.361 49.2514 389.905 49.3038C390.988 49.3406 392.174 49.4846 392.539 49.624C393.398 49.951 392.98 50.6267 391.918 50.6267C391.468 50.6267 391.1 50.9021 391.1 51.2383C391.1 51.5979 390.404 52.0362 389.412 52.3012C388.484 52.5491 387.724 52.951 387.724 53.1938C387.724 53.4785 386.114 53.6208 383.189 53.5949C375.195 53.5237 374.544 53.5166 367.895 53.4316C363.58 53.3763 361.042 53.1699 360.434 52.8245C359.276 52.1669 356.741 52.1472 355.707 52.7881C355.106 53.1607 354.339 53.149 352.443 52.7392C351.08 52.444 349.68 52.2255 349.332 52.2527C348.984 52.2799 345.963 52.4046 342.62 52.5294C337.172 52.7329 336.597 52.6893 337.081 52.1103C337.531 51.5728 337.507 51.464 336.937 51.464C336.561 51.464 336.253 51.2555 336.253 51.0005C336.253 50.7456 335.973 50.6434 335.631 50.7736C335.289 50.9042 334.832 50.6953 334.614 50.3093C334.26 49.681 333.875 49.6575 330.911 50.0845C328.73 50.3989 326.897 50.4295 325.529 50.175C324.388 49.9623 320.116 49.9079 316.036 50.0544C311.957 50.2005 307.167 50.2817 305.392 50.2344C303.459 50.1825 302.054 50.3282 301.887 50.5965C301.733 50.8435 301.144 51.0453 300.577 51.0453C300.011 51.0453 299.548 51.2199 299.548 51.4334C299.548 51.6465 299.215 51.9073 298.809 52.0128C298.403 52.1179 299.21 52.2393 300.602 52.282C301.995 52.3251 303.513 52.5369 303.978 52.7534C304.561 53.0255 303.867 53.0975 301.724 52.9866C300.02 52.8982 297.837 53.0025 296.872 53.2181C295.907 53.4332 294.52 53.4986 293.789 53.3629C292.723 53.1653 292.503 52.9527 292.678 52.2904C292.863 51.5858 293.277 51.4594 295.483 51.4321L298.071 51.4003L296.594 50.836C295.782 50.5258 293.947 50.2574 292.516 50.2398C291.085 50.2223 289.851 50.0473 289.774 49.8509C289.593 49.3917 285.203 48.816 285.203 49.2519C285.203 49.4323 282.972 49.6027 280.246 49.6299C277.52 49.6575 274.624 49.7023 273.812 49.7295C269.13 49.8878 257.755 49.7731 256.407 49.5537C255.536 49.4122 254.937 49.1133 255.077 48.8889C255.236 48.6335 253.779 48.505 251.176 48.5443C246.747 48.6117 243.163 48.4033 242.816 48.0587C242.699 47.9428 240.441 47.921 237.798 48.0106C235.155 48.0997 231.604 47.9817 229.908 47.7485C228.212 47.5153 226.662 47.4241 226.464 47.5455C226.102 47.7673 220.39 47.7498 216.856 47.5162C214.968 47.391 202.845 47.2248 198.162 47.2595C196.504 47.2716 195.803 47.4253 195.995 47.7339C196.194 48.0537 195.475 48.124 193.594 47.9691C179.164 46.7789 177.197 46.7751 177.197 47.9385C177.197 48.2659 176.912 48.5335 176.564 48.5335C175.797 48.5335 175.726 47.8582 176.459 47.5283C176.749 47.3977 176.037 47.3847 174.877 47.4994C173.717 47.6141 172.388 47.6916 171.923 47.6715C168.415 47.5187 141.439 47.4308 142.577 47.576C143.376 47.6778 144.374 48.0005 144.795 48.2932C145.435 48.7382 144.474 48.8818 138.912 49.1715C128.459 49.7153 127.409 49.6918 123.827 48.8324C118.457 47.5442 116.391 47.2775 113.912 47.5513C110.485 47.9306 110.058 48.3777 112.799 48.7172C114.914 48.9797 115.178 49.1196 115.178 49.9744C115.178 50.8096 114.914 50.9674 113.174 51.173C111.789 51.3363 111.039 51.2412 110.744 50.8657C110.471 50.5174 108.657 50.2093 105.707 50.01C103.171 49.8384 100.76 49.4896 100.349 49.2351C99.8017 48.8956 99.2313 48.8989 98.2137 49.2477C97.4504 49.5093 95.7253 49.9585 94.3803 50.2461C91.9097 50.774 90.771 51.464 92.3708 51.464C92.8484 51.464 93.2395 51.6674 93.2395 51.9161C93.2395 52.2276 95.4688 52.3255 100.406 52.2301C104.852 52.1443 107.574 52.246 107.576 52.4984C107.578 52.7324 106.233 52.8689 104.397 52.8199C102.403 52.7672 101.311 52.889 101.472 53.1465C101.612 53.3721 103.235 53.5572 105.078 53.5572C107.774 53.5572 108.428 53.4345 108.428 52.9292C108.428 52.5838 108.697 52.3012 109.026 52.3012C109.355 52.3012 109.927 52.1861 110.297 52.0454C110.789 51.8579 110.899 51.9701 110.708 52.4641C110.494 53.0179 110.762 53.1385 112.208 53.1385C113.176 53.1385 114.374 52.9229 114.869 52.66C115.546 52.3008 115.811 52.3008 115.932 52.66C116.026 52.9413 117.044 53.1385 118.402 53.1385C119.835 53.1385 120.614 53.2976 120.452 53.5572C120.305 53.7929 120.643 53.9758 121.226 53.9758C121.795 53.9758 122.358 53.7217 122.479 53.4107C122.639 52.997 123.668 52.8455 126.321 52.8455C129.361 52.8455 129.945 52.9535 129.946 53.5153C129.947 54.0566 130.493 54.1977 132.794 54.25C134.359 54.2852 135.402 54.2224 135.11 54.1093C134.819 53.9967 134.688 53.7313 134.819 53.5203C134.961 53.2926 135.349 53.288 135.771 53.5094C136.195 53.7313 137.34 53.7167 138.594 53.4734C141.154 52.9761 144.773 53.0322 145.322 53.5777C145.543 53.7966 147.157 53.9637 148.909 53.9494C151.38 53.9285 151.868 53.8326 151.084 53.5216C149.539 52.9083 150.304 52.6219 152.582 52.9606C154.17 53.1971 154.436 53.337 153.78 53.5907C152.86 53.9473 156.561 54.1248 160.954 53.9348C162.346 53.8749 164.055 53.8435 164.751 53.8657C169.174 54.0055 186.851 53.3964 186.672 53.1105C186.553 52.9187 188.118 52.7617 190.149 52.7617C192.604 52.7617 193.634 52.8932 193.22 53.1532C192.812 53.4094 194.234 53.5467 197.343 53.5509C200.221 53.5546 202.089 53.7221 202.089 53.9758C202.089 54.2061 201.377 54.397 200.507 54.3999C197.026 54.4116 163.396 54.7415 162.144 54.7762C161.407 54.7963 160.511 55.1032 160.153 55.4582C159.276 56.3286 152.449 56.1791 152.636 55.2937C152.732 54.8386 152.235 54.7913 150.105 55.0513C148.647 55.2296 145.211 55.3418 142.47 55.3017C139.612 55.2594 137.586 55.3883 137.721 55.6039C138.179 56.339 135.921 56.4462 124.671 56.2227C118.406 56.0983 112.065 56.0263 110.581 56.0627C108.885 56.1042 107.767 55.9439 107.572 55.6315C107.333 55.2477 106.91 55.2493 105.722 55.6387C104.875 55.9158 102.526 56.3215 100.503 56.5396C98.4807 56.7577 95.8152 57.0482 94.5798 57.1851C93.3336 57.3229 91.9253 57.2408 91.4156 57.0005C89.7757 56.2268 71.3316 55.5893 66.7514 56.1477C63.6357 56.5274 62.6649 56.527 62.5371 56.1461C62.3346 55.5436 58.6438 55.4712 58.6438 56.069C58.6438 56.2993 58.2641 56.4877 57.8 56.4877C57.3359 56.4877 56.9562 56.6761 56.9562 56.9063C56.9562 57.1366 56.1968 57.325 55.2686 57.325C54.2962 57.325 53.5811 57.1248 53.5811 56.8523C53.5811 56.195 47.5952 56.7464 43.5293 57.7784C39.8938 58.701 37.8776 58.7915 36.7351 58.0835C36.1111 57.6967 35.4791 57.7076 33.8928 58.1325C32.7397 58.4411 28.8279 58.7379 24.892 58.8157C8.94382 59.1297 6.03863 59.0707 5.38131 58.4184C5.06362 58.1036 4.19788 57.7135 3.45661 57.5519C2.51198 57.3463 2.10949 57.0181 2.10949 56.4546C2.10949 55.876 1.81374 55.6504 1.05475 55.6504C0.474635 55.6504 0 55.462 0 55.2317C0 55.0015 1.1868 54.7909 2.63686 54.7637C4.48098 54.729 4.90372 54.6343 4.04263 54.4497C2.36221 54.0884 2.22087 53.3047 3.78063 52.9954C5.3792 52.678 5.4505 51.9826 3.90256 51.8056C2.92418 51.6942 2.74234 51.4761 2.74234 50.4173C2.74234 49.2531 2.86595 49.1518 4.42993 49.0287C6.50103 48.8658 7.45409 48.1332 5.67453 48.0721L4.42993 48.0294L5.86902 47.5735L7.30812 47.1176L5.86902 46.6014C4.78474 46.2125 4.65564 46.0773 5.3446 46.0534C6.7875 46.0032 7.55957 45.582 7.32415 44.9737C7.19083 44.6288 7.48489 44.3424 8.08947 44.2281C8.97082 44.0615 8.95226 44.0364 7.91059 43.9853C6.33353 43.9079 6.44407 43.2242 8.09158 42.8654L9.43322 42.5728L8.40801 42.0097C7.75238 41.6493 7.61104 41.4291 8.01606 41.3981C8.4561 41.365 8.48732 41.2859 8.11901 41.1385C7.82748 41.0217 7.69626 40.7542 7.82747 40.5436C7.95868 40.3331 7.85363 40.1606 7.59417 40.1606C7.3347 40.1606 7.22838 39.9906 7.3579 39.7826C7.48743 39.5749 6.9765 39.1718 6.22257 38.8871C5.20538 38.5028 5.0421 38.3223 5.59015 38.1875C6.45546 37.9748 6.52423 37.5918 5.82219 36.8952C5.42856 36.5046 5.51463 36.3928 6.2095 36.3928C6.70101 36.3928 7.42245 36.2714 7.81228 36.1228C8.36244 35.9135 8.15782 35.6819 6.89761 35.0904C6.00445 34.6709 5.55851 34.3188 5.90657 34.3075C6.46896 34.2891 6.46896 34.2418 5.90657 33.881C5.55851 33.6578 5.42983 33.4724 5.6201 33.4686C5.8108 33.4652 5.67664 33.1743 5.32182 32.8222C4.96701 32.4701 4.77673 31.9242 4.89865 31.6086C5.02058 31.2933 4.91764 30.9107 4.66956 30.7587C4.42191 30.6067 4.21898 30.1295 4.21898 29.6979C4.21898 29.2667 3.83927 28.794 3.37518 28.6479C2.9111 28.5018 2.53139 28.128 2.53139 27.8173C2.53139 27.5067 2.29428 27.1575 2.00402 27.0412C1.71417 26.9252 2.09388 26.8151 2.84781 26.7971C4.02027 26.7686 4.21898 26.6125 4.21898 25.7174C4.21898 25.066 3.97976 24.6708 3.58613 24.6708C3.23807 24.6708 2.5972 24.3175 2.16223 23.8858C1.72725 23.4542 1.11001 22.9979 0.791059 22.8723C0.472104 22.7467 0.839157 22.6287 1.60701 22.6107C2.37487 22.5927 2.89591 22.4051 2.76469 22.1945C2.63348 21.984 3.18322 21.4087 3.98609 20.9164C5.3252 20.095 5.4062 19.9339 4.96194 18.9668C4.40588 17.7561 4.94085 17.1934 6.75037 17.0846C7.76883 17.0235 7.77178 17.0151 6.83728 16.8376C6.10739 16.6986 5.93273 16.457 6.12596 15.8533C6.34029 15.1823 6.05677 14.9675 4.37128 14.5242L2.36052 13.9954L3.81691 13.7576L5.27373 13.5194L3.79708 13.1029C2.63475 12.7751 2.32044 12.4715 2.32044 11.6786C2.32044 11.0243 2.69002 10.4855 3.37518 10.1414C4.31475 9.66957 4.33796 9.60593 3.58613 9.55737C2.87355 9.5109 2.85709 9.47281 3.48066 9.31122C4.49237 9.04873 4.41136 8.04188 3.35113 7.70822C2.12299 7.3214 2.49932 6.14251 4.01225 5.63679C4.70585 5.40444 5.36865 5.09255 5.48467 4.94309C5.73908 4.61571 31.89 3.91658 66.6599 3.30788C81.177 3.05376 93.4217 2.65856 95.0532 2.39147C98.8052 1.77732 108.912 1.7702 115.811 2.37682C118.828 2.64224 124.428 2.89216 128.257 2.93235C141.571 3.07217 149.154 3.08726 151.25 2.97757C152.411 2.91687 155.164 2.81178 157.368 2.74396C159.572 2.67656 163.443 2.47143 165.97 2.28849C169.349 2.044 170.486 2.08125 170.27 2.42872C170.108 2.6887 169.369 2.92063 168.629 2.94407L167.283 2.98719L168.755 3.33048C169.684 3.54734 170.325 3.51468 170.495 3.24214C170.887 2.6125 174.666 2.25456 174.666 2.84694C174.666 3.10859 175.326 3.32001 176.142 3.32001C176.969 3.32001 177.619 3.10944 177.619 2.84151C177.619 2.50324 178.609 2.4304 180.994 2.59283C182.85 2.71884 184.472 2.65773 184.597 2.45636C184.844 2.05949 203.4 2.26754 205.079 2.68618C205.642 2.82643 207.792 2.64893 209.857 2.29141C213.276 1.69987 213.952 1.70238 217.448 2.31904C219.559 2.69163 222.899 3.01734 224.872 3.04371C232.028 3.13832 241.542 2.80215 241.767 2.44672C241.895 2.24326 243.185 2.27299 244.698 2.51454C246.183 2.75191 249.497 2.84442 252.062 2.72009C254.626 2.59575 257.959 2.65395 259.467 2.84988C261.996 3.17809 267.16 2.79713 268.749 2.1654C269.097 2.02725 269.667 1.86731 270.015 1.8108Z" fill="#0F94CD"/>
<path d="M5.79224 47.1117C5.65217 47.2507 5.28807 47.2658 4.98388 47.1448C4.64721 47.0113 4.7472 46.912 5.23871 46.8919C5.68339 46.8739 5.93231 46.9728 5.79224 47.1117Z" fill="#0F94CD"/>
<path d="M174.771 48.3919C174.481 48.5083 174.007 48.5083 173.717 48.3919C173.427 48.276 173.664 48.181 174.244 48.181C174.824 48.181 175.062 48.276 174.771 48.3919Z" fill="#0F94CD"/>
<path d="M239.849 48.9521C237.993 49.421 234.041 49.421 233.31 48.9521C232.88 48.6766 234.032 48.5602 236.896 48.5895C239.736 48.6184 240.701 48.7369 239.849 48.9521Z" fill="#0F94CD"/>
<path d="M254.721 52.4201C254.315 52.3209 253.983 52.0651 253.983 51.852C253.983 51.299 268.204 51.3455 268.549 51.8998C268.698 52.1392 269.193 52.2179 269.649 52.0743C270.104 51.9307 270.73 52.0216 271.038 52.2757C271.432 52.6002 271.938 52.6102 272.735 52.3096C273.974 51.842 276.057 52.1635 275.683 52.7647C275.368 53.2696 276.62 53.2319 278.64 52.6755C280.491 52.1656 284.781 51.9429 284.781 52.3569C284.781 52.8136 283.022 53.1034 281.765 52.8538C281.104 52.7228 280.562 52.7969 280.562 53.0192C280.562 53.7631 276.103 54.5309 273.522 54.2312C272.173 54.075 271.018 53.8008 270.956 53.6225C270.893 53.4441 268.393 53.5354 265.4 53.8251C262.407 54.1152 259.421 54.3145 258.764 54.2684C258.013 54.2161 257.607 54.3756 257.67 54.6971C257.738 55.0379 257.385 55.1422 256.616 55.009C255.367 54.7926 248.529 53.9758 247.967 53.9758C247.779 53.9758 247.822 53.6095 248.064 53.1616C248.453 52.439 248.893 52.3615 251.981 52.4737C253.894 52.5432 255.127 52.5194 254.721 52.4201Z" fill="#0F94CD"/>
<path d="M286.65 52.7199C287.014 52.7199 287.313 52.4373 287.313 52.0919C287.313 51.6565 287.733 51.4732 288.684 51.4933C289.774 51.5167 289.885 51.5887 289.226 51.8441C288.493 52.1288 288.542 52.2012 289.648 52.4771L290.898 52.7881L289.844 53.3562C288.534 54.0616 285.806 54.5548 285.215 54.1927C284.645 53.8427 285.738 52.7199 286.65 52.7199Z" fill="#0F94CD"/>
<path d="M307.826 52.4607C308.958 52.6001 310.549 52.5461 311.361 52.341C312.173 52.1359 312.917 51.9492 313.014 51.9253C313.111 51.9019 314.374 52.0873 315.822 52.3372C317.705 52.6629 318.694 52.6638 319.303 52.3402C320.238 51.8441 325.561 52.2121 324.989 52.7337C324.694 53.0025 318.167 53.9687 316.424 54.0013C313.623 54.0545 305.807 53.6287 305.588 53.4111C305.437 53.2612 305.546 53.1385 305.831 53.1385C306.115 53.1385 306.217 52.9292 306.058 52.6734C305.853 52.3439 306.37 52.282 307.826 52.4607Z" fill="#0F94CD"/>
<path d="M329.186 52.6646C327.025 52.6156 326.921 52.5759 328.237 52.3012C330.464 51.8361 331.612 51.8361 331.612 52.3012C331.612 52.5382 330.559 52.696 329.186 52.6646Z" fill="#0F94CD"/>
<path d="M216.683 54.237C216.819 53.8858 217.617 53.5237 218.474 53.424C220.093 53.2361 223.226 53.4592 223.555 53.7858C223.935 54.1621 223.341 54.2915 219.916 54.5787C216.908 54.8307 216.471 54.7846 216.683 54.237Z" fill="#0F94CD"/>
<path d="M204.444 54.6486C204.006 54.8152 203.777 54.6716 203.777 54.2299C203.777 53.7615 204.161 53.5572 205.042 53.5572C205.739 53.5572 206.308 53.7456 206.308 53.9758C206.308 54.2061 206.039 54.3945 205.71 54.3945C205.381 54.3945 204.811 54.5087 204.444 54.6486Z" fill="#0F94CD"/>
<path d="M226.092 54.2006C225.446 54.8411 224.028 54.6561 224.028 53.931C224.028 53.7255 224.638 53.5572 225.384 53.5572C226.604 53.5572 226.675 53.6216 226.092 54.2006Z" fill="#0F94CD"/>
<path d="M236.685 53.7519C236.685 54.4778 234.799 54.6348 231.622 54.1738L228.036 53.6539L232.36 53.6053C234.739 53.5789 236.685 53.6447 236.685 53.7519Z" fill="#0F94CD"/>
<path d="M243.013 53.9796C243.013 54.3618 238.46 54.1165 237.986 53.7083C237.889 53.625 238.981 53.5572 240.411 53.5572C241.88 53.5572 243.013 53.7409 243.013 53.9796Z" fill="#0F94CD"/>
</svg>
