<svg width="249" height="37" viewBox="0 0 249 37" fill="none" xmlns="http://www.w3.org/2000/svg">
<path d="M171.078 1.13558C171.299 1.09988 172.501 0.839181 173.751 0.556164C176.948 -0.167393 181.23 -0.188131 182.802 0.512585C183.443 0.798228 184.285 1.04554 184.673 1.06234C185.227 1.08624 185.264 1.1201 184.844 1.21908C183.55 1.52494 184.054 1.7578 186.366 1.92346C187.751 2.02244 189.711 1.98149 190.787 1.83079C192.516 1.58873 197.096 1.80586 197.741 2.16055C197.852 2.22146 198.785 2.16081 199.814 2.02586C200.843 1.89092 203.168 1.75964 204.98 1.73444C207.703 1.69637 208.332 1.61262 208.6 1.2532C208.888 0.86806 209.078 0.85625 210.25 1.15056C211.09 1.36111 213.167 1.46928 215.919 1.44591C219.846 1.41231 220.263 1.45169 220.263 1.85574C220.263 2.25532 220.53 2.28682 222.795 2.15424C224.692 2.04293 225.435 2.09333 225.756 2.35508C226.064 2.6066 226.237 2.62209 226.37 2.41022C226.501 2.20097 227.404 2.17525 229.485 2.32122C232.57 2.53729 233.37 2.46482 233.691 1.94027C234.139 1.20648 240.291 1.05604 244.162 1.68404C246.517 2.06603 248.089 2.55225 247.128 2.60108C246.671 2.62418 246.7 2.68509 247.328 3.01983C248.124 3.44409 248.325 4.3811 247.662 4.5843C246.399 4.97207 246.298 5.04532 246.86 5.1674C248.34 5.48875 247.695 5.75759 245.444 5.75759C243.436 5.75759 242.984 5.68538 242.984 5.36377C242.984 4.91431 242.422 4.84001 242.019 5.23592C241.836 5.4155 241.493 5.41524 240.963 5.23487C240.459 5.0637 239.459 5.0503 238.173 5.19732L236.168 5.42705L237.772 5.48454C240.813 5.59402 246.592 6.18421 246.058 6.33123C245.595 6.45883 245.639 6.52525 246.392 6.8319C246.87 7.02618 247.261 7.26482 247.261 7.36196C247.261 7.4591 246.69 7.65548 245.992 7.79856C244.814 8.03957 244.789 8.06057 245.642 8.08945C246.495 8.11833 246.525 8.14669 246.053 8.48589C245.573 8.8306 245.603 8.87891 246.584 9.33914C247.156 9.60745 247.67 9.96713 247.726 10.1383C247.855 10.5274 246.194 10.9981 244.588 11.0275C243.463 11.0483 243.433 11.0669 244.12 11.3134C244.525 11.4586 244.855 11.6855 244.855 11.8178C244.855 11.9501 245.126 12.0722 245.457 12.089C246.003 12.1165 246.009 12.1315 245.524 12.2507C245.23 12.3229 244.929 12.4691 244.855 12.5757C244.782 12.6826 244.361 12.9595 243.92 13.1914L243.118 13.6127L244.521 13.6233C245.786 13.6327 245.928 13.692 245.955 14.2245C246.005 15.1806 245.89 15.8443 245.617 16.1715C245.442 16.3815 245.526 16.5288 245.885 16.6406C246.415 16.806 246.447 17.0426 246.058 17.9326C245.904 18.2831 245.978 18.4991 246.314 18.6842C246.574 18.827 247.014 19.1667 247.291 19.4393C247.569 19.7118 247.977 19.9347 248.199 19.9347C248.83 19.9347 248.107 20.9032 247.202 21.2715C246.152 21.6987 246.192 22.5601 247.261 22.5601C247.702 22.5601 248.063 22.6782 248.063 22.8226C248.063 22.967 247.936 23.0852 247.78 23.0852C247.625 23.0852 247.572 23.2036 247.662 23.3482C247.754 23.4929 247.537 23.72 247.181 23.8528C246.545 24.0904 246.007 25.4669 246.342 26.0001C246.424 26.1296 246.356 26.2356 246.192 26.2356C246.028 26.2356 245.967 26.3538 246.058 26.4982C246.152 26.647 245.927 26.7607 245.539 26.7607C245.163 26.7607 244.855 26.8788 244.855 27.0232C244.855 27.1676 245.247 27.2876 245.724 27.2897C246.865 27.295 247.328 27.61 247.418 28.4423C247.482 29.0343 247.392 29.1235 246.724 29.1235C245.588 29.1235 245.515 29.5641 246.589 29.9455C247.761 30.3617 247.784 30.6344 246.66 30.7715C245.979 30.8545 246.061 30.8865 247.039 30.9193C247.725 30.9424 248.476 31.0327 248.708 31.1201C249.252 31.3252 248.987 31.7489 248.315 31.7489C248.029 31.7489 247.796 31.9217 247.796 32.1325C247.796 32.358 247.355 32.6329 246.727 32.7991C246.139 32.9545 245.657 33.2066 245.657 33.3588C245.657 33.5373 244.637 33.6266 242.784 33.6103C237.719 33.5657 237.306 33.5612 233.094 33.5079C230.36 33.4733 228.752 33.3439 228.367 33.1273C227.633 32.7148 226.027 32.7025 225.372 33.1044C224.991 33.3381 224.505 33.3307 223.303 33.0737C222.44 32.8886 221.553 32.7516 221.332 32.7686C221.112 32.7857 219.198 32.8639 217.08 32.9422C213.628 33.0698 213.264 33.0425 213.571 32.6794C213.855 32.3423 213.84 32.274 213.479 32.274C213.241 32.274 213.046 32.1433 213.046 31.9834C213.046 31.8235 212.868 31.7594 212.652 31.8411C212.435 31.923 212.145 31.792 212.007 31.5499C211.783 31.1559 211.539 31.1412 209.661 31.4089C208.279 31.6061 207.118 31.6253 206.251 31.4657C205.528 31.3323 202.822 31.2982 200.237 31.39C197.652 31.4817 194.617 31.5326 193.493 31.5029C192.268 31.4704 191.378 31.5617 191.272 31.73C191.174 31.8849 190.801 32.0115 190.442 32.0115C190.083 32.0115 189.79 32.1209 189.79 32.2548C189.79 32.3885 189.579 32.552 189.322 32.6182C189.065 32.6841 189.576 32.7602 190.458 32.787C191.34 32.814 192.302 32.9469 192.596 33.0826C192.966 33.2533 192.527 33.2984 191.169 33.2289C190.089 33.1735 188.706 33.2388 188.094 33.374C187.483 33.509 186.604 33.5499 186.141 33.4649C185.466 33.341 185.326 33.2076 185.437 32.7923C185.555 32.3504 185.817 32.2711 187.215 32.2541L188.854 32.2341L187.919 31.8802C187.404 31.6857 186.241 31.5174 185.334 31.5063C184.428 31.4953 183.646 31.3856 183.597 31.2624C183.483 30.9744 180.701 30.6135 180.701 30.8868C180.701 30.9999 179.288 31.1068 177.56 31.1238C175.833 31.1412 173.998 31.1692 173.484 31.1863C170.517 31.2855 163.311 31.2136 162.456 31.076C161.904 30.9873 161.525 30.7998 161.613 30.6591C161.714 30.499 160.791 30.4184 159.142 30.4431C156.336 30.4853 154.065 30.3546 153.845 30.1385C153.771 30.0658 152.34 30.0521 150.666 30.1083C148.991 30.1642 146.741 30.0902 145.667 29.944C144.592 29.7977 143.61 29.7405 143.485 29.8166C143.255 29.9558 139.637 29.9448 137.397 29.7983C136.201 29.7198 128.52 29.6155 125.553 29.6373C124.502 29.6449 124.058 29.7413 124.18 29.9348C124.306 30.1354 123.85 30.1795 122.659 30.0823C113.516 29.3359 112.27 29.3336 112.27 30.0632C112.27 30.2685 112.09 30.4362 111.869 30.4362C111.383 30.4362 111.338 30.0128 111.802 29.8059C111.986 29.724 111.535 29.7158 110.8 29.7878C110.065 29.8597 109.223 29.9083 108.929 29.8957C106.706 29.7998 89.6139 29.7447 90.3351 29.8358C90.8411 29.8996 91.4733 30.102 91.7401 30.2855C92.1459 30.5646 91.5367 30.6547 88.0133 30.8363C81.3901 31.1774 80.7251 31.1627 78.4553 30.6237C75.0527 29.8159 73.744 29.6486 72.1736 29.8203C70.0019 30.0582 69.7314 30.3386 71.4681 30.5515C72.8079 30.7161 72.9755 30.8038 72.9755 31.3399C72.9755 31.8637 72.8084 31.9626 71.7058 32.0915C70.8285 32.1939 70.3527 32.1343 70.1658 31.8988C69.9929 31.6804 68.8437 31.4872 66.9746 31.3622C65.3681 31.2546 63.8404 31.0359 63.5801 30.8763C63.2331 30.6633 62.8717 30.6654 62.227 30.8841C61.7434 31.0482 60.6504 31.3299 59.7982 31.5103C58.2328 31.8413 57.5114 32.274 58.525 32.274C58.8276 32.274 59.0754 32.4016 59.0754 32.5576C59.0754 32.7529 60.4879 32.8143 63.6162 32.7545C66.4331 32.7006 68.1578 32.7644 68.1588 32.9227C68.1599 33.0695 67.3077 33.1551 66.1449 33.1244C64.8813 33.0913 64.1893 33.1677 64.2911 33.3291C64.3801 33.4706 65.4082 33.5867 66.5758 33.5867C68.2845 33.5867 68.6985 33.5098 68.6985 33.1929C68.6985 32.9763 68.8691 32.7991 69.0776 32.7991C69.2861 32.7991 69.6483 32.7269 69.8827 32.6387C70.1944 32.521 70.2642 32.5914 70.1431 32.9012C70.0075 33.2485 70.1773 33.3242 71.0934 33.3242C71.7068 33.3242 72.4657 33.1889 72.7798 33.0241C73.2083 32.7988 73.3765 32.7988 73.4529 33.0241C73.5128 33.2005 74.1578 33.3242 75.0183 33.3242C75.9261 33.3242 76.4192 33.4239 76.3169 33.5867C76.2238 33.7345 76.4382 33.8492 76.8071 33.8492C77.1677 33.8492 77.5248 33.6899 77.601 33.4948C77.7023 33.2354 78.3546 33.1404 80.0354 33.1404C81.9614 33.1404 82.3313 33.2081 82.3321 33.5605C82.3329 33.8999 82.6791 33.9884 84.1365 34.0212C85.1284 34.0433 85.789 34.0039 85.6043 33.933C85.4195 33.8624 85.3367 33.6959 85.4198 33.5636C85.5099 33.4208 85.7553 33.4179 86.0231 33.5568C86.2915 33.6959 87.017 33.6867 87.8112 33.5342C89.4332 33.2223 91.7262 33.2575 92.0745 33.5996C92.2143 33.7369 93.2367 33.8416 94.3469 33.8327C95.9125 33.8196 96.2215 33.7594 95.7249 33.5644C94.746 33.1798 95.2309 33.0002 96.6738 33.2126C97.68 33.3609 97.8486 33.4486 97.4332 33.6077C96.8502 33.8314 99.1953 33.9427 101.979 33.8235C102.861 33.786 103.943 33.7663 104.384 33.7802C107.186 33.8679 118.386 33.4859 118.273 33.3066C118.198 33.1863 119.189 33.0879 120.476 33.0879C122.031 33.0879 122.684 33.1703 122.422 33.3333C122.163 33.494 123.064 33.5801 125.034 33.5828C126.858 33.5851 128.041 33.6901 128.041 33.8492C128.041 33.9936 127.59 34.1133 127.039 34.1152C124.834 34.1225 103.526 34.3294 102.733 34.3512C102.265 34.3638 101.698 34.5563 101.471 34.7789C100.915 35.3247 96.5896 35.231 96.7083 34.6757C96.7692 34.3903 96.4541 34.3607 95.1044 34.5237C94.1806 34.6355 92.0039 34.7059 90.2672 34.6807C88.4567 34.6542 87.1731 34.735 87.2581 34.8702C87.5484 35.3313 86.118 35.3985 78.9899 35.2583C75.0204 35.1803 71.003 35.1351 70.0626 35.158C68.9883 35.184 68.2797 35.0834 68.1564 34.8876C68.0049 34.6468 67.737 34.6479 66.984 34.892C66.4473 35.0658 64.9594 35.3202 63.6777 35.457C62.3962 35.5938 60.7073 35.776 59.9246 35.8619C59.135 35.9482 58.2427 35.8968 57.9198 35.7461C56.8808 35.2609 45.1948 34.8611 42.2929 35.2113C40.3188 35.4494 39.7037 35.4492 39.6227 35.2102C39.4944 34.8324 37.156 34.787 37.156 35.1619C37.156 35.3063 36.9154 35.4245 36.6214 35.4245C36.3274 35.4245 36.0868 35.5426 36.0868 35.687C36.0868 35.8314 35.6056 35.9495 35.0175 35.9495C34.4014 35.9495 33.9483 35.824 33.9483 35.6531C33.9483 35.2409 30.1557 35.5867 27.5797 36.2339C25.2762 36.8125 23.9988 36.8692 23.2749 36.4253C22.8796 36.1827 22.4791 36.1895 21.474 36.456C20.7435 36.6495 18.265 36.8356 15.7713 36.8844C5.66669 37.0813 3.826 37.0443 3.40953 36.6353C3.20825 36.4379 2.65973 36.1932 2.19006 36.0918C1.59156 35.9629 1.33655 35.7571 1.33655 35.4037C1.33655 35.0409 1.14916 34.8994 0.668274 34.8994C0.300723 34.8994 0 34.7812 0 34.6369C0 34.4925 0.751941 34.3604 1.67068 34.3433C2.83909 34.3216 3.10694 34.2622 2.56136 34.1464C1.49667 33.9199 1.40712 33.4284 2.39536 33.2344C3.4082 33.0354 3.45337 32.5993 2.47261 32.4882C1.85272 32.4184 1.73751 32.2816 1.73751 31.6177C1.73751 30.8875 1.81583 30.824 2.80675 30.7468C4.11897 30.6447 4.72282 30.1852 3.59531 30.1469L2.80675 30.1201L3.71854 29.8342L4.63034 29.5483L3.71854 29.2246C3.03156 28.9807 2.94976 28.8959 3.38628 28.8809C4.30047 28.8494 4.78965 28.5853 4.64049 28.2039C4.55602 27.9875 4.74234 27.808 5.12539 27.7363C5.6838 27.6318 5.67204 27.616 5.01205 27.584C4.01285 27.5354 4.08288 27.1067 5.12673 26.8817L5.97677 26.6982L5.32721 26.3451C4.91181 26.119 4.82226 25.981 5.07888 25.9615C5.35768 25.9408 5.37747 25.8912 5.1441 25.7988C4.95939 25.7255 4.87626 25.5577 4.95939 25.4257C5.04252 25.2936 4.97597 25.1855 4.81157 25.1855C4.64717 25.1855 4.57981 25.0789 4.66188 24.9484C4.74394 24.8182 4.42023 24.5653 3.94255 24.3868C3.29806 24.1458 3.19462 24.0326 3.54185 23.9481C4.0901 23.8147 4.13367 23.5745 3.68887 23.1377C3.43947 22.8927 3.494 22.8226 3.93426 22.8226C4.24568 22.8226 4.70277 22.7465 4.94977 22.6533C5.29834 22.522 5.16869 22.3768 4.37024 22.0058C3.80435 21.7428 3.5218 21.522 3.74233 21.5149C4.09866 21.5033 4.09866 21.4737 3.74233 21.2474C3.5218 21.1074 3.44027 20.9911 3.56083 20.9888C3.68165 20.9867 3.59665 20.8042 3.37184 20.5834C3.14703 20.3626 3.02648 20.0203 3.10373 19.8223C3.18098 19.6246 3.11576 19.3847 2.95858 19.2894C2.80167 19.1941 2.67309 18.8948 2.67309 18.6241C2.67309 18.3537 2.43252 18.0573 2.13848 17.9656C1.84443 17.874 1.60386 17.6396 1.60386 17.4448C1.60386 17.25 1.45363 17.031 1.26972 16.958C1.08608 16.8853 1.32666 16.8162 1.80434 16.805C2.54719 16.7871 2.67309 16.6892 2.67309 16.1279C2.67309 15.7194 2.52153 15.4715 2.27213 15.4715C2.0516 15.4715 1.64556 15.2499 1.36996 14.9793C1.09436 14.7086 0.703291 14.4224 0.501205 14.3437C0.299119 14.2649 0.53168 14.1909 1.01818 14.1796C1.50469 14.1683 1.83481 14.0507 1.75168 13.9186C1.66854 13.7866 2.01685 13.4258 2.52554 13.1171C3.37398 12.602 3.4253 12.5009 3.14383 11.8944C2.79151 11.1352 3.13046 10.7823 4.27695 10.7141C4.92224 10.6757 4.92411 10.6705 4.33202 10.5592C3.86957 10.472 3.75891 10.3205 3.88133 9.94193C4.01713 9.52108 3.83749 9.3864 2.76959 9.10837L1.4956 8.77678L2.41835 8.62766L3.34137 8.47828L2.40578 8.21705C1.66935 8.01148 1.4702 7.82114 1.4702 7.32389C1.4702 6.91354 1.70436 6.57566 2.13848 6.35985C2.73377 6.06397 2.74848 6.02406 2.27213 5.99361C1.82064 5.96446 1.81022 5.94058 2.2053 5.83924C2.84631 5.67463 2.79499 5.04321 2.12324 4.83397C1.3451 4.59138 1.58354 3.85208 2.54211 3.53493C2.98157 3.38922 3.40151 3.19363 3.47502 3.09991C3.63621 2.8946 20.2051 2.45616 42.2349 2.07443C51.4327 1.91507 59.1909 1.66723 60.2246 1.49973C62.6017 1.11459 69.0051 1.11013 73.3764 1.49055C75.2877 1.657 78.8363 1.81373 81.2621 1.83893C89.6978 1.92662 94.5019 1.93608 95.8304 1.86729C96.5656 1.82922 98.3097 1.76332 99.7064 1.72079C101.103 1.67852 103.556 1.54988 105.157 1.43515C107.297 1.28183 108.018 1.30519 107.881 1.5231C107.778 1.68613 107.31 1.83158 106.841 1.84628L105.988 1.87332L106.921 2.08861C107.51 2.2246 107.916 2.20412 108.024 2.03321C108.272 1.63835 110.666 1.41388 110.666 1.78537C110.666 1.94946 111.084 2.08204 111.602 2.08204C112.125 2.08204 112.537 1.94999 112.537 1.78196C112.537 1.56983 113.165 1.52415 114.675 1.62601C115.852 1.70504 116.879 1.66671 116.958 1.54043C117.115 1.29154 128.871 1.42202 129.936 1.68456C130.293 1.77251 131.655 1.6612 132.963 1.43699C135.129 1.06602 135.557 1.06759 137.772 1.45431C139.11 1.68797 141.226 1.89223 142.476 1.90877C147.01 1.9681 153.038 1.75728 153.18 1.53439C153.262 1.40679 154.079 1.42543 155.038 1.57692C155.979 1.72578 158.079 1.78379 159.704 1.70582C161.328 1.62784 163.44 1.66434 164.395 1.78721C165.998 1.99304 169.269 1.75413 170.276 1.35796C170.497 1.27132 170.858 1.17103 171.078 1.13558Z" fill="#0B80C2"/>
<path d="M3.66989 29.5447C3.58115 29.6318 3.35046 29.6413 3.15773 29.5654C2.94441 29.4816 3.00777 29.4194 3.31918 29.4068C3.60093 29.3955 3.75864 29.4575 3.66989 29.5447Z" fill="#0B80C2"/>
<path d="M110.733 30.3475C110.549 30.4205 110.249 30.4205 110.065 30.3475C109.881 30.2748 110.031 30.2152 110.399 30.2152C110.766 30.2152 110.917 30.2748 110.733 30.3475Z" fill="#0B80C2"/>
<path d="M151.965 30.6988C150.789 30.9928 148.285 30.9928 147.822 30.6988C147.55 30.526 148.28 30.453 150.094 30.4714C151.894 30.4895 152.505 30.5638 151.965 30.6988Z" fill="#0B80C2"/>
<path d="M161.388 32.8736C161.131 32.8114 160.92 32.651 160.92 32.5174C160.92 32.1706 169.931 32.1997 170.149 32.5473C170.244 32.6975 170.557 32.7468 170.846 32.6568C171.135 32.5667 171.531 32.6237 171.727 32.7831C171.976 32.9865 172.297 32.9928 172.802 32.8043C173.587 32.5111 174.906 32.7127 174.669 33.0897C174.47 33.4063 175.263 33.3827 176.543 33.0338C177.715 32.714 180.434 32.5743 180.434 32.834C180.434 33.1204 179.319 33.3021 178.523 33.1456C178.104 33.0635 177.761 33.1099 177.761 33.2493C177.761 33.7159 174.935 34.1974 173.3 34.0094C172.445 33.9115 171.714 33.7395 171.674 33.6277C171.635 33.5158 170.051 33.5731 168.154 33.7547C166.258 33.9367 164.366 34.0616 163.949 34.0327C163.474 33.9999 163.216 34.1 163.257 34.3016C163.3 34.5153 163.076 34.5807 162.589 34.4972C161.798 34.3615 157.465 33.8492 157.109 33.8492C156.99 33.8492 157.017 33.6195 157.17 33.3386C157.417 32.8855 157.696 32.8369 159.652 32.9072C160.864 32.9508 161.645 32.9359 161.388 32.8736Z" fill="#0B80C2"/>
<path d="M181.618 33.0616C181.849 33.0616 182.038 32.8844 182.038 32.6678C182.038 32.3948 182.304 32.2798 182.907 32.2924C183.598 32.3071 183.668 32.3522 183.25 32.5124C182.786 32.6909 182.816 32.7363 183.517 32.9093L184.309 33.1044L183.641 33.4607C182.812 33.9031 181.083 34.2123 180.709 33.9852C180.348 33.7657 181.04 33.0616 181.618 33.0616Z" fill="#0B80C2"/>
<path d="M195.035 32.8991C195.752 32.9865 196.76 32.9527 197.274 32.824C197.789 32.6954 198.26 32.5783 198.322 32.5633C198.383 32.5486 199.184 32.6649 200.101 32.8217C201.294 33.0259 201.921 33.0264 202.307 32.8235C202.899 32.5124 206.271 32.7432 205.909 33.0703C205.722 33.2388 201.587 33.8448 200.482 33.8652C198.707 33.8986 193.756 33.6316 193.617 33.4951C193.521 33.4011 193.59 33.3242 193.77 33.3242C193.951 33.3242 194.016 33.1929 193.915 33.0325C193.785 32.8259 194.112 32.787 195.035 32.8991Z" fill="#0B80C2"/>
<path d="M208.568 33.027C207.199 32.9962 207.133 32.9713 207.967 32.7991C209.378 32.5074 210.105 32.5074 210.105 32.7991C210.105 32.9477 209.438 33.0467 208.568 33.027Z" fill="#0B80C2"/>
<path d="M137.288 34.0131C137.374 33.7928 137.879 33.5657 138.422 33.5032C139.448 33.3853 141.433 33.5253 141.642 33.73C141.882 33.9661 141.506 34.0472 139.336 34.2273C137.43 34.3853 137.154 34.3565 137.288 34.0131Z" fill="#0B80C2"/>
<path d="M129.533 34.2711C129.256 34.3756 129.11 34.2856 129.11 34.0086C129.11 33.7148 129.354 33.5867 129.912 33.5867C130.353 33.5867 130.714 33.7048 130.714 33.8492C130.714 33.9936 130.544 34.1118 130.335 34.1118C130.127 34.1118 129.766 34.1834 129.533 34.2711Z" fill="#0B80C2"/>
<path d="M143.249 33.9902C142.84 34.3919 141.941 34.2759 141.941 33.8212C141.941 33.6922 142.328 33.5867 142.8 33.5867C143.574 33.5867 143.618 33.6271 143.249 33.9902Z" fill="#0B80C2"/>
<path d="M149.961 33.7088C149.961 34.164 148.766 34.2625 146.753 33.9734L144.481 33.6474L147.221 33.6169C148.728 33.6003 149.961 33.6416 149.961 33.7088Z" fill="#0B80C2"/>
<path d="M153.97 33.8516C153.97 34.0913 151.085 33.9375 150.785 33.6815C150.724 33.6292 151.415 33.5867 152.322 33.5867C153.252 33.5867 153.97 33.7019 153.97 33.8516Z" fill="#0B80C2"/>
</svg>
