<svg width="247" height="36" viewBox="0 0 247 36" fill="none" xmlns="http://www.w3.org/2000/svg">
<path d="M108.593 34.3801C108.517 34.4831 108.215 34.7063 107.92 34.8762C107.157 35.3178 107.007 34.4746 107.741 33.8638C108.214 33.4701 108.49 33.4486 109.711 33.7104L111.131 34.015L109.931 34.104C109.271 34.1529 108.669 34.2772 108.593 34.3801Z" fill="#0B80C2"/>
<path d="M18.5955 35.1758C18.9265 35.1101 19.4688 35.1094 19.7999 35.1743C20.1311 35.2394 19.8603 35.2933 19.1979 35.2941C18.5355 35.295 18.2646 35.2418 18.5955 35.1758Z" fill="#0B80C2"/>
<path d="M35.3892 34.5318C33.3691 34.5913 33.0084 34.6515 33.9175 34.7771C34.58 34.8687 32.2476 34.9546 28.7343 34.9682C23.3762 34.9886 22.4246 34.9341 22.83 34.6293C23.2399 34.3213 22.7811 34.2667 19.8164 34.2706C16.2303 34.2752 14.6464 34.1039 14.6459 33.7116C14.6458 33.5892 15.0369 33.4414 15.5153 33.3834C15.9938 33.3252 14.856 33.288 12.9871 33.3006C9.86348 33.3219 9.11936 33.4748 10.4976 33.8127C10.9953 33.9347 10.9918 33.9462 10.4499 33.9765C10.1199 33.9951 9.43508 33.5929 8.87232 33.0502C8.32538 32.5228 7.77427 32.0914 7.64768 32.0916C7.52108 32.0917 7.41734 31.9668 7.41715 31.814C7.41695 31.6614 7.89654 31.846 8.48289 32.2241C9.90902 33.1443 12.0689 33.1909 12.8062 32.3172C13.0807 31.9921 13.305 31.6214 13.3048 31.4936C13.3047 31.3657 13.425 31.261 13.5722 31.2608C13.7194 31.2606 13.8402 31.5532 13.8407 31.9113C13.8414 32.4619 14.0118 32.5898 14.9482 32.7419C15.5566 32.841 16.1187 32.8559 16.197 32.7754C16.2753 32.6949 16.1203 32.6293 15.8521 32.6296C15.3966 32.6302 15.3936 32.597 15.8068 32.1279C16.5307 31.3059 16.3392 30.9848 15.1107 30.9612L13.9732 30.9393L15.3859 30.5866C16.1629 30.3928 16.8454 30.1864 16.9023 30.1279C16.959 30.0696 13.0712 30.0426 8.26251 30.0677C3.45382 30.0929 -0.239668 30.0549 0.0546423 29.9832C0.348953 29.9115 0.704155 29.7412 0.843672 29.6047C0.98348 29.4681 1.30719 29.3563 1.5636 29.356C2.09352 29.3553 2.31049 29.076 2.46939 28.19C2.53024 27.8497 2.91407 27.2555 3.32224 26.8692C4.26265 25.9791 4.38962 24.8147 3.5738 24.5606C3.24392 24.4578 3.1292 24.32 3.30895 24.2427C3.66017 24.0921 2.79539 23.0444 2.3206 23.0451C2.17339 23.0453 2.05273 22.8685 2.05245 22.6523C2.05217 22.4361 1.78846 22.1739 1.46635 22.0698C0.901124 21.8864 0.898169 21.8669 1.38294 21.5025C1.86502 21.1403 1.86152 21.1252 1.29868 21.126C0.851722 21.1265 0.712061 20.9638 0.711383 20.4409C0.710672 19.8922 0.844298 19.7548 1.37958 19.7541C2.15172 19.7531 2.26523 19.3579 1.5794 19.0589C1.20663 18.8962 1.30234 18.8014 2.04719 18.5952C2.5622 18.4527 3.52545 18.2452 4.18772 18.1338L5.39185 17.9314L3.5181 17.7292C1.17484 17.476 -0.103026 16.9563 1.97834 17.1029L3.38359 17.2017L3.38218 16.1153C3.38121 15.3606 3.27858 15.0683 3.04639 15.158C2.86234 15.2288 2.47099 15.1895 2.17644 15.0706C1.72068 14.8862 1.75623 14.8511 2.41675 14.8337L3.1926 14.8135L3.0016 10.9625C2.89662 8.84442 2.74585 6.93928 2.66663 6.72841C2.56242 6.45146 2.80661 6.31424 3.54814 6.23289C4.40769 6.13878 4.47908 6.08683 3.98959 5.91298C3.39035 5.70032 2.91109 4.93744 3.37597 4.93683C3.51863 4.93665 3.635 4.68548 3.63461 4.37903C3.63419 4.05723 3.88826 3.71617 4.23575 3.57251C4.81675 3.33225 4.81219 3.32319 4.10989 3.30709C3.55558 3.29464 3.42134 3.18591 3.54644 2.8505C3.67393 2.50904 3.93882 2.44725 4.72612 2.57518C5.3006 2.66853 5.81307 2.62067 5.90681 2.465C6.00214 2.30658 5.75361 2.18866 5.3203 2.18675C4.73657 2.18421 4.65808 2.12396 4.96961 1.91697C5.19023 1.77046 5.88433 1.64803 6.51195 1.64475C7.13956 1.64174 7.86206 1.53351 8.11749 1.40451C10.5012 0.20061 10.4792 0.205308 12.8304 0.402805C14.0957 0.509258 15.0717 0.694814 14.9994 0.815349C14.927 0.935606 15.0193 1.09654 15.2043 1.17284C15.3894 1.24887 14.7878 1.32207 13.8679 1.33507C12.9109 1.34865 12.1954 1.47989 12.1956 1.64175C12.1961 2.06287 13.0245 2.30872 13.239 1.95179C13.3642 1.74367 14.6857 1.65143 17.2931 1.66862C19.4209 1.68287 22.0649 1.68931 23.1689 1.68266C24.2729 1.67602 32.5229 1.66176 41.5023 1.65094C50.4816 1.64012 58.009 1.61884 58.2298 1.60347C58.4506 1.58837 59.8958 1.52394 61.4413 1.46076C63.482 1.37691 63.7261 1.39524 62.3326 1.52681C58.6279 1.87647 60.0796 2.11026 65.7514 2.07684C68.9013 2.05849 72.0206 2.07117 72.6831 2.10515C73.7618 2.16054 73.8038 2.18573 73.0849 2.34716C72.5631 2.46416 72.3971 2.60126 72.6109 2.73898C72.7917 2.85534 73.4446 2.81063 74.0619 2.63946C74.7947 2.43604 75.0658 2.25325 74.843 2.11253C74.3629 1.80945 77.3044 1.46241 78.3758 1.69587C78.851 1.79922 79.3667 1.98784 79.5219 2.11494C79.677 2.24176 80.0986 2.26482 80.4587 2.16613L81.1136 1.9864L80.4443 1.77575C80.0761 1.6599 80.4374 1.64875 81.2471 1.75086C82.0569 1.85296 85.2486 1.91849 88.3398 1.89637C92.435 1.86747 93.5972 1.92468 92.6224 2.10784C91.8865 2.24624 90.8188 2.37327 90.2498 2.39074C89.6808 2.40794 89.3384 2.49976 89.4887 2.59449C89.7514 2.76068 92.5568 2.71972 100.225 2.43763C102.994 2.33582 103.864 2.38763 104.039 2.66422C104.184 2.89311 104.338 2.92364 104.466 2.74817C104.588 2.58066 106.914 2.46516 110.421 2.4521C113.586 2.44032 122.859 2.38001 131.029 2.31811C139.199 2.25649 150.761 2.20419 156.723 2.20195C162.684 2.1997 170.332 2.19445 173.718 2.19034C177.103 2.18622 187.883 2.19419 197.672 2.20784C207.461 2.22148 219.565 2.20304 224.57 2.16692C233.715 2.10102 240.791 2.53273 243.172 3.30193C244.976 3.88477 244.957 3.87464 244.444 4.00095C243.738 4.17526 243.883 4.62498 244.646 4.624C245.181 4.6233 245.315 4.7603 245.316 5.309C245.317 5.8319 245.177 5.99504 244.73 5.99562C244.167 5.99635 244.164 6.01144 244.647 6.3724C245.133 6.73555 245.13 6.75504 244.565 6.93986C244.243 7.0448 243.98 7.30769 243.981 7.52388C243.981 7.74006 243.861 7.91717 243.713 7.91736C243.289 7.91791 242.466 8.8803 242.583 9.23899C242.642 9.41834 242.513 9.56501 242.297 9.56529C241.595 9.5662 241.963 11.0376 242.914 12.0322C243.404 12.5446 243.673 13.0087 243.512 13.0641C243.077 13.2133 244.012 14.2269 244.584 14.2262C244.846 14.2259 245.06 14.3408 245.06 14.4818C245.06 14.6226 245.392 14.7947 245.797 14.8644C246.202 14.9338 245.569 14.992 244.392 14.9932C238.525 14.9995 236.496 15.0819 236.497 15.3143C236.497 15.5983 239.203 16.0452 240.244 15.9333C240.738 15.88 240.815 15.9287 240.536 16.1189C240.24 16.3212 240.298 16.4038 240.804 16.5008C241.374 16.61 241.357 16.6293 240.66 16.6631C240.172 16.6868 239.968 16.7979 240.125 16.9543C240.281 17.1091 240.894 17.0713 241.707 16.856L243.035 16.5047L241.974 16.2334L240.914 15.9618L242.118 15.7652C243.617 15.5205 245.463 15.887 245.464 16.4294C245.464 16.6961 245.004 16.9019 244.06 17.0573C243.287 17.1842 242.655 17.4023 242.655 17.5417C242.655 17.6811 242.324 17.8124 241.92 17.8335C241.289 17.8664 241.27 17.8886 241.786 17.99C242.214 18.0737 242.389 18.3014 242.389 18.775C242.39 19.1415 242.541 19.4458 242.725 19.4511C242.909 19.4563 242.698 19.7773 242.257 20.1647C241.469 20.8568 241.466 20.8661 242.126 20.7149C243.255 20.4567 243.384 20.758 243.169 23.1443C243.06 24.3515 242.964 26.2255 242.955 27.3083C242.941 28.9626 243.013 29.297 243.407 29.4021C243.759 29.496 243.726 29.535 243.273 29.5594C242.761 29.5873 242.671 29.7462 242.672 30.6209L242.673 31.6496L244.078 31.5699C245.296 31.5008 245.412 31.5364 244.949 31.836C244.527 32.1084 236.706 32.2042 208.015 32.2877C173.477 32.3882 169.063 32.4474 162.383 32.8981C160.837 33.0024 158.429 33.0428 157.03 32.9876C155.632 32.9326 153.023 32.8836 151.234 32.8788C149.445 32.8737 148.018 32.808 148.063 32.7325C148.108 32.657 146.14 32.5869 143.688 32.5766C134.874 32.5395 130.621 32.4056 131.871 32.2048C134.072 31.8511 125.252 31.7372 117.819 32.0233C115.464 32.1139 113.116 32.087 112.6 31.9634C111.863 31.7863 112.166 31.7319 114.024 31.7073C116.123 31.6796 116.34 31.6305 115.983 31.2652C115.531 30.8033 114.472 30.7086 114.473 31.13C114.473 31.2825 113.759 31.4053 112.867 31.4064C111.975 31.4076 111.262 31.5303 111.262 31.6829C111.262 31.8338 110.81 31.9455 110.258 31.9311C109.363 31.9078 109.327 31.8815 109.924 31.6846C110.402 31.5271 110.058 31.4586 108.719 31.4453C107.388 31.4317 106.508 31.584 105.679 31.9705C105.038 32.2698 104.339 32.5149 104.125 32.5152C103.912 32.5154 103.802 32.6226 103.881 32.7533C104.095 33.1081 101.975 33.3355 99.8694 33.1841C98.8496 33.1105 96.9917 33.1645 95.7407 33.3041C93.9205 33.507 94.8297 33.5492 100.291 33.5146C105.316 33.4829 107.1 33.3876 107.056 33.1528C106.967 32.6722 108.314 32.3311 109.523 32.5285L110.594 32.7032L109.451 32.7436C108.771 32.7678 107.904 33.0444 107.311 33.4274C106.323 34.064 106.242 34.0702 98.9533 34.0368C88.3954 33.9882 86.1439 33.9141 86.7751 33.6351C87.1566 33.4664 86.8492 33.3935 85.7042 33.381C84.821 33.3715 82.7838 33.2378 81.177 33.0835C79.1622 32.8905 78.1695 32.8917 77.9787 33.0879C77.7875 33.2843 78.0229 33.3721 78.7367 33.3711C79.3057 33.3704 79.6931 33.4503 79.5974 33.5486C79.3277 33.826 67.3581 33.9044 67.5245 33.6276C67.6046 33.4945 68.1146 33.366 68.6579 33.3419C69.2011 33.3182 68.4412 33.2059 66.969 33.0923C64.1962 32.8789 61.6656 33.0317 61.8877 33.399C62.1315 33.8017 61.2578 33.9 57.2972 33.9141C54.9506 33.9227 53.15 33.8114 52.9153 33.643C52.607 33.422 52.6663 33.3915 53.178 33.5077C53.5415 33.5903 54.1367 33.5808 54.5006 33.4868C55.7271 33.1697 54.2925 32.9331 52.1149 33.0934C50.3874 33.2208 50.2384 33.2695 51.0448 33.4443C51.6081 33.5665 51.3412 33.5844 50.3757 33.4891C48.2263 33.2774 41.9797 33.2185 41.142 33.4023C40.6069 33.5196 40.7143 33.5826 41.6777 33.7166C42.8395 33.878 42.8202 33.8866 41.1427 33.9598C39.6919 34.0231 39.5365 34.0727 40.2064 34.2592C40.8733 34.4446 40.7599 34.4802 39.5375 34.4678C38.7279 34.4598 36.8612 34.4885 35.3892 34.5318Z" fill="#0B80C2"/>
<path d="M120.43 32.5132C121.311 32.5272 121.446 32.5843 121.032 32.7676C120.286 33.0972 119.293 33.0985 119.292 32.7698C119.292 32.619 119.804 32.5036 120.43 32.5132Z" fill="#0B80C2"/>
<path d="M117.336 32.5022C118.438 32.5037 118.774 32.582 118.49 32.7709C117.962 33.1216 116.158 33.124 115.947 32.7742C115.844 32.6034 116.366 32.5009 117.336 32.5022Z" fill="#0B80C2"/>
<path d="M123.896 32.286C125.03 32.2332 126.957 32.2304 128.178 32.2796C129.4 32.329 128.472 32.3722 126.117 32.3755C123.762 32.3789 122.762 32.3387 123.896 32.286Z" fill="#0B80C2"/>
<path d="M3.43414 31.8227C3.58134 31.8225 3.62753 31.9459 3.53673 32.0969C3.44592 32.2479 3.25122 32.3716 3.10402 32.3718C2.95682 32.372 2.91064 32.2486 3.00145 32.0976C3.09224 31.9466 3.28693 31.8229 3.43414 31.8227Z" fill="#0B80C2"/>
<path d="M245.498 18.6145C245.876 18.6141 246.096 18.7331 246.003 18.8882C245.912 19.0392 245.536 19.1632 245.168 19.1637C244.79 19.1642 244.571 19.0451 244.664 18.89C244.755 18.739 245.13 18.615 245.498 18.6145Z" fill="#0B80C2"/>
<path d="M245.367 17.6111C245.203 17.8138 245.149 18.0608 245.246 18.16C245.343 18.2592 244.8 18.3411 244.039 18.3421C242.451 18.3442 242.262 18.0519 243.544 17.5748C244.796 17.109 245.757 17.1283 245.367 17.6111Z" fill="#0B80C2"/>
</svg>
