<svg width="393" height="56" viewBox="0 0 393 56" fill="none" xmlns="http://www.w3.org/2000/svg">
<path d="M10.4417 1.49923C10.2999 1.11283 10.2974 0.604552 10.4362 0.370062C10.9103 -0.432325 12.5029 0.172227 12.6435 1.20778C12.7967 2.33916 13.5637 2.5732 13.5637 1.48907C13.5637 0.950319 13.8474 0.832413 14.7246 1.00508C16.6954 1.39413 18.3476 1.79907 18.5996 1.95496C18.7317 2.0371 19.7326 1.96071 20.8229 1.78495C21.9137 1.6092 27.9922 1.63347 34.3307 1.83882C40.6697 2.04416 54.4988 2.32104 65.0623 2.45397C75.6258 2.58689 87.6879 2.78208 91.8669 2.8885C102.865 3.16804 121.127 3.13845 126.27 2.8333C134.209 2.36168 224.702 2.19255 226.827 2.64519C227.923 2.87879 234.381 3.08502 241.179 3.10401C252.871 3.13669 272.354 4.10424 273.272 4.69775C273.504 4.84834 278.396 4.93488 284.142 4.89028C293.228 4.82006 294.622 4.89823 294.84 5.49263C295.159 6.36081 296.125 6.37097 296.806 5.51338C297.457 4.69333 300.605 4.6028 300.605 5.40474C300.605 5.83 302.852 5.9775 310.296 6.0411C316.147 6.09144 320.317 6.30914 320.821 6.59176C321.388 6.90971 322.011 6.91766 322.766 6.61738C324.257 6.02475 330.54 6.05522 332.208 6.66331C333.097 6.98744 334.356 7.021 335.965 6.76355C337.296 6.55114 340.543 6.44383 343.18 6.52553C347.502 6.65977 347.997 6.75869 348.189 7.52884C348.421 8.45752 348.946 8.643 349.36 7.94218C349.666 7.42374 351.681 7.34029 351.681 7.84592C351.681 8.03581 350.779 8.47166 349.676 8.81479C347.997 9.33764 347.83 9.47895 348.649 9.68517C349.187 9.8203 350.507 9.85784 351.583 9.7682C353.367 9.61982 353.469 9.55181 352.741 8.99451C351.988 8.41867 352.007 8.38378 353.073 8.38378C353.995 8.38378 354.185 8.19963 354.104 7.39018C354.007 6.435 354.133 6.39614 357.38 6.38157C359.237 6.37362 361.09 6.20316 361.496 6.00311C362.037 5.73683 362.234 5.82957 362.234 6.34933C362.234 7.13715 363.136 7.21486 365.822 6.65844C367.473 6.31708 367.487 6.29854 366.456 5.82868C365.875 5.5646 365.59 5.30583 365.822 5.25328C366.055 5.20073 366.434 5.11947 366.667 5.07222C366.899 5.02497 367.421 4.83552 367.827 4.65049C368.234 4.4659 368.839 4.42439 369.172 4.5582C369.505 4.692 369.838 4.63636 369.911 4.435C369.984 4.23363 371.801 3.92583 373.948 3.75051C377.335 3.47451 377.853 3.52396 377.853 4.12145C377.853 4.66506 378.455 4.83817 380.702 4.94107L383.551 5.07178V7.05898C383.551 8.95256 383.497 9.04221 382.391 8.96317C381.42 8.89339 381.23 9.05634 381.23 9.95677C381.23 10.9384 381.062 11.0334 379.33 11.0334C378.285 11.0334 377.431 11.2321 377.431 11.475C377.431 11.7179 377.828 11.9166 378.314 11.9166C378.8 11.9166 379.68 12.314 380.27 12.7998C381.67 13.951 382.918 13.955 382.918 12.8082C382.918 12.2372 383.295 11.8344 384.002 11.649C384.993 11.3884 385.077 11.1879 384.981 9.29877C384.808 5.9011 385.746 5.29787 387.94 7.39371C389.322 8.71454 389.176 10.0879 387.71 9.55138C387.084 9.32219 387.118 9.43346 387.878 10.1096C389.063 11.1632 389.119 12.3582 387.984 12.3582C386.943 12.3582 386.872 13.1641 387.878 13.5589C389.405 14.1581 389.645 15.1138 389.659 20.6382C389.67 25.0476 389.784 26.0478 390.28 26.0478C391.264 26.0478 391.521 26.9699 390.608 27.2194C389.719 27.4627 389.613 28.0359 388.986 35.9838C388.809 38.2276 388.498 39.6455 388.134 39.8699C387.398 40.3238 387.394 41.0622 388.128 41.0622C388.44 41.0622 388.922 41.8571 389.2 42.8286C389.478 43.8001 389.963 44.595 390.277 44.595C390.59 44.595 390.974 45.1417 391.129 45.8094C391.285 46.4771 391.828 47.374 392.336 47.8019C393.165 48.5001 393.189 48.6246 392.569 49.0106C392.188 49.2477 391.759 49.9317 391.616 50.531C391.303 51.8328 389.327 52.5376 385.979 52.5411C383.897 52.5438 383.762 52.6109 383.762 53.6478C383.762 54.6917 383.636 54.7518 381.441 54.7518C379.868 54.7518 379.153 54.9214 379.225 55.2777C379.283 55.5666 378.998 55.8792 378.592 55.9724C378.133 56.0775 377.853 55.8783 377.853 55.4464C377.853 54.9691 377.457 54.7518 376.586 54.7518C375.89 54.7518 375.32 54.5341 375.32 54.2674C375.32 53.945 374.581 53.8699 373.104 54.043C364.691 55.0287 361.39 54.8401 361.39 53.3731C361.39 53.1598 363.29 52.9854 365.611 52.9854C368.457 52.9854 369.833 52.8233 369.833 52.4886C369.833 52.1676 369.366 52.0894 368.513 52.2678C367.788 52.4197 365.187 52.5438 362.734 52.5438C358.722 52.5438 358.356 52.6087 359.093 53.1921C359.544 53.5489 359.818 53.8629 359.702 53.8907C359.586 53.9181 356.864 54.0298 353.654 54.1389C349.268 54.2877 347.892 54.2086 348.122 53.8209C348.342 53.4486 348.027 53.3771 346.994 53.5643C343.618 54.176 336.813 54.4228 336.529 53.9437C336.325 53.597 335.924 53.6288 335.141 54.0545C334.277 54.523 331.464 54.629 322.071 54.5469C309.096 54.4334 306.515 54.5774 306.515 55.4142C306.515 55.756 305.864 55.956 304.753 55.956C303.212 55.956 303.084 55.8849 303.735 55.3868C304.395 54.8825 304.271 54.7862 302.648 54.5407C300.34 54.1919 297.712 54.1976 294.535 54.5584C292.876 54.7469 291.727 54.6569 291.065 54.2864C290.316 53.8673 288.559 53.816 283.838 54.0757C276.369 54.486 276.201 54.4904 270.846 54.4175C268.524 54.3857 265.315 54.4661 263.714 54.5964C261.813 54.7509 260.469 54.6449 259.837 54.2912C259.093 53.8752 258.428 53.8655 256.967 54.2506C255.92 54.5261 254.864 54.7518 254.618 54.7518C253.894 54.7518 254.109 53.9463 254.874 53.7904C255.26 53.7118 252.473 53.5917 248.68 53.5237C243.865 53.4367 241.696 53.5511 241.488 53.9022C241.317 54.1923 240.81 54.278 240.288 54.1049C239.792 53.9401 239.469 53.6637 239.571 53.4915C239.672 53.3188 235.021 53.1585 229.234 53.1351C222.083 53.106 218.528 52.9324 218.137 52.5928C217.715 52.2267 215.996 52.2117 211.701 52.5354C204.916 53.0472 199.56 53.1135 199.156 52.6909C198.74 52.2563 193.242 52.5359 192.775 53.0159C192.174 53.631 189.288 53.5144 189.05 52.8648C188.904 52.4674 187.932 52.3314 185.733 52.3998C169.806 52.8958 159.304 53.1333 156.662 53.0569C154.921 53.007 152.072 52.9938 150.33 53.0278C148.589 53.0622 145.74 53.0795 143.999 53.0666C131.636 52.9748 108.277 53.7335 103.379 54.3862C100.341 54.7911 99.5722 54.7695 98.9897 54.2625C98.197 53.5718 90.1472 52.9033 83.7537 52.9969C79.2658 53.0627 77.5537 52.4599 81.1028 52.0638L83.4245 51.8046L80.8918 51.7463C79.4988 51.714 76.9378 51.881 75.2008 52.1168C72.0315 52.5469 69.2835 52.3234 69.2835 51.6359C69.2835 51.4332 70.1856 51.2066 71.2886 51.1329C73.1754 51.0061 63.4342 50.7001 59.7858 50.7712C58.8571 50.7898 53.2565 50.8096 47.34 50.8158C38.7018 50.8247 36.1817 50.9642 34.5447 51.5246C32.8715 52.0969 32.329 52.123 31.5177 51.6686C30.974 51.3638 30.3556 51.2269 30.1442 51.3638C29.9323 51.5007 28.0623 51.6063 25.988 51.5983C23.9141 51.5904 21.5523 51.5864 20.7398 51.5895C17.3244 51.6019 10.0403 52.5191 9.77351 52.97C9.61522 53.2384 8.78829 53.5767 7.93645 53.7211L6.3877 53.9843V51.056C6.3877 48.7165 6.218 47.9503 5.54346 47.2446C4.63463 46.2938 3.85498 46.0898 3.85498 46.803C3.85498 47.0459 3.57005 47.2446 3.2218 47.2446C2.38685 47.2446 2.41766 48.0814 3.28976 49.0892C4.35054 50.3155 3.70597 50.5067 1.88959 49.5038C0.997228 49.0114 0.551895 48.5857 0.900143 48.5579C1.35223 48.5217 1.30749 48.4144 0.742273 48.1821C0.0276253 47.8884 -0.0424472 47.3696 0.0162274 42.8034C0.106983 35.7935 0.296509 34.8886 1.6857 34.8449L2.79968 34.81L1.63885 34.3667C0.325639 33.8646 0.111202 32.9138 1.21673 32.4956C1.62323 32.3419 2.40964 31.9387 2.96473 31.5992C3.96727 30.9867 3.9736 30.9345 3.88791 24.099L3.80179 17.2158H5.06857C6.02763 17.2158 6.32142 17.0228 6.27795 16.4218C6.23405 15.8128 5.94574 15.6702 5.03776 15.8097C3.93392 15.9793 3.85498 15.8879 3.85498 14.4434C3.85498 13.1314 4.03185 12.8439 5.01581 12.556C5.88326 12.3025 5.99006 12.1705 5.43793 12.0345C4.5042 11.8035 4.51264 11.6702 5.52826 10.6077C5.9909 10.1237 6.4679 9.92894 6.60846 10.1661C7.07195 10.9512 7.65405 10.6019 7.65405 9.53945C7.65405 8.85806 7.35604 8.40541 6.80981 8.25571C6.34548 8.12897 5.96558 7.82868 5.96558 7.58933C5.96558 6.92649 7.31509 6.52774 7.80897 7.04441C8.04874 7.29524 9.01412 7.46702 9.9546 7.42639L11.6642 7.3522L10.0812 7.1791C8.48858 7.00467 7.86047 6.21994 9.237 6.12455C9.94067 6.07598 9.94067 6.06361 9.237 5.87152C8.33451 5.62466 8.25473 4.85098 9.13147 4.85098C9.55359 4.85098 9.76465 4.40938 9.76465 3.52618C9.76465 2.79753 9.97486 2.20138 10.2319 2.20138C10.489 2.20138 10.5831 1.88519 10.4417 1.49923Z" fill="#0F94CD"/>
<path d="M7.23193 5.73418C6.76296 5.73418 6.3877 5.43963 6.3877 5.07178C6.3877 4.70393 6.76296 4.40938 7.23193 4.40938C7.70091 4.40938 8.07617 4.70393 8.07617 5.07178C8.07617 5.43963 7.70091 5.73418 7.23193 5.73418Z" fill="#0F94CD"/>
</svg>
