<svg width="393" height="71" viewBox="0 0 393 71" fill="none" xmlns="http://www.w3.org/2000/svg">
<path d="M219.586 1.61899C219.708 1.41029 220.192 0.958371 220.662 0.614436C221.883 -0.279352 222.12 1.43145 220.947 2.66861C220.19 3.46612 219.749 3.50895 217.799 2.97468L215.531 2.35305L217.448 2.17552C218.503 2.07813 219.465 1.82769 219.586 1.61899Z" fill="#0B80C2"/>
<path d="M363.364 0.241556C362.835 0.37401 361.969 0.37401 361.44 0.241556C360.911 0.108545 361.344 0 362.402 0C363.461 0 363.893 0.108545 363.364 0.241556Z" fill="#0B80C2"/>
<path d="M336.534 1.50377C339.761 1.38857 340.338 1.26724 338.886 1.01013C337.828 0.822576 341.554 0.65451 347.167 0.636145C355.727 0.608875 357.247 0.721845 356.598 1.33904C355.943 1.96291 356.676 2.07479 361.412 2.07479C367.141 2.07479 369.671 2.42652 369.671 3.22236C369.671 3.47057 369.046 3.76941 368.281 3.88572C367.517 4.00259 369.335 4.08106 372.32 4.06047C377.31 4.0254 378.5 3.7171 376.298 3.02811C375.504 2.77934 375.509 2.75597 376.375 2.69586C376.902 2.65913 377.995 3.47667 378.893 4.57915C379.766 5.65047 380.646 6.52702 380.848 6.52702C381.05 6.52702 381.215 6.78079 381.215 7.09078C381.215 7.40021 380.45 7.02455 379.514 6.25598C377.237 4.38548 373.787 4.28532 372.607 6.05564C372.168 6.71457 371.809 7.4659 371.809 7.72524C371.809 7.98458 371.616 8.19662 371.381 8.19662C371.146 8.19662 370.954 7.60278 370.954 6.87651C370.954 5.75955 370.682 5.49964 369.186 5.18854C368.214 4.98596 367.316 4.95425 367.191 5.11732C367.066 5.28038 367.313 5.41395 367.742 5.41395C368.47 5.41395 368.474 5.48127 367.813 6.43183C366.655 8.09752 366.96 8.74926 368.923 8.80046L370.74 8.84774L368.482 9.55954C367.241 9.95078 366.15 10.3676 366.059 10.4862C365.968 10.6042 372.179 10.6693 379.861 10.6309C387.544 10.5925 393.444 10.6793 392.974 10.824C392.503 10.9687 391.936 11.3132 391.712 11.5898C391.489 11.8664 390.971 12.0923 390.562 12.0923C389.715 12.0923 389.368 12.6583 389.112 14.4553C389.014 15.1454 388.4 16.3498 387.747 17.1323C386.243 18.9354 386.038 21.2973 387.34 21.8149C387.867 22.0241 388.05 22.3041 387.763 22.4605C387.202 22.7649 388.581 24.8925 389.339 24.8925C389.575 24.8925 389.767 25.2515 389.767 25.69C389.767 26.1286 390.188 26.6612 390.702 26.8732C391.605 27.2467 391.609 27.2861 390.834 28.0241C390.063 28.7576 390.069 28.7882 390.968 28.7882C391.682 28.7882 391.905 29.1188 391.905 30.1795C391.905 31.2926 391.691 31.5709 390.836 31.5709C389.602 31.5709 389.42 32.3723 390.515 32.9806C391.11 33.3117 390.957 33.5037 389.767 33.92C388.944 34.2077 387.405 34.6262 386.346 34.8505L384.422 35.2579L387.415 35.673C391.158 36.1928 393.199 37.2503 389.874 36.9475L387.629 36.7433V38.9471C387.629 40.4782 387.792 41.0714 388.164 40.89C388.458 40.7469 389.083 40.8276 389.553 41.0697C390.281 41.4448 390.224 41.5161 389.169 41.5495L387.929 41.5884L388.226 49.401C388.39 53.698 388.627 57.5631 388.753 57.9911C388.919 58.5531 388.528 58.8309 387.343 58.9939C385.97 59.1826 385.856 59.2878 386.638 59.6417C387.594 60.0747 388.359 61.6235 387.616 61.6235C387.388 61.6235 387.202 62.1327 387.202 62.7544C387.202 63.4072 386.795 64.0984 386.239 64.3889C385.311 64.8747 385.318 64.8931 386.44 64.9276C387.326 64.9543 387.54 65.1753 387.339 65.8554C387.135 66.5477 386.711 66.6723 385.454 66.4108C384.536 66.2199 383.718 66.3156 383.568 66.6312C383.415 66.9523 383.812 67.1921 384.504 67.1972C385.436 67.2038 385.562 67.3263 385.064 67.7453C384.711 68.042 383.602 68.2885 382.599 68.2935C381.596 68.298 380.442 68.5156 380.034 68.7766C376.223 71.2125 376.258 71.2031 372.502 70.7962C370.481 70.577 368.922 70.198 369.038 69.9537C369.154 69.7099 369.007 69.3832 368.712 69.2279C368.416 69.0732 369.377 68.9263 370.847 68.9024C372.376 68.8773 373.519 68.613 373.519 68.2846C373.519 67.4303 372.196 66.9295 371.853 67.6529C371.652 68.0748 369.541 68.2584 365.376 68.2167C361.976 68.1822 357.752 68.1622 355.989 68.1728C354.225 68.1833 341.045 68.1906 326.7 68.1889C312.355 68.1872 300.329 68.2106 299.977 68.2412C299.624 68.2713 297.315 68.3981 294.846 68.5223C291.586 68.687 291.196 68.6491 293.422 68.3859C299.341 67.6863 297.023 67.2083 287.961 67.2611C282.929 67.2901 277.946 67.2562 276.888 67.1855C275.165 67.0703 275.097 67.0191 276.246 66.6935C277.08 66.4575 277.346 66.1798 277.004 65.8999C276.716 65.6634 275.673 65.7524 274.686 66.098C273.515 66.5087 273.081 66.8788 273.437 67.1648C274.203 67.7809 269.504 68.4772 267.792 68.0008C267.033 67.7899 266.21 67.4059 265.962 67.1476C265.715 66.89 265.041 66.8421 264.466 67.0413L263.419 67.4042L264.488 67.8333C265.076 68.0693 264.499 68.0909 263.205 67.8817C261.912 67.6724 256.813 67.5311 251.875 67.5678C245.332 67.6157 243.476 67.4966 245.034 67.1276C246.209 66.8488 247.915 66.5939 248.824 66.5599C249.733 66.5265 250.281 66.3412 250.041 66.1486C249.621 65.8108 245.14 65.8865 232.888 66.4386C228.464 66.6378 227.074 66.5304 226.795 65.9689C226.565 65.5042 226.318 65.4419 226.113 65.7975C225.918 66.137 222.203 66.3652 216.6 66.3824C211.544 66.398 196.729 66.4959 183.677 66.6C170.625 66.7035 152.154 66.7792 142.63 66.7681C133.106 66.757 120.888 66.7475 115.479 66.7469C110.07 66.7464 92.8497 66.7019 77.2112 66.6484C61.5727 66.595 42.2357 66.6006 34.2401 66.6607C19.6295 66.7703 8.32623 65.8759 4.52382 64.3093C1.64369 63.1222 1.6732 63.1428 2.49285 62.8879C3.62165 62.5362 3.39033 61.6235 2.17217 61.6235C1.31703 61.6235 1.10324 61.3452 1.10324 60.2322C1.10324 59.1714 1.326 58.8409 2.04005 58.8409C2.93924 58.8409 2.9448 58.8103 2.17388 58.0768C1.39869 57.3388 1.4034 57.2993 2.30601 56.9258C2.82038 56.7138 3.24111 56.1812 3.24111 55.7427C3.24111 55.3041 3.43351 54.9452 3.66868 54.9452C4.34681 54.9452 5.66331 52.995 5.47689 52.2671C5.38367 51.9031 5.59019 51.6059 5.93482 51.6059C7.05634 51.6059 6.47099 48.6202 4.95354 46.6C4.17193 45.5593 3.7435 44.6171 4.00133 44.5052C4.69656 44.2036 3.20476 42.1449 2.29104 42.1449C1.87287 42.1449 1.53081 41.9112 1.53081 41.6252C1.53081 41.3397 1.00148 40.9896 0.354989 40.8472C-0.291929 40.7052 0.718426 40.5889 2.59975 40.5895C11.9717 40.5922 15.2131 40.4303 15.2131 39.9589C15.2131 39.3829 10.8908 38.4691 9.22713 38.6933C8.43825 38.8002 8.3164 38.7011 8.76193 38.316C9.23525 37.9064 9.14332 37.7389 8.33435 37.5408C7.42405 37.3176 7.45099 37.2786 8.56439 37.2119C9.34428 37.1651 9.67052 36.9403 9.41953 36.6225C9.17068 36.3081 8.19112 36.3832 6.89215 36.8178L4.77096 37.5269L6.46458 38.08L8.15819 38.6338L6.23412 39.0295C3.83885 39.522 0.889455 38.7735 0.889455 37.6732C0.889455 37.1323 1.62616 36.716 3.13421 36.4032C4.36862 36.1478 5.37897 35.707 5.37897 35.4243C5.37897 35.1416 5.9083 34.8761 6.55479 34.8344C7.56301 34.7693 7.59337 34.7242 6.76858 34.5171C6.08575 34.3463 5.80654 33.8838 5.80654 32.9232C5.80654 32.1797 5.56625 31.562 5.27208 31.5508C4.97833 31.5397 5.31483 30.8891 6.02033 30.1044C7.28167 28.7025 7.28509 28.6836 6.2307 28.9886C4.42762 29.5095 4.22196 28.8979 4.57 24.0577C4.74616 21.609 4.90436 17.8079 4.92104 15.6113C4.94669 12.2554 4.83168 11.577 4.20314 11.3627C3.64003 11.1713 3.69305 11.0923 4.41693 11.0438C5.23488 10.9887 5.37897 10.6665 5.3794 8.89226V6.80529L3.13464 6.96334C1.18876 7.10025 1.00362 7.02788 1.7446 6.42126C2.41846 5.86974 14.913 5.69613 60.7496 5.60208C115.926 5.4891 122.978 5.38056 133.651 4.48399C136.12 4.2764 139.968 4.20071 142.202 4.31647C144.436 4.43167 148.603 4.53799 151.462 4.55245C154.32 4.56748 156.6 4.70438 156.527 4.85742C156.455 5.01047 159.6 5.15796 163.515 5.18523C177.597 5.28374 184.391 5.56645 182.394 5.97049C178.876 6.68229 192.967 6.93662 204.842 6.37564C208.604 6.19811 212.356 6.25878 213.179 6.51089C214.357 6.87207 213.873 6.98171 210.904 7.02679C207.551 7.07743 207.204 7.1765 207.774 7.91836C208.494 8.85667 210.186 9.05145 210.186 8.19662C210.186 7.88719 211.327 7.64009 212.752 7.64009C214.177 7.64009 215.317 7.39299 215.317 7.08356C215.317 6.77746 216.039 6.55205 216.921 6.58266C218.352 6.63219 218.409 6.68564 217.455 7.08356C216.691 7.40189 217.239 7.54157 219.379 7.57217C221.505 7.60334 222.912 7.2967 224.236 6.51477C225.261 5.90927 226.379 5.41395 226.72 5.41395C227.061 5.41395 227.237 5.19689 227.111 4.93143C226.769 4.21128 230.157 3.75547 233.52 4.06824C235.149 4.22017 238.118 4.11556 240.116 3.83563C243.025 3.42881 241.572 3.34087 232.848 3.39652C224.819 3.44772 221.969 3.6364 222.039 4.11279C222.181 5.08784 220.027 5.77626 218.096 5.37277L216.386 5.01548L218.212 4.93648C219.299 4.88918 220.685 4.33037 221.633 3.55513C223.212 2.2662 223.342 2.25399 234.986 2.3408C251.852 2.46714 255.449 2.6235 254.44 3.18782C253.83 3.52897 254.321 3.67761 256.15 3.70599C257.561 3.72769 260.816 4.00427 263.382 4.3215C266.601 4.7183 268.187 4.71831 268.492 4.32094C268.798 3.92302 268.422 3.74435 267.281 3.74435C266.372 3.74435 265.754 3.58131 265.907 3.38207C266.338 2.81997 285.461 2.69252 285.194 3.2535C285.066 3.52342 284.251 3.78275 283.383 3.83006C282.515 3.87681 283.729 4.10667 286.081 4.34097C290.51 4.78118 294.553 4.47789 294.199 3.73214C293.81 2.9146 295.206 2.71757 301.533 2.6992C305.282 2.68807 308.159 2.91846 308.533 3.26072C309.025 3.70984 308.93 3.77163 308.113 3.53455C307.533 3.36592 306.582 3.38372 306 3.5735C304.04 4.21351 306.332 4.69716 309.811 4.37771C312.571 4.12393 312.809 4.02543 311.521 3.6687C310.621 3.41937 311.048 3.38372 312.59 3.57962C316.023 4.01483 326.003 4.15064 327.341 3.78C328.196 3.54347 328.025 3.41547 326.486 3.1411C324.631 2.81052 324.661 2.79325 327.341 2.64911C329.659 2.52444 329.908 2.42428 328.838 2.04417C327.773 1.66628 327.954 1.59449 329.907 1.62288C331.2 1.64124 334.182 1.5878 336.534 1.50377Z" fill="#0B80C2"/>
<path d="M200.673 5.37501C199.265 5.3444 199.049 5.22807 199.711 4.85742C200.903 4.1907 202.49 4.1907 202.49 4.85742C202.49 5.16351 201.672 5.39616 200.673 5.37501Z" fill="#0B80C2"/>
<path d="M205.615 5.40559C203.854 5.39947 203.318 5.23976 203.773 4.85742C204.617 4.14729 207.498 4.14729 207.835 4.85742C207.999 5.20414 207.164 5.4106 205.615 5.40559Z" fill="#0B80C2"/>
<path d="M195.135 5.82692C193.323 5.93099 190.245 5.93153 188.293 5.82857C186.342 5.72505 187.824 5.63993 191.587 5.63937C195.35 5.63882 196.946 5.72284 195.135 5.82692Z" fill="#0B80C2"/>
<path d="M387.579 7.08356C387.343 7.08356 387.27 6.83311 387.415 6.52702C387.561 6.22093 387.872 5.97049 388.107 5.97049C388.342 5.97049 388.416 6.22093 388.27 6.52702C388.125 6.83311 387.814 7.08356 387.579 7.08356Z" fill="#0B80C2"/>
<path d="M0.839003 33.2405C0.23527 33.2405 -0.114913 32.9984 0.0343096 32.6839C0.179684 32.3778 0.779567 32.1274 1.36748 32.1274C1.97121 32.1274 2.3214 32.3695 2.17217 32.6839C2.0268 32.99 1.42692 33.2405 0.839003 33.2405Z" fill="#0B80C2"/>
<path d="M1.04723 35.2763C1.30891 34.8656 1.39698 34.3647 1.2422 34.1632C1.08742 33.9617 1.95496 33.797 3.1697 33.797C5.70734 33.797 6.00793 34.3903 3.959 35.3547C1.95881 36.2964 0.423402 36.2547 1.04723 35.2763Z" fill="#0B80C2"/>
</svg>
