<svg width="393" height="64" viewBox="0 0 393 64" fill="none" xmlns="http://www.w3.org/2000/svg">
<path d="M174.168 1.75339C192.827 1.8591 193.308 1.83777 194.131 0.863512C194.839 0.0242474 195.315 -0.085952 197.12 0.171138C198.301 0.338891 199.763 0.478859 200.37 0.480844C201.119 0.483822 201.544 0.803932 201.692 1.47792C201.851 2.19559 202.264 2.47056 203.182 2.47056C203.881 2.47056 204.57 2.6939 204.712 2.96687C205.147 3.80018 208.273 3.5823 208.273 2.71871C208.273 2.13555 208.84 1.97574 210.891 1.98169C212.814 1.98765 213.342 2.12514 212.881 2.49986C212.437 2.86067 212.99 2.91327 214.766 2.67852C217.896 2.26509 218.556 1.82536 216.651 1.42236C215.794 1.2412 217.362 1.0526 220.42 0.968721C223.3 0.889808 225.939 0.885327 226.285 0.958781C229.159 1.56974 231.193 1.50024 231.702 0.774137C232.388 -0.205088 233.825 -0.25569 233.825 0.698719C233.825 1.08932 234.249 1.50573 234.767 1.62385C235.513 1.79408 235.447 1.85464 234.453 1.91419C233.762 1.95539 232.914 2.20602 232.568 2.47056C232.136 2.8011 233.094 2.95396 235.633 2.95942C237.663 2.96339 239.69 3.19815 240.136 3.48104C240.582 3.76345 242.395 4.00368 244.166 4.0151C246.17 4.02701 247.162 4.19771 246.795 4.46622C245.865 5.14766 246.636 5.59385 247.642 4.95609C248.139 4.64093 250.841 4.29253 253.647 4.18186C256.453 4.07118 260.633 3.84335 262.937 3.6756C265.241 3.50785 266.98 3.54607 266.802 3.75948C266.624 3.97339 264.55 4.31238 262.194 4.51239C259.838 4.71291 262.811 4.7397 268.801 4.57244C274.791 4.40518 280.823 4.31237 282.206 4.36696C283.588 4.42106 285.284 4.25928 285.976 4.00715C287.018 3.62698 286.714 3.5411 284.195 3.50587C282.525 3.48254 281.158 3.26864 281.158 3.0309C281.158 2.09982 287.95 1.56678 293.885 2.03183C301.759 2.64924 302.132 2.84029 295.598 2.90928C290.652 2.96139 290.083 3.06018 289.536 3.9595C288.997 4.84641 288.452 4.95213 284.417 4.95213C281.392 4.95213 279.902 5.13376 279.902 5.50202C279.902 5.83604 280.3 5.93383 280.914 5.75119C281.547 5.56309 281.993 5.6827 282.103 6.06982C282.242 6.5582 282.419 6.55223 282.943 6.03954C283.453 5.54075 284.698 5.47226 288.311 5.74275C291.632 5.9919 292.933 5.9383 292.737 5.5616C292.583 5.26779 292.79 4.92484 293.196 4.79927C293.71 4.63996 293.617 4.54912 292.887 4.4985C292.077 4.44192 291.982 4.32727 292.468 3.99028C293.225 3.46617 297.076 3.90888 297.076 4.52034C297.076 4.75807 297.673 4.95213 298.403 4.95213C300.559 4.95213 299.467 5.48914 296.382 5.94575C293.753 6.33485 293.897 6.35917 298.123 6.24005C301.469 6.14575 303.075 5.88469 303.988 5.28614C305.534 4.27168 306.202 4.25478 308.078 5.18388C309.134 5.70649 310.065 5.79835 311.376 5.51L313.203 5.10846L311.527 4.75509C310.606 4.56054 309.525 4.19028 309.125 3.93219C308.725 3.67411 308.018 3.46319 307.554 3.46319C306.391 3.46319 306.484 2.48248 307.653 2.42094C308.55 2.37379 308.545 2.35442 307.548 2.01296C306.642 1.70276 306.77 1.6045 308.49 1.28736C309.585 1.08585 310.48 0.711137 310.48 0.45504C310.48 -0.169321 312.456 -0.143505 312.784 0.485323C312.926 0.758294 314.398 1.01488 316.055 1.05607C317.712 1.09677 318.555 1.22283 317.928 1.3355C316.918 1.51764 316.847 1.64965 317.296 2.50182C317.575 3.03089 318.04 3.46319 318.33 3.46319C318.62 3.46319 318.858 3.7982 318.858 4.20766C318.858 4.61712 319.058 4.95213 319.301 4.95213C319.545 4.95213 319.642 5.15014 319.516 5.39184C319.39 5.63354 319.709 5.92687 320.224 6.0435C321.421 6.31449 323.884 5.57054 323.884 4.93774C323.884 4.30147 326.274 4.31387 326.607 4.95213C326.75 5.2251 327.279 5.44496 327.784 5.44099C328.513 5.43504 328.575 5.33827 328.085 4.97149C326.981 4.14414 327.842 3.9883 331.654 4.32529C334.489 4.57593 335.097 4.74468 334.147 5.01617C332.632 5.44895 338.355 5.16654 341.002 4.67817C342.008 4.49255 343.216 3.88456 343.687 3.3272L344.542 2.31374L343.533 2.63286C342.979 2.80856 340.451 3.05619 337.917 3.18324C335.04 3.32817 333.86 3.26219 334.775 3.00808C336.071 2.64875 335.9 2.58224 333.309 2.43831C331.697 2.34847 334.618 2.14745 339.802 1.99111C348.829 1.71914 352.601 1.94546 347.793 2.47056C344.86 2.79117 344.538 3.77289 347.21 4.24736C348.838 4.53671 349.063 4.68709 348.387 5.03203C347.823 5.32039 348.075 5.36656 349.162 5.174C351.253 4.80424 366.735 5.87179 368.914 6.53586C371.701 7.38455 374.193 7.58108 374.691 6.99097C374.947 6.68871 375.986 6.44105 377.002 6.44105C378.47 6.44105 378.798 6.28871 378.606 5.69661C378.474 5.28715 378.595 4.94917 378.876 4.9452C379.157 4.94172 379.811 4.80373 380.329 4.63945C380.847 4.47467 381.271 4.56352 381.271 4.83649C381.271 5.10946 380.847 5.49011 380.329 5.68268L379.386 6.03307L380.354 6.36115C380.885 6.54181 381.299 6.91255 381.271 7.18552C381.201 7.88632 382.719 8.3062 385.879 8.46006C387.768 8.55237 388.12 8.65263 387.031 8.78762C386.167 8.89483 385.46 9.19261 385.46 9.4487C385.46 9.7053 384.895 9.91526 384.203 9.91526C381.81 9.91526 382.958 10.8612 385.565 11.0369C388.159 11.2111 388.152 11.2141 384.832 11.358C381.081 11.5203 379.854 11.8578 379.7 12.769C379.635 13.1552 380.07 13.3894 380.852 13.3894C381.544 13.3894 382.109 13.6128 382.109 13.8858C382.109 14.1587 383.146 14.3821 384.413 14.3821C385.68 14.3821 386.717 14.6054 386.717 14.8784C386.717 15.1514 386.246 15.3747 385.67 15.3747C385.094 15.3747 384.624 15.5419 384.626 15.7469C384.632 16.4398 386.874 17.3599 388.556 17.3599C390.059 17.3599 390.15 17.4274 389.457 18.0275C388.721 18.6657 388.726 18.7069 389.587 18.9734C390.705 19.3199 390.761 20.3458 389.682 20.6803C389.031 20.8818 388.92 21.2411 389.1 22.5558C389.344 24.3435 389.082 24.684 386.717 25.6533L385.251 26.2538L387.031 25.9819C388.63 25.7377 388.811 25.8151 388.811 26.7462C388.811 27.4514 388.543 27.7825 387.973 27.7825C387.508 27.7825 387.136 28.1135 387.136 28.527C387.136 29.122 386.484 29.2779 383.889 29.3027C380.237 29.3384 380.661 29.7821 385.251 30.7256C390.599 31.825 391.651 32.1237 390.407 32.1898C389.787 32.2225 389.147 32.5034 388.985 32.8141C388.773 33.2201 389.15 33.2846 390.321 33.0439C391.492 32.8037 391.775 32.8523 391.324 33.2161C390.825 33.6191 390.932 33.7248 391.848 33.7308C392.482 33.7348 393 33.9616 393 34.2346C393 34.6803 389.883 34.9914 387.136 34.8197C386.099 34.7552 386.098 34.7592 387.031 35.2227C388.412 35.9096 388.182 36.1975 386.507 35.8754C385.633 35.7071 385.041 35.7984 385.041 36.1012C385.041 36.8794 386.933 37.2685 389.352 36.9881C391.474 36.7424 391.489 36.7489 389.876 37.2358C388.964 37.5107 388.116 37.9222 387.991 38.1495C387.866 38.3768 387.142 38.9406 386.381 39.4022C385.273 40.0752 385.054 40.4489 385.277 41.2827C385.532 42.2341 385.435 42.2976 384.147 42.0207C383.372 41.8544 382.313 41.5715 381.795 41.3924C381.268 41.2107 380.852 41.2837 380.852 41.5581C380.852 41.8276 381.606 42.1914 382.528 42.3661C383.449 42.5408 384.203 42.8783 384.203 43.117C384.203 43.3553 385.251 43.7052 386.531 43.8948C389.327 44.3087 389.423 45.3361 386.684 45.5381C385.329 45.6378 385 45.5401 385.46 45.1733C385.947 44.7847 385.788 44.6705 384.752 44.6646C382.546 44.6522 382.788 45.5306 385.095 45.9068C387.699 46.3307 387.073 47.1198 384.123 47.1312C382.052 47.1392 380.991 48.0077 382.486 48.4708C382.97 48.6207 383.366 49.0525 383.366 49.4302C383.366 49.8074 383.554 50.1165 383.785 50.1165C384.015 50.1165 384.203 50.3399 384.203 50.6129C384.203 50.8858 383.815 51.1092 383.341 51.1092C382.867 51.1092 382.583 51.3092 382.71 51.5534C382.838 51.7981 382.629 52.14 382.246 52.3142C381.378 52.7093 381.946 53.4274 383.366 53.7292C384.094 53.884 383.903 53.9769 382.737 54.0344C381.382 54.1014 381.202 54.2136 381.795 54.6231C382.198 54.9015 382.528 55.3055 382.528 55.5209C382.528 56.1954 380.463 57.0644 378.843 57.0719C377.99 57.0753 376.863 57.2143 376.34 57.3806C375.446 57.6645 375.433 57.7245 376.13 58.3509C376.539 58.7182 377.308 59.0259 377.84 59.0343C378.372 59.0432 378.704 59.2477 378.579 59.4889C378.333 59.9594 379.978 60.8597 381.69 61.1928C382.315 61.3144 382.016 61.424 380.951 61.4642C379.969 61.5015 378.816 61.2731 378.389 60.957C377.962 60.6409 377.258 60.5456 376.824 60.7446C376.056 61.0965 376.057 61.1252 376.848 61.8151C377.296 62.2052 378.285 62.5244 379.047 62.5244C379.81 62.5244 380.434 62.7765 380.434 63.0842C380.434 63.4693 379.878 63.5294 378.653 63.2773C377.674 63.0758 375.082 62.6261 372.894 62.2787C370.705 61.9308 369.244 61.6206 369.647 61.5888C370.05 61.5575 370.38 61.3168 370.38 61.0548C370.38 60.7922 371.126 60.3396 372.038 60.0483C374.182 59.3643 374.606 58.5519 372.814 58.5608C370.73 58.5707 369.344 59.0924 370.031 59.6075C370.377 59.8681 369.753 60.0304 368.391 60.0353C365.875 60.0438 365.399 59.2025 367.762 58.9266C368.626 58.8258 367.413 58.7608 365.067 58.7817C362.72 58.803 360.663 58.9837 360.494 59.1832C359.98 59.7922 357.308 59.618 357.632 58.9971C357.829 58.6199 357.612 58.5628 356.941 58.8149C355.327 59.4219 351.522 59.8274 348.075 59.7594C345.649 59.7118 344.829 59.8602 344.829 60.3461C344.829 60.8205 345.821 61.0414 348.494 61.162C350.659 61.2598 349.372 61.3694 345.352 61.4295C339.543 61.5169 338.545 61.4225 338.545 60.7873C338.545 60.2671 338.103 60.0428 337.079 60.0428C336.055 60.0428 335.613 60.2671 335.613 60.7873C335.613 61.2007 335.986 61.5317 336.451 61.5317C336.912 61.5317 337.289 61.7794 337.289 62.0821C337.289 62.4435 336.748 62.5249 335.718 62.3189C334.854 62.1462 332.971 62.0246 331.534 62.0484C329.79 62.0777 328.609 61.8335 327.984 61.3154C327.47 60.8885 326.62 60.5391 326.095 60.5391C325.566 60.5391 325.141 60.2359 325.141 59.8587C325.141 59.4189 324.418 59.0646 323.1 58.8571C320.999 58.5271 319.696 58.8149 319.696 59.609C319.696 59.8582 319.245 59.9276 318.694 59.7639C318.143 59.6001 317.567 59.7073 317.413 60.0026C317.259 60.2979 316.731 60.5391 316.24 60.5391C315.364 60.5391 315.363 60.5247 316.16 59.8105C317.221 58.8591 316.145 58.804 314.725 59.7366C313.896 60.281 313.845 60.4389 314.411 60.6964C315.54 61.2101 315.17 62.0281 313.807 62.0281C313.057 62.0281 312.633 61.8216 312.784 61.5307C312.927 61.2573 312.549 60.8106 311.944 60.5381C310.557 59.9132 307.129 59.8895 307.129 60.5044C307.129 60.7585 306.705 61.0632 306.187 61.1813C305.668 61.3 306.752 61.4494 308.595 61.5134C313.26 61.6767 311.102 62.4102 305.768 62.4747C303.522 62.502 301.684 62.6916 301.684 62.8966C301.684 63.5746 249.662 63.6321 243.601 62.9606C239.189 62.4718 237.495 62.4752 235.124 62.977C232.966 63.4341 229.882 63.5066 223.777 63.2445C219.166 63.0465 215.394 62.7338 215.394 62.5497C215.394 61.9829 232.542 61.0245 236.652 61.361C239.314 61.5794 240.527 61.5109 240.527 61.1421C240.527 60.2036 239.24 60.0835 231.102 60.2656C226.725 60.3634 220.069 60.4652 216.312 60.4915C211.874 60.5222 209.571 60.7128 209.739 61.0354C209.888 61.3208 209.498 61.5352 208.821 61.5392C208.032 61.5447 207.826 61.6831 208.195 61.96C208.53 62.2127 207.488 62.499 205.513 62.6971C200.665 63.1825 176.522 63.0867 176.258 62.5809C175.963 62.0156 177.397 61.565 179.789 61.4712C181.241 61.4141 180.953 61.3074 178.532 61.0061C176.779 60.7882 174.486 60.8181 173.344 61.0737C172.218 61.3258 167.977 61.569 163.919 61.6151C157.452 61.6881 157.067 61.7337 160.8 61.9874C165.107 62.2797 165.855 62.5253 165.355 63.4837C164.97 64.2212 163.452 64.1488 163.452 63.3929C163.452 62.9075 160.553 62.7914 150.153 62.8584C142.838 62.9055 136.147 63.0976 135.284 63.2847C134.421 63.4718 133.195 63.45 132.561 63.2356L131.408 62.8465L132.874 62.4653C133.686 62.2548 131.816 62.1814 128.685 62.3005C125.575 62.4192 117.093 62.4891 109.836 62.4559C102.578 62.4226 90.8916 62.4251 83.8648 62.4608C76.2873 62.4995 71.4299 62.3501 71.9267 62.093C72.9542 61.5625 66.5868 60.9024 59.7791 60.8334C55.4671 60.7903 55.1802 60.8478 55.3096 61.7332C55.4403 62.6286 55.2263 62.6618 51.3302 62.3561C49.0653 62.1784 43.7254 61.9928 39.4633 61.9437L31.714 61.8538L37.7878 61.5069C41.1284 61.3163 44.5686 61.1322 45.4324 61.098C47.5988 61.0116 47.4057 60.2269 45.1182 59.8204C44.0815 59.6363 43.2332 59.276 43.2332 59.0199C43.2332 58.7633 41.7722 58.5281 39.9869 58.4963C38.2016 58.4645 37.1176 58.3315 37.5783 58.2C39.7787 57.5727 38.7868 57.1791 35.636 57.4287C33.7091 57.5811 32.0386 57.867 31.9234 58.0635C31.6977 58.4492 28.7801 58.8695 23.1269 59.3306C20.5315 59.5425 19.7369 59.4765 20.1947 59.0874C20.7221 58.6397 20.6547 58.4943 19.7758 58.1816C18.9749 57.8968 19.3607 57.7508 21.4187 57.5612C22.8982 57.4248 24.177 57.0669 24.2604 56.7656C24.4221 56.1825 19.7876 55.4455 15.4823 55.37C14.1574 55.3467 13.0733 55.1606 13.0737 54.9556C13.0737 54.7506 12.8852 54.5834 12.6548 54.5834C12.4245 54.5834 12.236 54.9184 12.236 55.3278C12.236 55.7373 11.9687 56.0723 11.642 56.0723C11.3153 56.0723 10.7498 56.2078 10.3853 56.3736C10.0209 56.5393 9.72266 56.4535 9.72266 56.1835C9.72266 55.913 10.147 55.5343 10.6652 55.3417L11.6076 54.9913L10.5604 54.5888C9.98447 54.367 9.75995 54.164 10.0615 54.1367C10.3631 54.1094 10.4934 53.8637 10.351 53.5908C9.98865 52.8964 11.7882 52.9704 16.2153 53.832C18.2888 54.2359 20.5039 54.57 21.1372 54.5749C23.1026 54.5893 22.4014 53.6558 20.2994 53.4592C18.631 53.3034 18.7626 53.2587 21.1125 53.1838C22.654 53.1346 24.0317 52.8711 24.1741 52.5981C24.3165 52.3252 24.0447 52.1018 23.5705 52.1018C23.0963 52.1018 22.708 51.8884 22.708 51.6278C22.708 51.3673 22.0181 51.001 21.1749 50.8134C20.0171 50.5563 19.5228 50.665 19.1571 51.2581C18.8882 51.6933 17.72 52.1931 16.5358 52.3793C14.6445 52.6766 14.3354 52.5946 13.8453 51.664C13.5404 51.0858 12.8651 50.6129 12.3445 50.6129C11.4991 50.6129 11.1984 50.126 11.3488 48.9998C11.376 48.7949 10.7854 48.5939 10.0368 48.5532C8.86773 48.4891 8.94187 48.4296 10.5604 48.1313L12.4454 47.7839L10.8876 47.7095C9.75785 47.6554 9.39049 47.4484 9.55008 46.9555C9.67198 46.5793 9.4328 46.1396 9.0135 45.9689C8.59713 45.7996 7.69109 45.2284 6.99993 44.6993C6.30877 44.1703 5.08354 43.7052 4.27719 43.666C3.47085 43.6268 2.43411 43.4029 1.97334 43.1682C1.24365 42.7965 1.29768 42.7299 2.39222 42.649C3.13365 42.5944 3.34811 42.4634 2.91583 42.3299C2.08518 42.0728 1.90213 40.1943 2.70639 40.1828C3.05531 40.1774 3.02055 40.0146 2.60167 39.694C2.10403 39.3128 2.192 39.2111 3.02473 39.2051C3.93078 39.1987 4.07529 38.9753 4.07194 37.5847C4.06817 36.1295 4.21101 35.9419 5.53384 35.6649L6.99993 35.3577L5.63856 35.2927C4.57209 35.2416 4.27719 35.0108 4.27719 34.2286C4.27719 33.3461 4.07027 33.2588 2.49694 33.4762C1.13097 33.6653 0.960484 33.6206 1.7639 33.2836C2.33986 33.0419 3.61201 32.8225 4.59136 32.7952C5.5707 32.7679 6.37161 32.5223 6.37161 32.2493C6.37161 31.6071 12.5376 31.5902 12.7248 32.2319C12.8015 32.4955 13.9953 32.8404 15.3776 32.9982C17.8042 33.2757 17.8477 33.2608 16.6342 32.5595L15.3776 31.8334L16.5295 31.7932C18.4015 31.7277 17.8427 30.7648 15.9012 30.7108C14.389 30.6691 14.2784 30.6015 15.1681 30.264C16.1525 29.8903 16.1324 29.8635 14.8293 29.8174C13.8784 29.7831 13.5374 29.9484 13.7431 30.3425C13.9651 30.7683 13.24 30.8378 10.9458 30.6095C9.24221 30.4408 7.78324 30.07 7.70323 29.7866C7.62365 29.5032 7.33336 29.2714 7.05816 29.2714C6.78295 29.2714 6.23505 28.8248 5.84046 28.2788C5.44587 27.7329 5.32314 27.2862 5.56777 27.2862C5.8124 27.2862 6.29537 26.9512 6.64095 26.5417C7.04517 26.0628 8.08023 25.7972 9.54296 25.7972C11.1753 25.7972 11.8171 25.6076 11.8171 25.1257C11.8171 24.619 12.331 24.5123 13.9115 24.6925C16.0155 24.9322 16.3251 24.6825 15.6025 23.3281C15.262 22.6903 14.9122 22.7171 12.8861 23.5331C11.6068 24.0482 10.5604 24.6567 10.5604 24.885C10.5604 25.1138 10.3719 25.3009 10.1415 25.3009C9.91116 25.3009 9.72266 24.8676 9.72266 24.3376C9.72266 23.069 9.16387 22.7107 6.19191 22.0734C3.37702 21.4699 2.49946 20.3378 4.84604 20.3378C5.65783 20.3378 6.43863 20.5611 6.58105 20.8341C6.90107 21.448 9.17016 21.4922 9.4839 20.8907C9.60998 20.6485 8.64069 20.2922 7.32959 20.0981C5.43331 19.8172 5.09862 19.6435 5.69386 19.2489C6.10562 18.9759 7.18047 18.836 8.08232 18.9377C9.98824 19.1531 10.4293 18.0488 8.57074 17.7153C7.53652 17.5297 7.56877 17.4949 8.8849 17.3758L10.351 17.2423L9.09434 16.8636C8.02033 16.5395 8.15688 16.476 10.0368 16.4259C12.5472 16.3589 12.9531 15.6447 10.7581 15.1568C8.67839 14.6942 9.36787 13.8858 11.8418 13.8858C13.927 13.8858 14.6981 13.044 13.0737 12.5407C12.613 12.3978 12.236 11.972 12.236 11.5943C12.236 11.2171 11.8121 10.898 11.2935 10.8856C10.4628 10.8657 10.5001 10.7843 11.6076 10.1992L12.8643 9.53557L11.8171 9.01246C10.8524 8.53054 10.9102 8.48686 12.5501 8.45758C13.5295 8.4407 14.3304 8.20297 14.3304 7.93C14.3304 7.65702 13.8591 7.43368 13.2832 7.43368C12.7072 7.43368 12.236 7.20588 12.236 6.92795C12.236 6.64405 12.7411 6.53636 13.3879 6.68227C14.3978 6.91058 14.3593 6.84007 13.0737 6.1095C12.2674 5.6519 10.7594 5.1035 9.72266 4.89108C8.3215 4.60421 8.67127 4.56102 11.084 4.72232C12.8693 4.84193 14.3304 4.74267 14.3304 4.50245C14.3304 3.95502 13.2865 3.46566 12.0969 3.45573C11.5976 3.45126 10.906 3.21008 10.5604 2.91974C10.1068 2.53808 10.9219 2.47701 13.4926 2.69886C15.4509 2.8681 17.1159 3.22098 17.1926 3.48304C17.2697 3.74509 17.9964 3.9595 18.8082 3.9595C19.9484 3.9595 20.2295 4.12924 20.0431 4.70397C19.8471 5.30997 20.2287 5.44845 22.0927 5.44845C23.3527 5.44845 24.3835 5.64397 24.3835 5.88269C24.3835 6.12142 26.9362 6.28868 30.0556 6.25493L35.7281 6.19289L35.6058 4.97297C35.5074 3.98779 35.1216 3.63939 33.599 3.16044C31.7186 2.56934 31.7224 2.56785 35.3176 2.51922C37.2998 2.49241 40.1272 2.32215 41.6009 2.141C44.0681 1.83725 44.2348 1.87647 43.7058 2.63731C43.1759 3.39816 43.4733 3.46319 47.4966 3.46319C50.3337 3.46319 52.0382 3.67164 52.3649 4.05876C52.7557 4.52182 52.9794 4.52182 53.3702 4.05876C53.761 3.5957 53.7556 3.46319 53.3455 3.46319C53.0556 3.46319 52.9346 3.23984 53.077 2.96687C53.3941 2.35889 59.9885 2.29835 59.9885 2.90336C59.9885 3.14159 60.7522 3.48105 61.6854 3.65774C62.9278 3.89299 63.5532 3.77736 64.0194 3.22497C64.5053 2.64925 65.6606 2.47056 68.8952 2.47056C72.7121 2.47056 73.0531 2.54304 72.3209 3.19916C71.5681 3.87415 71.6527 3.92924 73.4627 3.94364C74.6377 3.95307 75.4851 3.71831 75.5877 3.35451C75.7197 2.88549 76.1402 2.89938 77.466 3.41802C79.4272 4.18482 84.0328 3.95901 84.7927 3.0587C85.1751 2.60557 84.2456 2.47056 80.737 2.47056C78.2338 2.47056 76.3095 2.32318 76.4615 2.14302C76.7518 1.79957 122.009 1.20646 141.555 1.29033C147.826 1.31713 152.857 1.1469 152.735 0.912143C152.398 0.266441 153.998 0.400931 154.559 1.06549C154.916 1.48786 160.246 1.67497 174.168 1.75339Z" fill="#0B80C2"/>
<path d="M259.586 1.25311L261.471 0.9439C262.508 0.773665 265.429 0.626263 267.964 0.616336C273.53 0.594499 284.228 1.25161 281.577 1.45261C280.541 1.53103 279.531 1.56132 279.334 1.51913C278.767 1.39853 277.793 2.53707 278.046 3.02296C278.172 3.26516 277.217 3.46319 275.922 3.46319C274.46 3.46319 273.667 3.27508 273.828 2.96687C273.97 2.6939 273.746 2.43431 273.329 2.38965C272.912 2.34498 273.608 2.17029 274.875 2.00155L277.179 1.69433L273.864 1.27198C271.805 1.00993 269.347 1.04565 267.372 1.36676C265.624 1.65115 263.157 1.74149 261.89 1.56828L259.586 1.25311Z" fill="#0B80C2"/>
<path d="M337.054 1.47792C336.031 1.47792 335.194 1.25458 335.194 0.981609C335.194 0.708637 336.148 0.485323 337.313 0.485323C338.619 0.485323 339.333 0.675881 339.174 0.981609C339.031 1.25458 338.078 1.47792 337.054 1.47792Z" fill="#0B80C2"/>
<path d="M251.128 2.44871C248.556 2.47055 247.18 1.74793 249.003 1.33301C249.525 1.2139 250.046 1.08982 250.161 1.05656C250.276 1.02381 251.125 1.31861 252.046 1.71169L253.722 2.42686L251.128 2.44871Z" fill="#0B80C2"/>
<path d="M258.748 1.97424C257.58 2.56882 256.025 2.56882 256.025 1.97424C256.025 1.70127 256.827 1.49383 257.806 1.51269C259.185 1.53998 259.397 1.6437 258.748 1.97424Z" fill="#0B80C2"/>
<path d="M363.783 2.36832C363.38 2.31224 365.595 2.13505 368.705 1.97424C378.191 1.48388 378.499 1.47891 380.111 1.79506C383.077 2.37574 381.207 2.96687 376.405 2.96687C373.3 2.96687 371.68 3.14306 371.846 3.46319C372.009 3.77487 371.068 3.9595 369.313 3.9595C367.003 3.9595 366.562 4.08805 366.762 4.70397C366.947 5.27573 366.69 5.43702 365.655 5.3988C364.913 5.37151 363.835 5.17051 363.259 4.95213L362.212 4.55455L363.364 4.50543C364.223 4.46821 364.516 4.20319 364.516 3.46319C364.516 2.88746 364.208 2.42788 363.783 2.36832Z" fill="#0B80C2"/>
<path d="M48.5187 2.96687C47.0212 2.96687 45.6795 2.74353 45.5371 2.47056C45.3746 2.15937 46.2923 1.97424 48.001 1.97424C49.4985 1.97424 50.8402 2.19758 50.9826 2.47056C51.1451 2.78174 50.2273 2.96687 48.5187 2.96687Z" fill="#0B80C2"/>
<path d="M360.876 3.41357C359.91 3.44087 359.004 3.23984 358.861 2.96687C358.56 2.38817 360.06 2.38817 361.584 2.96687C362.478 3.30635 362.375 3.37139 360.876 3.41357Z" fill="#0B80C2"/>
<path d="M21.2411 4.635C20.6844 4.38188 20.6563 4.23296 21.102 3.89795C21.7693 3.39668 21.8183 3.39371 23.0222 3.77587C23.5408 3.94064 23.9647 4.27266 23.9647 4.51387C23.9647 5.02259 22.2602 5.09806 21.2411 4.635Z" fill="#0B80C2"/>
<path d="M385.984 6.29515C385.466 6.41328 384.617 6.41328 384.099 6.29515C383.581 6.17654 384.005 6.07974 385.041 6.07974C386.078 6.07974 386.502 6.17654 385.984 6.29515Z" fill="#0B80C2"/>
<path d="M4.56664 18.8141C3.68196 18.7804 3.67903 18.764 4.48664 18.3526C5.6394 17.7654 6.04949 17.7654 5.74328 18.3526C5.60086 18.6255 5.07139 18.833 4.56664 18.8141Z" fill="#0B80C2"/>
<path d="M1.4577 40.0196C1.17411 40.1556 0.608622 40.164 0.20105 40.0379C-0.206523 39.9119 0.025539 39.8007 0.716695 39.7908C1.40785 39.7809 1.74128 39.8836 1.4577 40.0196Z" fill="#0B80C2"/>
<path d="M386.612 59.3922C386.209 59.5172 385.549 59.5172 385.146 59.3922C384.743 59.2676 385.073 59.1653 385.879 59.1653C386.685 59.1653 387.015 59.2676 386.612 59.3922Z" fill="#0B80C2"/>
<path d="M35.5794 60.9014C34.7103 61.0086 33.3908 61.0071 32.6473 60.8974C31.9033 60.7878 32.6146 60.6999 34.2273 60.7019C35.84 60.7044 36.4482 60.7937 35.5794 60.9014Z" fill="#0B80C2"/>
<path d="M323.614 62.1209C322.924 62.5164 322.142 62.3869 320.263 61.5645L317.811 60.4925L319.859 60.7639C320.985 60.9133 322.776 61.0533 323.838 61.0746C324.9 61.096 325.487 61.224 325.141 61.359C324.795 61.494 324.108 61.8365 323.614 62.1209Z" fill="#0B80C2"/>
<path d="M220.114 61.361C219.831 61.497 219.265 61.5054 218.858 61.3794C218.45 61.2533 218.682 61.1421 219.373 61.1322C220.064 61.1223 220.398 61.225 220.114 61.361Z" fill="#0B80C2"/>
<path d="M359.489 61.9074C354.881 61.8687 354.072 61.7784 356.138 61.5317C360.178 61.0493 363.778 61.0493 364.725 61.5317C365.239 61.7928 363.208 61.9387 359.489 61.9074Z" fill="#0B80C2"/>
<path d="M367.978 62.8737C367.462 62.9914 366.52 62.9944 365.883 62.8807C365.247 62.7666 365.668 62.6703 366.82 62.6663C367.972 62.6628 368.493 62.7561 367.978 62.8737Z" fill="#0B80C2"/>
</svg>
