<svg width="393" height="64" viewBox="0 0 393 64" fill="none" xmlns="http://www.w3.org/2000/svg">
<path fill-rule="evenodd" clip-rule="evenodd" d="M13.883 0.727839C13.5964 1.14531 13.3615 2.1903 13.3615 3.05036C13.3615 4.16485 13.1216 4.69457 12.5271 4.89395C11.9635 5.08264 11.6928 5.62305 11.6928 6.55954C11.6928 7.74405 11.51 7.9461 10.4412 7.9461C9.75285 7.9461 9.18965 8.18664 9.18965 8.48063C9.18965 8.77462 9.63729 9.01516 10.1838 9.01516C11.1508 9.01516 11.8742 10.4627 11.7199 12.0887C11.6848 12.4565 12.087 12.7601 12.6131 12.7643C13.1396 12.7681 13.9568 12.9044 14.4291 13.0669C15.0682 13.2871 15.4128 13.0119 15.7762 11.9909C16.1433 10.9582 16.5759 10.6188 17.5246 10.6188C18.7169 10.6188 18.7849 10.7342 18.7849 12.7569C18.7849 14.8041 18.7273 14.8966 17.4291 14.9372C16.6835 14.9602 16.3089 15.1013 16.5972 15.2499C17.739 15.84 16.525 16.4986 14.2964 16.4986C12.0428 16.4986 11.6652 17.1341 13.5701 17.721C14.029 17.8627 13.4078 18.0059 12.1896 18.0401C10.83 18.0781 10.0745 18.3085 10.2326 18.6367C10.3828 18.9483 9.91431 19.1968 9.10997 19.2327C7.73952 19.2936 7.7416 19.2973 9.39825 19.7362C10.3161 19.9794 11.9118 20.2092 12.9443 20.2472C13.9769 20.2846 15.1809 20.4958 15.6201 20.7165C16.0594 20.9373 14.1821 21.0399 11.4483 20.9453C8.15879 20.8314 6.75997 20.9416 7.31232 21.2708C7.94728 21.6498 7.58933 21.7775 5.81755 21.8064C3.2552 21.8476 2.70242 22.1817 3.40371 23.2646C3.75248 23.8034 3.73078 23.9819 3.31652 23.9819C2.54097 23.9819 3.35448 24.8901 4.39202 25.1825C5.11501 25.3861 5.0591 25.5091 3.97484 26.1057L2.72328 26.7941L4.07913 27.2741C5.83298 27.8952 5.89764 29.3272 4.17175 29.3272C2.96567 29.3272 2.91561 29.4165 3.06621 31.2965C3.24226 33.4966 3.82549 33.9905 6.47795 34.1861C8.05115 34.3021 8.06909 34.3213 6.79084 34.5245C5.25518 34.7687 4.94271 35.7164 6.37365 35.7897C7.06409 35.8255 6.92642 35.9848 5.85217 36.3931C5.04909 36.6989 4.63441 37.0614 4.93103 37.1993C5.9911 37.691 4.54221 38.9487 2.91477 38.9487C-0.185749 38.9487 -0.861174 40.269 1.12171 42.452C1.86805 43.2736 3.06537 43.8081 4.77208 44.0824C6.98107 44.4367 7.1492 44.5388 6.06076 44.8633C4.90099 45.2091 4.88555 45.2428 5.85217 45.3224C8.85507 45.5699 14.1959 45.5956 14.195 45.3631C14.1946 45.2161 15.7178 45.1749 17.5801 45.2722C20.4562 45.4219 20.9968 45.5972 21.1679 46.4364C21.3848 47.498 22.1232 47.7209 27.5458 48.3607C30.5754 48.7183 30.6351 48.752 29.4231 49.4276C27.6117 50.4379 19.5972 50.3994 17.6777 49.372C16.8538 48.931 15.8216 48.5703 15.3832 48.5703C14.9451 48.5703 14.4787 48.931 14.3469 49.372C14.0937 50.2177 12.5271 50.5063 12.5271 49.7078C12.5271 49.2892 10.9427 49.248 6.16506 49.5425C3.8113 49.6879 4.28522 50.5346 6.96063 50.9628C9.96437 51.4438 10.4408 51.6908 10.1617 52.6236C9.88385 53.551 10.3507 53.5948 18.3456 53.3965C22.6205 53.2907 24.5312 53.0437 24.918 52.5482C25.3673 51.972 25.2976 51.8073 24.5233 51.6143C24.006 51.485 24.4273 51.4583 25.4599 51.5551C26.4924 51.6518 28.1812 51.5225 29.2129 51.2675C30.5258 50.943 31.1774 50.9879 31.3843 51.4166C31.6063 51.8773 32.0009 51.8747 32.9688 51.4065C33.678 51.0638 34.9254 50.9222 35.7414 51.0916C36.7681 51.3055 37.3401 51.1702 37.6 50.6533C37.8611 50.1343 38.071 50.0857 38.2883 50.4935C38.7835 51.4225 41.97 51.8581 43.166 51.16C44.0296 50.6554 44.3675 50.695 44.9616 51.3701C45.3642 51.8277 46.0688 52.3189 46.5277 52.4621C47.0634 52.6294 46.8681 52.7449 45.9816 52.7845C45.1773 52.8208 44.7088 53.0694 44.859 53.381C45.0071 53.6884 47.5469 53.9524 50.8285 54.0016C55.972 54.0791 55.6495 54.1261 47.587 54.473C41.6049 54.7307 38.5824 55.0567 38.4786 55.456C38.3676 55.882 33.8153 56.0558 22.6093 56.0617C4.00029 56.0713 1.53681 56.5962 12.7032 58.1725C15.5384 58.5723 16.9772 58.5835 17.2714 58.2067C17.8033 57.5252 19.6193 57.4792 19.6193 58.1474C19.6193 58.4168 19.3848 58.7584 19.0978 58.9069C18.8112 59.055 19.1867 59.1956 19.9322 59.2186C22.016 59.2833 21.54 60.1492 19.2021 60.5469C17.9384 60.7612 17.1162 61.169 17.1162 61.5806C17.1162 63.1714 25.9572 63.428 72.6018 63.1928C120.266 62.9517 120.543 62.9474 131.646 62.2157C137.915 61.803 138.384 61.8389 139.127 62.7898C139.832 63.6921 140.528 63.7963 145.418 63.7295C148.693 63.6851 151.283 63.4029 151.825 63.0314C152.325 62.6887 154.181 62.3109 155.95 62.1917C157.72 62.0725 160.294 61.7266 161.671 61.423C163.048 61.1194 167.835 60.8676 172.309 60.8644C176.783 60.8612 181.571 60.5816 182.947 60.2438C184.324 59.906 186.107 59.6553 186.911 59.6873C187.714 59.7199 196.443 59.8686 206.31 60.0182C224.597 60.2957 229.615 60.7928 230.568 62.4209C231.223 63.5386 246.376 63.955 250.114 62.9581C252.892 62.2173 256.662 62.1125 286.67 61.9425C303.22 61.8484 307.573 61.9671 308.364 62.5337C308.974 62.9699 311.197 63.312 314.152 63.4237C316.791 63.5231 320.242 63.7401 321.822 63.9053C323.526 64.0833 324.599 64.0053 324.459 63.714C324.324 63.435 325.334 63.2313 326.8 63.2425C328.219 63.2532 332.101 62.9817 335.428 62.638C338.756 62.2948 342.416 62.0853 343.564 62.1729C344.711 62.2601 347.728 62.5161 350.268 62.7422C354.039 63.0773 356.105 62.9362 361.532 61.9714C365.187 61.322 368.956 60.6757 369.907 60.5357C371.115 60.3577 371.696 59.991 371.832 59.3191C372.079 58.11 374.403 57.6572 380.358 57.6572C384.889 57.6572 390.407 56.7849 391.119 55.9558C391.387 55.6442 391.314 55.2968 390.911 54.9707C390.446 54.5939 390.632 54.4645 391.644 54.4581C392.568 54.4527 393 54.1946 393 53.6483C393 53.0667 392.533 52.8465 391.302 52.8465C390.348 52.8465 389.328 52.4948 388.977 52.0447C388.153 50.989 384.716 50.9575 384.403 52.0025C384.223 52.6017 383.915 52.646 382.941 52.2109C382.078 51.8261 381.155 51.8378 379.874 52.251C377.869 52.8983 376.73 52.6091 376.73 51.4529C376.73 50.9077 376.122 50.7084 374.46 50.7084C373.211 50.7084 372.081 50.9345 371.948 51.2114C371.806 51.5054 372.358 51.6198 373.279 51.4867L374.852 51.2595L373.184 51.8159C371.971 52.22 371.095 52.1975 369.978 51.7336C369.133 51.3824 367.873 51.2408 367.178 51.4188C366.484 51.5967 365.819 51.5417 365.7 51.2968C365.582 51.0515 367.827 50.5362 370.69 50.1514C374.381 49.6553 375.895 49.2512 375.895 48.7621C375.895 48.3383 375.092 47.9358 373.81 47.7182C371.511 47.3275 370.966 46.4321 373.026 46.4321C374.137 46.4321 374.252 46.314 373.81 45.6303C373.367 44.9477 373.478 44.8285 374.558 44.8285C375.255 44.8285 375.888 45.0552 375.965 45.3321C376.08 45.7501 379.161 45.4684 387.159 44.3079C387.274 44.2914 387.086 44.0444 386.742 43.7595C386.367 43.4484 379.815 43.2378 370.368 43.233C360.151 43.2277 354.619 43.0374 354.619 42.6904C354.619 42.3965 353.821 42.1319 352.846 42.1025C349.772 42.01 349.019 41.5268 348.944 39.5966C348.869 37.698 348.914 37.6487 350.024 38.4099C350.895 39.0075 354.619 38.519 354.619 37.807C354.619 37.5531 353.446 37.3414 352.012 37.3371C348.798 37.327 347.608 36.5979 349.893 36.0388C354.042 35.0242 355.036 34.8719 355.036 35.2524C355.036 35.4785 354.707 35.7731 354.306 35.9078C353.905 36.042 354.327 36.2077 355.245 36.2761C356.163 36.3445 356.585 36.5102 356.183 36.6444C355.782 36.7791 355.453 37.1997 355.453 37.5798C355.453 38.3613 361.352 39.1364 361.713 38.4025C361.828 38.1673 362.767 38.1838 363.799 38.4388C364.83 38.6938 366.519 38.8231 367.552 38.7264C368.584 38.6296 369.006 38.6563 368.488 38.7857C367.714 38.9786 367.644 39.1433 368.094 39.7195C368.48 40.215 370.391 40.462 374.666 40.5679C382.661 40.7662 383.128 40.7223 382.85 39.7949C382.571 38.8622 383.047 38.6152 386.051 38.1341C388.726 37.706 389.2 36.8593 386.847 36.7139C382.069 36.4194 380.484 36.4605 380.484 36.8791C380.484 37.1356 380.109 37.3452 379.65 37.3452C379.157 37.3452 378.816 36.9886 378.816 36.4744C378.816 35.7335 378.489 35.6587 376.625 35.973C375.421 36.1756 374.373 36.5674 374.296 36.8432C374.064 37.6814 365.624 37.4339 363.162 36.5172C361.939 36.0612 360.408 35.7608 359.76 35.849C358.853 35.972 358.596 35.7945 358.64 35.0734C358.672 34.5587 358.484 34.1364 358.223 34.1348C356.996 34.1263 360.135 32.66 361.938 32.3997C363.06 32.2378 364.047 31.8406 364.131 31.5178C364.319 30.7951 365.87 30.7635 366.717 31.4654C367.19 31.8566 366.986 31.9956 365.883 32.0341C364.015 32.0982 364.624 32.3612 367.656 32.799C370.151 33.1598 370.989 34.138 368.803 34.138C368.115 34.138 367.552 34.3785 367.552 34.6725C367.552 34.9665 368.47 35.207 369.593 35.207C371.412 35.207 371.661 35.0649 371.89 33.8932C372.132 32.6574 372.34 32.5697 375.378 32.4232C377.154 32.3372 380.225 32.3874 382.202 32.5344C384.18 32.6814 386.339 32.6499 387 32.4639C387.95 32.1971 387.764 32.1116 386.116 32.0571C384.969 32.0192 383.28 31.8101 382.362 31.5931C380.862 31.2382 381.051 31.1596 384.239 30.8165C392.001 29.981 393.566 29.4721 391.227 28.5452C390.364 28.2037 390.404 28.1304 391.721 27.6403C393.605 26.9395 392.705 26.1399 390.02 26.1281C388.726 26.1228 388.007 25.8651 387.853 25.353C387.727 24.9308 387.848 24.4807 388.121 24.3529C388.396 24.2246 387.962 23.8702 387.159 23.5645C386.085 23.1561 385.947 22.9968 386.638 22.961C388.069 22.8878 387.756 21.9401 386.221 21.6958C384.943 21.4927 384.96 21.4734 386.534 21.3574C389.186 21.1618 389.769 20.6679 389.945 18.4678C390.096 16.5878 390.046 16.4986 388.84 16.4986C387.114 16.4986 387.179 15.0666 388.932 14.4454L390.288 13.9654L389.037 13.277C387.952 12.6804 387.897 12.5575 388.62 12.3538C389.657 12.0614 390.471 11.1533 389.695 11.1533C389.281 11.1533 389.259 10.9748 389.608 10.436C390.309 9.353 389.756 9.01891 387.194 8.97775C385.422 8.94889 385.064 8.82111 385.699 8.44213C386.252 8.11286 384.853 8.00275 381.563 8.11661C378.829 8.21122 376.952 8.1086 377.391 7.88784C377.831 7.66708 379.035 7.45595 380.067 7.41854C381.1 7.38059 382.696 7.15074 383.613 6.90753C385.27 6.46869 385.272 6.46493 383.902 6.404C383.097 6.36819 382.629 6.11963 382.779 5.808C382.937 5.4798 382.182 5.2494 380.822 5.21145C379.604 5.17724 378.983 5.03399 379.441 4.89233C379.9 4.75069 380.464 4.38776 380.693 4.08522C380.979 3.70891 379.663 3.65599 376.521 3.91791C373.997 4.12798 370.43 4.27606 368.595 4.2472C366.717 4.2178 364.436 4.53209 363.38 4.96559C361.665 5.6701 361.613 5.73958 362.775 5.77218C363.475 5.79196 364.253 5.54503 364.504 5.22324C365.046 4.52889 366.399 4.77529 366.218 5.53538C366.148 5.8267 366.655 6.21904 367.343 6.40773L368.595 6.75037L367.423 6.81398C366.725 6.8514 366.36 7.10263 366.52 7.43404C366.703 7.81409 365.616 7.88461 363.102 7.65583C361.075 7.47089 356.788 7.61148 353.576 7.96748C350.364 8.32347 347.113 8.62601 346.352 8.6399C345.163 8.66129 345 8.8206 345.188 9.78008C345.308 10.3932 345.273 11.1597 345.111 11.4831C344.467 12.7638 323.311 14.0932 323.928 12.814C324.313 12.0155 322.255 11.6493 317.247 11.6264C314.446 11.6135 312.573 11.4008 312.712 11.1116C312.843 10.8406 313.772 10.6188 314.778 10.6188C316.735 10.6188 317.512 9.91798 316.422 9.1365C315.967 8.81044 316.462 8.66987 317.978 8.69446C320.293 8.73241 330.198 7.26138 334.177 6.28854C335.439 5.98012 337.598 5.52202 338.975 5.2708C341.276 4.85012 341.184 4.82982 337.827 5.01744C334.565 5.19972 333.239 4.77851 334.698 4.02375C334.985 3.87569 334.597 3.73509 333.836 3.71211C333.076 3.68912 332.083 3.92326 331.632 4.23329C331.036 4.64167 329.86 4.56844 327.35 3.96602C323.674 3.08352 318.865 2.86488 320.827 3.66988C321.401 3.90507 322.527 4.16377 323.33 4.24502C324.133 4.32574 323.007 4.53422 320.827 4.70794C318.647 4.88167 316.207 4.84531 315.404 4.62669C313.174 4.02053 304.852 4.14187 304.14 4.79079C303.682 5.20772 304.26 5.28417 306.288 5.07517C309.318 4.76301 312.066 5.14465 312.066 5.87803C312.066 6.13353 311.221 6.34253 310.189 6.34253C309.104 6.34253 308.311 6.59002 308.311 6.92944C308.311 7.67618 298.345 7.23145 294.753 6.32489C293.376 5.97691 290.372 5.51827 288.078 5.30553C285.783 5.09225 284.563 4.85706 285.366 4.78276C286.774 4.6518 286.787 4.63205 285.727 4.221C284.435 3.72068 282.354 4.11621 282.684 4.79988C282.99 5.43543 281.563 5.38946 280.777 4.73894C280.269 4.31773 280.322 4.21939 281.065 4.21244C281.568 4.20816 282.101 3.95212 282.25 3.64423C282.436 3.25937 280.709 3.1546 276.747 3.31068C273.452 3.44004 272.317 3.38978 274.102 3.19308C277.051 2.86862 277.14 2.82266 275.643 2.39237C274.77 2.14167 273.362 2.12191 272.514 2.34855C270.166 2.97769 268.385 2.87076 264.507 1.86745C257.852 0.145203 255.12 -0.077169 243.856 0.18475C237.661 0.329072 231.419 0.450416 229.985 0.454692C228.529 0.458968 227.377 0.698986 227.377 0.997252C227.377 1.29124 227.67 1.53178 228.028 1.53178C228.385 1.53178 228.562 1.77232 228.42 2.06631C228.274 2.36939 228.67 2.63235 229.335 2.67351C230.465 2.74407 230.47 2.75531 229.463 2.99477C228.89 3.13161 228.28 3.51968 228.108 3.85751C227.874 4.3156 227.712 4.30758 227.468 3.82651C227.087 3.07229 224.991 2.84457 220.911 3.11344C219.003 3.23959 218.495 3.38446 219.447 3.53145C220.248 3.65546 221.031 4.02 221.186 4.34125C221.355 4.6935 222.811 4.90731 224.84 4.87951C226.695 4.85386 228.212 5.03615 228.212 5.28471C228.212 5.5338 228.728 5.8374 229.359 5.95981C230.228 6.12819 230.102 6.20355 228.838 6.27037C227.593 6.33665 227.328 6.4906 227.795 6.87707C228.139 7.16197 230.345 7.39876 232.697 7.40357C236.868 7.41159 238.336 8.04929 235.617 8.67255C234.871 8.8436 230.882 9.02531 226.752 9.07662C222.622 9.12794 219.028 9.384 218.765 9.64592C218.502 9.90784 216.372 10.2719 214.032 10.4541C210.649 10.7182 209.704 10.6348 209.421 10.0473C208.889 8.94408 193.764 8.65542 192.8 9.72982C191.442 11.2415 184.259 11.1538 184.992 9.63468C185.112 9.38613 181.181 9.18247 176.256 9.18194C171.332 9.18194 167.303 9.37222 167.303 9.60527C167.303 9.83779 168.288 10.1168 169.493 10.2248C170.698 10.3328 168.68 10.4466 165.008 10.4777C161.337 10.5087 158.568 10.413 158.855 10.2649C160.426 9.45243 158.813 9.01621 154.266 9.02263C148.802 9.03011 147.124 9.33375 147.56 10.236C147.732 10.5926 147.564 10.6685 147.104 10.4424C146.703 10.2451 145.629 10.0842 144.716 10.0842C143.716 10.0842 143.16 9.87201 143.315 9.54969C143.7 8.75004 142.371 8.90505 140.835 9.83834C139.689 10.5354 139.199 10.5584 137.643 9.98962C136.31 9.50213 130.381 9.28084 116.04 9.18355C99.2195 9.0697 96.1452 9.16642 95.4014 9.83404C94.9204 10.2654 94.2641 10.6188 93.9429 10.6188C93.4577 10.6188 93.4515 10.476 93.9066 9.77314C94.4051 9.00342 92.9842 8.93661 78.2092 9.03442C55.095 9.18676 33.4586 8.8842 38.6012 8.48063L42.7731 8.15299L38.8098 7.99636C34.0814 7.80927 32.814 7.42492 32.6175 6.11747C32.4836 5.22534 32.6897 5.16923 34.91 5.49636C36.5645 5.73957 37.1532 5.6856 36.7389 5.328C36.323 4.96986 37.4556 4.85229 40.285 4.96133C43.4835 5.08427 44.6058 4.93993 45.1535 4.33378C45.7826 3.63836 45.9437 3.64691 46.5394 4.41021C47.209 5.26813 49.4747 5.65939 49.0842 4.84958C48.9716 4.61652 50.1339 4.51069 51.667 4.61492C53.6933 4.75283 54.2832 4.65182 53.8285 4.24558C53.3449 3.81315 53.564 3.68432 54.7917 3.67791C55.7463 3.6731 56.2778 3.88316 56.123 4.20441C55.9578 4.54651 57.3007 4.73894 59.853 4.73894C62.2314 4.73894 63.8409 4.52352 63.8409 4.20494C63.8409 3.56778 82.4198 3.77518 82.9171 4.41768C83.0948 4.64699 82.5362 4.66574 81.6756 4.45994C80.6309 4.20978 80.1111 4.28297 80.1111 4.67959C80.1111 5.03666 80.9518 5.27347 82.2217 5.27347C83.6067 5.27347 84.2379 5.07781 84.0581 4.70471C83.8691 4.31343 84.2834 4.27174 85.3894 4.57107C86.9922 5.00565 90.3359 5.04202 97.4243 4.70206C101.577 4.50268 108.902 4.96556 110.64 5.53697C111.934 5.96246 113.609 5.4274 113.259 4.70044C112.702 3.5464 116.241 4.83994 116.896 6.0298C117.066 6.33929 117.441 6.26022 117.847 5.82885C118.37 5.27241 118.747 5.25102 119.567 5.72942C120.835 6.46974 122.39 6.53816 122.053 5.839C121.919 5.56211 120.923 5.15532 119.838 4.93562L117.866 4.53634L120.161 3.92541L122.455 3.31494L119.327 2.96163C115.181 2.49338 99.0067 2.41106 68.8471 2.70398C59.5543 2.79432 49.4167 2.73128 46.3191 2.56397C41.456 2.30205 41.1961 2.24699 44.4172 2.16307C47.7188 2.07755 48.0559 1.9808 47.3521 1.32119C46.7843 0.789334 46.2653 0.718753 45.5357 1.07421C44.8719 1.3976 44.3629 1.37729 44.0818 1.01701C43.5878 0.384133 35.3785 0.288469 26.4553 0.811772C21.4182 1.10683 20.5738 1.28055 20.6147 2.01232C20.6506 2.65856 20.2013 2.90657 18.7816 3.02577C17.0707 3.16902 16.8333 3.03645 16.1508 1.55581C15.334 -0.215617 14.6923 -0.449726 13.883 0.727839ZM58.6015 1.2474C57.8664 1.95993 58.0608 2.02567 60.712 1.95938C62.347 1.91876 62.944 1.79421 62.0679 1.67715C61.2076 1.56169 60.5034 1.24098 60.5034 0.965167C60.5034 0.213086 59.518 0.35955 58.6015 1.2474ZM255.85 2.45277C255.104 2.57144 253.885 2.57144 253.139 2.45277C252.393 2.33464 253.003 2.23735 254.495 2.23735C255.986 2.23735 256.596 2.33464 255.85 2.45277ZM301.092 2.50783C299.663 2.85473 300.899 3.66935 302.808 3.63888C304.812 3.60734 308.437 2.82906 307.686 2.59173C307.021 2.38166 301.881 2.31593 301.092 2.50783ZM310.815 2.61526C310.815 2.91833 312.584 3.13535 315.056 3.13535C317.389 3.13535 319.219 3.04874 319.124 2.94237C318.678 2.449 310.815 2.13899 310.815 2.61526ZM131.842 3.1177C122.813 3.43414 122.49 3.93767 130.959 4.49732C135.22 4.77848 136.469 4.71598 136.236 4.2317C136.004 3.75009 137.018 3.6763 140.457 3.92432C145.96 4.32201 153.206 3.73403 151.202 3.0525C150.492 2.8109 148.395 2.80128 146.543 3.03059C144.691 3.25991 142.831 3.2738 142.411 3.06159C141.99 2.84938 141.27 2.7115 140.812 2.7548C140.353 2.79756 136.316 2.96108 131.842 3.1177ZM162.675 3.29895C163.02 3.73993 165.227 3.93714 169.827 3.93714C173.487 3.93714 176.481 4.11728 176.481 4.33804C176.481 4.5588 177.619 4.73894 179.009 4.73894C180.588 4.73894 181.44 4.53849 181.279 4.20441C181.118 3.87033 181.969 3.66988 183.548 3.66988C184.956 3.66988 186.076 3.90668 186.076 4.20441C186.076 4.50214 187.197 4.73894 188.604 4.73894C190.066 4.73894 191.03 4.52835 190.89 4.23917C190.758 3.96389 191.263 3.64153 192.013 3.52286C194.404 3.14335 179.05 2.79273 174.186 3.11558C173.269 3.17652 170.191 3.099 167.347 2.94346C163.34 2.7243 162.289 2.80451 162.675 3.29895ZM338.766 3.15567C338.766 3.74846 341.138 4.21241 343.72 4.12421C345.204 4.07343 345.607 3.95211 344.815 3.79389C343.727 3.57581 343.672 3.49084 344.398 3.14179C344.886 2.9066 343.889 2.74732 341.999 2.75748C340.221 2.7671 338.766 2.94613 338.766 3.15567ZM157.189 3.49028C157.477 3.63941 157.607 3.98101 157.477 4.24988C157.344 4.52516 158.342 4.73894 159.756 4.73894C161.82 4.73894 162.227 4.59515 162.03 3.93714C161.851 3.33794 161.143 3.14604 159.227 3.17758C157.818 3.20056 156.9 3.34168 157.189 3.49028ZM206.036 3.79816C208.214 4.16698 209.234 4.14615 209.561 3.72655C209.898 3.29465 209.072 3.15457 206.497 3.20696L202.972 3.27863L206.036 3.79816ZM212.021 3.41543C212.373 3.86604 216.531 3.97938 216.531 3.53786C216.531 3.31657 215.467 3.13535 214.167 3.13535C212.867 3.13535 211.901 3.26149 212.021 3.41543ZM42.8686 3.99276C42.7301 4.17022 42.3701 4.18944 42.0693 4.03496C41.7364 3.86444 41.8352 3.73777 42.3213 3.71211C42.761 3.68912 43.0071 3.81529 42.8686 3.99276ZM95.8511 3.99276C95.7126 4.17022 95.3526 4.18944 95.0518 4.03496C94.7189 3.86444 94.8177 3.73777 95.3038 3.71211C95.7435 3.68912 95.9896 3.81529 95.8511 3.99276ZM315.724 4.05739C316.474 4.17606 317.6 4.17398 318.227 4.0521C318.854 3.9297 318.24 3.83239 316.864 3.8356C315.487 3.83827 314.974 3.93819 315.724 4.05739ZM273.155 4.52726C273.016 4.70472 272.656 4.72397 272.355 4.56949C272.023 4.39897 272.121 4.2723 272.607 4.24664C273.047 4.22366 273.293 4.34979 273.155 4.52726ZM299.655 5.12166C300.286 5.24407 301.318 5.24407 301.949 5.12166C302.581 4.99926 302.064 4.89931 300.802 4.89931C299.54 4.89931 299.024 4.99926 299.655 5.12166ZM370.472 5.47818C370.472 5.59097 370.097 5.80904 369.638 5.96299C369.179 6.11639 368.803 6.02447 368.803 5.75774C368.803 5.49155 369.179 5.27347 369.638 5.27347C370.097 5.27347 370.472 5.36593 370.472 5.47818ZM291.311 6.16185C291.025 6.31045 290.555 6.31045 290.268 6.16185C289.982 6.01378 290.216 5.89247 290.79 5.89247C291.363 5.89247 291.598 6.01378 291.311 6.16185ZM376.119 6.84607C375.777 7.55485 372.314 8.14765 371.649 7.61152C371.26 7.29828 371.467 7.06416 372.349 6.81828C374.304 6.27306 376.388 6.28856 376.119 6.84607ZM290.06 7.23091C289.773 7.37951 289.304 7.37951 289.017 7.23091C288.73 7.08285 288.964 6.96153 289.538 6.96153C290.112 6.96153 290.347 7.08285 290.06 7.23091ZM244.482 7.87769C244.482 8.61695 241.423 9.04668 239.206 8.61905L237.181 8.22836L239.059 7.90013C242.032 7.38057 244.482 7.37043 244.482 7.87769ZM188.579 9.54969C188.579 9.84368 189.225 10.0842 190.015 10.0842C190.805 10.0842 191.566 9.84368 191.708 9.54969C191.864 9.22684 191.295 9.01516 190.273 9.01516C189.341 9.01516 188.579 9.2557 188.579 9.54969ZM156.456 9.7854C156.456 9.91529 156.268 10.1697 156.039 10.3515C155.809 10.5332 155.622 10.4269 155.622 10.1158C155.622 9.80468 155.809 9.54969 156.039 9.54969C156.268 9.54969 156.456 9.65551 156.456 9.7854ZM355.14 9.90353C354.854 10.0521 354.385 10.0521 354.098 9.90353C353.811 9.75547 354.045 9.63415 354.619 9.63415C355.193 9.63415 355.427 9.75547 355.14 9.90353ZM78.1374 10.4349C77.855 10.5814 77.2918 10.5904 76.8859 10.4547C76.48 10.3189 76.7111 10.1991 77.3994 10.1884C78.0878 10.1778 78.4199 10.2884 78.1374 10.4349ZM198.704 10.4349C198.422 10.5814 197.858 10.5904 197.452 10.4547C197.046 10.3189 197.278 10.1991 197.966 10.1884C198.654 10.1778 198.986 10.2884 198.704 10.4349ZM200.565 10.4071C200.426 10.5845 200.066 10.6038 199.765 10.4493C199.432 10.2788 199.531 10.1521 200.017 10.1265C200.457 10.1035 200.703 10.2296 200.565 10.4071ZM41 13.1343C40.4835 13.2615 40.0614 13.7099 40.0614 14.1306C40.0614 15.0051 38.1694 15.1948 37.7668 14.3604C37.625 14.0665 37.8957 13.8259 38.368 13.8259C38.8403 13.8259 39.227 13.5854 39.227 13.2914C39.227 12.9974 39.8373 12.7895 40.5828 12.8295C41.5632 12.8825 41.6788 12.9664 41 13.1343ZM13.3615 14.5903C13.3615 15.011 12.9393 15.4594 12.4228 15.5867C11.9064 15.7144 12.5167 15.8459 13.7787 15.8796L16.0732 15.9405L15.0302 14.895C13.7812 13.6431 13.3615 13.5667 13.3615 14.5903ZM34.638 14.3604C34.638 14.6544 34.3676 14.895 34.0368 14.895C33.706 14.895 33.3196 14.6544 33.1778 14.3604C33.036 14.0665 33.3067 13.8259 33.779 13.8259C34.2512 13.8259 34.638 14.0665 34.638 14.3604ZM47.1535 14.2546C47.1535 14.8463 44.1673 14.9046 43.3988 14.3279C42.9817 14.0152 43.5035 13.8532 44.9633 13.842C46.1677 13.8334 47.1535 14.0189 47.1535 14.2546ZM55.4972 14.3604C55.4972 14.6544 54.9215 14.895 54.2181 14.895C53.5147 14.895 52.5915 15.1334 52.1664 15.4247C51.7413 15.7166 50.768 15.7887 50.0037 15.5861C48.6721 15.2333 48.7188 15.1911 51.1168 14.5903C54.4021 13.7671 55.4972 13.7094 55.4972 14.3604ZM32.4536 15.7614C32.9425 16.3879 32.8712 16.4986 31.9767 16.4986C31.3981 16.4986 30.7661 16.8615 30.5725 17.3052C30.26 18.0204 29.9867 18.0102 28.1707 17.2175C26.4866 16.482 26.2671 16.25 26.938 15.9138C27.608 15.5781 27.6276 15.4979 27.0489 15.4669C26.661 15.4466 26.2141 15.1612 26.056 14.8335C25.6305 13.951 31.731 14.8356 32.4536 15.7614ZM40.1986 16.3483C40.8482 16.5044 41.4781 16.9631 41.5991 17.3672C41.7205 17.7713 42.3154 18.1193 42.922 18.1396C43.9128 18.1732 43.9399 18.224 43.1902 18.6367C42.7313 18.8895 41.8598 19.1129 41.2533 19.1338C40.6467 19.1541 40.0426 19.532 39.9103 19.973C39.7718 20.4359 39.1481 20.7748 38.4347 20.7748C37.4786 20.7748 37.169 20.5081 37.066 19.594C36.9838 18.8692 36.5299 18.2705 35.8895 18.0439C35.1019 17.7648 35.338 17.6612 36.8528 17.6211C38.0751 17.5885 38.7581 17.3586 38.6012 17.0331C38.4594 16.7391 37.9679 16.4986 37.509 16.4986C37.0142 16.4986 36.789 16.2618 36.955 15.9175C37.1127 15.5904 37.6254 15.4958 38.1269 15.7C38.6171 15.9004 39.5495 16.1917 40.1986 16.3483ZM48.6137 15.964C49.3612 16.3756 49.332 16.4275 48.3354 16.4611C47.7238 16.4814 47.1606 16.7012 47.0838 16.9481C46.9086 17.5158 44.2311 18.2123 44.2395 17.6879C44.2541 16.8059 44.922 16.0571 45.9019 15.8235C47.4639 15.4514 47.7054 15.4643 48.6137 15.964ZM28.5646 18.0519C28.6931 18.3186 29.7364 18.7019 30.8833 18.9039C33.2946 19.3289 34.0894 20.2381 32.0552 20.245C31.2959 20.2472 29.6597 20.4054 28.419 20.5968C26.7611 20.8517 26.2425 20.7796 26.4619 20.3247C26.6447 19.9463 26.4678 19.6913 26.006 19.6683C25.3322 19.6346 25.341 19.5812 26.0857 19.1712C26.5446 18.9184 26.7682 18.6949 26.5825 18.6741C26.3969 18.6538 26.361 18.3961 26.5028 18.1021C26.8245 17.435 28.2504 17.4003 28.5646 18.0519ZM19.5671 19.5053C20.2843 19.6892 20.8708 20.0804 20.8708 20.3755C20.8708 21.0217 17.5146 20.4284 16.9284 19.6785C16.4641 19.0841 17.6256 19.0076 19.5671 19.5053ZM39.1139 22.7012C38.9754 22.8787 38.6154 22.8979 38.3146 22.7435C37.9817 22.5729 38.0806 22.4462 38.5666 22.4206C39.0063 22.3976 39.2524 22.5238 39.1139 22.7012ZM375.583 31.2847C375.296 31.4333 374.827 31.4333 374.54 31.2847C374.253 31.1366 374.487 31.0153 375.061 31.0153C375.635 31.0153 375.87 31.1366 375.583 31.2847ZM379.65 31.4654C380.467 31.8005 380.512 31.8914 379.859 31.8833C379.4 31.878 378.461 31.6899 377.773 31.4654C376.648 31.0987 376.627 31.0565 377.564 31.0474C378.138 31.042 379.076 31.2302 379.65 31.4654ZM355.354 32.9016C354.955 33.0353 354.204 33.0401 353.685 32.9123C353.166 32.7846 353.493 32.675 354.41 32.6691C355.328 32.6632 355.753 32.768 355.354 32.9016ZM377.46 37.7134C377.058 37.8481 376.401 37.8481 376 37.7134C375.598 37.5793 375.927 37.4692 376.73 37.4692C377.533 37.4692 377.862 37.5793 377.46 37.7134ZM381.18 39.2144C381.104 39.5078 379.446 39.7783 377.495 39.8152C374.684 39.8686 373.948 39.7249 373.948 39.123C373.948 38.5115 374.669 38.3945 377.633 38.5222C379.845 38.6179 381.263 38.8947 381.18 39.2144ZM362.32 39.5191C361.95 40.2851 362.084 40.3962 363.901 40.8313C365.836 41.2942 366.015 40.3679 364.152 39.5357C362.555 38.8221 362.655 38.8231 362.32 39.5191ZM354.202 40.5523C352.135 40.8768 352.28 40.9174 355.662 40.9623C358.093 40.9943 359.122 40.8495 358.582 40.5523C357.654 40.0408 357.459 40.0408 354.202 40.5523ZM357.399 42.2356C358.46 42.5408 360.567 42.5467 362.822 42.25L366.509 41.7652L361.085 41.7507C356.782 41.739 356.021 41.839 357.399 42.2356ZM368.079 42.0052C368.713 42.1276 369.652 42.1243 370.165 41.9977C370.678 41.871 370.159 41.7705 369.012 41.7743C367.865 41.7785 367.445 41.8823 368.079 42.0052ZM379.767 42.0148C380.864 42.1254 382.553 42.1238 383.522 42.0121C384.49 41.8999 383.592 41.8095 381.527 41.8111C379.462 41.8127 378.67 41.9047 379.767 42.0148ZM352.637 43.0443C352.351 43.1929 351.881 43.1929 351.594 43.0443C351.308 42.8962 351.542 42.7749 352.116 42.7749C352.689 42.7749 352.924 42.8962 352.637 43.0443ZM369.742 44.6479C369.455 44.7965 368.986 44.7965 368.699 44.6479C368.412 44.4998 368.647 44.3784 369.22 44.3784C369.794 44.3784 370.029 44.4998 369.742 44.6479ZM361.676 45.7047C362.004 46.0681 356.498 45.8185 354.619 45.385C353.393 45.1017 354.263 45.0483 357.122 45.2311C359.531 45.3856 361.581 45.5983 361.676 45.7047ZM350.969 45.7405C350.453 45.8677 349.607 45.8677 349.091 45.7405C348.575 45.6127 348.997 45.5085 350.03 45.5085C351.062 45.5085 351.485 45.6127 350.969 45.7405ZM370.785 45.7314C370.384 45.8661 369.726 45.8661 369.325 45.7314C368.923 45.5972 369.252 45.4871 370.055 45.4871C370.858 45.4871 371.186 45.5972 370.785 45.7314ZM370.776 47.824C370.638 48.0015 370.278 48.0208 369.977 47.8663C369.644 47.6958 369.743 47.5691 370.229 47.5434C370.668 47.5204 370.915 47.6466 370.776 47.824ZM88.5671 48.9209C88.2846 49.0674 87.7214 49.0764 87.3155 48.9407C86.9096 48.8049 87.1407 48.6851 87.8291 48.6745C88.5174 48.6638 88.8495 48.7744 88.5671 48.9209ZM99.5102 49.6879C98.0614 50.2572 91.6388 50.1006 92.3555 49.5137C92.6196 49.2977 94.6187 49.1379 96.7985 49.1587C99.8711 49.1881 100.481 49.3073 99.5102 49.6879ZM106.915 49.4586C106.629 49.6072 106.159 49.6072 105.872 49.4586C105.586 49.3106 105.82 49.1892 106.394 49.1892C106.967 49.1892 107.202 49.3106 106.915 49.4586ZM113.81 49.4934C112.955 49.6083 111.453 49.6099 110.472 49.4966C109.491 49.3838 110.19 49.2897 112.026 49.2881C113.861 49.286 114.664 49.3785 113.81 49.4934ZM125.584 49.7607C125.584 49.9878 124.939 50.1738 124.149 50.1738C123.359 50.1738 122.624 49.9878 122.514 49.7607C122.405 49.5335 123.05 49.348 123.949 49.348C124.849 49.348 125.584 49.5335 125.584 49.7607ZM131.529 49.4586C131.243 49.6072 130.773 49.6072 130.486 49.4586C130.2 49.3106 130.434 49.1892 131.008 49.1892C131.581 49.1892 131.816 49.3106 131.529 49.4586ZM135.484 49.4276C135.345 49.6051 134.985 49.6243 134.684 49.4698C134.351 49.2993 134.45 49.1726 134.936 49.147C135.376 49.124 135.622 49.2502 135.484 49.4276ZM48.3008 50.022C47.67 50.1444 46.637 50.1444 46.0062 50.022C45.3755 49.8996 45.8915 49.7997 47.1535 49.7997C48.4155 49.7997 48.9315 49.8996 48.3008 50.022ZM17.0119 50.5421C16.6101 50.6768 15.9535 50.6768 15.5517 50.5421C15.15 50.4079 15.4787 50.2979 16.2818 50.2979C17.0849 50.2979 17.4136 50.4079 17.0119 50.5421ZM363.307 50.9179C364.311 51.7127 362.681 52.8481 360.593 52.8091C359.086 52.7807 358.791 52.6562 359.417 52.3119C360.002 51.9896 359.443 51.8405 357.539 51.8111C356.048 51.7886 353.513 51.6021 351.907 51.3973C349.669 51.1119 349.279 50.9516 350.239 50.71C351.988 50.269 362.703 50.44 363.307 50.9179ZM19.0632 51.9164C19.0632 52.506 18.2668 52.6685 15.3778 52.6685C12.0853 52.6685 11.2956 52.4579 11.8688 51.733C11.9656 51.6106 13.6239 51.4326 15.5538 51.3375C18.3552 51.1996 19.0632 51.3161 19.0632 51.9164ZM106.395 52.2387C106.395 52.4263 105.034 52.4718 103.37 52.3408C100.592 52.1216 100.499 52.0778 102.222 51.8063C104.275 51.4823 106.393 51.7021 106.395 52.2387ZM114.85 51.5936C114.567 51.74 114.004 51.7491 113.598 51.6133C113.192 51.4775 113.423 51.3578 114.112 51.3471C114.8 51.3364 115.132 51.4471 114.85 51.5936ZM118.379 51.5657C118.241 51.7432 117.881 51.7624 117.58 51.608C117.247 51.4375 117.346 51.3108 117.832 51.2851C118.271 51.2621 118.518 51.3883 118.379 51.5657ZM28.6931 52.3985C26.9622 53.2089 27.2584 54.1031 29.1102 53.66C30.9275 53.2249 31.0614 53.1137 30.6918 52.3478C30.3701 51.6807 30.2187 51.6849 28.6931 52.3985ZM89.8186 52.1281C89.5362 52.2745 88.973 52.2836 88.5671 52.1479C88.1611 52.0121 88.3923 51.8923 89.0806 51.8816C89.769 51.8709 90.1011 51.9816 89.8186 52.1281ZM96.2683 52.1003C96.1298 52.2777 95.7698 52.297 95.469 52.1425C95.136 51.972 95.2349 51.8453 95.7209 51.8196C96.1607 51.7967 96.4068 51.9228 96.2683 52.1003ZM131.954 52.1281C131.672 52.2745 131.109 52.2836 130.703 52.1479C130.297 52.0121 130.528 51.8923 131.216 51.8816C131.905 51.8709 132.237 51.9816 131.954 52.1281ZM58.1171 52.7027C57.1488 52.8144 55.4592 52.816 54.3625 52.7053C53.2657 52.5952 54.0579 52.5033 56.123 52.5017C58.188 52.5001 59.0854 52.5904 58.1171 52.7027ZM74.9785 53.7306C80.6697 53.791 84.9505 53.651 84.4916 53.419C83.7686 53.0539 83.8454 52.9443 85.0652 52.5979C85.9989 52.3323 86.575 52.4087 86.7757 52.8245C86.9692 53.226 89.0789 53.5659 92.6296 53.768C96.877 54.0101 98.1085 53.9342 97.8728 53.4462C97.6404 52.9646 98.2136 52.8892 100.207 53.1389C101.659 53.3211 104.819 53.6563 107.228 53.884C111.255 54.2646 110.927 54.3041 103.161 54.3742C98.0676 54.4196 94.7126 54.6543 94.7126 54.9643C94.7126 55.2476 96.4493 55.5581 98.5716 55.6554C100.694 55.7522 98.9575 55.8446 94.7126 55.8601C89.416 55.8793 88.0681 55.7827 90.416 55.5518C92.2975 55.3668 93.9713 55.0433 94.1357 54.8327C94.4882 54.3811 92.9704 54.3485 80.5283 54.5404C63.8009 54.798 61.6265 54.7516 61.4642 54.1315C61.2544 53.3292 63.9544 52.3285 64.3403 53.0656C64.5259 53.419 68.3861 53.6601 74.9785 53.7306ZM72.2889 52.6894C71.7724 52.8166 70.928 52.8166 70.4116 52.6894C69.8951 52.5616 70.3177 52.4573 71.3502 52.4573C72.3828 52.4573 72.8054 52.5616 72.2889 52.6894ZM91.7923 52.8465C90.9834 53.5162 90.5408 53.5162 90.5408 52.8465C90.5408 52.5525 90.963 52.3157 91.4794 52.32C92.2383 52.3269 92.2984 52.4274 91.7923 52.8465ZM34.4294 53.3981C33.8954 53.6814 34.9337 53.8541 37.315 53.8781C39.3609 53.8984 40.9566 53.8289 40.8611 53.7231C40.4456 53.2629 35.1865 52.9972 34.4294 53.3981ZM98.8064 53.7461C99.1072 53.9006 99.4673 53.8813 99.6058 53.7039C99.7443 53.5264 99.4981 53.4002 99.0584 53.4232C98.5724 53.4489 98.4735 53.5756 98.8064 53.7461ZM117.102 53.7573C117.774 54.0882 117.74 54.1785 116.823 54.5057C116.123 54.7558 116.644 54.8953 118.412 54.9311C120.052 54.9643 120.947 55.1861 120.787 55.5191C120.631 55.8414 118.094 56.0269 114.4 55.9868C108.595 55.9232 108.305 55.3117 113.903 54.9386C115.668 54.821 115.693 54.7991 114.32 54.5708C113.09 54.3666 112.992 54.2598 113.695 53.8926C114.764 53.3335 116.131 53.2789 117.102 53.7573ZM124.75 53.9155C124.406 54.2004 122.716 54.3934 120.995 54.3437L117.866 54.2539L121.204 53.9155C123.039 53.7295 124.729 53.5365 124.959 53.4874C125.188 53.4376 125.094 53.6306 124.75 53.9155ZM132.572 54.3106C131.253 54.4164 129.094 54.4164 127.775 54.3106C126.455 54.2047 127.535 54.1176 130.173 54.1176C132.812 54.1176 133.892 54.2047 132.572 54.3106ZM139.873 54.302C139.127 54.4207 137.907 54.4207 137.161 54.302C136.415 54.1839 137.026 54.0866 138.517 54.0866C140.008 54.0866 140.619 54.1839 139.873 54.302ZM147.174 54.2982C146.543 54.4206 145.51 54.4206 144.879 54.2982C144.248 54.1758 144.764 54.0759 146.026 54.0759C147.288 54.0759 147.804 54.1758 147.174 54.2982ZM9.72365 54.8434C10.8204 54.9541 12.51 54.9525 13.4783 54.8408C14.4466 54.7285 13.5492 54.6382 11.4842 54.6398C9.4191 54.6414 8.62687 54.7333 9.72365 54.8434ZM23.0669 54.8339C23.701 54.9563 24.6397 54.953 25.1528 54.8264C25.666 54.6997 25.147 54.5992 23.9997 54.6029C22.8525 54.6072 22.4328 54.7109 23.0669 54.8339ZM30.1895 55.0787C32.4444 55.3753 34.5512 55.3695 35.6129 55.0642C36.9909 54.6676 36.2295 54.5676 31.9262 54.5794L26.5028 54.5939L30.1895 55.0787ZM49.2394 55.5191C49.8702 55.7778 48.2223 55.9307 45.0676 55.9061C40.6237 55.8708 40.2845 55.8136 42.7731 55.5191C46.8944 55.0311 48.0504 55.0311 49.2394 55.5191ZM152.388 55.3384C152.102 55.487 151.633 55.487 151.346 55.3384C151.059 55.1904 151.293 55.069 151.867 55.069C152.441 55.069 152.675 55.1904 152.388 55.3384ZM24.3126 57.4765C24.026 57.6251 23.5567 57.6251 23.2697 57.4765C22.983 57.3285 23.2175 57.2071 23.7911 57.2071C24.3648 57.2071 24.5996 57.3285 24.3126 57.4765ZM44.9683 57.4899C44.5695 57.6236 43.8185 57.6284 43.2995 57.5006C42.7806 57.3729 43.1068 57.2632 44.0246 57.2574C44.9424 57.2515 45.3671 57.3563 44.9683 57.4899ZM38.3926 58.219C37.3601 58.4542 35.295 58.6215 33.8036 58.5905L31.0919 58.5339L34.2208 58.1918C35.9417 58.0036 38.0067 57.8368 38.8098 57.8203C40.0914 57.7946 40.0405 57.8433 38.3926 58.219ZM23.6918 58.559C23.293 58.6926 22.5421 58.6974 22.0231 58.5697C21.5041 58.4419 21.8304 58.3323 22.7482 58.3264C23.666 58.3205 24.0907 58.4254 23.6918 58.559ZM44.3433 58.568C43.8302 58.6947 42.8915 58.698 42.2574 58.5755C41.6233 58.4526 42.043 58.3489 43.1902 58.3446C44.3375 58.3409 44.8565 58.4414 44.3433 58.568ZM62.8409 58.8177C62.4054 59.1389 61.3261 59.4265 60.4421 59.4559C59.445 59.4896 58.8347 59.767 58.8347 60.1872C58.8347 60.6586 58.1693 60.8382 56.6445 60.7788C55.1434 60.72 54.8806 60.6255 55.8101 60.4779C57.3987 60.2251 57.6465 59.2608 56.123 59.2608C55.5494 59.2608 55.08 59.0668 55.08 58.8294C55.08 58.5921 57.0045 58.3612 59.3562 58.3158C62.6298 58.2527 63.4467 58.3708 62.8409 58.8177ZM73.5484 58.5424C73.266 58.6889 72.7028 58.6979 72.2968 58.5622C71.8909 58.4264 72.122 58.3066 72.8104 58.296C73.4987 58.2853 73.8308 58.3959 73.5484 58.5424ZM82.084 58.5146C81.9455 58.6921 81.5855 58.7113 81.2847 58.5568C80.9518 58.3863 81.0506 58.2596 81.5367 58.234C81.9764 58.211 82.2225 58.3371 82.084 58.5146ZM100.032 58.56C99.6304 58.6947 98.9729 58.6947 98.5716 58.56C98.1702 58.4258 98.4986 58.3158 99.3017 58.3158C100.105 58.3158 100.433 58.4258 100.032 58.56ZM49.5523 59.0945C49.1506 59.2292 48.4939 59.2292 48.0922 59.0945C47.6904 58.9604 48.0192 58.8503 48.8222 58.8503C49.6253 58.8503 49.9541 58.9604 49.5523 59.0945ZM95.7556 59.2608C95.2967 59.5137 94.6396 59.7333 94.2954 59.7493C93.7393 59.7755 93.7393 59.7216 94.2954 59.2608C94.6396 58.9759 95.2967 58.7557 95.7556 58.7723L96.5899 58.8016L95.7556 59.2608ZM87.3155 59.6115C87.0331 59.7579 86.4699 59.767 86.064 59.6312C85.658 59.4955 85.8891 59.3757 86.5775 59.365C87.2659 59.3543 87.5979 59.465 87.3155 59.6115ZM61.755 60.3299C61.755 60.6238 61.2385 60.8473 60.6077 60.827C59.591 60.7933 59.5556 60.7372 60.2948 60.3299C61.4342 59.7023 61.755 59.7023 61.755 60.3299ZM90.9579 60.3299C90.3843 60.565 89.5395 60.758 89.0806 60.758C88.4198 60.758 88.4632 60.6687 89.2892 60.3299C89.8628 60.0947 90.7076 59.9017 91.1665 59.9017C91.8274 59.9017 91.784 59.991 90.9579 60.3299ZM23.2609 60.6527C23.1224 60.8302 22.7624 60.8494 22.4616 60.6949C22.1287 60.5244 22.2275 60.3977 22.7135 60.3721C23.1533 60.3491 23.3994 60.4753 23.2609 60.6527ZM75.8262 60.6527C75.6877 60.8302 75.3277 60.8494 75.0269 60.6949C74.694 60.5244 74.7928 60.3977 75.2789 60.3721C75.7186 60.3491 75.9647 60.4753 75.8262 60.6527ZM80.0118 60.6971C79.613 60.8307 78.8621 60.8355 78.3431 60.7078C77.8241 60.58 78.1504 60.4704 79.0682 60.4645C79.986 60.4587 80.4107 60.5634 80.0118 60.6971Z" fill="#0B80C2"/>
</svg>
