<svg width="246" height="35" viewBox="0 0 246 35" fill="none" xmlns="http://www.w3.org/2000/svg">
<path d="M137.451 0.798093C137.527 0.695213 137.83 0.472437 138.124 0.302891C138.889 -0.137709 139.037 0.705643 138.303 1.31551C137.829 1.70865 137.553 1.72976 136.332 1.46639L134.913 1.15996L136.113 1.07244C136.773 1.02443 137.375 0.900973 137.451 0.798093Z" fill="#0B80C2"/>
<path d="M227.449 0.119077C227.118 0.184371 226.576 0.184371 226.245 0.119077C225.914 0.053508 226.185 0 226.847 0C227.51 0 227.78 0.053508 227.449 0.119077Z" fill="#0B80C2"/>
<path d="M210.655 0.741294C212.675 0.684505 213.036 0.624698 212.127 0.49795C211.465 0.405495 213.797 0.322646 217.31 0.313593C222.669 0.30015 223.62 0.355839 223.214 0.660089C222.804 0.967631 223.263 1.02278 226.227 1.02278C229.814 1.02278 231.397 1.19617 231.397 1.58849C231.397 1.71085 231.006 1.85816 230.527 1.9155C230.049 1.97311 231.186 2.01179 233.055 2.00164C236.179 1.98435 236.923 1.83237 235.546 1.49273C235.048 1.3701 235.052 1.35858 235.593 1.32895C235.923 1.31084 236.608 1.71385 237.17 2.25733C237.716 2.78545 238.267 3.21755 238.393 3.21755C238.52 3.21755 238.623 3.34264 238.623 3.49546C238.623 3.64799 238.144 3.46281 237.558 3.08393C236.133 2.16186 233.973 2.11248 233.235 2.98517C232.96 3.31 232.735 3.68037 232.735 3.80822C232.735 3.93606 232.615 4.04059 232.468 4.04059C232.32 4.04059 232.2 3.74785 232.2 3.38983C232.2 2.83922 232.03 2.71109 231.094 2.55773C230.485 2.45787 229.923 2.44224 229.845 2.52262C229.766 2.603 229.921 2.66885 230.19 2.66885C230.645 2.66885 230.648 2.70204 230.234 3.17062C229.509 3.99174 229.7 4.31302 230.929 4.33826L232.066 4.36156L230.653 4.71245C229.876 4.90531 229.193 5.1108 229.136 5.16924C229.079 5.2274 232.967 5.2595 237.776 5.24057C242.585 5.22164 246.278 5.26444 245.984 5.33577C245.689 5.4071 245.334 5.57692 245.194 5.71327C245.054 5.84962 244.73 5.96101 244.474 5.96101C243.944 5.96101 243.727 6.24 243.566 7.12586C243.505 7.46605 243.121 8.05975 242.712 8.44548C241.77 9.33436 241.642 10.4987 242.457 10.7538C242.787 10.857 242.902 10.995 242.722 11.0721C242.37 11.2221 243.234 12.271 243.709 12.271C243.856 12.271 243.976 12.4479 243.976 12.6641C243.976 12.8803 244.24 13.1428 244.562 13.2474C245.127 13.4314 245.13 13.4509 244.644 13.8147C244.162 14.1763 244.165 14.1914 244.728 14.1914C245.175 14.1914 245.314 14.3543 245.314 14.8772C245.314 15.4259 245.181 15.5631 244.645 15.5631C243.873 15.5631 243.759 15.9582 244.445 16.258C244.817 16.4213 244.721 16.5159 243.976 16.7211C243.461 16.863 242.498 17.0693 241.835 17.1798L240.631 17.3806L242.504 17.5853C244.847 17.8415 246.124 18.3628 244.043 18.2136L242.638 18.1129V19.1993C242.638 19.954 242.74 20.2465 242.973 20.157C243.157 20.0865 243.548 20.1263 243.842 20.2456C244.298 20.4305 244.262 20.4657 243.602 20.4821L242.826 20.5013L243.012 24.3526C243.114 26.4708 243.262 28.3762 243.341 28.5871C243.445 28.8642 243.201 29.0011 242.459 29.0815C241.6 29.1745 241.528 29.2264 242.017 29.4009C242.616 29.6143 243.095 30.3778 242.63 30.3778C242.487 30.3778 242.37 30.6288 242.37 30.9353C242.37 31.2571 242.116 31.5978 241.768 31.741C241.187 31.9805 241.191 31.9896 241.894 32.0066C242.448 32.0197 242.582 32.1287 242.457 32.4639C242.329 32.8052 242.064 32.8666 241.277 32.7377C240.702 32.6436 240.19 32.6908 240.096 32.8463C240 33.0046 240.249 33.1229 240.682 33.1254C241.266 33.1287 241.344 33.189 241.032 33.3956C240.811 33.5418 240.117 33.6633 239.49 33.6658C238.862 33.668 238.139 33.7753 237.884 33.904C235.498 35.1048 235.52 35.1001 233.169 34.8996C231.904 34.7915 230.928 34.6046 231.001 34.4842C231.074 34.364 230.981 34.203 230.797 34.1264C230.612 34.0502 231.213 33.9778 232.133 33.966C233.09 33.9536 233.806 33.8233 233.806 33.6614C233.806 33.2403 232.978 32.9934 232.763 33.35C232.637 33.558 231.316 33.6485 228.708 33.628C226.581 33.6109 223.937 33.6011 222.833 33.6063C221.729 33.6115 213.479 33.6151 204.499 33.6143C195.52 33.6134 187.992 33.6249 187.772 33.64C187.551 33.6548 186.106 33.7174 184.56 33.7786C182.519 33.8598 182.275 33.8411 183.669 33.7114C187.374 33.3665 185.923 33.1308 180.251 33.1569C177.101 33.1712 173.981 33.1544 173.319 33.1196C172.24 33.0628 172.198 33.0376 172.918 32.8771C173.439 32.7608 173.606 32.6239 173.392 32.4859C173.211 32.3693 172.558 32.4131 171.941 32.5835C171.208 32.786 170.936 32.9684 171.159 33.1094C171.639 33.4131 168.697 33.7564 167.626 33.5215C167.151 33.4175 166.635 33.2282 166.48 33.101C166.325 32.9739 165.904 32.9503 165.544 33.0485L164.888 33.2274L165.557 33.4389C165.925 33.5553 165.564 33.566 164.755 33.4628C163.945 33.3596 160.753 33.29 157.662 33.3081C153.567 33.3317 152.405 33.273 153.38 33.0911C154.116 32.9536 155.184 32.828 155.753 32.8112C156.322 32.7948 156.664 32.7034 156.514 32.6085C156.252 32.442 153.446 32.4793 145.777 32.7514C143.008 32.8496 142.138 32.7967 141.964 32.5199C141.819 32.2908 141.665 32.2601 141.537 32.4354C141.414 32.6027 139.089 32.7152 135.582 32.7237C132.417 32.7314 123.143 32.7797 114.973 32.831C106.804 32.882 95.2415 32.9193 89.2798 32.9138C83.318 32.9084 75.6702 32.9037 72.2846 32.9034C68.8989 32.9031 58.1196 32.8812 48.3307 32.8549C38.5417 32.8285 26.4376 32.8313 21.4328 32.8609C12.2872 32.9149 5.21184 32.4741 2.83171 31.7018C1.02888 31.1166 1.04734 31.1267 1.56041 31.0011C2.26698 30.8277 2.12219 30.3778 1.35968 30.3778C0.824399 30.3778 0.690579 30.2406 0.690579 29.6919C0.690579 29.169 0.830018 29.0061 1.27698 29.0061C1.83983 29.0061 1.84331 28.991 1.36075 28.6294C0.875518 28.2656 0.878464 28.2461 1.44345 28.062C1.76543 27.9575 2.02878 27.695 2.02878 27.4788C2.02878 27.2626 2.14922 27.0856 2.29642 27.0856C2.7209 27.0856 3.54497 26.1243 3.42828 25.7655C3.36993 25.5861 3.4992 25.4396 3.71492 25.4396C4.41694 25.4396 4.05054 23.9677 3.10069 22.9718C2.61144 22.4588 2.34326 21.9943 2.50465 21.9392C2.93983 21.7905 2.00603 20.7757 1.43409 20.7757C1.17233 20.7757 0.95822 20.6605 0.95822 20.5194C0.95822 20.3787 0.62688 20.2062 0.222207 20.1359C-0.182734 20.066 0.449702 20.0086 1.62732 20.0089C7.49375 20.0103 9.52273 19.9304 9.52273 19.6981C9.52273 19.4141 6.81715 18.9636 5.77576 19.0742C5.28196 19.1269 5.20568 19.078 5.48457 18.8882C5.78084 18.6863 5.7233 18.6037 5.21692 18.506C4.64712 18.396 4.66398 18.3768 5.36091 18.3439C5.84909 18.3208 6.0533 18.21 5.8962 18.0533C5.74043 17.8983 5.12726 17.9354 4.31417 18.1496L2.9864 18.4992L4.04653 18.7719L5.10666 19.0448L3.90227 19.2399C2.40295 19.4827 0.556758 19.1137 0.556758 18.5713C0.556758 18.3046 1.0179 18.0994 1.96187 17.9452C2.73455 17.8193 3.36699 17.602 3.36699 17.4627C3.36699 17.3233 3.69833 17.1925 4.103 17.1719C4.7341 17.1398 4.7531 17.1175 4.23682 17.0155C3.8094 16.9313 3.63463 16.7033 3.63463 16.2298C3.63463 15.8632 3.48422 15.5587 3.30008 15.5532C3.11621 15.5477 3.32684 15.227 3.76845 14.8402C4.55799 14.1491 4.56013 14.1398 3.90013 14.2901C2.77149 14.5469 2.64275 14.2454 2.86061 11.8594C2.97088 10.6523 3.06991 8.77853 3.08035 7.69569C3.0964 6.04139 3.02441 5.70697 2.63098 5.60135C2.27849 5.50697 2.31168 5.46801 2.7648 5.44414C3.27679 5.41698 3.36699 5.25812 3.36726 4.38351V3.35472L1.96214 3.43263C0.744108 3.50012 0.628218 3.46445 1.09204 3.16541C1.51384 2.89353 9.33485 2.80795 38.0265 2.76159C72.5642 2.7059 76.9787 2.65239 83.6593 2.21042C85.2049 2.10809 87.6137 2.07077 89.0121 2.12784C90.4105 2.18463 93.0187 2.23704 94.8082 2.24417C96.5973 2.25158 98.0244 2.31906 97.9789 2.3945C97.9337 2.46995 99.9022 2.54266 102.353 2.5561C111.167 2.60466 115.421 2.74402 114.17 2.9432C111.968 3.29409 120.788 3.41946 128.222 3.14292C130.577 3.0554 132.925 3.08531 133.441 3.20959C134.178 3.38764 133.875 3.44169 132.016 3.46391C129.918 3.48887 129.7 3.53771 130.057 3.90341C130.508 4.36596 131.567 4.46198 131.567 4.04059C131.567 3.88805 132.281 3.76624 133.173 3.76624C134.065 3.76624 134.779 3.64443 134.779 3.49189C134.779 3.341 135.23 3.22988 135.782 3.24497C136.678 3.26939 136.714 3.29574 136.117 3.49189C135.638 3.64882 135.982 3.71767 137.321 3.73276C138.652 3.74813 139.533 3.59696 140.361 3.21151C141.003 2.91302 141.703 2.66885 141.916 2.66885C142.13 2.66885 142.24 2.56185 142.161 2.43098C141.947 2.07598 144.068 1.85129 146.173 2.00547C147.193 2.08037 149.051 2.0288 150.302 1.8908C152.122 1.69026 151.213 1.64691 145.752 1.67434C140.727 1.69958 138.943 1.79259 138.986 2.02743C139.075 2.50809 137.727 2.84745 136.518 2.64855L135.448 2.47242L136.591 2.43348C137.271 2.41016 138.138 2.13469 138.732 1.75253C139.72 1.11714 139.802 1.11112 147.09 1.15392C157.648 1.21619 159.9 1.29327 159.268 1.57146C158.886 1.73963 159.193 1.8129 160.338 1.8269C161.222 1.8376 163.259 1.97394 164.865 2.13031C166.88 2.32592 167.873 2.32593 168.064 2.13004C168.255 1.93389 168.02 1.84581 167.306 1.84581C166.737 1.84581 166.35 1.76543 166.445 1.66722C166.716 1.39013 178.685 1.3273 178.518 1.60384C178.438 1.7369 177.928 1.86474 177.385 1.88806C176.841 1.9111 177.601 2.02441 179.073 2.13991C181.846 2.35692 184.377 2.20741 184.155 1.83979C183.912 1.43677 184.786 1.33965 188.746 1.33059C191.093 1.32511 192.893 1.43868 193.128 1.6074C193.436 1.8288 193.376 1.85926 192.865 1.74238C192.501 1.65926 191.906 1.66803 191.542 1.76158C190.315 2.07708 191.75 2.3155 193.927 2.15803C195.655 2.03293 195.804 1.98437 194.998 1.80851C194.435 1.6856 194.702 1.66803 195.667 1.7646C197.816 1.97914 204.063 2.04609 204.901 1.86338C205.436 1.74678 205.329 1.68368 204.365 1.54843C203.204 1.38547 203.223 1.37695 204.901 1.3059C206.352 1.24444 206.507 1.19507 205.837 1.00769C205.171 0.821406 205.284 0.786018 206.507 0.80001C207.316 0.809063 209.183 0.78272 210.655 0.741294Z" fill="#0B80C2"/>
<path d="M125.612 2.64965C124.731 2.63456 124.595 2.57722 125.01 2.3945C125.756 2.06584 126.749 2.06584 126.749 2.3945C126.749 2.54539 126.237 2.66008 125.612 2.64965Z" fill="#0B80C2"/>
<path d="M128.706 2.66473C127.603 2.66171 127.268 2.58298 127.552 2.3945C128.081 2.04444 129.884 2.04444 130.095 2.3945C130.198 2.56542 129.675 2.6672 128.706 2.66473Z" fill="#0B80C2"/>
<path d="M122.145 2.87242C121.012 2.92373 119.085 2.92399 117.863 2.87324C116.642 2.82221 117.569 2.78025 119.925 2.77997C122.28 2.7797 123.279 2.82112 122.145 2.87242Z" fill="#0B80C2"/>
<path d="M242.606 3.49189C242.459 3.49189 242.413 3.36844 242.504 3.21755C242.595 3.06666 242.79 2.9432 242.937 2.9432C243.084 2.9432 243.131 3.06666 243.04 3.21755C242.949 3.36844 242.754 3.49189 242.606 3.49189Z" fill="#0B80C2"/>
<path d="M0.525178 16.3861C0.147269 16.3861 -0.0719305 16.2668 0.0214763 16.1118C0.112474 15.9609 0.487973 15.8375 0.85598 15.8375C1.23389 15.8375 1.45309 15.9568 1.35968 16.1118C1.26868 16.2627 0.893184 16.3861 0.525178 16.3861Z" fill="#0B80C2"/>
<path d="M0.655519 17.3897C0.819315 17.1872 0.874447 16.9403 0.777561 16.841C0.680675 16.7417 1.22372 16.6605 1.98409 16.6605C3.57254 16.6605 3.76069 16.9529 2.47815 17.4284C1.22613 17.8926 0.26503 17.872 0.655519 17.3897Z" fill="#0B80C2"/>
</svg>
