<svg width="252" height="33" viewBox="0 0 252 33" fill="none" xmlns="http://www.w3.org/2000/svg">
<path fill-rule="evenodd" clip-rule="evenodd" d="M8.90207 0.375292C8.71829 0.590548 8.56768 1.12937 8.56768 1.57284C8.56768 2.1475 8.41387 2.42064 8.03267 2.52344C7.67126 2.62074 7.49765 2.89938 7.49765 3.38226C7.49765 3.99303 7.38048 4.09721 6.69513 4.09721C6.25374 4.09721 5.8926 4.22124 5.8926 4.37282C5.8926 4.52441 6.17964 4.64844 6.53007 4.64844C7.15016 4.64844 7.61402 5.39482 7.51504 6.23324C7.49257 6.42287 7.75044 6.57941 8.08777 6.58162C8.42537 6.58355 8.94942 6.65384 9.25224 6.73762C9.66206 6.85118 9.88302 6.70924 10.116 6.18281C10.3514 5.65032 10.6288 5.4753 11.2371 5.4753C12.0017 5.4753 12.0453 5.53483 12.0453 6.57777C12.0453 7.63338 12.0084 7.68105 11.1759 7.702C10.6978 7.71385 10.4576 7.78661 10.6425 7.86323C11.3746 8.16751 10.5962 8.50707 9.16717 8.50707C7.72209 8.50707 7.47999 8.83478 8.70144 9.1374C8.9957 9.21044 8.59737 9.28431 7.81625 9.30195C6.94444 9.32151 6.45999 9.4403 6.56137 9.60953C6.65767 9.77021 6.35726 9.89837 5.84151 9.91684C4.96275 9.94826 4.96408 9.95019 6.02636 10.1765C6.61487 10.3019 7.63809 10.4204 8.30017 10.44C8.96226 10.4593 9.73429 10.5681 10.016 10.682C10.2977 10.7958 9.09387 10.8487 7.34089 10.7999C5.23159 10.7412 4.33463 10.798 4.68882 10.9678C5.09596 11.1632 4.86644 11.229 3.73034 11.2439C2.0873 11.2652 1.73285 11.4374 2.18253 11.9958C2.40617 12.2737 2.39226 12.3657 2.12662 12.3657C1.62933 12.3657 2.15097 12.834 2.81626 12.9847C3.27985 13.0897 3.244 13.1531 2.54875 13.4607L1.74623 13.8157L2.61563 14.0632C3.74023 14.3835 3.7817 15.1219 2.67501 15.1219C1.90165 15.1219 1.86955 15.1679 1.96612 16.1372C2.07901 17.2717 2.45298 17.5263 4.1538 17.6272C5.16257 17.687 5.17407 17.6969 4.35443 17.8017C3.36973 17.9276 3.16937 18.4163 4.08692 18.454C4.52965 18.4725 4.44137 18.5546 3.75254 18.7652C3.23758 18.9229 2.97168 19.1098 3.16188 19.1809C3.84162 19.4344 2.91256 20.0829 1.86901 20.0829C-0.119106 20.0829 -0.552203 20.7637 0.719263 21.8893C1.19783 22.3129 1.96558 22.5886 3.05996 22.73C4.47641 22.9127 4.58422 22.9653 3.88629 23.1326C3.14262 23.3109 3.13272 23.3283 3.75254 23.3694C5.67806 23.497 9.1027 23.5102 9.10216 23.3903C9.1019 23.3145 10.0786 23.2933 11.2727 23.3435C13.1169 23.4207 13.4636 23.5111 13.5733 23.9438C13.7124 24.4912 14.1859 24.6061 17.663 24.936C19.6056 25.1204 19.6439 25.1377 18.8667 25.4861C17.7052 26.007 12.5661 25.9872 11.3353 25.4575C10.807 25.2301 10.1452 25.044 9.86402 25.044C9.58314 25.044 9.28407 25.2301 9.19954 25.4575C9.03716 25.8935 8.03267 26.0423 8.03267 25.6306C8.03267 25.4148 7.01667 25.3935 3.95317 25.5454C2.44389 25.6203 2.74778 26.0569 4.46331 26.2777C6.38936 26.5257 6.69486 26.6531 6.5159 27.134C6.33774 27.6122 6.63708 27.6348 11.7636 27.5326C14.5048 27.478 15.7299 27.3507 15.9779 27.0952C16.266 26.7981 16.2214 26.7131 15.7249 26.6136C15.3932 26.5469 15.6633 26.5332 16.3254 26.5831C16.9875 26.633 18.0704 26.5663 18.7319 26.4348C19.5738 26.2675 19.9916 26.2906 20.1243 26.5117C20.2666 26.7493 20.5197 26.7479 21.1403 26.5065C21.5951 26.3298 22.3949 26.2568 22.9182 26.3441C23.5765 26.4544 23.9432 26.3846 24.1099 26.1181C24.2774 25.8505 24.4119 25.8254 24.5513 26.0357C24.8688 26.5147 26.912 26.7393 27.679 26.3794C28.2327 26.1192 28.4494 26.1396 28.8303 26.4877C29.0885 26.7237 29.5403 26.9769 29.8346 27.0508C30.1781 27.1371 30.0529 27.1966 29.4844 27.217C28.9686 27.2357 28.6682 27.3639 28.7645 27.5246C28.8595 27.6831 30.4881 27.8192 32.5923 27.8446C35.8904 27.8845 35.6836 27.9088 30.5138 28.0876C26.678 28.2205 24.7399 28.3886 24.6733 28.5945C24.6021 28.8142 21.6831 28.9038 14.4975 28.9068C2.56507 28.9118 0.985433 29.1824 8.14555 29.9952C9.96354 30.2014 10.8862 30.2071 11.0748 30.0128C11.4158 29.6614 12.5803 29.6377 12.5803 29.9822C12.5803 30.1212 12.43 30.2973 12.2459 30.3739C12.0621 30.4502 12.3029 30.5227 12.7809 30.5346C14.1171 30.5679 13.8119 31.0144 12.3128 31.2195C11.5025 31.33 10.9753 31.5403 10.9753 31.7525C10.9753 32.5727 16.6443 32.7051 46.5538 32.5838C77.1171 32.4595 77.295 32.4573 84.4145 32.0799C88.4338 31.8672 88.7345 31.8857 89.2109 32.376C89.663 32.8412 90.1095 32.895 93.2449 32.8605C95.3449 32.8376 97.0061 32.6921 97.3533 32.5005C97.6738 32.3239 98.8642 32.129 99.9987 32.0676C101.133 32.0061 102.784 31.8278 103.667 31.6712C104.55 31.5147 107.619 31.3849 110.488 31.3832C113.357 31.3815 116.427 31.2374 117.31 31.0632C118.192 30.889 119.336 30.7597 119.851 30.7763C120.366 30.7931 125.964 30.8697 132.29 30.9469C144.017 31.09 147.234 31.3463 147.845 32.1858C148.265 32.7621 157.981 32.9768 160.379 32.4628C162.16 32.0808 164.577 32.0268 183.819 31.9391C194.431 31.8906 197.222 31.9518 197.73 32.244C198.121 32.4689 199.546 32.6452 201.441 32.7028C203.133 32.7541 205.346 32.866 206.359 32.9512C207.452 33.0429 208.14 33.0027 208.05 32.8525C207.963 32.7087 208.611 32.6036 209.551 32.6094C210.461 32.6149 212.951 32.4749 215.084 32.2977C217.217 32.1208 219.565 32.0127 220.3 32.0579C221.036 32.1028 222.971 32.2348 224.599 32.3514C227.018 32.5242 228.342 32.4515 231.822 31.954C234.166 31.6191 236.582 31.2859 237.192 31.2137C237.967 31.1219 238.339 30.9329 238.427 30.5864C238.585 29.963 240.075 29.7295 243.894 29.7295C246.799 29.7295 250.337 29.2797 250.794 28.8522C250.966 28.6915 250.919 28.5124 250.66 28.3443C250.362 28.15 250.481 28.0833 251.131 28.0799C251.723 28.0772 252 27.9441 252 27.6624C252 27.3625 251.701 27.249 250.911 27.249C250.299 27.249 249.646 27.0676 249.42 26.8355C248.892 26.2912 246.688 26.2749 246.487 26.8138C246.372 27.1227 246.174 27.1456 245.55 26.9213C244.997 26.7228 244.405 26.7289 243.583 26.9419C242.297 27.2757 241.567 27.1266 241.567 26.5304C241.567 26.2493 241.177 26.1465 240.112 26.1465C239.311 26.1465 238.586 26.2631 238.501 26.4059C238.41 26.5574 238.764 26.6164 239.354 26.5478L240.363 26.4307L239.293 26.7176C238.516 26.9259 237.954 26.9144 237.238 26.6751C236.696 26.494 235.888 26.421 235.443 26.5128C234.997 26.6046 234.571 26.5762 234.495 26.4499C234.419 26.3234 235.859 26.0578 237.694 25.8593C240.061 25.6035 241.032 25.3952 241.032 25.143C241.032 24.9244 240.517 24.7169 239.695 24.6047C238.221 24.4032 237.871 23.9416 239.192 23.9416C239.905 23.9416 239.978 23.8807 239.695 23.5281C239.411 23.1762 239.482 23.1147 240.175 23.1147C240.622 23.1147 241.028 23.2316 241.077 23.3744C241.151 23.5899 243.126 23.4446 248.255 22.8463C248.328 22.8377 248.208 22.7104 247.987 22.5635C247.747 22.4031 243.545 22.2945 237.488 22.292C230.936 22.2893 227.389 22.1911 227.389 22.0123C227.389 21.8607 226.878 21.7243 226.252 21.7091C224.281 21.6614 223.799 21.4122 223.75 20.417C223.702 19.438 223.731 19.4126 224.443 19.8051C225.001 20.1132 227.389 19.8614 227.389 19.4942C227.389 19.3633 226.637 19.2542 225.717 19.252C223.656 19.2467 222.894 18.8708 224.359 18.5825C227.019 18.0594 227.657 17.9808 227.657 18.177C227.657 18.2936 227.446 18.4455 227.189 18.515C226.931 18.5841 227.202 18.6696 227.791 18.7049C228.379 18.7401 228.65 18.8256 228.392 18.8948C228.135 18.9642 227.924 19.1811 227.924 19.3771C227.924 19.78 231.707 20.1797 231.938 19.8013C232.012 19.68 232.614 19.6885 233.276 19.82C233.937 19.9515 235.02 20.0182 235.682 19.9683C236.344 19.9184 236.614 19.9322 236.283 19.9989C235.786 20.0984 235.741 20.1833 236.03 20.4804C236.277 20.7359 237.503 20.8632 240.244 20.9178C245.37 21.0201 245.67 20.9974 245.492 20.5192C245.313 20.0383 245.618 19.911 247.544 19.6629C249.26 19.4421 249.564 19.0056 248.054 18.9306C244.991 18.7787 243.975 18.8 243.975 19.0158C243.975 19.1481 243.734 19.2561 243.44 19.2561C243.124 19.2561 242.905 19.0723 242.905 18.8071C242.905 18.4251 242.695 18.3865 241.5 18.5486C240.728 18.653 240.056 18.8551 240.007 18.9973C239.858 19.4295 234.446 19.3019 232.867 18.8292C232.083 18.5941 231.101 18.4392 230.686 18.4847C230.104 18.548 229.939 18.4565 229.968 18.0847C229.988 17.8193 229.868 17.6016 229.7 17.6008C228.914 17.5963 230.927 16.8403 232.082 16.7061C232.802 16.6226 233.435 16.4178 233.489 16.2513C233.609 15.8787 234.603 15.8624 235.147 16.2243C235.45 16.4261 235.319 16.4977 234.612 16.5176C233.414 16.5506 233.805 16.6863 235.749 16.912C237.349 17.098 237.886 17.6024 236.485 17.6024C236.043 17.6024 235.682 17.7264 235.682 17.878C235.682 18.0296 236.271 18.1536 236.991 18.1536C238.157 18.1536 238.317 18.0803 238.464 17.4762C238.619 16.8389 238.752 16.7937 240.7 16.7182C241.839 16.6738 243.808 16.6998 245.076 16.7756C246.344 16.8514 247.729 16.8351 248.153 16.7392C248.762 16.6016 248.643 16.5576 247.586 16.5294C246.85 16.5099 245.767 16.4021 245.179 16.2902C244.217 16.1072 244.338 16.0667 246.382 15.8897C251.359 15.4589 252.363 15.1965 250.863 14.7186C250.31 14.5425 250.335 14.5047 251.18 14.252C252.388 13.8907 251.811 13.4784 250.089 13.4723C249.26 13.4695 248.798 13.3367 248.7 13.0727C248.619 12.8549 248.696 12.6228 248.872 12.557C249.048 12.4908 248.77 12.3081 248.255 12.1504C247.566 11.9399 247.478 11.8577 247.92 11.8393C248.838 11.8015 248.638 11.3128 247.653 11.1869C246.833 11.0822 246.845 11.0722 247.854 11.0124C249.554 10.9115 249.928 10.6569 250.041 9.52244C250.138 8.5531 250.106 8.50707 249.332 8.50707C248.226 8.50707 248.267 7.76869 249.392 7.44843L250.261 7.20092L249.459 6.84594C248.763 6.53835 248.728 6.47494 249.191 6.36993C249.856 6.21917 250.378 5.75091 249.881 5.75091C249.615 5.75091 249.601 5.65886 249.825 5.38104C250.275 4.82264 249.92 4.65038 248.277 4.62915C247.141 4.61427 246.911 4.54839 247.319 4.35297C247.673 4.1832 246.776 4.12642 244.667 4.18513C242.914 4.23391 241.71 4.181 241.991 4.06717C242.273 3.95334 243.045 3.84448 243.707 3.82518C244.369 3.80561 245.393 3.6871 245.981 3.5617C247.043 3.33542 247.045 3.33348 246.166 3.30206C245.65 3.2836 245.35 3.15544 245.446 2.99475C245.547 2.82552 245.063 2.70672 244.191 2.68715C243.41 2.66951 243.012 2.59565 243.306 2.52261C243.6 2.44957 243.961 2.26244 244.109 2.10644C244.292 1.91241 243.448 1.88512 241.433 2.02017C239.815 2.12849 237.528 2.20485 236.351 2.18996C235.147 2.1748 233.684 2.33686 233.007 2.56038C231.907 2.92365 231.874 2.95947 232.619 2.97628C233.068 2.98648 233.567 2.85916 233.728 2.69323C234.075 2.33521 234.943 2.46226 234.827 2.85418C234.782 3.00439 235.107 3.20669 235.548 3.30399L236.351 3.48066L235.599 3.51346C235.152 3.53275 234.918 3.66229 235.02 3.83317C235.138 4.02914 234.441 4.0655 232.829 3.94754C231.529 3.85218 228.78 3.92467 226.72 4.10823C224.661 4.29179 222.576 4.44779 222.089 4.45495C221.326 4.46598 221.221 4.54812 221.342 5.04285C221.419 5.35898 221.397 5.75421 221.292 5.92096C220.88 6.58134 207.314 7.26679 207.71 6.60724C207.957 6.19547 206.637 6.00669 203.425 5.99484C201.629 5.98822 200.428 5.87852 200.518 5.72941C200.602 5.58967 201.198 5.4753 201.842 5.4753C203.097 5.4753 203.596 5.11396 202.897 4.71101C202.605 4.54288 202.922 4.4704 203.894 4.48308C205.379 4.50265 211.73 3.74415 214.281 3.24253C215.091 3.0835 216.475 2.84729 217.358 2.71775C218.834 2.50084 218.774 2.49038 216.622 2.58712C214.53 2.6811 213.68 2.46392 214.616 2.07475C214.8 1.9984 214.551 1.92591 214.063 1.91406C213.575 1.9022 212.939 2.02293 212.649 2.18279C212.267 2.39336 211.513 2.3556 209.904 2.04498C207.547 1.58994 204.463 1.4772 205.721 1.89228C206.089 2.01355 206.811 2.14695 207.326 2.18884C207.841 2.23046 207.119 2.33796 205.721 2.42753C204.323 2.51711 202.758 2.49836 202.243 2.38564C200.814 2.07309 195.478 2.13565 195.021 2.47025C194.727 2.68523 195.098 2.72465 196.399 2.61688C198.341 2.45592 200.103 2.65271 200.103 3.03086C200.103 3.1626 199.562 3.27037 198.9 3.27037C198.204 3.27037 197.696 3.39798 197.696 3.57299C197.696 3.95803 191.305 3.72872 189.002 3.26127C188.119 3.08184 186.193 2.84536 184.722 2.73566C183.25 2.62569 182.468 2.50442 182.983 2.46611C183.886 2.39858 183.894 2.3884 183.214 2.17645C182.386 1.91847 181.051 2.12242 181.263 2.47494C181.459 2.80264 180.544 2.77894 180.04 2.44352C179.714 2.22633 179.749 2.17562 180.225 2.17204C180.548 2.16983 180.889 2.03781 180.985 1.87906C181.104 1.68061 179.996 1.62659 177.456 1.70707C175.343 1.77377 174.615 1.74786 175.76 1.64643C177.651 1.47913 177.708 1.45544 176.748 1.23356C176.188 1.1043 175.286 1.09411 174.742 1.21097C173.236 1.53537 172.094 1.48024 169.608 0.962905C165.34 0.0748705 163.589 -0.0397903 156.366 0.0952616C152.393 0.169678 148.391 0.232246 147.471 0.23445C146.538 0.236655 145.799 0.360414 145.799 0.514208C145.799 0.665797 145.987 0.789826 146.216 0.789826C146.446 0.789826 146.559 0.913855 146.468 1.06544C146.374 1.22172 146.628 1.35731 147.054 1.37853C147.779 1.41491 147.782 1.4207 147.137 1.54418C146.769 1.61474 146.378 1.81484 146.267 1.98903C146.118 2.22523 146.014 2.2211 145.857 1.97304C145.613 1.58415 144.269 1.46673 141.653 1.60537C140.429 1.67041 140.104 1.74511 140.714 1.82091C141.228 1.88485 141.73 2.07281 141.829 2.23846C141.938 2.42009 142.871 2.53033 144.172 2.516C145.361 2.50277 146.334 2.59677 146.334 2.72493C146.334 2.85336 146.665 3.00991 147.07 3.07303C147.627 3.15985 147.546 3.19871 146.736 3.23316C145.937 3.26733 145.767 3.34672 146.067 3.54599C146.288 3.69289 147.702 3.81498 149.21 3.81746C151.885 3.8216 152.826 4.15042 151.083 4.47178C150.604 4.55998 148.046 4.65368 145.398 4.68013C142.75 4.70659 140.445 4.83862 140.277 4.97368C140.108 5.10873 138.742 5.29642 137.242 5.39041C135.073 5.52656 134.467 5.48356 134.285 5.18066C133.944 4.61179 124.246 4.46295 123.627 5.01694C122.756 5.79638 118.151 5.75118 118.621 4.96788C118.698 4.83972 116.177 4.73471 113.019 4.73444C109.862 4.73444 107.278 4.83255 107.278 4.95272C107.278 5.07261 107.91 5.21649 108.683 5.27216C109.455 5.32783 108.161 5.38655 105.807 5.40254C103.453 5.41853 101.677 5.36919 101.861 5.29284C102.869 4.87391 101.834 4.64899 98.9185 4.65229C95.4147 4.65615 94.3393 4.81271 94.6183 5.27795C94.7288 5.46179 94.6213 5.50093 94.3259 5.38434C94.0691 5.28264 93.3803 5.19968 92.795 5.19968C92.1538 5.19968 91.7969 5.09026 91.8964 4.92406C92.1436 4.51174 91.2911 4.59167 90.3066 5.07289C89.5718 5.4323 89.2575 5.44415 88.2599 5.1509C87.4047 4.89953 83.6029 4.78543 74.4076 4.73527C63.6216 4.67656 61.6504 4.72643 61.1734 5.07068C60.865 5.2931 60.4442 5.4753 60.2382 5.4753C59.9271 5.4753 59.9231 5.40171 60.2149 5.03927C60.5346 4.64239 59.6235 4.60794 50.1494 4.65837C35.3281 4.73693 21.4543 4.58091 24.7519 4.37282L27.427 4.20389L24.8857 4.12312C21.8537 4.02666 21.041 3.82848 20.915 3.15432C20.8292 2.69432 20.9613 2.66538 22.385 2.83406C23.4459 2.95947 23.8234 2.93163 23.5578 2.74725C23.2911 2.56259 24.0173 2.50196 25.8316 2.55819C27.8826 2.62158 28.6022 2.54715 28.9534 2.2346C29.3568 1.87603 29.4601 1.88044 29.8421 2.27402C30.2714 2.71638 31.7242 2.91812 31.4739 2.50056C31.4016 2.38039 32.1469 2.32583 33.13 2.37957C34.4293 2.45068 34.8075 2.3986 34.516 2.18913C34.2059 1.96615 34.3464 1.89973 35.1336 1.89642C35.7457 1.89394 36.0865 2.00225 35.9873 2.1679C35.8813 2.34429 36.7424 2.44352 38.379 2.44352C39.9041 2.44352 40.9362 2.33244 40.9362 2.16817C40.9362 1.83964 52.8494 1.94658 53.1682 2.27787C53.2822 2.39611 52.924 2.40577 52.3721 2.29966C51.7023 2.17067 51.369 2.20841 51.369 2.41292C51.369 2.59703 51.908 2.71913 52.7223 2.71913C53.6104 2.71913 54.0152 2.61824 53.8999 2.42586C53.7787 2.22411 54.0443 2.20262 54.7535 2.35696C55.7812 2.58104 57.9253 2.59979 62.4706 2.4245C65.1331 2.3217 69.83 2.56037 70.9447 2.855C71.7745 3.07439 72.8488 2.7985 72.6241 2.42367C72.267 1.82861 74.5365 2.49559 74.9562 3.10912C75.0654 3.2687 75.3059 3.22793 75.5659 3.0055C75.9013 2.71859 76.1434 2.70756 76.6691 2.95423C77.4823 3.33596 78.4793 3.37124 78.2632 3.01073C78.1773 2.86796 77.5382 2.65821 76.843 2.54493L75.5784 2.33905L77.0497 2.02404L78.521 1.70927L76.5147 1.52709C73.8562 1.28565 63.4852 1.2432 44.1463 1.39424C38.1875 1.44082 31.6871 1.40831 29.7008 1.32205C26.5825 1.18699 26.4158 1.1586 28.4812 1.11533C30.5983 1.07123 30.8145 1.02135 30.3632 0.681238C29.9991 0.407 29.6663 0.370607 29.1984 0.553892C28.7728 0.720639 28.4465 0.710163 28.2662 0.524398C27.9494 0.198068 22.6854 0.148742 16.9637 0.41857C13.7338 0.57071 13.1924 0.660284 13.2186 1.0376C13.2416 1.37082 12.9535 1.4987 12.0431 1.56016C10.9461 1.63403 10.7939 1.56567 10.3562 0.802214C9.83246 -0.111178 9.42103 -0.23189 8.90207 0.375292ZM37.5765 0.643191C37.1052 1.01059 37.2298 1.04448 38.9298 1.01031C39.9782 0.989361 40.361 0.92514 39.7992 0.86478C39.2476 0.805247 38.7961 0.639882 38.7961 0.497664C38.7961 0.109872 38.1642 0.185393 37.5765 0.643191ZM164.057 1.26471C163.578 1.3259 162.796 1.3259 162.318 1.26471C161.84 1.2038 162.231 1.15364 163.187 1.15364C164.144 1.15364 164.535 1.2038 164.057 1.26471ZM193.066 1.2931C192.15 1.47197 192.943 1.89201 194.167 1.8763C195.452 1.86004 197.776 1.45873 197.295 1.33636C196.868 1.22804 193.572 1.19415 193.066 1.2931ZM199.301 1.34849C199.301 1.50477 200.436 1.61666 202.021 1.61666C203.516 1.61666 204.69 1.57201 204.629 1.51716C204.343 1.26276 199.301 1.10292 199.301 1.34849ZM84.54 1.60756C78.7503 1.77073 78.5435 2.03036 83.9736 2.31893C86.706 2.4639 87.5069 2.43168 87.3574 2.18197C87.2084 1.93364 87.8587 1.89559 90.0637 2.02348C93.5927 2.22854 98.2388 1.92536 96.9539 1.57395C96.4986 1.44937 95.1542 1.44441 93.9664 1.56265C92.7787 1.68089 91.5864 1.68805 91.3167 1.57863C91.0471 1.46921 90.5856 1.39812 90.2914 1.42044C89.9971 1.44249 87.409 1.52681 84.54 1.60756ZM104.311 1.70102C104.532 1.9284 105.947 2.03009 108.897 2.03009C111.243 2.03009 113.163 2.12297 113.163 2.2368C113.163 2.35063 113.893 2.44352 114.784 2.44352C115.797 2.44352 116.343 2.34016 116.24 2.1679C116.136 1.99564 116.683 1.89228 117.695 1.89228C118.597 1.89228 119.316 2.01438 119.316 2.1679C119.316 2.32142 120.035 2.44352 120.937 2.44352C121.874 2.44352 122.492 2.33493 122.403 2.18582C122.318 2.04388 122.642 1.87766 123.123 1.81648C124.656 1.62079 114.81 1.44 111.692 1.60647C111.104 1.63789 109.13 1.59792 107.307 1.51772C104.737 1.40472 104.063 1.44608 104.311 1.70102ZM217.224 1.62714C217.224 1.9328 218.745 2.17202 220.401 2.12655C221.352 2.10036 221.61 2.03781 221.103 1.95623C220.405 1.84378 220.37 1.79996 220.835 1.61998C221.148 1.49871 220.509 1.41659 219.297 1.42182C218.157 1.42679 217.224 1.5191 217.224 1.62714ZM100.793 1.79968C100.978 1.87657 101.061 2.05271 100.978 2.19134C100.892 2.33329 101.532 2.44352 102.439 2.44352C103.762 2.44352 104.024 2.36937 103.897 2.03009C103.782 1.72112 103.328 1.62218 102.1 1.63844C101.196 1.65029 100.608 1.72305 100.793 1.79968ZM132.115 1.95843C133.511 2.1486 134.165 2.13786 134.375 1.9215C134.591 1.6988 134.061 1.62658 132.411 1.65359L130.15 1.69054L132.115 1.95843ZM135.952 1.76108C136.178 1.99343 138.844 2.05187 138.844 1.82421C138.844 1.71011 138.162 1.61666 137.328 1.61666C136.495 1.61666 135.875 1.68171 135.952 1.76108ZM27.4883 2.05877C27.3994 2.15027 27.1686 2.16018 26.9757 2.08052C26.7622 1.9926 26.8256 1.92729 27.1373 1.91406C27.4192 1.9022 27.5771 1.96726 27.4883 2.05877ZM61.4618 2.05877C61.373 2.15027 61.1421 2.16018 60.9492 2.08052C60.7358 1.9926 60.7992 1.92729 61.1108 1.91406C61.3928 1.9022 61.5506 1.96726 61.4618 2.05877ZM202.449 2.09209C202.93 2.15328 203.652 2.15221 204.054 2.08937C204.456 2.02625 204.063 1.97608 203.18 1.97773C202.297 1.97911 201.968 2.03063 202.449 2.09209ZM175.153 2.33437C175.064 2.42587 174.833 2.4358 174.64 2.35614C174.427 2.26822 174.49 2.2029 174.802 2.18967C175.084 2.17782 175.242 2.24286 175.153 2.33437ZM192.145 2.64086C192.55 2.70397 193.212 2.70397 193.616 2.64086C194.021 2.57774 193.69 2.5262 192.881 2.5262C192.072 2.5262 191.74 2.57774 192.145 2.64086ZM237.555 2.82469C237.555 2.88284 237.314 2.99529 237.02 3.07466C236.725 3.15377 236.485 3.10637 236.485 2.96884C236.485 2.83158 236.725 2.71913 237.02 2.71913C237.314 2.71913 237.555 2.76681 237.555 2.82469ZM186.795 3.1772C186.611 3.25382 186.31 3.25382 186.126 3.1772C185.942 3.10086 186.093 3.0383 186.461 3.0383C186.828 3.0383 186.979 3.10086 186.795 3.1772ZM241.176 3.53C240.956 3.89547 238.736 4.20113 238.309 3.92469C238.06 3.76318 238.192 3.64246 238.758 3.51568C240.012 3.23455 241.348 3.24254 241.176 3.53ZM185.992 3.72844C185.809 3.80506 185.508 3.80506 185.324 3.72844C185.14 3.65209 185.29 3.58954 185.658 3.58954C186.026 3.58954 186.176 3.65209 185.992 3.72844ZM156.767 4.06194C156.767 4.44311 154.806 4.66469 153.384 4.4442L152.086 4.24275L153.29 4.07351C155.196 3.80561 156.767 3.80038 156.767 4.06194ZM120.921 4.92406C120.921 5.07565 121.335 5.19968 121.842 5.19968C122.348 5.19968 122.836 5.07565 122.927 4.92406C123.027 4.75759 122.663 4.64844 122.007 4.64844C121.41 4.64844 120.921 4.77247 120.921 4.92406ZM100.323 5.0456C100.323 5.11257 100.203 5.24378 100.055 5.33749C99.9083 5.4312 99.7879 5.37636 99.7879 5.21595C99.7879 5.05554 99.9083 4.92406 100.055 4.92406C100.203 4.92406 100.323 4.97862 100.323 5.0456ZM227.724 5.10651C227.54 5.18313 227.239 5.18313 227.055 5.10651C226.871 5.03016 227.021 4.96761 227.389 4.96761C227.757 4.96761 227.908 5.03016 227.724 5.10651ZM50.1034 5.38049C49.9223 5.45601 49.5612 5.46069 49.3009 5.39068C49.0406 5.32067 49.1888 5.25893 49.6302 5.25342C50.0716 5.24791 50.2845 5.30497 50.1034 5.38049ZM127.413 5.38049C127.232 5.45601 126.871 5.46069 126.611 5.39068C126.35 5.32067 126.499 5.25893 126.94 5.25342C127.381 5.24791 127.594 5.30497 127.413 5.38049ZM128.606 5.36615C128.517 5.45765 128.287 5.46757 128.094 5.38792C127.88 5.3 127.944 5.23468 128.255 5.22145C128.537 5.2096 128.695 5.27464 128.606 5.36615ZM26.2901 6.77235C25.9589 6.83794 25.6882 7.06919 25.6882 7.2861C25.6882 7.73701 24.475 7.83484 24.2169 7.4046C24.1259 7.25301 24.2996 7.12899 24.6024 7.12899C24.9052 7.12899 25.1532 7.00496 25.1532 6.85337C25.1532 6.70178 25.5445 6.59456 26.0226 6.61524C26.6512 6.64252 26.7253 6.6858 26.2901 6.77235ZM8.56768 7.52312C8.56768 7.74003 8.29696 7.97128 7.96579 8.03687C7.63461 8.10275 8.02598 8.17054 8.83519 8.18791L10.3065 8.21933L9.63771 7.68022C8.83679 7.03473 8.56768 6.99532 8.56768 7.52312ZM22.2106 7.4046C22.2106 7.55619 22.0372 7.68022 21.8251 7.68022C21.613 7.68022 21.3653 7.55619 21.2743 7.4046C21.1834 7.25301 21.357 7.12899 21.6598 7.12899C21.9626 7.12899 22.2106 7.25301 22.2106 7.4046ZM30.2358 7.35003C30.2358 7.65514 28.321 7.68519 27.8283 7.3878C27.5608 7.22657 27.8954 7.14305 28.8314 7.13727C29.6037 7.13286 30.2358 7.22848 30.2358 7.35003ZM35.586 7.4046C35.586 7.55619 35.2168 7.68022 34.7658 7.68022C34.3148 7.68022 33.7228 7.80316 33.4502 7.95337C33.1776 8.10385 32.5535 8.14106 32.0634 8.0366C31.2096 7.85469 31.2395 7.83292 32.7772 7.52312C34.8838 7.09868 35.586 7.0689 35.586 7.4046ZM20.8099 8.12699C21.1234 8.45001 21.0777 8.50707 20.5042 8.50707C20.1331 8.50707 19.7279 8.69421 19.6037 8.92297C19.4034 9.29175 19.2281 9.28651 18.0637 8.87777C16.9838 8.49852 16.843 8.3789 17.2732 8.20554C17.7028 8.03245 17.7154 7.99111 17.3444 7.97513C17.0956 7.96465 16.8091 7.81748 16.7077 7.64853C16.4348 7.19349 20.3466 7.64963 20.8099 8.12699ZM25.7762 8.42962C26.1927 8.5101 26.5967 8.74659 26.6742 8.95495C26.7521 9.16332 27.1335 9.34274 27.5225 9.35322C28.1578 9.37058 28.1752 9.39675 27.6945 9.60953C27.4002 9.73989 26.8414 9.85511 26.4525 9.86586C26.0635 9.87633 25.6762 10.0712 25.5914 10.2986C25.5025 10.5373 25.1026 10.712 24.6452 10.712C24.0321 10.712 23.8336 10.5745 23.7675 10.1032C23.7148 9.72944 23.4237 9.42073 23.0131 9.30387C22.5081 9.16 22.6595 9.10653 23.6308 9.08586C24.4146 9.06905 24.8525 8.95054 24.7519 8.78269C24.661 8.6311 24.3458 8.50707 24.0516 8.50707C23.7343 8.50707 23.5899 8.38498 23.6963 8.20748C23.7974 8.03881 24.1262 7.99002 24.4478 8.0953C24.7621 8.19866 25.36 8.34886 25.7762 8.42962ZM31.1721 8.23146C31.6515 8.44368 31.6328 8.47041 30.9937 8.48777C30.6015 8.49824 30.2404 8.61153 30.1912 8.73887C30.0788 9.03157 28.3619 9.39069 28.3673 9.12031C28.3767 8.66555 28.8049 8.27942 29.4333 8.15897C30.4349 7.96714 30.5897 7.97376 31.1721 8.23146ZM18.3162 9.30801C18.3986 9.44554 19.0676 9.64315 19.803 9.74734C21.3492 9.96645 21.8588 10.4353 20.5545 10.4389C20.0676 10.44 19.0184 10.5215 18.2229 10.6202C17.1598 10.7517 16.8273 10.7145 16.968 10.4799C17.0851 10.2848 16.9717 10.1533 16.6756 10.1415C16.2436 10.1241 16.2492 10.0965 16.7267 9.88515C17.0209 9.75478 17.1643 9.63958 17.0453 9.62883C16.9262 9.61836 16.9032 9.4855 16.9942 9.33391C17.2004 8.98994 18.1148 8.97204 18.3162 9.30801ZM12.5469 10.0574C13.0067 10.1522 13.3828 10.354 13.3828 10.5061C13.3828 10.8393 11.2307 10.5334 10.8549 10.1467C10.5571 9.84022 11.3019 9.80081 12.5469 10.0574ZM25.0807 11.7053C24.9919 11.7968 24.761 11.8067 24.5681 11.7271C24.3547 11.6392 24.4181 11.5738 24.7297 11.5606C25.0117 11.5488 25.1695 11.6138 25.0807 11.7053ZM240.832 16.1312C240.648 16.2078 240.347 16.2078 240.163 16.1312C239.979 16.0548 240.129 15.9923 240.497 15.9923C240.865 15.9923 241.016 16.0548 240.832 16.1312ZM243.44 16.2243C243.964 16.3971 243.993 16.444 243.573 16.4398C243.279 16.4371 242.677 16.3401 242.236 16.2243C241.515 16.0352 241.501 16.0135 242.102 16.0088C242.47 16.006 243.072 16.1031 243.44 16.2243ZM227.861 16.9649C227.605 17.0338 227.123 17.0363 226.791 16.9704C226.458 16.9046 226.667 16.848 227.256 16.845C227.844 16.842 228.116 16.896 227.861 16.9649ZM242.035 19.446C241.778 19.5154 241.357 19.5154 241.099 19.446C240.841 19.3768 241.052 19.3201 241.567 19.3201C242.082 19.3201 242.293 19.3768 242.035 19.446ZM244.421 20.2199C244.372 20.3712 243.309 20.5107 242.058 20.5297C240.255 20.5573 239.784 20.4832 239.784 20.1728C239.784 19.8575 240.246 19.7971 242.147 19.863C243.565 19.9124 244.474 20.0551 244.421 20.2199ZM232.327 20.377C232.09 20.772 232.176 20.8293 233.341 21.0536C234.582 21.2923 234.697 20.8147 233.502 20.3856C232.478 20.0176 232.542 20.0182 232.327 20.377ZM227.122 20.9098C225.797 21.0771 225.889 21.098 228.058 21.1212C229.617 21.1377 230.277 21.063 229.931 20.9098C229.335 20.646 229.21 20.646 227.122 20.9098ZM229.172 21.7777C229.852 21.9351 231.203 21.9381 232.649 21.7852L235.013 21.5352L231.536 21.5277C228.776 21.5217 228.288 21.5732 229.172 21.7777ZM236.02 21.6589C236.427 21.722 237.029 21.7204 237.358 21.655C237.687 21.5897 237.354 21.5379 236.618 21.5398C235.883 21.5421 235.614 21.5955 236.02 21.6589ZM243.515 21.6639C244.218 21.7209 245.301 21.7201 245.922 21.6625C246.543 21.6046 245.968 21.558 244.644 21.5589C243.319 21.5597 242.811 21.6071 243.515 21.6639ZM226.119 22.1947C225.935 22.2713 225.634 22.2713 225.45 22.1947C225.266 22.1184 225.416 22.0558 225.784 22.0558C226.152 22.0558 226.303 22.1184 226.119 22.1947ZM237.086 23.0216C236.903 23.0982 236.602 23.0982 236.418 23.0216C236.234 22.9452 236.384 22.8826 236.752 22.8826C237.12 22.8826 237.27 22.9452 237.086 23.0216ZM231.915 23.5665C232.125 23.7539 228.594 23.6252 227.389 23.4016C226.603 23.2556 227.161 23.228 228.994 23.3223C230.539 23.4019 231.853 23.5116 231.915 23.5665ZM225.049 23.5849C224.718 23.6505 224.176 23.6505 223.845 23.5849C223.514 23.5191 223.785 23.4653 224.447 23.4653C225.109 23.4653 225.379 23.5191 225.049 23.5849ZM237.755 23.5802C237.498 23.6497 237.076 23.6497 236.819 23.5802C236.562 23.5111 236.772 23.4543 237.287 23.4543C237.802 23.4543 238.013 23.5111 237.755 23.5802ZM237.75 24.6593C237.661 24.7508 237.43 24.7607 237.237 24.681C237.024 24.5931 237.087 24.5278 237.399 24.5146C237.681 24.5027 237.838 24.5678 237.75 24.6593ZM56.7911 25.2248C56.61 25.3004 56.2489 25.305 55.9886 25.235C55.7283 25.165 55.8765 25.1033 56.3179 25.0978C56.7593 25.0923 56.9722 25.1493 56.7911 25.2248ZM63.8081 25.6203C62.879 25.9139 58.7608 25.8331 59.2203 25.5305C59.3897 25.4191 60.6716 25.3367 62.0693 25.3475C64.0395 25.3626 64.4303 25.4241 63.8081 25.6203ZM68.5564 25.5021C68.3726 25.5787 68.0716 25.5787 67.8876 25.5021C67.7038 25.4258 67.8542 25.3632 68.222 25.3632C68.5898 25.3632 68.7404 25.4258 68.5564 25.5021ZM72.9772 25.52C72.4293 25.5793 71.4663 25.5801 70.8371 25.5217C70.208 25.4635 70.6563 25.415 71.8333 25.4142C73.0104 25.4131 73.5251 25.4608 72.9772 25.52ZM80.5273 25.6578C80.5273 25.775 80.1132 25.8709 79.6068 25.8709C79.1005 25.8709 78.6289 25.775 78.5585 25.6578C78.4884 25.5407 78.9025 25.445 79.479 25.445C80.0557 25.445 80.5273 25.5407 80.5273 25.6578ZM84.3393 25.5021C84.1556 25.5787 83.8546 25.5787 83.6706 25.5021C83.4868 25.4258 83.6371 25.3632 84.005 25.3632C84.3728 25.3632 84.5234 25.4258 84.3393 25.5021ZM86.875 25.4861C86.7862 25.5776 86.5554 25.5875 86.3625 25.5079C86.149 25.42 86.2124 25.3546 86.5241 25.3414C86.806 25.3296 86.9639 25.3946 86.875 25.4861ZM30.9715 25.7926C30.567 25.8557 29.9047 25.8557 29.5002 25.7926C29.0957 25.7295 29.4266 25.678 30.2358 25.678C31.045 25.678 31.376 25.7295 30.9715 25.7926ZM10.9084 26.0608C10.6508 26.1302 10.2297 26.1302 9.9721 26.0608C9.71449 25.9916 9.92529 25.9348 10.4402 25.9348C10.9552 25.9348 11.166 25.9916 10.9084 26.0608ZM232.96 26.2545C233.604 26.6644 232.559 27.2498 231.22 27.2297C230.253 27.2151 230.065 27.1508 230.466 26.9733C230.841 26.8072 230.482 26.7303 229.262 26.7151C228.305 26.7035 226.68 26.6073 225.65 26.5018C224.215 26.3546 223.965 26.2719 224.58 26.1473C225.702 25.92 232.573 26.0081 232.96 26.2545ZM12.2237 26.7694C12.2237 27.0734 11.713 27.1572 9.86055 27.1572C7.74937 27.1572 7.24298 27.0486 7.61054 26.6748C7.6726 26.6117 8.73595 26.52 9.97344 26.4709C11.7698 26.3998 12.2237 26.4599 12.2237 26.7694ZM68.2225 26.9356C68.2228 27.0323 67.3502 27.0557 66.2831 26.9882C64.502 26.8752 64.4418 26.8526 65.5469 26.7126C66.8636 26.5456 68.2217 26.6589 68.2225 26.9356ZM73.6441 26.6029C73.463 26.6784 73.1019 26.6831 72.8416 26.6131C72.5813 26.5431 72.7295 26.4813 73.1709 26.4758C73.6123 26.4703 73.8252 26.5274 73.6441 26.6029ZM75.9072 26.5886C75.8184 26.6801 75.5875 26.69 75.3947 26.6104C75.1812 26.5224 75.2446 26.4571 75.5562 26.4439C75.8382 26.432 75.996 26.4971 75.9072 26.5886ZM18.3986 27.018C17.2887 27.4358 17.4786 27.8969 18.6661 27.6684C19.8314 27.4441 19.9172 27.3868 19.6802 26.9918C19.474 26.6479 19.3769 26.65 18.3986 27.018ZM57.5936 26.8785C57.4125 26.954 57.0514 26.9587 56.7911 26.8887C56.5308 26.8187 56.679 26.757 57.1204 26.7515C57.5618 26.7459 57.7747 26.803 57.5936 26.8785ZM61.7293 26.8642C61.6405 26.9557 61.4096 26.9656 61.2167 26.886C61.0033 26.7981 61.0667 26.7327 61.3783 26.7195C61.6603 26.7077 61.8181 26.7727 61.7293 26.8642ZM84.6119 26.8785C84.4308 26.954 84.0697 26.9587 83.8094 26.8887C83.5491 26.8187 83.6973 26.757 84.1387 26.7515C84.5801 26.7459 84.793 26.803 84.6119 26.8785ZM37.2659 27.1748C36.6451 27.2324 35.5616 27.2332 34.8584 27.1762C34.1551 27.1194 34.6631 27.072 35.9873 27.0712C37.3114 27.0704 37.8868 27.1169 37.2659 27.1748ZM48.0778 27.7049C51.7272 27.736 54.4721 27.6638 54.1778 27.5442C53.7142 27.3559 53.7634 27.2994 54.5456 27.1208C55.1443 26.9838 55.5137 27.0232 55.6424 27.2377C55.7665 27.4446 57.1193 27.6199 59.3961 27.7241C62.1196 27.849 62.9093 27.8098 62.7581 27.5582C62.6091 27.3099 62.9767 27.271 64.2546 27.3997C65.186 27.4937 67.2121 27.6665 68.757 27.7839C71.3392 27.9802 71.1287 28.0006 66.1488 28.0367C62.883 28.0601 60.7317 28.1811 60.7317 28.341C60.7317 28.487 61.8454 28.6472 63.2062 28.6973C64.567 28.7472 63.4536 28.7949 60.7317 28.8029C57.3355 28.8128 56.4711 28.7629 57.9767 28.6439C59.1831 28.5485 60.2564 28.3817 60.3618 28.2731C60.5878 28.0402 59.6146 28.0234 51.6365 28.1224C40.9105 28.2552 39.5162 28.2313 39.4122 27.9116C39.2776 27.4979 41.0089 26.9819 41.2564 27.362C41.3754 27.5441 43.8507 27.6685 48.0778 27.7049ZM46.3532 27.1679C46.022 27.2335 45.4806 27.2335 45.1494 27.1679C44.8182 27.1021 45.0892 27.0483 45.7513 27.0483C46.4134 27.0483 46.6844 27.1021 46.3532 27.1679ZM58.8592 27.249C58.3405 27.5943 58.0567 27.5943 58.0567 27.249C58.0567 27.0974 58.3274 26.9753 58.6586 26.9775C59.1452 26.9811 59.1837 27.0329 58.8592 27.249ZM22.0768 27.5334C21.7344 27.6795 22.4003 27.7685 23.9272 27.7809C25.2391 27.7914 26.2623 27.7555 26.201 27.701C25.9346 27.4637 22.5624 27.3267 22.0768 27.5334ZM63.3568 27.7128C63.5497 27.7925 63.7805 27.7826 63.8694 27.6911C63.9582 27.5995 63.8003 27.5345 63.5184 27.5463C63.2067 27.5596 63.1433 27.6249 63.3568 27.7128ZM75.0884 27.7186C75.5191 27.8892 75.4977 27.9358 74.9097 28.1045C74.4603 28.2335 74.7944 28.3054 75.9286 28.3239C76.9797 28.341 77.554 28.4553 77.451 28.627C77.3512 28.7932 75.7245 28.8889 73.3557 28.8682C69.6336 28.8354 69.4477 28.5201 73.0371 28.3277C74.1687 28.2671 74.1847 28.2558 73.3046 28.1381C72.5157 28.0328 72.4526 27.9777 72.9034 27.7884C73.589 27.5001 74.4659 27.4719 75.0884 27.7186ZM79.9923 27.8002C79.7716 27.9471 78.6882 28.0466 77.5848 28.021L75.5784 27.9747L77.7185 27.8002C78.8956 27.7043 79.979 27.6048 80.1261 27.5794C80.2732 27.5538 80.213 27.6533 79.9923 27.8002ZM85.0081 28.0039C84.162 28.0585 82.7779 28.0585 81.9318 28.0039C81.0856 27.9493 81.7779 27.9044 83.4699 27.9044C85.1619 27.9044 85.8542 27.9493 85.0081 28.0039ZM89.6895 27.9995C89.2112 28.0607 88.429 28.0607 87.9507 27.9995C87.4724 27.9386 87.8638 27.8884 88.8201 27.8884C89.7764 27.8884 90.1678 27.9386 89.6895 27.9995ZM94.3709 27.9975C93.9664 28.0606 93.3041 28.0606 92.8996 27.9975C92.4951 27.9344 92.826 27.8829 93.6352 27.8829C94.4445 27.8829 94.7754 27.9344 94.3709 27.9975ZM6.23501 28.2787C6.93829 28.3357 8.0217 28.3349 8.64258 28.2773C9.26347 28.2194 8.68806 28.1728 7.3639 28.1737C6.03973 28.1745 5.53173 28.2219 6.23501 28.2787ZM14.791 28.2737C15.1976 28.3368 15.7995 28.3352 16.1285 28.2698C16.4576 28.2045 16.1248 28.1527 15.3891 28.1546C14.6535 28.1568 14.3844 28.2103 14.791 28.2737ZM19.3582 28.3999C20.804 28.5529 22.155 28.5499 22.8358 28.3925C23.7193 28.188 23.2311 28.1364 20.4718 28.1425L16.9942 28.15L19.3582 28.3999ZM31.5734 28.627C31.9778 28.7604 30.9212 28.8393 28.8983 28.8266C26.0488 28.8084 25.8313 28.7789 27.427 28.627C30.0697 28.3754 30.811 28.3754 31.5734 28.627ZM97.7147 28.5339C97.531 28.6105 97.23 28.6105 97.046 28.5339C96.8622 28.4575 97.0125 28.395 97.3804 28.395C97.7482 28.395 97.8988 28.4575 97.7147 28.5339ZM15.5898 29.6363C15.406 29.713 15.105 29.713 14.921 29.6363C14.7372 29.56 14.8876 29.4974 15.2554 29.4974C15.6232 29.4974 15.7738 29.56 15.5898 29.6363ZM28.8346 29.6432C28.5789 29.7121 28.0974 29.7146 27.7646 29.6488C27.4318 29.5829 27.641 29.5264 28.2295 29.5233C28.818 29.5203 29.0904 29.5743 28.8346 29.6432ZM24.6182 30.0192C23.9561 30.1405 22.6319 30.2267 21.6756 30.2107L19.9368 30.1815L21.9431 30.0051C23.0466 29.9081 24.3707 29.8221 24.8857 29.8136C25.7075 29.8003 25.6748 29.8254 24.6182 30.0192ZM15.1917 30.1945C14.936 30.2634 14.4545 30.2659 14.1217 30.2C13.7889 30.1341 13.9981 30.0776 14.5866 30.0746C15.1751 30.0715 15.4475 30.1256 15.1917 30.1945ZM28.4339 30.1991C28.1049 30.2645 27.503 30.2661 27.0964 30.203C26.6897 30.1396 26.9589 30.0862 27.6945 30.0839C28.4302 30.082 28.7629 30.1338 28.4339 30.1991ZM40.2949 30.3279C40.0157 30.4935 39.3236 30.6418 38.7568 30.657C38.1174 30.6743 37.7261 30.8174 37.7261 31.034C37.7261 31.2771 37.2994 31.3697 36.3216 31.3391C35.3591 31.3088 35.1906 31.26 35.7866 31.1839C36.8053 31.0536 36.9642 30.5564 35.9873 30.5564C35.6194 30.5564 35.3185 30.4563 35.3185 30.3339C35.3185 30.2115 36.5525 30.0925 38.0604 30.0691C40.1596 30.0366 40.6834 30.0975 40.2949 30.3279ZM47.1608 30.1859C46.9797 30.2614 46.6186 30.2661 46.3583 30.1961C46.098 30.1261 46.2462 30.0644 46.6876 30.0589C47.129 30.0533 47.3419 30.1104 47.1608 30.1859ZM52.634 30.1716C52.5452 30.2631 52.3143 30.273 52.1215 30.1934C51.908 30.1054 51.9714 30.0401 52.283 30.0269C52.565 30.015 52.7228 30.0801 52.634 30.1716ZM64.1425 30.195C63.8851 30.2645 63.4635 30.2645 63.2062 30.195C62.9489 30.1258 63.1594 30.0691 63.6743 30.0691C64.1893 30.0691 64.3998 30.1258 64.1425 30.195ZM31.774 30.4706C31.5164 30.5401 31.0953 30.5401 30.8377 30.4706C30.5801 30.4014 30.7909 30.3447 31.3059 30.3447C31.8208 30.3447 32.0316 30.4014 31.774 30.4706ZM61.4005 30.5564C61.1063 30.6867 60.6849 30.8 60.4642 30.8082C60.1077 30.8218 60.1077 30.7939 60.4642 30.5564C60.6849 30.4095 61.1063 30.2959 61.4005 30.3045L61.9355 30.3196L61.4005 30.5564ZM55.9886 30.7372C55.8075 30.8127 55.4463 30.8174 55.186 30.7474C54.9258 30.6773 55.074 30.6156 55.5153 30.6101C55.9567 30.6046 56.1697 30.6616 55.9886 30.7372ZM39.5986 31.1076C39.5986 31.2592 39.2674 31.3744 38.863 31.3639C38.2111 31.3466 38.1883 31.3176 38.6623 31.1076C39.3929 30.784 39.5986 30.784 39.5986 31.1076ZM58.3242 31.1076C57.9564 31.2289 57.4146 31.3284 57.1204 31.3284C56.6967 31.3284 56.7245 31.2823 57.2541 31.1076C57.622 30.9863 58.1637 30.8868 58.4579 30.8868C58.8817 30.8868 58.8538 30.9328 58.3242 31.1076ZM14.9154 31.2741C14.8266 31.3656 14.5957 31.3755 14.4028 31.2958C14.1894 31.2079 14.2528 31.1426 14.5644 31.1294C14.8464 31.1175 15.0042 31.1826 14.9154 31.2741ZM48.6214 31.2741C48.5326 31.3656 48.3017 31.3755 48.1088 31.2958C47.8954 31.2079 47.9588 31.1426 48.2704 31.1294C48.5524 31.1175 48.7102 31.1826 48.6214 31.2741ZM51.3053 31.2969C51.0496 31.3658 50.568 31.3683 50.2353 31.3025C49.9025 31.2366 50.1117 31.1801 50.7002 31.177C51.2887 31.174 51.561 31.228 51.3053 31.2969Z" fill="#0B80C2"/>
</svg>
