<svg width="252" height="35" viewBox="0 0 252 35" fill="none" xmlns="http://www.w3.org/2000/svg">
<path d="M111.68 0.958884C123.645 1.0167 123.953 1.00503 124.481 0.472233C124.935 0.0132603 125.24 -0.047005 126.398 0.093591C127.155 0.185331 128.093 0.261876 128.481 0.262961C128.962 0.26459 129.234 0.43965 129.329 0.80824C129.431 1.20071 129.696 1.35108 130.285 1.35108C130.733 1.35108 131.175 1.47323 131.266 1.62251C131.545 2.07822 133.549 1.95907 133.549 1.4868C133.549 1.16788 133.913 1.08048 135.228 1.08374C136.461 1.087 136.8 1.16219 136.504 1.36711C136.219 1.56443 136.574 1.5932 137.712 1.46482C139.72 1.23872 140.143 0.998246 138.921 0.777852C138.372 0.678783 139.377 0.57564 141.338 0.52977C143.185 0.486614 144.877 0.484163 145.099 0.524334C146.942 0.858453 148.246 0.820445 148.572 0.423356C149.012 -0.112157 149.933 -0.139831 149.933 0.382112C149.933 0.59572 150.205 0.823444 150.538 0.888042C151.016 0.98114 150.974 1.01425 150.336 1.04682C149.893 1.06935 149.349 1.20642 149.128 1.35108C148.851 1.53185 149.465 1.61544 151.093 1.61843C152.395 1.6206 153.694 1.74899 153.98 1.9037C154.266 2.05813 155.429 2.18951 156.564 2.19576C157.849 2.20227 158.486 2.29563 158.251 2.44246C157.654 2.81512 158.148 3.05914 158.793 2.71036C159.112 2.53801 160.845 2.34748 162.644 2.28695C164.443 2.22643 167.124 2.10183 168.601 2.01009C170.078 1.91835 171.193 1.93926 171.079 2.05597C170.965 2.17295 169.635 2.35833 168.124 2.46772C166.614 2.57737 168.52 2.59202 172.361 2.50055C176.202 2.40908 180.07 2.35833 180.956 2.38818C181.843 2.41777 182.93 2.32929 183.374 2.19141C184.042 1.9835 183.847 1.93654 182.232 1.91727C181.161 1.90451 180.285 1.78754 180.285 1.65753C180.285 1.14834 184.64 0.856835 188.446 1.11116C193.494 1.4488 193.733 1.55329 189.544 1.59101C186.372 1.61951 186.008 1.67354 185.657 2.16535C185.311 2.65038 184.961 2.7082 182.374 2.7082C180.434 2.7082 179.479 2.80752 179.479 3.00892C179.479 3.19158 179.734 3.24506 180.128 3.14518C180.534 3.04231 180.82 3.10773 180.89 3.31944C180.979 3.58651 181.093 3.58325 181.429 3.30287C181.756 3.0301 182.554 2.99264 184.871 3.14057C187.001 3.27682 187.835 3.24751 187.709 3.0415C187.611 2.88082 187.743 2.69327 188.004 2.6246C188.333 2.53748 188.273 2.4878 187.805 2.46012C187.286 2.42917 187.225 2.36648 187.537 2.18218C188.022 1.89556 190.491 2.13767 190.491 2.47206C190.491 2.60207 190.874 2.7082 191.342 2.7082C192.725 2.7082 192.025 3.00187 190.046 3.25158C188.36 3.46437 188.453 3.47767 191.163 3.41253C193.308 3.36096 194.338 3.21819 194.923 2.89086C195.915 2.33607 196.343 2.32683 197.546 2.83493C198.224 3.12074 198.82 3.17097 199.661 3.01328L200.832 2.79369L199.758 2.60044C199.167 2.49404 198.474 2.29156 198.217 2.15042C197.961 2.00928 197.507 1.89393 197.21 1.89393C196.464 1.89393 196.524 1.35761 197.274 1.32395C197.849 1.29817 197.846 1.28758 197.206 1.10084C196.626 0.9312 196.708 0.877461 197.811 0.704023C198.513 0.593826 199.087 0.388903 199.087 0.24885C199.087 -0.0925976 200.353 -0.0784794 200.564 0.265411C200.655 0.414692 201.599 0.555012 202.661 0.57754C203.724 0.599797 204.264 0.668737 203.862 0.73035C203.215 0.829961 203.169 0.902153 203.457 1.36818C203.636 1.65752 203.934 1.89393 204.12 1.89393C204.306 1.89393 204.458 2.07714 204.458 2.30106C204.458 2.52499 204.587 2.7082 204.743 2.7082C204.899 2.7082 204.961 2.81648 204.88 2.94866C204.8 3.08084 205.004 3.24126 205.335 3.30504C206.102 3.45324 207.682 3.04639 207.682 2.70033C207.682 2.35237 209.214 2.35915 209.427 2.7082C209.519 2.85748 209.858 2.97771 210.182 2.97554C210.65 2.97229 210.689 2.91936 210.375 2.71879C209.667 2.26633 210.219 2.1811 212.664 2.3654C214.481 2.50246 214.871 2.59475 214.262 2.74322C213.291 2.97989 216.96 2.82545 218.658 2.55837C219.303 2.45686 220.078 2.12437 220.379 1.81956L220.928 1.26533L220.281 1.43985C219.925 1.53593 218.305 1.67135 216.68 1.74084C214.835 1.82009 214.078 1.78401 214.665 1.64504C215.496 1.44853 215.386 1.41216 213.725 1.33345C212.691 1.28432 214.564 1.17439 217.888 1.08889C223.677 0.940152 226.096 1.06392 223.013 1.35108C221.132 1.52642 220.925 2.0633 222.639 2.32278C223.682 2.48101 223.827 2.56325 223.393 2.75189C223.032 2.90959 223.193 2.93484 223.89 2.82953C225.231 2.62732 235.158 3.21114 236.556 3.5743C238.342 4.03843 239.941 4.1459 240.26 3.82318C240.424 3.65789 241.09 3.52245 241.742 3.52245C242.683 3.52245 242.894 3.43914 242.77 3.11533C242.686 2.89141 242.763 2.70658 242.943 2.7044C243.123 2.7025 243.543 2.62704 243.875 2.5372C244.207 2.44709 244.479 2.49567 244.479 2.64496C244.479 2.79424 244.207 3.0024 243.875 3.10771L243.271 3.29933L243.891 3.47876C244.232 3.57755 244.497 3.7803 244.479 3.92958C244.434 4.31283 245.408 4.54246 247.434 4.6266C248.645 4.67708 248.871 4.73191 248.173 4.80573C247.619 4.86436 247.165 5.02721 247.165 5.16726C247.165 5.30758 246.803 5.42241 246.359 5.42241C244.825 5.42241 245.561 5.93973 247.232 6.03581C248.896 6.13108 248.892 6.13271 246.762 6.21142C244.357 6.30018 243.571 6.48474 243.472 6.98307C243.43 7.19423 243.709 7.32235 244.211 7.32235C244.654 7.32235 245.017 7.44449 245.017 7.59377C245.017 7.74305 245.681 7.86519 246.494 7.86519C247.306 7.86519 247.971 7.98733 247.971 8.13661C247.971 8.2859 247.669 8.40802 247.3 8.40802C246.93 8.40802 246.629 8.49949 246.63 8.61159C246.634 8.99049 248.072 9.49371 249.15 9.49371C250.114 9.49371 250.172 9.53062 249.728 9.85876C249.256 10.2078 249.26 10.2304 249.811 10.3761C250.528 10.5656 250.565 11.1266 249.872 11.3095C249.455 11.4197 249.384 11.6162 249.499 12.3352C249.656 13.3129 249.488 13.4991 247.971 14.0292L247.031 14.3576L248.173 14.2088C249.198 14.0753 249.314 14.1176 249.314 14.6268C249.314 15.0125 249.142 15.1936 248.777 15.1936C248.478 15.1936 248.24 15.3746 248.24 15.6007C248.24 15.9261 247.822 16.0113 246.158 16.0249C243.816 16.0444 244.088 16.2871 247.031 16.8031C250.461 17.4043 251.135 17.5677 250.337 17.6038C249.94 17.6217 249.529 17.7753 249.425 17.9452C249.29 18.1672 249.531 18.2025 250.282 18.0709C251.033 17.9395 251.215 17.9661 250.926 18.1651C250.605 18.3855 250.674 18.4433 251.261 18.4465C251.668 18.4487 252 18.5728 252 18.722C252 18.9658 250.001 19.1359 248.24 19.042C247.575 19.0067 247.574 19.0089 248.173 19.2624C249.058 19.6381 248.91 19.7955 247.837 19.6194C247.276 19.5273 246.897 19.5773 246.897 19.7428C246.897 20.1684 248.11 20.3812 249.661 20.2279C251.022 20.0935 251.031 20.097 249.997 20.3633C249.412 20.5137 248.868 20.7387 248.788 20.863C248.708 20.9873 248.244 21.2956 247.756 21.5481C247.045 21.9161 246.905 22.1205 247.048 22.5765C247.211 23.0968 247.149 23.1315 246.323 22.9801C245.826 22.8891 245.147 22.7344 244.815 22.6365C244.477 22.5371 244.211 22.577 244.211 22.7271C244.211 22.8745 244.694 23.0734 245.285 23.169C245.876 23.2645 246.359 23.4491 246.359 23.5796C246.359 23.7099 247.031 23.9013 247.852 24.005C249.645 24.2313 249.706 24.7932 247.95 24.9036C247.081 24.9582 246.87 24.9047 247.165 24.7041C247.478 24.4916 247.376 24.4292 246.711 24.4259C245.296 24.4191 245.452 24.8996 246.931 25.1053C248.601 25.3371 248.199 25.7687 246.308 25.7749C244.98 25.7792 244.299 26.2542 245.258 26.5075C245.568 26.5894 245.822 26.8256 245.822 27.0321C245.822 27.2384 245.943 27.4075 246.091 27.4075C246.239 27.4075 246.359 27.5296 246.359 27.6789C246.359 27.8282 246.111 27.9503 245.806 27.9503C245.502 27.9503 245.32 28.0597 245.402 28.1933C245.484 28.3271 245.35 28.5141 245.104 28.6093C244.548 28.8254 244.912 29.2181 245.822 29.3832C246.289 29.4678 246.167 29.5186 245.419 29.5501C244.55 29.5867 244.435 29.6481 244.815 29.872C245.074 30.0243 245.285 30.2452 245.285 30.363C245.285 30.7318 243.961 31.2071 242.922 31.2112C242.375 31.2131 241.653 31.2891 241.317 31.38C240.744 31.5352 240.736 31.5681 241.183 31.9106C241.445 32.1115 241.938 32.2798 242.279 32.2844C242.62 32.2893 242.833 32.4011 242.753 32.533C242.595 32.7903 243.65 33.2827 244.748 33.4648C245.148 33.5313 244.957 33.5913 244.274 33.6133C243.644 33.6336 242.905 33.5088 242.631 33.3359C242.357 33.163 241.906 33.1109 241.627 33.2197C241.135 33.4121 241.136 33.4279 241.643 33.8051C241.93 34.0185 242.564 34.193 243.053 34.193C243.542 34.193 243.942 34.3309 243.942 34.4992C243.942 34.7098 243.586 34.7426 242.801 34.6048C242.173 34.4946 240.511 34.2487 239.107 34.0587C237.704 33.8684 236.767 33.6987 237.026 33.6814C237.284 33.6643 237.496 33.5326 237.496 33.3893C237.496 33.2458 237.974 32.9982 238.559 32.8389C239.934 32.4649 240.205 32.0206 239.056 32.0254C237.72 32.0309 236.832 32.3161 237.272 32.5979C237.494 32.7404 237.094 32.8291 236.22 32.8318C234.607 32.8364 234.301 32.3764 235.817 32.2255C236.371 32.1704 235.593 32.1348 234.089 32.1462C232.584 32.1579 231.265 32.2567 231.156 32.3658C230.827 32.6988 229.114 32.6036 229.321 32.264C229.448 32.0578 229.308 32.0265 228.878 32.1644C227.843 32.4964 225.404 32.7181 223.193 32.6809C221.638 32.6549 221.111 32.736 221.111 33.0018C221.111 33.2612 221.748 33.382 223.462 33.448C224.85 33.5014 224.025 33.5614 221.447 33.5943C217.722 33.642 217.082 33.5905 217.082 33.243C217.082 32.9586 216.799 32.8359 216.142 32.8359C215.486 32.8359 215.202 32.9586 215.202 33.243C215.202 33.4691 215.441 33.6502 215.74 33.6502C216.035 33.6502 216.277 33.7856 216.277 33.9512C216.277 34.1488 215.93 34.1933 215.269 34.0806C214.716 33.9862 213.508 33.9197 212.586 33.9327C211.469 33.9487 210.711 33.8152 210.311 33.5318C209.981 33.2984 209.436 33.1073 209.099 33.1073C208.76 33.1073 208.487 32.9415 208.487 32.7352C208.487 32.4947 208.024 32.3009 207.179 32.1875C205.831 32.007 204.996 32.1644 204.996 32.5987C204.996 32.7349 204.707 32.7729 204.353 32.6834C204 32.5938 203.631 32.6524 203.532 32.8139C203.433 32.9754 203.095 33.1073 202.78 33.1073C202.218 33.1073 202.218 33.0995 202.728 32.7089C203.409 32.1886 202.719 32.1584 201.808 32.6684C201.277 32.9662 201.244 33.0525 201.607 33.1934C202.331 33.4743 202.093 33.9216 201.219 33.9216C200.739 33.9216 200.467 33.8087 200.564 33.6496C200.656 33.5001 200.413 33.2558 200.025 33.1068C199.136 32.7651 196.938 32.752 196.938 33.0883C196.938 33.2273 196.666 33.394 196.333 33.4585C196.001 33.5234 196.696 33.6051 197.878 33.6401C200.869 33.7294 199.485 34.1306 196.065 34.1659C194.625 34.1808 193.446 34.2845 193.446 34.3966C193.446 34.7673 160.089 34.7988 156.202 34.4316C153.373 34.1642 152.287 34.1661 150.767 34.4405C149.383 34.6905 147.405 34.7302 143.491 34.5868C140.534 34.4785 138.115 34.3076 138.115 34.2069C138.115 33.8969 149.111 33.3728 151.746 33.5568C153.453 33.6762 154.231 33.6388 154.231 33.4371C154.231 32.9238 153.406 32.8582 148.188 32.9578C145.381 33.0112 141.113 33.0669 138.704 33.0813C135.858 33.0981 134.381 33.2023 134.489 33.3787C134.584 33.5348 134.334 33.6521 133.901 33.6542C133.394 33.6572 133.262 33.7329 133.499 33.8844C133.714 34.0225 133.046 34.1792 131.78 34.2875C128.671 34.5529 113.189 34.5005 113.02 34.224C112.831 33.9148 113.751 33.6683 115.284 33.617C116.216 33.5858 116.031 33.5275 114.479 33.3627C113.355 33.2436 111.884 33.2599 111.152 33.3997C110.43 33.5375 107.71 33.6705 105.108 33.6958C100.962 33.7357 100.714 33.7606 103.108 33.8993C105.87 34.0592 106.35 34.1935 106.029 34.7177C105.782 35.121 104.809 35.0814 104.809 34.668C104.809 34.4025 102.95 34.339 96.2813 34.3757C91.5911 34.4015 87.3005 34.5065 86.7469 34.6088C86.1934 34.7111 85.4077 34.6992 85.0011 34.5819L84.2616 34.3692L85.2017 34.1607C85.7222 34.0456 84.523 34.0055 82.5157 34.0706C80.5214 34.1355 75.0823 34.1737 70.4289 34.1555C65.7755 34.1374 58.2816 34.1387 53.7759 34.1583C48.917 34.1794 45.8024 34.0977 46.1209 33.9571C46.7798 33.667 42.6969 33.306 38.3316 33.2683C35.5667 33.2447 35.3827 33.2761 35.4657 33.7604C35.5495 34.25 35.4123 34.2682 32.9141 34.101C31.4618 34.0038 28.0377 33.9023 25.3047 33.8755L20.3357 33.8263L24.2303 33.6366C26.3724 33.5324 28.5784 33.4317 29.1322 33.4129C30.5214 33.3657 30.3976 32.9366 28.9308 32.7143C28.266 32.6136 27.7221 32.4166 27.7221 32.2765C27.7221 32.1362 26.7852 32.0075 25.6405 31.9902C24.4957 31.9728 23.8006 31.9 24.096 31.8281C25.507 31.485 24.8709 31.2698 22.8506 31.4063C21.615 31.4897 20.5438 31.646 20.47 31.7535C20.3252 31.9644 18.4544 32.1943 14.8295 32.4464C13.1652 32.5623 12.6557 32.5262 12.9493 32.3134C13.2875 32.0686 13.2442 31.9891 12.6807 31.8181C12.1671 31.6623 12.4145 31.5825 13.7341 31.4788C14.6828 31.4042 15.5028 31.2085 15.5563 31.0437C15.66 30.7248 12.6882 30.3217 9.92758 30.2805C9.07801 30.2677 8.38288 30.1659 8.38315 30.0538C8.38315 29.9417 8.26228 29.8503 8.11456 29.8503C7.96683 29.8503 7.84596 30.0335 7.84596 30.2574C7.84596 30.4813 7.6746 30.6645 7.46509 30.6645C7.25559 30.6645 6.89298 30.7386 6.6593 30.8293C6.42562 30.92 6.23438 30.873 6.23438 30.7253C6.23438 30.5774 6.50647 30.3703 6.83872 30.265L7.44306 30.0734L6.77157 29.8533C6.40225 29.7319 6.25829 29.6209 6.45168 29.606C6.64507 29.5911 6.7286 29.4567 6.63728 29.3074C6.40494 28.9277 7.55883 28.9682 10.3976 29.4393C11.7272 29.6603 13.1475 29.8429 13.5536 29.8457C14.8139 29.8535 14.3643 29.343 13.0164 29.2355C11.9466 29.1503 12.031 29.1259 13.5378 29.0849C14.5262 29.058 15.4096 28.9139 15.501 28.7646C15.5923 28.6153 15.418 28.4932 15.1139 28.4932C14.8099 28.4932 14.5609 28.3765 14.5609 28.234C14.5609 28.0915 14.1185 27.8912 13.5778 27.7886C12.8354 27.648 12.5185 27.7074 12.284 28.0318C12.1115 28.2698 11.3624 28.5431 10.6031 28.6449C9.39039 28.8075 9.19216 28.7627 8.8779 28.2538C8.68237 27.9376 8.24939 27.6789 7.91553 27.6789C7.3735 27.6789 7.18065 27.4126 7.27707 26.7968C7.29453 26.6847 6.91581 26.5748 6.43583 26.5525C5.68618 26.5175 5.73372 26.4849 6.77157 26.3218L7.98026 26.1318L6.98135 26.0911C6.25694 26.0615 6.02138 25.9483 6.12372 25.6788C6.20188 25.4731 6.04851 25.2326 5.77965 25.1392C5.51266 25.0467 4.93169 24.7343 4.4885 24.4449C4.04532 24.1556 3.25968 23.9013 2.74263 23.8798C2.22558 23.8584 1.5608 23.736 1.26535 23.6076C0.797454 23.4043 0.832103 23.3679 1.53395 23.3237C2.00936 23.2938 2.14688 23.2222 1.86969 23.1492C1.33706 23.0086 1.21969 21.9812 1.73539 21.975C1.95913 21.972 1.93684 21.883 1.66824 21.7076C1.34915 21.4992 1.40555 21.4436 1.93952 21.4403C2.5205 21.4368 2.61316 21.3146 2.61101 20.5541C2.6086 19.7583 2.70019 19.6557 3.54842 19.5043L4.4885 19.3363L3.61557 19.3007C2.93172 19.2727 2.74263 19.1465 2.74263 18.7188C2.74263 18.2362 2.60994 18.1884 1.60109 18.3073C0.725202 18.4107 0.615883 18.3863 1.13105 18.202C1.50037 18.0698 2.3161 17.9498 2.94408 17.9349C3.57205 17.92 4.08561 17.7856 4.08561 17.6363C4.08561 17.2851 8.03935 17.2759 8.15941 17.6268C8.20857 17.771 8.97406 17.9596 9.86043 18.0459C11.4164 18.1976 11.4443 18.1895 10.6662 17.806L9.86043 17.4089L10.5991 17.3869C11.7994 17.3511 11.4411 16.8245 10.1962 16.7949C9.22654 16.7721 9.15563 16.7352 9.72613 16.5506C10.3573 16.3463 10.3444 16.3316 9.50884 16.3064C8.89912 16.2876 8.68049 16.378 8.81237 16.5936C8.95473 16.8264 8.48978 16.8644 7.01868 16.7396C5.9263 16.6473 4.99078 16.4445 4.93948 16.2896C4.88845 16.1346 4.70231 16.0078 4.52584 16.0078C4.34937 16.0078 3.99805 15.7635 3.74503 15.465C3.49201 15.1664 3.41331 14.9221 3.57017 14.9221C3.72703 14.9221 4.03673 14.7389 4.25832 14.515C4.51751 14.2531 5.18121 14.1079 6.11915 14.1079C7.16587 14.1079 7.57736 14.0042 7.57736 13.7406C7.57736 13.4635 7.90693 13.4052 8.92034 13.5037C10.2695 13.6348 10.468 13.4983 10.0047 12.7576C9.7863 12.4088 9.56202 12.4234 8.26282 12.8696C7.44253 13.1514 6.77157 13.4841 6.77157 13.609C6.77157 13.7341 6.65071 13.8364 6.50298 13.8364C6.35525 13.8364 6.23438 13.5995 6.23438 13.3096C6.23438 12.6159 5.87607 12.4199 3.97038 12.0714C2.16542 11.7414 1.60271 11.1222 3.10738 11.1222C3.62792 11.1222 4.12859 11.2444 4.21991 11.3937C4.42512 11.7294 5.8801 11.7536 6.08128 11.4246C6.16213 11.2922 5.5406 11.0973 4.69989 10.9911C3.48396 10.8375 3.26935 10.7425 3.65102 10.5267C3.91505 10.3775 4.60427 10.3009 5.18256 10.3566C6.40467 10.4744 6.6875 9.87044 5.49574 9.68805C4.83258 9.58654 4.85326 9.56753 5.69719 9.50239L6.63728 9.42938L5.83149 9.22229C5.14281 9.04505 5.23037 9.01031 6.43583 8.9829C8.04553 8.94626 8.30579 8.55568 6.89835 8.28887C5.56477 8.03591 6.00688 7.59377 7.59321 7.59377C8.93028 7.59377 9.42477 7.13344 8.38315 6.85821C8.0877 6.78005 7.84596 6.54717 7.84596 6.34062C7.84596 6.13434 7.57414 5.95982 7.24162 5.95304C6.70899 5.94218 6.7329 5.89767 7.44306 5.57766L8.24885 5.21476L7.57736 4.92869C6.95879 4.66514 6.99585 4.64125 8.04741 4.62524C8.67538 4.61601 9.18894 4.486 9.18894 4.33672C9.18894 4.18743 8.88677 4.06529 8.51745 4.06529C8.14813 4.06529 7.84596 3.94072 7.84596 3.78872C7.84596 3.63347 8.16989 3.57457 8.5846 3.65437C9.23218 3.77922 9.20747 3.74066 8.38315 3.34113C7.8661 3.09088 6.89916 2.79098 6.23438 2.67481C5.33593 2.51793 5.5602 2.49431 7.10732 2.58252C8.25208 2.64793 9.18894 2.59365 9.18894 2.46228C9.18894 2.1629 8.5196 1.89528 7.75678 1.88985C7.43662 1.88741 6.99317 1.75551 6.77157 1.59673C6.48068 1.38801 7.00337 1.35461 8.65175 1.47594C9.90744 1.56849 10.9751 1.76148 11.0243 1.90479C11.0737 2.0481 11.5397 2.16535 12.0602 2.16535C12.7914 2.16535 12.9716 2.25818 12.8521 2.57249C12.7264 2.90389 12.971 2.97962 14.1663 2.97962C14.9742 2.97962 15.6353 3.08655 15.6353 3.2171C15.6353 3.34765 17.2721 3.43912 19.2723 3.42067L22.9096 3.38674L22.8312 2.71959C22.7681 2.18082 22.5207 1.99029 21.5444 1.72837C20.3386 1.40511 20.3411 1.4043 22.6464 1.3777C23.9174 1.36304 25.7304 1.26993 26.6754 1.17086C28.2574 1.00475 28.3643 1.02619 28.0251 1.44228C27.6853 1.85837 27.876 1.89393 30.4559 1.89393C32.2751 1.89393 33.368 2.00793 33.5775 2.21963C33.8281 2.47287 33.9715 2.47287 34.2221 2.21963C34.4727 1.9664 34.4692 1.89393 34.2063 1.89393C34.0204 1.89393 33.9428 1.77179 34.0341 1.62251C34.2374 1.29002 38.4659 1.25691 38.4659 1.58777C38.4659 1.71806 38.9556 1.9037 39.554 2.00033C40.3507 2.12898 40.7517 2.06575 41.0506 1.76365C41.3622 1.44881 42.103 1.35108 44.1771 1.35108C46.6246 1.35108 46.8432 1.39072 46.3737 1.74954C45.891 2.11868 45.9453 2.14881 47.1059 2.15668C47.8593 2.16183 48.4027 2.03345 48.4685 1.8345C48.5531 1.578 48.8227 1.5856 49.6728 1.86923C50.9304 2.28858 53.8836 2.16508 54.3709 1.67273C54.6161 1.42492 54.0201 1.35108 51.7703 1.35108C50.1652 1.35108 48.9313 1.27049 49.0288 1.17196C49.2149 0.984141 78.2348 0.65978 90.7678 0.705651C94.7893 0.720307 98.0154 0.62721 97.9369 0.498828C97.7207 0.14571 98.747 0.219259 99.1067 0.582692C99.3352 0.813671 102.753 0.916 111.68 0.958884Z" fill="#0B80C2"/>
<path d="M166.452 0.685297L167.661 0.516195C168.326 0.423098 170.199 0.342487 171.824 0.337059C175.393 0.325116 182.253 0.684472 180.553 0.794397C179.889 0.837282 179.241 0.853845 179.115 0.830774C178.752 0.764819 178.127 1.38746 178.289 1.65318C178.37 1.78563 177.757 1.89393 176.927 1.89393C175.99 1.89393 175.481 1.79106 175.584 1.62251C175.676 1.47323 175.532 1.33127 175.264 1.30684C174.997 1.28241 175.443 1.18688 176.256 1.0946L177.733 0.926584L175.608 0.695616C174.287 0.552306 172.711 0.571839 171.444 0.747448C170.324 0.902972 168.742 0.95238 167.929 0.857654L166.452 0.685297Z" fill="#0B80C2"/>
<path d="M216.127 0.80824C215.47 0.80824 214.934 0.686099 214.934 0.536817C214.934 0.387536 215.545 0.265411 216.293 0.265411C217.13 0.265411 217.588 0.369622 217.485 0.536817C217.394 0.686099 216.783 0.80824 216.127 0.80824Z" fill="#0B80C2"/>
<path d="M161.029 1.33914C159.38 1.35108 158.497 0.955899 159.666 0.728991C160.001 0.66385 160.335 0.595994 160.409 0.577809C160.483 0.559895 161.026 0.721116 161.617 0.936082L162.692 1.32719L161.029 1.33914Z" fill="#0B80C2"/>
<path d="M165.915 1.07966C165.166 1.40482 164.169 1.40482 164.169 1.07966C164.169 0.930381 164.683 0.816936 165.311 0.82725C166.195 0.842178 166.331 0.898896 165.915 1.07966Z" fill="#0B80C2"/>
<path d="M233.265 1.29518C233.007 1.26451 234.427 1.1676 236.421 1.07966C242.504 0.811499 242.701 0.808776 243.735 0.981672C245.637 1.29923 244.438 1.62251 241.359 1.62251C239.368 1.62251 238.329 1.71886 238.436 1.89393C238.54 2.06438 237.937 2.16535 236.811 2.16535C235.33 2.16535 235.048 2.23565 235.176 2.57249C235.294 2.88516 235.13 2.97337 234.466 2.95247C233.99 2.93754 233.299 2.82762 232.93 2.7082L232.258 2.49077L232.997 2.46391C233.547 2.44355 233.735 2.29862 233.735 1.89393C233.735 1.57908 233.538 1.32775 233.265 1.29518Z" fill="#0B80C2"/>
<path d="M31.1112 1.62251C30.151 1.62251 29.2907 1.50037 29.1994 1.35108C29.0951 1.1809 29.6836 1.07966 30.7792 1.07966C31.7395 1.07966 32.5998 1.2018 32.6911 1.35108C32.7953 1.52127 32.2068 1.62251 31.1112 1.62251Z" fill="#0B80C2"/>
<path d="M231.401 1.8668C230.782 1.88173 230.201 1.77179 230.109 1.62251C229.916 1.30603 230.878 1.30603 231.855 1.62251C232.429 1.80816 232.362 1.84373 231.401 1.8668Z" fill="#0B80C2"/>
<path d="M13.6202 2.53477C13.2633 2.39634 13.2453 2.3149 13.5311 2.13169C13.9589 1.85756 13.9904 1.85593 14.7623 2.06493C15.0948 2.15504 15.3667 2.33661 15.3667 2.46852C15.3667 2.74673 14.2737 2.788 13.6202 2.53477Z" fill="#0B80C2"/>
<path d="M247.501 3.44266C247.169 3.50726 246.625 3.50726 246.292 3.44266C245.96 3.37779 246.232 3.32486 246.897 3.32486C247.561 3.32486 247.833 3.37779 247.501 3.44266Z" fill="#0B80C2"/>
<path d="M2.92823 10.289C2.36095 10.2705 2.35907 10.2616 2.87693 10.0366C3.6161 9.71547 3.87906 9.71547 3.68272 10.0366C3.59139 10.1858 3.25189 10.2993 2.92823 10.289Z" fill="#0B80C2"/>
<path d="M0.934706 21.8857C0.752867 21.9601 0.390262 21.9647 0.128917 21.8957C-0.132427 21.8268 0.0163762 21.766 0.45956 21.7606C0.902744 21.7552 1.11655 21.8113 0.934706 21.8857Z" fill="#0B80C2"/>
<path d="M247.904 32.4801C247.645 32.5485 247.222 32.5485 246.964 32.4801C246.705 32.412 246.917 32.356 247.434 32.356C247.951 32.356 248.163 32.412 247.904 32.4801Z" fill="#0B80C2"/>
<path d="M22.8143 33.3055C22.257 33.3641 21.4109 33.3633 20.9341 33.3033C20.4571 33.2433 20.9132 33.1953 21.9473 33.1964C22.9814 33.1977 23.3714 33.2466 22.8143 33.3055Z" fill="#0B80C2"/>
<path d="M207.508 33.9724C207.066 34.1887 206.565 34.1178 205.359 33.6681L203.787 33.0818L205.1 33.2303C205.823 33.312 206.971 33.3885 207.652 33.4002C208.333 33.4119 208.709 33.4819 208.487 33.5557C208.266 33.6295 207.825 33.8168 207.508 33.9724Z" fill="#0B80C2"/>
<path d="M141.142 33.5568C140.96 33.6312 140.598 33.6358 140.336 33.5668C140.075 33.4979 140.224 33.4371 140.667 33.4317C141.11 33.4262 141.324 33.4824 141.142 33.5568Z" fill="#0B80C2"/>
<path d="M230.512 33.8556C227.557 33.8345 227.039 33.7851 228.364 33.6502C230.954 33.3863 233.262 33.3863 233.87 33.6502C234.199 33.7929 232.897 33.8727 230.512 33.8556Z" fill="#0B80C2"/>
<path d="M235.955 34.3841C235.625 34.4484 235.02 34.45 234.612 34.3879C234.204 34.3255 234.474 34.2728 235.213 34.2706C235.951 34.2687 236.285 34.3198 235.955 34.3841Z" fill="#0B80C2"/>
</svg>
