<svg width="249" height="34" viewBox="0 0 249 34" fill="none" xmlns="http://www.w3.org/2000/svg">
<path d="M6.61575 0.910249C6.52589 0.675649 6.52429 0.367049 6.61228 0.224681C6.91262 -0.262483 7.92171 0.104566 8.01077 0.733295C8.10786 1.4202 8.59381 1.5623 8.59381 0.904079C8.59381 0.576979 8.77354 0.505393 9.3293 0.610226C10.578 0.846435 11.6248 1.09229 11.7845 1.18694C11.8682 1.23681 12.5023 1.19043 13.1931 1.08372C13.8842 0.977012 17.7355 0.991752 21.7515 1.11642C25.7678 1.2411 34.5297 1.40921 41.2227 1.48991C47.9156 1.57061 55.558 1.68912 58.2057 1.75373C65.1741 1.92345 76.7443 1.90549 80.0029 1.72022C85.0333 1.43387 142.368 1.33119 143.715 1.60601C144.409 1.74784 148.501 1.87305 152.808 1.88458C160.216 1.90442 172.56 2.49186 173.142 2.85221C173.289 2.94363 176.389 2.99618 180.029 2.9691C185.786 2.92647 186.669 2.97393 186.807 3.33481C187.009 3.86192 187.621 3.86809 188.053 3.34741C188.465 2.84952 190.46 2.79455 190.46 3.28145C190.46 3.53964 191.883 3.6292 196.599 3.66781C200.307 3.69837 202.949 3.83055 203.268 4.00214C203.628 4.19518 204.022 4.20001 204.501 4.01769C205.445 3.65788 209.426 3.67639 210.483 4.04558C211.046 4.24238 211.844 4.26275 212.863 4.10644C213.706 3.97748 215.764 3.91233 217.435 3.96193C220.173 4.04343 220.486 4.10349 220.608 4.57108C220.756 5.13492 221.088 5.24753 221.35 4.82204C221.544 4.50727 222.821 4.4566 222.821 4.76359C222.821 4.87888 222.249 5.14351 221.551 5.35183C220.487 5.66928 220.381 5.75507 220.9 5.88028C221.241 5.96233 222.077 5.98512 222.759 5.93069C223.889 5.84061 223.954 5.79932 223.492 5.46096C223.015 5.11133 223.027 5.09015 223.703 5.09015C224.287 5.09015 224.408 4.97835 224.356 4.4869C224.294 3.90696 224.374 3.88337 226.432 3.87452C227.608 3.8697 228.782 3.7662 229.039 3.64475C229.382 3.48308 229.507 3.53938 229.507 3.85495C229.507 4.33327 230.078 4.38045 231.781 4.04263C232.826 3.83537 232.835 3.82411 232.182 3.53884C231.814 3.37851 231.633 3.2214 231.781 3.18949C231.928 3.15759 232.168 3.10825 232.315 3.07956C232.463 3.05088 232.793 2.93585 233.051 2.82351C233.308 2.71144 233.692 2.68624 233.903 2.76748C234.114 2.84872 234.325 2.81494 234.371 2.69268C234.417 2.57042 235.568 2.38354 236.929 2.2771C239.075 2.10952 239.403 2.13955 239.403 2.50231C239.403 2.83236 239.785 2.93746 241.208 2.99993L243.013 3.07929V4.28581C243.013 5.43548 242.979 5.48991 242.278 5.44192C241.663 5.39956 241.543 5.49849 241.543 6.04518C241.543 6.6412 241.436 6.69884 240.339 6.69884C239.677 6.69884 239.135 6.81949 239.135 6.96695C239.135 7.11442 239.387 7.23507 239.695 7.23507C240.003 7.23507 240.561 7.47637 240.935 7.7713C241.821 8.47027 242.612 8.47269 242.612 7.77639C242.612 7.42972 242.851 7.1852 243.299 7.07259C243.927 6.91441 243.98 6.79268 243.919 5.64568C243.81 3.58281 244.404 3.21657 245.794 4.48904C246.67 5.29097 246.577 6.12481 245.648 5.79905C245.252 5.6599 245.273 5.72746 245.755 6.13794C246.506 6.77766 246.541 7.50318 245.822 7.50318C245.162 7.50318 245.118 7.99249 245.755 8.23218C246.722 8.59602 246.874 9.17622 246.883 12.5303C246.89 15.2074 246.963 15.8147 247.277 15.8147C247.9 15.8147 248.063 16.3746 247.484 16.526C246.921 16.6738 246.854 17.0218 246.457 21.8473C246.345 23.2096 246.148 24.0705 245.917 24.2067C245.451 24.4823 245.448 24.9306 245.913 24.9306C246.111 24.9306 246.416 25.4132 246.592 26.0031C246.769 26.5929 247.076 27.0755 247.274 27.0755C247.473 27.0755 247.716 27.4075 247.815 27.8128C247.913 28.2182 248.257 28.7628 248.579 29.0226C249.104 29.4465 249.12 29.5221 248.727 29.7564C248.486 29.9004 248.214 30.3157 248.123 30.6795C247.925 31.4699 246.673 31.8978 244.551 31.9C243.232 31.9016 243.147 31.9424 243.147 32.5719C243.147 33.2057 243.067 33.2422 241.676 33.2422C240.679 33.2422 240.227 33.3451 240.272 33.5615C240.309 33.7368 240.129 33.9267 239.871 33.9832C239.58 34.0471 239.403 33.9261 239.403 33.6639C239.403 33.3741 239.152 33.2422 238.601 33.2422C238.159 33.2422 237.798 33.11 237.798 32.9481C237.798 32.7523 237.33 32.7067 236.394 32.8118C231.064 33.4103 228.972 33.2958 228.972 32.4051C228.972 32.2756 230.176 32.1697 231.647 32.1697C233.45 32.1697 234.321 32.0713 234.321 31.8681C234.321 31.6732 234.026 31.6257 233.486 31.734C233.026 31.8263 231.378 31.9016 229.824 31.9016C227.282 31.9016 227.05 31.941 227.517 32.2952C227.803 32.5118 227.976 32.7025 227.903 32.7193C227.829 32.736 226.105 32.8038 224.071 32.87C221.292 32.9604 220.42 32.9124 220.566 32.677C220.705 32.451 220.506 32.4075 219.851 32.5212C217.712 32.8925 213.4 33.0424 213.221 32.7515C213.091 32.5411 212.838 32.5603 212.341 32.8188C211.794 33.1033 210.011 33.1676 204.061 33.1178C195.84 33.0489 194.204 33.1363 194.204 33.6443C194.204 33.8519 193.792 33.9733 193.088 33.9733C192.111 33.9733 192.03 33.9301 192.443 33.6277C192.861 33.3215 192.782 33.2631 191.754 33.114C190.292 32.9022 188.627 32.9057 186.614 33.1247C185.562 33.2392 184.834 33.1845 184.415 32.9596C183.941 32.7051 182.827 32.674 179.836 32.8317C175.104 33.0808 174.998 33.0834 171.604 33.0392C170.133 33.0199 168.1 33.0687 167.086 33.1478C165.881 33.2416 165.03 33.1773 164.629 32.9625C164.158 32.71 163.737 32.7041 162.811 32.9379C162.148 33.1052 161.479 33.2422 161.323 33.2422C160.864 33.2422 161 32.7531 161.485 32.6585C161.729 32.6108 159.964 32.5378 157.561 32.4965C154.51 32.4437 153.136 32.5132 153.004 32.7263C152.896 32.9025 152.574 32.9545 152.244 32.8494C151.929 32.7494 151.725 32.5815 151.789 32.477C151.854 32.3721 148.906 32.2748 145.24 32.2606C140.709 32.2429 138.457 32.1375 138.209 31.9314C137.942 31.7091 136.852 31.7 134.131 31.8965C129.832 32.2072 126.439 32.2475 126.183 31.9909C125.919 31.7271 122.436 31.8968 122.14 32.1882C121.759 32.5617 119.93 32.4909 119.78 32.0965C119.687 31.8552 119.072 31.7726 117.678 31.8142C107.587 32.1153 100.933 32.2595 99.2593 32.2131C98.156 32.1828 96.3507 32.1748 95.2475 32.1954C94.1443 32.2164 92.339 32.2268 91.2358 32.219C83.4032 32.1633 68.6028 32.6239 65.4999 33.0202C63.5745 33.266 63.0878 33.2529 62.7187 32.9451C62.2164 32.5258 57.1161 32.1198 53.0653 32.1767C50.2218 32.2166 49.137 31.8507 51.3858 31.6102L52.8567 31.4528L51.252 31.4174C50.3695 31.3978 48.7468 31.4992 47.6463 31.6423C45.6383 31.9035 43.8972 31.7678 43.8972 31.3504C43.8972 31.2273 44.4687 31.0897 45.1676 31.045C46.3631 30.968 40.1911 30.7822 37.8796 30.8254C37.2912 30.8366 33.7426 30.8487 29.9941 30.8525C24.521 30.8578 22.9243 30.9425 21.8871 31.2828C20.827 31.6303 20.4833 31.6461 19.9692 31.3702C19.6248 31.1852 19.233 31.1021 19.099 31.1852C18.9647 31.2683 17.7799 31.3324 16.4657 31.3276C15.1517 31.3227 13.6553 31.3203 13.1405 31.3222C10.9765 31.3297 6.36141 31.8866 6.19238 32.1603C6.09208 32.3233 5.56815 32.5287 5.02844 32.6164L4.04717 32.7762V30.9983C4.04717 29.5778 3.93965 29.1127 3.51227 28.6842C2.93645 28.107 2.44247 27.9831 2.44247 28.4161C2.44247 28.5636 2.26194 28.6842 2.04129 28.6842C1.51228 28.6842 1.5318 29.1923 2.08435 29.8041C2.75645 30.5487 2.34806 30.6648 1.19722 30.0559C0.631831 29.7569 0.349674 29.4985 0.57032 29.4816C0.856758 29.4596 0.828411 29.3945 0.470295 29.2534C0.0175031 29.0751 -0.026894 28.7601 0.0102815 25.9878C0.0677832 21.7317 0.187865 21.1824 1.06804 21.1558L1.77384 21.1347L1.03836 20.8655C0.206321 20.5606 0.0704562 19.9834 0.770907 19.7295C1.02846 19.6362 1.52672 19.3914 1.87842 19.1852C2.51361 18.8133 2.51762 18.7817 2.46333 14.6315L2.40877 10.4524H3.21139C3.81903 10.4524 4.00518 10.3353 3.97763 9.97037C3.94982 9.60064 3.76715 9.51404 3.19186 9.59877C2.49248 9.70172 2.44247 9.64622 2.44247 8.76921C2.44247 7.97264 2.55453 7.79811 3.17795 7.6233C3.72756 7.4694 3.79523 7.38923 3.4454 7.30665C2.85381 7.16643 2.85916 7.08546 3.50264 6.44038C3.79576 6.14653 4.09798 6.02829 4.18704 6.17226C4.4807 6.64897 4.84951 6.43689 4.84951 5.79181C4.84951 5.37811 4.6607 5.10329 4.31462 5.0124C4.02042 4.93545 3.77972 4.75313 3.77972 4.60781C3.77972 4.20537 4.63475 3.96327 4.94767 4.27697C5.09958 4.42925 5.71124 4.53355 6.30712 4.50888L7.39029 4.46384L6.38735 4.35874C5.37826 4.25283 4.9803 3.77639 5.85245 3.71848C6.29829 3.68899 6.29829 3.68148 5.85245 3.56485C5.28064 3.41497 5.2301 2.94524 5.78559 2.94524C6.05304 2.94524 6.18676 2.67712 6.18676 2.14089C6.18676 1.6985 6.31995 1.33655 6.48283 1.33655C6.64571 1.33655 6.70535 1.14458 6.61575 0.910249Z" fill="#0B80C2"/>
<path d="M4.58206 3.48146C4.28493 3.48146 4.04717 3.30263 4.04717 3.07929C4.04717 2.85596 4.28493 2.67712 4.58206 2.67712C4.8792 2.67712 5.11696 2.85596 5.11696 3.07929C5.11696 3.30263 4.8792 3.48146 4.58206 3.48146Z" fill="#0B80C2"/>
</svg>
