<svg width="450" height="80" viewBox="0 0 450 80" fill="none" xmlns="http://www.w3.org/2000/svg">
<path d="M250.571 2.19174C229.205 2.32388 228.655 2.29722 227.713 1.07939C226.902 0.0303093 226.357 -0.10744 224.29 0.213922C222.938 0.423614 221.263 0.598573 220.569 0.601055C219.711 0.604777 219.225 1.00492 219.055 1.84741C218.873 2.74449 218.4 3.08819 217.349 3.08819C216.548 3.08819 215.76 3.36737 215.596 3.70859C215.099 4.75022 211.52 4.47787 211.52 3.39839C211.52 2.66943 210.87 2.46967 208.522 2.47712C206.319 2.48456 205.715 2.65642 206.244 3.12482C206.752 3.57584 206.118 3.64159 204.085 3.34815C200.5 2.83136 199.745 2.2817 201.927 1.77795C202.908 1.5515 201.112 1.31575 197.61 1.2109C194.313 1.11226 191.291 1.10666 190.895 1.19848C187.604 1.96218 185.275 1.8753 184.693 0.967671C183.907 -0.256359 182.262 -0.319613 182.262 0.873398C182.262 1.36165 181.776 1.88216 181.183 2.02981C180.329 2.2426 180.404 2.3183 181.542 2.39274C182.334 2.44424 183.305 2.75753 183.701 3.08819C184.195 3.50137 183.099 3.69245 180.192 3.69927C177.866 3.70423 175.546 3.99768 175.035 4.3513C174.525 4.70431 172.448 5.0046 170.421 5.01887C168.126 5.03376 166.99 5.24714 167.41 5.58277C168.475 6.43457 167.592 6.99232 166.44 6.19511C165.872 5.80117 162.777 5.36567 159.565 5.22732C156.352 5.08897 151.565 4.80419 148.927 4.5945C146.289 4.38481 144.298 4.43259 144.502 4.69936C144.706 4.96674 147.08 5.39048 149.778 5.64049C152.475 5.89113 149.071 5.92462 142.212 5.71555C135.353 5.50648 128.447 5.39046 126.864 5.4587C125.281 5.52633 123.338 5.3241 122.547 5.00894C121.354 4.53372 121.702 4.42638 124.586 4.38233C126.498 4.35317 128.063 4.0858 128.063 3.78863C128.063 2.62478 120.286 1.95848 113.49 2.53979C104.475 3.31155 104.047 3.55037 111.529 3.6366C117.193 3.70174 117.844 3.82523 118.47 4.94938C119.088 6.05801 119.712 6.19017 124.332 6.19017C127.796 6.19017 129.502 6.4172 129.502 6.87753C129.502 7.29505 129.046 7.41729 128.342 7.18899C127.618 6.95386 127.107 7.10338 126.981 7.58728C126.823 8.19774 126.619 8.19029 126.02 7.54943C125.435 6.92593 124.01 6.84033 119.873 7.17844C116.071 7.48988 114.58 7.42288 114.805 6.952C114.981 6.58473 114.744 6.15605 114.279 5.99909C113.691 5.79995 113.798 5.6864 114.633 5.62312C115.561 5.5524 115.67 5.40909 115.113 4.98784C114.246 4.33271 109.837 4.88611 109.837 5.65043C109.837 5.94759 109.153 6.19017 108.318 6.19017C105.849 6.19017 107.099 6.86142 110.631 7.43218C113.642 7.91857 113.477 7.94896 108.638 7.80006C104.807 7.68219 102.967 7.35587 101.923 6.60767C100.151 5.3396 99.3874 5.31848 97.2386 6.47985C96.0294 7.13312 94.9641 7.24794 93.4624 6.8875L91.3707 6.38557L93.2892 5.94386C94.3445 5.70067 95.5824 5.23785 96.0405 4.91524C96.4985 4.59264 97.3081 4.32898 97.8391 4.32898C99.1705 4.32898 99.0641 3.1031 97.7259 3.02618C96.6985 2.96724 96.7043 2.94303 97.8458 2.5162C98.8828 2.12846 98.7365 2.00562 96.7666 1.6092C95.5133 1.35732 94.4883 0.888921 94.4883 0.5688C94.4883 -0.211652 92.2259 -0.179381 91.8503 0.606653C91.6873 0.947868 90.0018 1.2686 88.1049 1.32009C86.2079 1.37096 85.2424 1.52854 85.9599 1.66937C87.1168 1.89705 87.1984 2.06207 86.6837 3.12728C86.3647 3.78861 85.8318 4.32898 85.4995 4.32898C85.1675 4.32898 84.8956 4.74775 84.8956 5.25957C84.8956 5.7714 84.6668 6.19017 84.3877 6.19017C84.1086 6.19017 83.9977 6.43767 84.1421 6.7398C84.2865 7.04193 83.9215 7.40858 83.331 7.55438C81.9612 7.89311 79.14 6.96318 79.14 6.17218C79.14 5.37684 76.4037 5.39234 76.0223 6.19017C75.8593 6.53138 75.253 6.8062 74.675 6.80124C73.84 6.7938 73.769 6.67283 74.3297 6.21437C75.5945 5.18017 74.6089 4.98537 70.2432 5.40662C66.9975 5.71992 66.3011 5.93085 67.3889 6.27021C69.1233 6.81119 62.5709 6.45818 59.5392 5.84771C58.3875 5.61569 57.0043 4.8557 56.4657 4.159L55.4863 2.89217L56.6412 3.29108C57.2762 3.5107 60.1704 3.82023 63.0722 3.97905C66.3668 4.16021 67.7174 4.07774 66.6694 3.7601C65.1864 3.31093 65.3821 3.2278 68.3482 3.04788C70.1948 2.93559 66.8493 2.68432 60.9138 2.48889C50.5771 2.14892 46.258 2.43182 51.7633 3.08819C55.1222 3.48897 55.4906 4.71611 52.431 5.3092C50.5676 5.67089 50.3091 5.85887 51.0832 6.29004C51.7292 6.65048 51.4405 6.70821 50.1959 6.46749C47.802 6.0053 30.0742 7.33974 27.5791 8.16982C24.3885 9.23069 21.5342 9.47635 20.9639 8.73871C20.6718 8.36089 19.4814 8.05131 18.3187 8.05131C16.6371 8.05131 16.2616 7.86088 16.4813 7.12076C16.6328 6.60893 16.4942 6.18646 16.1729 6.1815C15.851 6.17715 15.1023 6.00466 14.509 5.79931C13.9157 5.59334 13.4298 5.7044 13.4298 6.04561C13.4298 6.38683 13.9157 6.86264 14.509 7.10335L15.5882 7.54134L14.4807 7.95144C13.8716 8.17726 13.3987 8.64069 13.4298 8.9819C13.5099 9.85789 11.7722 10.3828 8.15381 10.5751C5.99112 10.6905 5.58731 10.8158 6.83481 10.9845C7.82385 11.1185 8.63345 11.4908 8.63345 11.8109C8.63345 12.1316 9.28098 12.3941 10.0724 12.3941C12.813 12.3941 11.4983 13.5765 8.51352 13.7961C5.54315 14.0139 5.55084 14.0176 9.35291 14.1975C13.6476 14.4004 15.0524 14.8223 15.2285 15.9613C15.3033 16.444 14.8049 16.7368 13.9095 16.7368C13.118 16.7368 12.4705 17.016 12.4705 17.3572C12.4705 17.6984 11.2834 17.9776 9.83255 17.9776C8.38165 17.9776 7.19455 18.2568 7.19455 18.598C7.19455 18.9392 7.73413 19.2183 8.39362 19.2183C9.05313 19.2183 9.59079 19.4274 9.58887 19.6836C9.58215 20.5497 7.01419 21.6999 5.08893 21.6999C3.36752 21.6999 3.26343 21.7843 4.05627 22.5343C4.89996 23.3321 4.89371 23.3837 3.90805 23.7168C2.62839 24.1498 2.5632 25.4322 3.79968 25.8503C4.54456 26.1022 4.67218 26.5513 4.46591 28.1948C4.18579 30.4294 4.48605 30.855 7.19455 32.0667L8.87326 32.8173L6.83481 32.4773C5.00357 32.1721 4.79636 32.2689 4.79636 33.4327C4.79636 34.3143 5.10284 34.7281 5.75565 34.7281C6.28848 34.7281 6.7149 35.1419 6.7149 35.6587C6.7149 36.4026 7.46124 36.5973 10.4321 36.6283C14.6145 36.673 14.1281 37.2277 8.87326 38.407C2.74878 39.7812 1.54443 40.1547 2.96945 40.2372C3.67929 40.2781 4.4122 40.6293 4.59781 41.0176C4.84003 41.5251 4.40833 41.6058 3.06726 41.3049C1.72717 41.0046 1.40247 41.0654 1.91855 41.5202C2.49075 42.0239 2.36798 42.1561 1.319 42.1635C0.593323 42.1685 0 42.452 0 42.7932C0 43.3503 3.56943 43.7393 6.7149 43.5246C7.90201 43.444 7.90344 43.449 6.83481 44.0284C5.25299 44.887 5.51727 45.2469 7.43436 44.8442C8.43585 44.6339 9.11307 44.748 9.11307 45.1265C9.11307 46.0993 6.94705 46.5856 4.17761 46.2351C1.74731 45.928 1.73053 45.9361 3.57712 46.5447C4.62131 46.8884 5.59259 47.4027 5.7355 47.6868C5.87842 47.971 6.70773 48.6757 7.57874 49.2527C8.84738 50.094 9.09824 50.5611 8.84259 51.6033C8.55096 52.7926 8.66272 52.8721 10.1371 52.5259C11.0249 52.3181 12.2369 51.9644 12.8303 51.7405C13.4336 51.5134 13.9095 51.6046 13.9095 51.9477C13.9095 52.2845 13.0461 52.7393 11.9909 52.9577C10.9357 53.176 10.0724 53.5979 10.0724 53.8963C10.0724 54.1941 8.87277 54.6315 7.40701 54.8685C4.20544 55.3859 4.09607 56.6701 7.23193 56.9226C8.78403 57.0473 9.16006 56.9251 8.63345 56.4666C8.07562 55.9808 8.2579 55.8382 9.44452 55.8307C11.9708 55.8152 11.6931 56.9133 9.05167 57.3835C6.07025 57.9133 6.78687 58.8998 10.164 58.914C12.5358 58.924 13.7511 60.0097 12.0393 60.5885C11.4849 60.7758 11.0316 61.3156 11.0316 61.7877C11.0316 62.2592 10.8158 62.6457 10.552 62.6457C10.2882 62.6457 10.0724 62.9249 10.0724 63.2661C10.0724 63.6073 10.5169 63.8865 11.0599 63.8865C11.6028 63.8865 11.928 64.1365 11.7822 64.4417C11.6359 64.7476 11.8753 65.175 12.3137 65.3928C13.308 65.8866 12.6571 66.7843 11.0316 67.1615C10.1975 67.3551 10.4167 67.4711 11.7511 67.543C13.3032 67.6268 13.5094 67.767 12.8303 68.2789C12.3684 68.6269 11.9909 69.1319 11.9909 69.4011C11.9909 70.2442 14.3555 71.3305 16.2103 71.3398C17.1873 71.3442 18.477 71.5179 19.0765 71.7257C20.0996 72.0806 20.1145 72.1557 19.3163 72.9386C18.8487 73.3977 17.9677 73.7823 17.3586 73.7929C16.7494 73.804 16.369 74.0596 16.5129 74.3611C16.7939 74.9492 14.9109 76.0747 12.9502 76.491C12.235 76.6429 12.5766 76.78 13.7963 76.8303C14.921 76.8768 16.241 76.5914 16.7302 76.1963C17.2194 75.8011 18.0257 75.682 18.5226 75.9307C19.4013 76.3706 19.4003 76.4066 18.4943 77.2689C17.982 77.7565 16.8491 78.1555 15.9762 78.1555C15.1032 78.1555 14.3891 78.4706 14.3891 78.8552C14.3891 79.3367 15.0251 79.4118 16.4276 79.0966C17.5489 78.8447 20.5164 78.2826 23.0225 77.8484C25.5286 77.4135 27.2011 77.0257 26.7397 76.986C26.2783 76.9469 25.9003 76.646 25.9003 76.3185C25.9003 75.9903 25.0461 75.4245 24.002 75.0603C21.5472 74.2054 21.0623 73.1899 23.1141 73.201C25.4998 73.2134 27.0865 73.8655 26.3009 74.5094C25.9042 74.8351 26.6184 75.038 28.1786 75.0442C31.0588 75.0547 31.6047 74.0032 28.8981 73.6582C27.9086 73.5323 29.2976 73.451 31.9846 73.4771C34.6714 73.5038 37.0274 73.7296 37.2207 73.979C37.8088 74.7402 40.8684 74.5225 40.4976 73.7464C40.2722 73.2749 40.5206 73.2035 41.2885 73.5187C43.1371 74.2774 47.4936 74.7843 51.441 74.6993C54.2186 74.6397 55.1582 74.8252 55.1582 75.4326C55.1582 76.0257 54.0219 76.3017 50.9614 76.4525C48.4826 76.5747 49.9556 76.7118 54.5586 76.7869C61.2107 76.8961 62.3527 76.7782 62.3527 75.9841C62.3527 75.3339 62.8592 75.0535 64.0314 75.0535C65.2037 75.0535 65.7101 75.3339 65.7101 75.9841C65.7101 76.5009 65.2838 76.9147 64.7509 76.9147C64.2233 76.9147 63.7916 77.2243 63.7916 77.6027C63.7916 78.0543 64.4103 78.1561 65.5903 77.8986C66.5793 77.6827 68.7357 77.5307 70.3813 77.5605C72.3776 77.5971 73.7306 77.2919 74.4453 76.6442C75.0343 76.1107 76.008 75.6739 76.6089 75.6739C77.2143 75.6739 77.7011 75.2948 77.7011 74.8233C77.7011 74.2737 78.5289 73.8307 80.0383 73.5714C82.4442 73.1588 83.9363 73.5186 83.9363 74.5113C83.9363 74.8227 84.4525 74.9096 85.0832 74.7048C85.7139 74.5001 86.3738 74.6341 86.5504 75.0033C86.7264 75.3724 87.3307 75.6739 87.8933 75.6739C88.8958 75.6739 88.8972 75.6559 87.985 74.7632C86.7695 73.5739 88.0022 73.505 89.6282 74.6707C90.5769 75.3513 90.6359 75.5486 89.9879 75.8706C88.6944 76.5127 89.1188 77.5351 90.6796 77.5351C91.5377 77.5351 92.0235 77.277 91.8499 76.9134C91.6863 76.5716 92.1194 76.0132 92.812 75.6726C94.4001 74.8916 98.3254 74.8618 98.3254 75.6305C98.3254 75.9481 98.8113 76.329 99.4046 76.4767C99.9979 76.625 98.7571 76.8117 96.6467 76.8917C91.305 77.0958 93.7761 78.0128 99.8842 78.0934C102.456 78.1275 104.561 78.3645 104.561 78.6208C104.561 79.4682 164.128 79.5402 171.068 78.7008C176.12 78.0897 178.059 78.094 180.774 78.7212C183.245 79.2926 186.777 79.3832 193.766 79.0556C199.046 78.8081 203.366 78.4173 203.366 78.1871C203.366 77.4786 183.731 76.2806 179.024 76.7012C175.976 76.9742 174.588 76.8886 174.588 76.4277C174.588 75.2545 176.061 75.1044 185.379 75.3321C190.392 75.4543 198.013 75.5815 202.315 75.6143C207.397 75.6528 210.033 75.891 209.841 76.2943C209.671 76.651 210.117 76.919 210.892 76.924C211.796 76.9308 212.032 77.1039 211.609 77.45C211.225 77.7658 212.418 78.1238 214.679 78.3714C220.231 78.9781 247.876 78.8584 248.178 78.2262C248.515 77.5196 246.874 76.9562 244.135 76.839C242.472 76.7676 242.802 76.6342 245.574 76.2577C247.581 75.9853 250.207 76.0226 251.515 76.3421C252.804 76.6572 257.66 76.9612 262.306 77.0189C269.711 77.1101 270.153 77.1672 265.878 77.4842C260.946 77.8496 260.09 78.1567 260.663 79.3546C261.103 80.2765 262.841 80.186 262.841 79.2411C262.841 78.6344 266.161 78.4892 278.069 78.573C286.445 78.6319 294.106 78.872 295.095 79.1059C296.083 79.3398 297.486 79.3125 298.212 79.0444L299.533 78.5581L297.854 78.0816C296.925 77.8186 299.066 77.7268 302.65 77.8757C306.212 78.0239 315.924 78.1114 324.234 78.0698C332.544 78.0283 345.926 78.0314 353.972 78.076C362.648 78.1244 368.21 77.9377 367.641 77.6163C366.465 76.9531 373.756 76.128 381.551 76.0418C386.488 75.9878 386.817 76.0598 386.668 77.1665C386.519 78.2857 386.764 78.3273 391.225 77.9451C393.818 77.723 399.933 77.491 404.813 77.4296L413.686 77.3173L406.732 76.8836C402.906 76.6454 398.967 76.4153 397.978 76.3724C395.498 76.2645 395.719 75.2837 398.338 74.7756C399.525 74.5454 400.496 74.095 400.496 73.7749C400.496 73.4541 402.169 73.1601 404.213 73.1204C406.258 73.0807 407.499 72.9144 406.971 72.75C404.452 71.9658 405.588 71.4738 409.195 71.7859C411.402 71.9763 413.315 72.3337 413.446 72.5794C413.705 73.0614 417.046 73.5869 423.519 74.1633C426.491 74.4282 427.401 74.3457 426.876 73.8593C426.272 73.2997 426.35 73.1179 427.356 72.7271C428.273 72.3709 427.831 72.1886 425.475 71.9516C423.781 71.781 422.316 71.3336 422.221 70.957C422.036 70.2281 427.342 69.3068 432.272 69.2125C433.789 69.1834 435.031 68.9507 435.03 68.6945C435.03 68.4383 435.246 68.2292 435.51 68.2292C435.774 68.2292 435.989 68.648 435.989 69.1598C435.989 69.6716 436.295 70.0904 436.669 70.0904C437.044 70.0904 437.691 70.2598 438.108 70.467C438.526 70.6742 438.867 70.5668 438.867 70.2293C438.867 69.8912 438.381 69.4179 437.788 69.1772L436.709 68.7392L437.908 68.236C438.567 67.9587 438.824 67.705 438.479 67.6709C438.134 67.6367 437.985 67.3297 438.148 66.9884C438.563 66.1205 436.502 66.2129 431.433 67.2899C429.059 67.7949 426.522 68.2124 425.797 68.2187C423.547 68.2366 424.35 67.0697 426.756 66.824C428.667 66.6292 428.516 66.5734 425.825 66.4797C424.06 66.4183 422.483 66.0889 422.32 65.7477C422.157 65.4064 422.468 65.1273 423.011 65.1273C423.554 65.1273 423.998 64.8605 423.998 64.5348C423.998 64.2091 424.788 63.7512 425.754 63.5167C427.08 63.1954 427.646 63.3312 428.064 64.0726C428.372 64.6167 429.71 65.2414 431.066 65.4741C433.231 65.8457 433.585 65.7433 434.147 64.58C434.496 63.8573 435.269 63.2661 435.865 63.2661C436.833 63.2661 437.177 62.6575 437.005 61.2498C436.974 60.9936 437.65 60.7423 438.507 60.6915C439.846 60.6114 439.761 60.537 437.908 60.1641L435.75 59.7298L437.533 59.6368C438.827 59.5692 439.248 59.3105 439.065 58.6944C438.925 58.2242 439.199 57.6745 439.679 57.4611C440.156 57.2495 441.193 56.5355 441.985 55.8742C442.776 55.2128 444.179 54.6315 445.102 54.5825C446.026 54.5335 447.213 54.2537 447.74 53.9602C448.576 53.4956 448.514 53.4124 447.261 53.3113C446.412 53.243 446.166 53.0793 446.661 52.9124C447.612 52.591 447.822 50.2428 446.901 50.2286C446.502 50.2217 446.541 50.0183 447.021 49.6175C447.591 49.141 447.49 49.0139 446.537 49.0064C445.499 48.9983 445.334 48.7192 445.337 46.9808C445.342 45.1619 445.178 44.9274 443.664 44.5812L441.985 44.1972L443.544 44.1159C444.765 44.052 445.102 43.7635 445.102 42.7857C445.102 41.6827 445.339 41.5735 447.141 41.8452C448.705 42.0816 448.9 42.0258 447.98 41.6045C447.321 41.3024 445.864 41.0282 444.743 40.994C443.621 40.9599 442.704 40.6529 442.704 40.3116C442.704 39.5089 435.644 39.4878 435.43 40.2899C435.342 40.6194 433.975 41.0505 432.392 41.2478C429.614 41.5946 429.564 41.576 430.953 40.6994L432.392 39.7917L431.073 39.7415C428.93 39.6596 429.569 38.4561 431.793 38.3884C433.524 38.3363 433.651 38.2519 432.632 37.8301C431.505 37.3629 431.528 37.3294 433.02 37.2717C434.109 37.2289 434.499 37.4355 434.264 37.9281C434.009 38.4604 434.84 38.5473 437.467 38.2619C439.417 38.0509 441.088 37.5875 441.18 37.2333C441.271 36.879 441.603 36.5893 441.918 36.5893C442.233 36.5893 442.861 36.0309 443.312 35.3485C443.764 34.6661 443.905 34.1077 443.625 34.1077C443.345 34.1077 442.792 33.689 442.396 33.1771C441.933 32.5785 440.748 32.2465 439.073 32.2465C437.204 32.2465 436.469 32.0096 436.469 31.4072C436.469 30.7737 435.88 30.6404 434.071 30.8656C431.662 31.1652 431.307 30.8532 432.135 29.1601C432.524 28.3629 432.925 28.3964 435.245 29.4163C436.71 30.0603 437.908 30.8209 437.908 31.1063C437.908 31.3923 438.124 31.6261 438.388 31.6261C438.651 31.6261 438.867 31.0846 438.867 30.422C438.867 28.8363 439.507 28.3884 442.91 27.5918C446.133 26.8374 447.138 25.4222 444.451 25.4222C443.522 25.4222 442.628 25.7014 442.464 26.0426C442.098 26.8101 439.5 26.8653 439.141 26.1134C438.996 25.8106 440.106 25.3652 441.607 25.1226C443.779 24.7715 444.162 24.5543 443.48 24.0611C443.009 23.7199 441.778 23.545 440.745 23.6722C438.563 23.9414 438.058 22.561 440.186 22.1441C441.37 21.9121 441.333 21.8686 439.826 21.7197L438.148 21.5529L439.587 21.0795C440.816 20.6744 440.66 20.595 438.507 20.5323C435.633 20.4486 435.168 19.5558 437.682 18.946C440.063 18.3678 439.273 17.3572 436.441 17.3572C434.053 17.3572 433.17 16.305 435.03 15.6759C435.558 15.4972 435.989 14.965 435.989 14.4929C435.989 14.0214 436.475 13.6224 437.069 13.6069C438.02 13.5821 437.977 13.4804 436.709 12.7489L435.27 11.9195L436.469 11.2656C437.574 10.6632 437.507 10.6086 435.63 10.572C434.508 10.5509 433.591 10.2537 433.591 9.91249C433.591 9.57128 434.131 9.2921 434.79 9.2921C435.45 9.2921 435.989 9.00735 435.989 8.65993C435.989 8.30507 435.411 8.17045 434.67 8.35284C433.514 8.63822 433.558 8.55009 435.03 7.63687C435.953 7.06487 437.68 6.37937 438.867 6.11384C440.472 5.75526 440.071 5.70128 437.308 5.9029C435.264 6.05242 433.591 5.92834 433.591 5.62807C433.591 4.94378 434.786 4.33207 436.149 4.31966C436.72 4.31408 437.512 4.01261 437.908 3.64968C438.427 3.1726 437.494 3.09626 434.55 3.37358C432.308 3.58513 430.402 4.02623 430.314 4.3538C430.226 4.68136 429.393 4.94938 428.464 4.94938C427.158 4.94938 426.836 5.16156 427.05 5.87997C427.274 6.63747 426.837 6.81056 424.703 6.81056C423.26 6.81056 422.08 7.05496 422.08 7.35337C422.08 7.65178 419.157 7.86085 415.585 7.81866L409.09 7.74112L409.23 6.21621C409.343 4.98473 409.784 4.54923 411.528 3.95056C413.681 3.21167 413.677 3.20982 409.56 3.14902C407.29 3.11552 404.053 2.90269 402.365 2.67625C399.54 2.29657 399.349 2.34558 399.955 3.29664C400.562 4.2477 400.221 4.32898 395.615 4.32898C392.366 4.32898 390.414 4.58954 390.04 5.07345C389.593 5.65227 389.337 5.65227 388.889 5.07345C388.442 4.49462 388.448 4.32898 388.917 4.32898C389.249 4.32898 389.388 4.0498 389.225 3.70859C388.862 2.94861 381.311 2.87294 381.311 3.6292C381.311 3.92698 380.436 4.35132 379.368 4.57218C377.945 4.86624 377.229 4.72171 376.695 4.03121C376.139 3.31156 374.816 3.08819 371.112 3.08819C366.742 3.08819 366.351 3.1788 367.19 3.99896C368.052 4.84269 367.955 4.91156 365.882 4.92955C364.537 4.94133 363.567 4.64788 363.449 4.19314C363.298 3.60687 362.817 3.62422 361.298 4.27253C359.053 5.23103 353.779 4.94877 352.909 3.82338C352.471 3.25696 353.536 3.08819 357.553 3.08819C360.419 3.08819 362.623 2.90398 362.449 2.67878C362.116 2.24947 310.295 1.50807 287.915 1.61292C280.733 1.64642 274.973 1.43362 275.113 1.14018C275.499 0.333051 273.666 0.501164 273.024 1.33187C272.616 1.85982 266.512 2.09371 250.571 2.19174Z" fill="white"/>
<path d="M152.764 1.56639L150.606 1.17988C149.419 0.967081 146.073 0.782828 143.171 0.770421C136.798 0.743123 124.549 1.56451 127.583 1.81576C128.77 1.91379 129.926 1.95165 130.152 1.89891C130.801 1.74816 131.917 3.17133 131.627 3.7787C131.482 4.08145 132.576 4.32898 134.058 4.32898C135.733 4.32898 136.641 4.09385 136.457 3.70859C136.293 3.36737 136.551 3.04289 137.028 2.98706C137.505 2.93122 136.708 2.71287 135.257 2.50193L132.619 2.11791L136.415 1.58998C138.773 1.26241 141.588 1.30706 143.849 1.70845C145.851 2.06394 148.675 2.17687 150.126 1.96035L152.764 1.56639Z" fill="white"/>
<path d="M64.0598 1.84741C65.2315 1.84741 66.1898 1.56823 66.1898 1.22701C66.1898 0.885797 65.0977 0.606653 63.7633 0.606653C62.2678 0.606653 61.4505 0.844851 61.6332 1.22701C61.7963 1.56823 62.888 1.84741 64.0598 1.84741Z" fill="white"/>
<path d="M162.448 3.06089C165.393 3.08818 166.969 2.18491 164.882 1.66626C164.285 1.51737 163.688 1.36227 163.556 1.32071C163.424 1.27976 162.453 1.64827 161.398 2.13962L159.479 3.03358L162.448 3.06089Z" fill="white"/>
<path d="M153.723 2.4678C155.061 3.21103 156.841 3.21103 156.841 2.4678C156.841 2.12659 155.924 1.86728 154.803 1.89086C153.224 1.92498 152.98 2.05462 153.723 2.4678Z" fill="white"/>
<path d="M33.4546 2.9604C33.916 2.8903 31.3802 2.66881 27.8189 2.4678C16.9566 1.85485 16.6046 1.84863 14.7584 2.24382C11.3626 2.96968 13.5032 3.70859 19.0022 3.70859C22.5573 3.70859 24.4125 3.92883 24.2216 4.32898C24.0356 4.71859 25.1133 4.94938 27.1224 4.94938C29.7672 4.94938 30.2722 5.11006 30.0435 5.87997C29.8315 6.59466 30.1255 6.79628 31.3111 6.74851C32.1606 6.71438 33.3947 6.46314 34.0542 6.19017L35.2533 5.69319L33.9343 5.63179C32.951 5.58526 32.6153 5.25398 32.6153 4.32898C32.6153 3.60933 32.9678 3.03485 33.4546 2.9604Z" fill="white"/>
<path d="M394.444 3.70859C396.159 3.70859 397.695 3.42941 397.858 3.08819C398.044 2.69921 396.993 2.4678 395.037 2.4678C393.322 2.4678 391.786 2.74698 391.623 3.08819C391.437 3.47718 392.488 3.70859 394.444 3.70859Z" fill="white"/>
<path d="M36.7838 4.26696C37.8893 4.30109 38.9272 4.0498 39.0903 3.70859C39.4357 2.98521 37.7181 2.98521 35.9727 3.70859C34.9487 4.13294 35.0671 4.21423 36.7838 4.26696Z" fill="white"/>
<path d="M425.678 5.79375C426.316 5.47735 426.348 5.29121 425.837 4.87244C425.073 4.24585 425.017 4.24213 423.639 4.71984C423.045 4.92581 422.56 5.34083 422.56 5.64234C422.56 6.27824 424.511 6.37257 425.678 5.79375Z" fill="white"/>
<path d="M8.03391 7.86894C8.62723 8.0166 9.59894 8.0166 10.1923 7.86894C10.7856 7.72067 10.3002 7.59967 9.11307 7.59967C7.92599 7.59967 7.44058 7.72067 8.03391 7.86894Z" fill="white"/>
<path d="M444.771 23.5176C445.784 23.4755 445.787 23.455 444.863 22.9407C443.543 22.2068 443.073 22.2068 443.424 22.9407C443.587 23.2819 444.193 23.5412 444.771 23.5176Z" fill="white"/>
<path d="M448.331 50.0245C448.656 50.1945 449.303 50.205 449.77 50.0474C450.236 49.8898 449.971 49.7509 449.179 49.7385C448.388 49.7261 448.006 49.8545 448.331 50.0245Z" fill="white"/>
<path d="M7.31445 74.2402C7.77634 74.3965 8.53128 74.3965 8.99316 74.2402C9.45505 74.0845 9.07712 73.9566 8.15381 73.9566C7.2305 73.9566 6.85257 74.0845 7.31445 74.2402Z" fill="white"/>
<path d="M409.26 76.1268C410.255 76.2608 411.766 76.2589 412.618 76.1218C413.469 75.9847 412.655 75.8749 410.808 75.8774C408.962 75.8805 408.265 75.9921 409.26 76.1268Z" fill="white"/>
<path d="M79.4498 77.6511C80.2393 78.1455 81.1348 77.9836 83.2869 76.9556L86.0947 75.6156L83.7493 75.9549C82.4595 76.1417 80.4091 76.3166 79.1927 76.3433C77.9769 76.37 77.3054 76.53 77.7011 76.6987C78.0968 76.8675 78.8839 77.2956 79.4498 77.6511Z" fill="white"/>
<path d="M197.961 76.7012C198.285 76.8712 198.933 76.8818 199.4 76.7242C199.866 76.5666 199.601 76.4277 198.809 76.4152C198.018 76.4028 197.636 76.5312 197.961 76.7012Z" fill="white"/>
<path d="M38.3709 77.3843C43.6474 77.3359 44.5736 77.223 42.208 76.9147C37.5819 76.3117 33.4599 76.3117 32.3755 76.9147C31.7879 77.241 34.1127 77.4234 38.3709 77.3843Z" fill="white"/>
<path d="M28.6516 78.5922C29.2415 78.7392 30.3207 78.743 31.0497 78.6009C31.7788 78.4582 31.2963 78.3379 29.9772 78.3329C28.6582 78.3285 28.0616 78.4452 28.6516 78.5922Z" fill="white"/>
</svg>
