<svg width="450" height="80" viewBox="0 0 450 80" fill="none" xmlns="http://www.w3.org/2000/svg">
<path d="M199.429 2.19174C220.795 2.32388 221.345 2.29722 222.287 1.07939C223.098 0.0303093 223.643 -0.10744 225.71 0.213922C227.062 0.423614 228.737 0.598573 229.431 0.601055C230.289 0.604777 230.775 1.00492 230.945 1.84741C231.127 2.74449 231.6 3.08819 232.651 3.08819C233.452 3.08819 234.24 3.36737 234.404 3.70859C234.901 4.75022 238.48 4.47787 238.48 3.39839C238.48 2.66943 239.13 2.46967 241.478 2.47712C243.681 2.48456 244.285 2.65642 243.756 3.12482C243.248 3.57584 243.882 3.64159 245.915 3.34815C249.5 2.83136 250.255 2.2817 248.073 1.77795C247.092 1.5515 248.888 1.31575 252.39 1.2109C255.687 1.11226 258.709 1.10666 259.105 1.19848C262.396 1.96218 264.725 1.8753 265.307 0.967671C266.093 -0.256359 267.738 -0.319613 267.738 0.873398C267.738 1.36165 268.224 1.88216 268.817 2.02981C269.671 2.2426 269.596 2.3183 268.458 2.39274C267.666 2.44424 266.695 2.75753 266.299 3.08819C265.805 3.50137 266.901 3.69244 269.808 3.69927C272.134 3.70423 274.454 3.99768 274.965 4.3513C275.475 4.70431 277.552 5.0046 279.579 5.01887C281.874 5.03376 283.01 5.24714 282.59 5.58277C281.525 6.43457 282.408 6.99232 283.56 6.19511C284.128 5.80117 287.223 5.36567 290.435 5.22732C293.648 5.08897 298.435 4.80419 301.073 4.5945C303.711 4.38481 305.702 4.43259 305.498 4.69935C305.294 4.96674 302.92 5.39048 300.222 5.64049C297.525 5.89113 300.929 5.92462 307.788 5.71555C314.647 5.50648 321.553 5.39046 323.136 5.4587C324.719 5.52633 326.662 5.3241 327.453 5.00894C328.646 4.53372 328.298 4.42638 325.414 4.38233C323.502 4.35317 321.937 4.0858 321.937 3.78863C321.937 2.62478 329.713 1.95848 336.51 2.53979C345.525 3.31155 345.953 3.55037 338.471 3.6366C332.807 3.70174 332.156 3.82523 331.53 4.94938C330.912 6.05801 330.288 6.19017 325.668 6.19017C322.204 6.19017 320.498 6.4172 320.498 6.87753C320.498 7.29505 320.954 7.41729 321.658 7.18899C322.382 6.95386 322.893 7.10338 323.019 7.58728C323.177 8.19774 323.381 8.19029 323.98 7.54943C324.565 6.92593 325.99 6.84033 330.127 7.17844C333.929 7.48988 335.42 7.42288 335.195 6.952C335.019 6.58473 335.256 6.15605 335.721 5.99909C336.309 5.79995 336.202 5.6864 335.367 5.62312C334.439 5.5524 334.33 5.40909 334.887 4.98784C335.754 4.33271 340.163 4.88611 340.163 5.65043C340.163 5.94759 340.847 6.19017 341.682 6.19017C344.151 6.19017 342.901 6.86142 339.369 7.43218C336.358 7.91857 336.523 7.94896 341.362 7.80006C345.193 7.68219 347.033 7.35587 348.077 6.60767C349.849 5.3396 350.613 5.31848 352.761 6.47985C353.971 7.13312 355.036 7.24794 356.538 6.88749L358.629 6.38557L356.711 5.94386C355.656 5.70067 354.418 5.23785 353.96 4.91524C353.501 4.59264 352.692 4.32898 352.161 4.32898C350.829 4.32898 350.936 3.1031 352.274 3.02618C353.302 2.96724 353.296 2.94303 352.154 2.5162C351.117 2.12846 351.264 2.00562 353.233 1.6092C354.487 1.35732 355.512 0.888921 355.512 0.5688C355.512 -0.211652 357.774 -0.179381 358.15 0.606653C358.313 0.947868 359.998 1.2686 361.895 1.32009C363.792 1.37096 364.758 1.52854 364.04 1.66937C362.883 1.89705 362.802 2.06206 363.316 3.12728C363.635 3.78861 364.168 4.32898 364.501 4.32898C364.832 4.32898 365.104 4.74775 365.104 5.25957C365.104 5.7714 365.333 6.19017 365.612 6.19017C365.891 6.19017 366.002 6.43767 365.858 6.7398C365.714 7.04193 366.079 7.40858 366.669 7.55438C368.039 7.89311 370.86 6.96318 370.86 6.17218C370.86 5.37684 373.596 5.39234 373.978 6.19017C374.141 6.53138 374.747 6.8062 375.325 6.80124C376.16 6.7938 376.231 6.67283 375.67 6.21437C374.405 5.18017 375.391 4.98537 379.757 5.40662C383.003 5.71991 383.699 5.93085 382.611 6.27021C380.877 6.81119 387.429 6.45818 390.461 5.84771C391.612 5.61569 392.996 4.8557 393.534 4.159L394.514 2.89217L393.359 3.29108C392.724 3.5107 389.83 3.82023 386.928 3.97905C383.633 4.16021 382.283 4.07773 383.331 3.76009C384.814 3.31093 384.618 3.2278 381.652 3.04788C379.805 2.93559 383.151 2.68432 389.086 2.48889C399.423 2.14892 403.742 2.43182 398.237 3.08819C394.878 3.48897 394.509 4.71611 397.569 5.3092C399.432 5.67089 399.691 5.85887 398.917 6.29004C398.271 6.65048 398.56 6.70821 399.804 6.46749C402.198 6.0053 419.926 7.33974 422.421 8.16982C425.611 9.23069 428.466 9.47635 429.036 8.73871C429.328 8.36089 430.519 8.05131 431.681 8.05131C433.363 8.05131 433.738 7.86088 433.519 7.12076C433.367 6.60893 433.506 6.18646 433.827 6.1815C434.149 6.17715 434.898 6.00466 435.491 5.79931C436.084 5.59334 436.57 5.7044 436.57 6.04561C436.57 6.38683 436.084 6.86264 435.491 7.10335L434.412 7.54134L435.519 7.95144C436.128 8.17726 436.601 8.64069 436.57 8.9819C436.49 9.85789 438.228 10.3828 441.846 10.5751C444.009 10.6905 444.413 10.8158 443.165 10.9845C442.176 11.1185 441.367 11.4908 441.367 11.8109C441.367 12.1316 440.719 12.3941 439.928 12.3941C437.187 12.3941 438.502 13.5765 441.486 13.7961C444.457 14.0139 444.449 14.0176 440.647 14.1975C436.352 14.4004 434.948 14.8223 434.772 15.9613C434.697 16.444 435.195 16.7368 436.091 16.7368C436.882 16.7368 437.529 17.016 437.529 17.3572C437.529 17.6984 438.717 17.9776 440.167 17.9776C441.618 17.9776 442.805 18.2568 442.805 18.598C442.805 18.9392 442.266 19.2183 441.606 19.2183C440.947 19.2183 440.409 19.4274 440.411 19.6836C440.418 20.5497 442.986 21.6999 444.911 21.6999C446.633 21.6999 446.737 21.7843 445.944 22.5343C445.1 23.3321 445.106 23.3837 446.092 23.7168C447.372 24.1498 447.437 25.4322 446.2 25.8503C445.455 26.1022 445.328 26.5513 445.534 28.1948C445.814 30.4294 445.514 30.855 442.805 32.0667L441.127 32.8173L443.165 32.4773C444.996 32.1721 445.204 32.2689 445.204 33.4327C445.204 34.3143 444.897 34.7281 444.244 34.7281C443.712 34.7281 443.285 35.1419 443.285 35.6587C443.285 36.4026 442.539 36.5973 439.568 36.6283C435.385 36.673 435.872 37.2277 441.127 38.407C447.251 39.7812 448.456 40.1547 447.031 40.2372C446.321 40.2781 445.588 40.6293 445.402 41.0176C445.16 41.5251 445.592 41.6058 446.933 41.3049C448.273 41.0046 448.598 41.0654 448.081 41.5202C447.509 42.0239 447.632 42.1561 448.681 42.1635C449.407 42.1685 450 42.452 450 42.7932C450 43.3503 446.431 43.7393 443.285 43.5246C442.098 43.444 442.097 43.449 443.165 44.0284C444.747 44.887 444.483 45.2469 442.566 44.8442C441.564 44.6339 440.887 44.748 440.887 45.1265C440.887 46.0993 443.053 46.5856 445.822 46.2351C448.253 45.928 448.269 45.9361 446.423 46.5447C445.379 46.8884 444.407 47.4027 444.265 47.6868C444.122 47.971 443.292 48.6757 442.421 49.2527C441.153 50.094 440.902 50.5611 441.157 51.6033C441.449 52.7926 441.337 52.8721 439.863 52.5259C438.975 52.3181 437.763 51.9644 437.17 51.7405C436.566 51.5134 436.091 51.6046 436.091 51.9477C436.091 52.2845 436.954 52.7393 438.009 52.9577C439.064 53.176 439.928 53.5979 439.928 53.8963C439.928 54.1941 441.127 54.6315 442.593 54.8685C445.795 55.3859 445.904 56.6701 442.768 56.9226C441.216 57.0473 440.84 56.9251 441.367 56.4666C441.924 55.9808 441.742 55.8381 440.556 55.8307C438.029 55.8152 438.307 56.9133 440.948 57.3835C443.93 57.9133 443.213 58.8998 439.836 58.914C437.464 58.924 436.249 60.0097 437.961 60.5885C438.515 60.7758 438.968 61.3156 438.968 61.7877C438.968 62.2592 439.184 62.6457 439.448 62.6457C439.712 62.6457 439.928 62.9249 439.928 63.2661C439.928 63.6073 439.483 63.8865 438.94 63.8865C438.397 63.8865 438.072 64.1365 438.218 64.4417C438.364 64.7476 438.125 65.175 437.686 65.3928C436.692 65.8866 437.343 66.7843 438.968 67.1615C439.802 67.3551 439.583 67.4711 438.249 67.543C436.697 67.6268 436.491 67.767 437.17 68.2789C437.632 68.6269 438.009 69.1319 438.009 69.4011C438.009 70.2442 435.645 71.3305 433.79 71.3398C432.813 71.3442 431.523 71.5179 430.923 71.7257C429.9 72.0806 429.886 72.1557 430.684 72.9386C431.151 73.3977 432.032 73.7823 432.641 73.7929C433.251 73.804 433.631 74.0596 433.487 74.3611C433.206 74.9492 435.089 76.0747 437.05 76.491C437.765 76.6429 437.423 76.78 436.204 76.8303C435.079 76.8768 433.759 76.5914 433.27 76.1962C432.781 75.8011 431.974 75.682 431.477 75.9307C430.599 76.3706 430.6 76.4066 431.506 77.2689C432.018 77.7565 433.151 78.1555 434.024 78.1555C434.897 78.1555 435.611 78.4706 435.611 78.8552C435.611 79.3367 434.975 79.4118 433.572 79.0966C432.451 78.8447 429.484 78.2826 426.977 77.8484C424.471 77.4135 422.799 77.0257 423.26 76.986C423.722 76.9469 424.1 76.646 424.1 76.3185C424.1 75.9903 424.954 75.4245 425.998 75.0603C428.453 74.2054 428.938 73.1898 426.886 73.201C424.5 73.2134 422.914 73.8655 423.699 74.5094C424.096 74.8351 423.382 75.038 421.821 75.0442C418.941 75.0547 418.395 74.0032 421.102 73.6582C422.091 73.5323 420.702 73.451 418.015 73.4771C415.329 73.5038 412.973 73.7296 412.779 73.979C412.191 74.7402 409.132 74.5225 409.502 73.7464C409.728 73.2749 409.479 73.2035 408.711 73.5187C406.863 74.2774 402.506 74.7843 398.559 74.6993C395.781 74.6397 394.842 74.8252 394.842 75.4326C394.842 76.0257 395.978 76.3017 399.039 76.4525C401.517 76.5747 400.044 76.7118 395.441 76.7869C388.789 76.8961 387.647 76.7782 387.647 75.9841C387.647 75.3339 387.141 75.0535 385.969 75.0535C384.796 75.0535 384.29 75.3339 384.29 75.9841C384.29 76.5009 384.716 76.9147 385.249 76.9147C385.777 76.9147 386.208 77.2242 386.208 77.6027C386.208 78.0543 385.59 78.1561 384.41 77.8986C383.421 77.6827 381.264 77.5307 379.619 77.5605C377.622 77.5971 376.269 77.2919 375.555 76.6442C374.966 76.1107 373.992 75.6739 373.391 75.6739C372.786 75.6739 372.299 75.2948 372.299 74.8233C372.299 74.2737 371.471 73.8307 369.962 73.5714C367.556 73.1588 366.064 73.5186 366.064 74.5113C366.064 74.8227 365.548 74.9096 364.917 74.7048C364.286 74.5001 363.626 74.6341 363.45 75.0033C363.274 75.3724 362.669 75.6739 362.107 75.6739C361.104 75.6739 361.103 75.6559 362.015 74.7632C363.23 73.5739 361.998 73.505 360.372 74.6707C359.423 75.3513 359.364 75.5486 360.012 75.8706C361.306 76.5127 360.881 77.5351 359.32 77.5351C358.462 77.5351 357.977 77.2769 358.15 76.9134C358.314 76.5716 357.881 76.0132 357.188 75.6726C355.6 74.8916 351.675 74.8618 351.675 75.6305C351.675 75.9481 351.189 76.329 350.595 76.4767C350.002 76.625 351.243 76.8117 353.353 76.8917C358.695 77.0958 356.224 78.0128 350.116 78.0934C347.544 78.1275 345.439 78.3645 345.439 78.6208C345.439 79.4682 285.872 79.5402 278.932 78.7008C273.88 78.0897 271.941 78.094 269.226 78.7212C266.755 79.2926 263.223 79.3832 256.234 79.0556C250.954 78.8081 246.634 78.4173 246.634 78.1871C246.634 77.4786 266.269 76.2806 270.976 76.7012C274.024 76.9742 275.412 76.8886 275.412 76.4277C275.412 75.2545 273.939 75.1044 264.621 75.3321C259.608 75.4543 251.987 75.5814 247.685 75.6143C242.603 75.6528 239.967 75.891 240.159 76.2943C240.329 76.651 239.883 76.919 239.108 76.924C238.204 76.9308 237.968 77.1039 238.391 77.45C238.775 77.7658 237.582 78.1238 235.321 78.3714C229.769 78.9781 202.124 78.8584 201.822 78.2262C201.485 77.5196 203.126 76.9562 205.865 76.839C207.528 76.7676 207.198 76.6342 204.426 76.2576C202.419 75.9853 199.793 76.0226 198.485 76.3421C197.196 76.6572 192.34 76.9612 187.694 77.0189C180.289 77.1101 179.847 77.1672 184.122 77.4842C189.054 77.8496 189.91 78.1567 189.337 79.3546C188.897 80.2765 187.159 80.186 187.159 79.2411C187.159 78.6344 183.839 78.4892 171.931 78.573C163.555 78.6319 155.894 78.872 154.905 79.1059C153.917 79.3398 152.514 79.3125 151.788 79.0444L150.467 78.5581L152.146 78.0816C153.075 77.8186 150.934 77.7268 147.35 77.8757C143.788 78.0239 134.076 78.1114 125.766 78.0698C117.456 78.0283 104.074 78.0314 96.0284 78.076C87.3518 78.1244 81.79 77.9377 82.3588 77.6163C83.5354 76.9531 76.2444 76.128 68.4494 76.0418C63.512 75.9878 63.1834 76.0598 63.3316 77.1665C63.4813 78.2857 63.2362 78.3273 58.7751 77.9451C56.1817 77.723 50.0673 77.491 45.187 77.4296L36.3137 77.3173L43.2685 76.8836C47.0936 76.6454 51.0328 76.4152 52.0218 76.3724C54.5025 76.2645 54.2814 75.2837 51.6621 74.7756C50.475 74.5454 49.5037 74.095 49.5037 73.7749C49.5037 73.4541 47.8308 73.1601 45.7865 73.1204C43.7423 73.0807 42.501 72.9144 43.0286 72.75C45.5482 71.9658 44.4124 71.4738 40.8046 71.7859C38.5982 71.9763 36.6854 72.3337 36.5535 72.5794C36.295 73.0614 32.9544 73.5869 26.4812 74.1633C23.5094 74.4282 22.5995 74.3456 23.1237 73.8593C23.7276 73.2997 23.6504 73.1179 22.6441 72.7271C21.727 72.3709 22.1688 72.1886 24.5252 71.9516C26.2193 71.781 27.6836 71.3336 27.7791 70.957C27.9642 70.2281 22.6575 69.3068 17.7278 69.2125C16.2107 69.1834 14.9694 68.9507 14.9699 68.6945C14.9699 68.4383 14.7541 68.2292 14.4903 68.2292C14.2265 68.2292 14.0106 68.648 14.0106 69.1598C14.0106 69.6716 13.7046 70.0904 13.3305 70.0904C12.9564 70.0904 12.3089 70.2598 11.8916 70.467C11.4743 70.6742 11.1328 70.5668 11.1328 70.2293C11.1328 69.8912 11.6187 69.4179 12.212 69.1772L13.2912 68.7392L12.0921 68.236C11.4326 67.9587 11.1755 67.705 11.5209 67.6709C11.8662 67.6367 12.0154 67.3297 11.8523 66.9884C11.4374 66.1205 13.4979 66.2129 18.5672 67.2899C20.9414 67.7949 23.4777 68.2124 24.2029 68.2187C26.4534 68.2366 25.6505 67.0697 23.2436 66.824C21.3332 66.6292 21.4839 66.5734 24.1746 66.4797C25.9397 66.4183 27.5172 66.0889 27.6803 65.7477C27.8433 65.4064 27.5321 65.1273 26.9891 65.1273C26.4462 65.1273 26.0015 64.8605 26.0015 64.5348C26.0015 64.2091 25.2116 63.7512 24.2461 63.5167C22.9204 63.1954 22.3544 63.3312 21.9357 64.0726C21.6277 64.6167 20.29 65.2414 18.9341 65.4741C16.7685 65.8457 16.4146 65.7433 15.8534 64.58C15.5042 63.8573 14.7311 63.2661 14.1349 63.2661C13.167 63.2661 12.8226 62.6575 12.9948 61.2498C13.0259 60.9936 12.3497 60.7423 11.4925 60.6915C10.1539 60.6114 10.2388 60.537 12.0921 60.1641L14.2505 59.7298L12.4667 59.6368C11.1731 59.5692 10.7525 59.3105 10.9352 58.6944C11.0748 58.2242 10.8009 57.6745 10.3208 57.4611C9.84404 57.2495 8.80659 56.5355 8.01519 55.8742C7.22379 55.2128 5.82085 54.6315 4.89755 54.5825C3.97425 54.5335 2.78715 54.2537 2.25955 53.9602C1.42403 53.4956 1.4859 53.4124 2.73919 53.3113C3.58814 53.243 3.83372 53.0793 3.33873 52.9124C2.38761 52.591 2.17801 50.2428 3.09892 50.2285C3.49845 50.2217 3.45864 50.0182 2.97901 49.6175C2.4092 49.141 2.50992 49.0138 3.46344 49.0064C4.50089 48.9983 4.66636 48.7192 4.66253 46.9808C4.65821 45.1619 4.82177 44.9274 6.33646 44.5812L8.01519 44.1972L6.45637 44.1159C5.23521 44.052 4.89755 43.7635 4.89755 42.7857C4.89755 41.6827 4.66061 41.5735 2.8591 41.8452C1.295 42.0816 1.09979 42.0257 2.01973 41.6045C2.67923 41.3024 4.13589 41.0282 5.25728 40.994C6.37867 40.9599 7.29573 40.6529 7.29573 40.3116C7.29573 39.5089 14.356 39.4878 14.5704 40.2899C14.6582 40.6194 16.0251 41.0505 17.6079 41.2478C20.3864 41.5946 20.4363 41.576 19.0468 40.6994L17.6079 39.7917L18.9269 39.7415C21.0704 39.6596 20.4306 38.4561 18.2075 38.3884C16.476 38.3363 16.3493 38.2519 17.3681 37.8301C18.4952 37.3629 18.4722 37.3294 16.9801 37.2717C15.8913 37.2289 15.5009 37.4355 15.7364 37.9281C15.9906 38.4604 15.1603 38.5472 12.5334 38.2619C10.5827 38.0509 8.91211 37.5875 8.8205 37.2333C8.72937 36.879 8.39698 36.5893 8.08186 36.5893C7.76674 36.5893 7.13937 36.0309 6.68755 35.3485C6.23573 34.6661 6.0952 34.1077 6.37531 34.1077C6.65541 34.1077 7.20844 33.689 7.60414 33.1771C8.06699 32.5785 9.25217 32.2465 10.9271 32.2465C12.7962 32.2465 13.531 32.0096 13.531 31.4072C13.531 30.7737 14.1195 30.6404 15.9292 30.8656C18.3384 31.1652 18.6929 30.8532 17.8655 29.1601C17.4755 28.3629 17.075 28.3964 14.755 29.4163C13.2902 30.0603 12.0921 30.8209 12.0921 31.1063C12.0921 31.3923 11.8763 31.6261 11.6125 31.6261C11.3487 31.6261 11.1328 31.0846 11.1328 30.422C11.1328 28.8363 10.493 28.3884 7.08997 27.5918C3.86681 26.8374 2.86198 25.4222 5.5489 25.4222C6.47843 25.4222 7.37247 25.7014 7.53555 26.0426C7.90199 26.8101 10.5002 26.8653 10.8594 26.1134C11.0038 25.8106 9.89392 25.3652 8.39266 25.1226C6.22135 24.7715 5.83812 24.5543 6.51968 24.0611C6.99117 23.7199 8.22191 23.545 9.25457 23.6722C11.4369 23.9414 11.942 22.561 9.81382 22.1441C8.6296 21.9121 8.66653 21.8686 10.1735 21.7197L11.8523 21.5529L10.4134 21.0795C9.18358 20.6744 9.33994 20.595 11.4925 20.5323C14.367 20.4486 14.8318 19.5558 12.3185 18.946C9.93709 18.3678 10.7266 17.3572 13.5593 17.3572C15.9469 17.3572 16.8299 16.305 14.9699 15.6759C14.4423 15.4972 14.0106 14.965 14.0106 14.4928C14.0106 14.0214 13.5252 13.6224 12.9315 13.6069C11.9803 13.5821 12.023 13.4804 13.2912 12.7489L14.7301 11.9195L13.531 11.2656C12.4264 10.6632 12.4926 10.6086 14.3704 10.572C15.4918 10.5509 16.4088 10.2537 16.4088 9.91249C16.4088 9.57128 15.8692 9.2921 15.2097 9.2921C14.5502 9.2921 14.0106 9.00735 14.0106 8.65993C14.0106 8.30507 14.5891 8.17044 15.3296 8.35284C16.486 8.63822 16.4419 8.55009 14.9699 7.63687C14.0466 7.06487 12.3199 6.37937 11.1328 6.11384C9.52844 5.75526 9.92894 5.70128 12.6916 5.9029C14.7358 6.05242 16.4088 5.92834 16.4088 5.62807C16.4088 4.94378 15.2136 4.33207 13.8514 4.31966C13.2797 4.31408 12.4878 4.0126 12.0921 3.64968C11.5726 3.1726 12.506 3.09626 15.4495 3.37358C17.6918 3.58513 19.5984 4.02623 19.6862 4.3538C19.7744 4.68136 20.6066 4.94938 21.5361 4.94938C22.8417 4.94938 23.1635 5.16156 22.9501 5.87997C22.7256 6.63746 23.1626 6.81056 25.297 6.81056C26.7397 6.81056 27.9201 7.05496 27.9201 7.35337C27.9201 7.65178 30.843 7.86085 34.4148 7.81866L40.9101 7.74111L40.77 6.21621C40.6573 4.98473 40.2156 4.54923 38.4721 3.95055C36.319 3.21167 36.3233 3.20982 40.44 3.14902C42.7097 3.11552 45.9472 2.90269 47.6346 2.67625C50.4596 2.29657 50.6505 2.34558 50.0448 3.29664C49.438 4.2477 49.7786 4.32898 54.3855 4.32898C57.634 4.32898 59.5857 4.58954 59.9598 5.07345C60.4073 5.65227 60.6634 5.65227 61.1109 5.07345C61.5584 4.49462 61.5522 4.32898 61.0826 4.32898C60.7507 4.32898 60.6121 4.0498 60.7752 3.70859C61.1383 2.94861 68.6892 2.87294 68.6892 3.6292C68.6892 3.92698 69.5636 4.35132 70.6322 4.57218C72.0548 4.86624 72.7709 4.7217 73.3047 4.03121C73.8611 3.31156 75.1839 3.08819 78.8877 3.08819C83.2581 3.08819 83.6486 3.1788 82.8102 3.99896C81.9482 4.84269 82.0451 4.91156 84.1176 4.92955C85.463 4.94133 86.4333 4.64788 86.5508 4.19314C86.7019 3.60687 87.1835 3.62422 88.7015 4.27253C90.9472 5.23103 96.2208 4.94876 97.0908 3.82338C97.5287 3.25696 96.4644 3.08819 92.447 3.08819C89.5807 3.08819 87.3772 2.90398 87.5514 2.67878C87.8837 2.24947 139.705 1.50807 162.085 1.61292C169.267 1.64642 175.027 1.43362 174.887 1.14018C174.501 0.333051 176.334 0.501164 176.976 1.33187C177.384 1.85982 183.488 2.09371 199.429 2.19174Z" fill="white"/>
<path d="M297.236 1.56639L299.394 1.17988C300.581 0.967081 303.927 0.782828 306.829 0.770421C313.202 0.743123 325.451 1.56451 322.417 1.81576C321.23 1.91379 320.074 1.95165 319.848 1.89891C319.199 1.74816 318.083 3.17133 318.373 3.7787C318.518 4.08145 317.424 4.32898 315.942 4.32898C314.267 4.32898 313.359 4.09385 313.543 3.70859C313.707 3.36737 313.449 3.04289 312.972 2.98706C312.495 2.93122 313.292 2.71287 314.743 2.50193L317.381 2.11791L313.585 1.58998C311.227 1.26241 308.412 1.30706 306.151 1.70845C304.149 2.06394 301.325 2.17687 299.874 1.96035L297.236 1.56639Z" fill="white"/>
<path d="M385.94 1.84741C384.768 1.84741 383.81 1.56823 383.81 1.22701C383.81 0.885797 384.902 0.606653 386.237 0.606653C387.732 0.606653 388.549 0.844851 388.367 1.22701C388.204 1.56823 387.112 1.84741 385.94 1.84741Z" fill="white"/>
<path d="M287.552 3.06089C284.607 3.08818 283.031 2.18491 285.118 1.66626C285.715 1.51737 286.312 1.36227 286.444 1.32071C286.576 1.27976 287.547 1.64827 288.602 2.13961L290.521 3.03358L287.552 3.06089Z" fill="white"/>
<path d="M296.277 2.4678C294.939 3.21103 293.159 3.21103 293.159 2.4678C293.159 2.12659 294.076 1.86728 295.197 1.89086C296.776 1.92498 297.02 2.05462 296.277 2.4678Z" fill="white"/>
<path d="M416.545 2.9604C416.084 2.8903 418.62 2.66881 422.181 2.4678C433.043 1.85485 433.395 1.84863 435.242 2.24382C438.637 2.96968 436.497 3.70859 430.998 3.70859C427.443 3.70859 425.587 3.92883 425.778 4.32898C425.964 4.71859 424.887 4.94938 422.878 4.94938C420.233 4.94938 419.728 5.11006 419.957 5.87997C420.169 6.59466 419.875 6.79628 418.689 6.74851C417.839 6.71438 416.605 6.46314 415.946 6.19017L414.747 5.69319L416.066 5.63179C417.049 5.58526 417.385 5.25398 417.385 4.32898C417.385 3.60933 417.032 3.03485 416.545 2.9604Z" fill="white"/>
<path d="M55.5558 3.70859C53.8411 3.70859 52.3048 3.42941 52.1417 3.08819C51.9556 2.69921 53.0065 2.4678 54.9629 2.4678C56.6776 2.4678 58.2139 2.74698 58.377 3.08819C58.5631 3.47718 57.5122 3.70859 55.5558 3.70859Z" fill="white"/>
<path d="M413.216 4.26696C412.111 4.30109 411.073 4.0498 410.91 3.70859C410.564 2.98521 412.282 2.98521 414.027 3.70859C415.051 4.13294 414.933 4.21423 413.216 4.26696Z" fill="white"/>
<path d="M24.3219 5.79375C23.6844 5.47735 23.6523 5.2912 24.1626 4.87244C24.9267 4.24585 24.9828 4.24213 26.3613 4.71983C26.9551 4.9258 27.4405 5.34083 27.4405 5.64234C27.4405 6.27824 25.4888 6.37257 24.3219 5.79375Z" fill="white"/>
<path d="M441.966 7.86894C441.373 8.0166 440.401 8.0166 439.808 7.86894C439.214 7.72067 439.7 7.59967 440.887 7.59967C442.074 7.59967 442.559 7.72067 441.966 7.86894Z" fill="white"/>
<path d="M5.22898 23.5176C4.21599 23.4755 4.21263 23.455 5.13737 22.9407C6.45733 22.2068 6.92689 22.2068 6.57628 22.9407C6.4132 23.2819 5.80694 23.5412 5.22898 23.5176Z" fill="white"/>
<path d="M1.66912 50.0245C1.3444 50.1945 0.696896 50.205 0.230209 50.0474C-0.236477 49.8898 0.0292432 49.7509 0.820643 49.7385C1.61204 49.7261 1.99383 49.8545 1.66912 50.0245Z" fill="white"/>
<path d="M442.686 74.2402C442.224 74.3965 441.469 74.3965 441.007 74.2402C440.545 74.0845 440.923 73.9566 441.846 73.9566C442.77 73.9566 443.147 74.0845 442.686 74.2402Z" fill="white"/>
<path d="M40.7398 76.1267C39.7446 76.2608 38.2337 76.2589 37.3824 76.1218C36.5305 75.9847 37.3449 75.8749 39.1915 75.8774C41.0381 75.8805 41.7346 75.9921 40.7398 76.1267Z" fill="white"/>
<path d="M370.55 77.6511C369.761 78.1455 368.865 77.9836 366.713 76.9556L363.905 75.6156L366.251 75.9549C367.54 76.1417 369.591 76.3166 370.807 76.3433C372.023 76.37 372.695 76.53 372.299 76.6987C371.903 76.8675 371.116 77.2956 370.55 77.6511Z" fill="white"/>
<path d="M252.039 76.7012C251.715 76.8712 251.067 76.8818 250.6 76.7242C250.134 76.5666 250.399 76.4277 251.191 76.4152C251.982 76.4028 252.364 76.5312 252.039 76.7012Z" fill="white"/>
<path d="M411.629 77.3843C406.353 77.3359 405.426 77.223 407.792 76.9147C412.418 76.3116 416.54 76.3116 417.625 76.9147C418.212 77.241 415.887 77.4234 411.629 77.3843Z" fill="white"/>
<path d="M421.348 78.5922C420.759 78.7392 419.679 78.743 418.95 78.6009C418.221 78.4582 418.704 78.3378 420.023 78.3329C421.342 78.3285 421.938 78.4451 421.348 78.5922Z" fill="white"/>
</svg>
