<svg width="538" height="247" viewBox="0 0 538 247" fill="none" xmlns="http://www.w3.org/2000/svg">
<path d="M40.4454 239.082L39.2752 235.359H33.8816L32.7114 239.082H29.4135L34.7433 223.731H38.5198L43.8602 239.082H40.4454ZM36.5411 226.667L34.5731 232.954H38.5837L36.6156 226.667H36.5411ZM55.9312 239.082H49.1334V223.731H55.8142C57.2539 223.731 58.3957 224.075 59.2397 224.763C60.0836 225.451 60.5056 226.384 60.5056 227.561C60.5056 228.398 60.229 229.132 59.6758 229.763C59.1297 230.394 58.4453 230.77 57.6227 230.891V230.976C58.6723 231.054 59.5375 231.44 60.2184 232.135C60.8992 232.83 61.2396 233.681 61.2396 234.688C61.2396 236.043 60.7645 237.114 59.8141 237.901C58.8638 238.688 57.5695 239.082 55.9312 239.082ZM52.3461 226.125V230.114H54.6546C55.5127 230.114 56.1759 229.937 56.6439 229.582C57.112 229.22 57.3461 228.713 57.3461 228.061C57.3461 227.444 57.1404 226.969 56.729 226.635C56.3177 226.295 55.7361 226.125 54.9844 226.125H52.3461ZM52.3461 236.688H55.112C56.0411 236.688 56.7468 236.497 57.229 236.114C57.7184 235.724 57.9631 235.164 57.9631 234.433C57.9631 233.717 57.7113 233.171 57.2078 232.795C56.7113 232.419 55.9879 232.231 55.0376 232.231H52.3461V236.688ZM73.0553 239.082H69.8425V226.38H65.4064V223.731H77.5021V226.38H73.0553V239.082ZM83.5731 225.603C84.9064 224.178 86.7113 223.465 88.9879 223.465C91.2645 223.465 93.0659 224.178 94.3921 225.603C95.7254 227.029 96.3921 228.965 96.3921 231.412C96.3921 233.852 95.7254 235.784 94.3921 237.21C93.0588 238.635 91.2574 239.348 88.9879 239.348C86.7113 239.348 84.9064 238.635 83.5731 237.21C82.2468 235.784 81.5837 233.852 81.5837 231.412C81.5837 228.965 82.2468 227.029 83.5731 225.603ZM91.9879 227.571C91.2432 226.621 90.2432 226.146 88.9879 226.146C87.7326 226.146 86.7291 226.621 85.9773 227.571C85.2326 228.522 84.8603 229.802 84.8603 231.412C84.8603 233.015 85.2326 234.291 85.9773 235.242C86.722 236.185 87.7255 236.657 88.9879 236.657C90.2432 236.657 91.2432 236.185 91.9879 235.242C92.7326 234.291 93.1049 233.015 93.1049 231.412C93.1049 229.802 92.7326 228.522 91.9879 227.571ZM113.782 234.242C113.782 235.688 113.289 236.859 112.303 237.752C111.325 238.639 110.045 239.082 108.463 239.082H102.165V223.731H112.367V226.38H105.378V229.497H108.357C109.967 229.497 111.272 229.933 112.272 230.806C113.279 231.678 113.782 232.823 113.782 234.242ZM105.378 236.518H107.665C108.566 236.518 109.261 236.323 109.75 235.933C110.247 235.543 110.495 234.979 110.495 234.242C110.495 233.504 110.247 232.937 109.75 232.54C109.261 232.142 108.562 231.944 107.655 231.944H105.378V236.518ZM120.991 239.22C120.694 239.22 120.41 239.203 120.14 239.167C119.871 239.132 119.711 239.096 119.662 239.061V236.444C119.874 236.508 120.187 236.54 120.598 236.54C121.087 236.54 121.506 236.454 121.853 236.284C122.201 236.114 122.506 235.827 122.768 235.422L117.672 223.731H121.077L124.428 232.263H124.555L127.747 223.731H131.13L126.428 234.688C125.733 236.305 124.984 237.465 124.183 238.167C123.382 238.869 122.318 239.22 120.991 239.22ZM142.328 239.422C140.094 239.422 138.325 238.706 137.02 237.274C135.715 235.834 135.062 233.876 135.062 231.401C135.062 228.933 135.715 226.983 137.02 225.55C138.332 224.111 140.101 223.391 142.328 223.391C144.116 223.391 145.63 223.905 146.871 224.933C148.119 225.954 148.846 227.281 149.052 228.912H145.892C145.686 228.068 145.261 227.394 144.616 226.891C143.97 226.38 143.208 226.125 142.328 226.125C141.116 226.125 140.147 226.6 139.424 227.55C138.701 228.501 138.339 229.781 138.339 231.391C138.339 233.029 138.697 234.323 139.413 235.274C140.13 236.217 141.105 236.688 142.339 236.688C143.233 236.688 143.991 236.458 144.616 235.997C145.247 235.529 145.676 234.883 145.903 234.061H149.062C148.814 235.706 148.084 237.011 146.871 237.976C145.665 238.94 144.151 239.422 142.328 239.422ZM168.091 239.082H164.878V232.614H157.963V239.082H154.75V223.731H157.963V229.965H164.878V223.731H168.091V239.082ZM174.342 239.082V223.731H177.555V228.88H180.534C182.158 228.88 183.477 229.352 184.491 230.295C185.506 231.231 186.013 232.458 186.013 233.976C186.013 235.501 185.52 236.735 184.534 237.678C183.555 238.614 182.275 239.082 180.693 239.082H174.342ZM177.555 236.518H179.842C180.764 236.518 181.474 236.302 181.97 235.869C182.474 235.43 182.725 234.798 182.725 233.976C182.725 233.153 182.474 232.522 181.97 232.082C181.467 231.635 180.754 231.412 179.832 231.412H177.555V236.518ZM190.906 239.082H187.693V223.731H190.906V239.082ZM207.339 236.422V239.082H197.169V223.731H207.339V226.38H200.381V230.082H206.945V232.55H200.381V236.422H207.339ZM224.406 239.082H221.183V223.731H231.076V226.391H224.406V239.082ZM237.435 225.603C238.768 224.178 240.573 223.465 242.85 223.465C245.126 223.465 246.928 224.178 248.254 225.603C249.587 227.029 250.254 228.965 250.254 231.412C250.254 233.852 249.587 235.784 248.254 237.21C246.92 238.635 245.119 239.348 242.85 239.348C240.573 239.348 238.768 238.635 237.435 237.21C236.108 235.784 235.445 233.852 235.445 231.412C235.445 228.965 236.108 227.029 237.435 225.603ZM245.85 227.571C245.105 226.621 244.105 226.146 242.85 226.146C241.594 226.146 240.591 226.621 239.839 227.571C239.094 228.522 238.722 229.802 238.722 231.412C238.722 233.015 239.094 234.291 239.839 235.242C240.584 236.185 241.587 236.657 242.85 236.657C244.105 236.657 245.105 236.185 245.85 235.242C246.594 234.291 246.967 233.015 246.967 231.412C246.967 229.802 246.594 228.522 245.85 227.571ZM256.027 223.731H262.271C263.853 223.731 265.133 224.213 266.112 225.178C267.098 226.142 267.591 227.412 267.591 228.986C267.591 230.554 267.084 231.823 266.069 232.795C265.055 233.759 263.736 234.242 262.112 234.242H259.24V239.082H256.027V223.731ZM259.24 226.274V231.731H261.41C262.332 231.731 263.048 231.493 263.559 231.018C264.069 230.543 264.325 229.869 264.325 228.997C264.325 228.125 264.069 227.454 263.559 226.986C263.055 226.511 262.342 226.274 261.42 226.274H259.24ZM286.64 239.082H283.427V232.614H276.513V239.082H273.3V223.731H276.513V229.965H283.427V223.731H286.64V239.082ZM294.403 225.603C295.736 224.178 297.541 223.465 299.818 223.465C302.094 223.465 303.896 224.178 305.222 225.603C306.555 227.029 307.222 228.965 307.222 231.412C307.222 233.852 306.555 235.784 305.222 237.21C303.888 238.635 302.087 239.348 299.818 239.348C297.541 239.348 295.736 238.635 294.403 237.21C293.076 235.784 292.413 233.852 292.413 231.412C292.413 228.965 293.076 227.029 294.403 225.603ZM302.818 227.571C302.073 226.621 301.073 226.146 299.818 226.146C298.562 226.146 297.559 226.621 296.807 227.571C296.062 228.522 295.69 229.802 295.69 231.412C295.69 233.015 296.062 234.291 296.807 235.242C297.552 236.185 298.555 236.657 299.818 236.657C301.073 236.657 302.073 236.185 302.818 235.242C303.562 234.291 303.935 233.015 303.935 231.412C303.935 229.802 303.562 228.522 302.818 227.571ZM325.112 239.082H321.899V226.38H317.42L317.048 233.018C316.935 235.075 316.52 236.625 315.803 237.667C315.094 238.703 313.995 239.22 312.506 239.22C312.016 239.22 311.63 239.171 311.346 239.071V236.263C311.608 236.32 311.846 236.348 312.059 236.348C312.747 236.348 313.24 236.061 313.537 235.486C313.842 234.912 314.027 234.018 314.091 232.805L314.548 223.731H325.112V239.082ZM331.374 239.082V223.731H334.587V228.88H337.566C339.19 228.88 340.509 229.352 341.523 230.295C342.537 231.231 343.044 232.458 343.044 233.976C343.044 235.501 342.552 236.735 341.566 237.678C340.587 238.614 339.307 239.082 337.725 239.082H331.374ZM334.587 236.518H336.874C337.796 236.518 338.505 236.302 339.002 235.869C339.505 235.43 339.757 234.798 339.757 233.976C339.757 233.153 339.505 232.522 339.002 232.082C338.498 231.635 337.786 231.412 336.864 231.412H334.587V236.518ZM347.938 239.082H344.725V223.731H347.938V239.082ZM368.254 231.008L374.594 239.082H370.658L365.424 232.337H365.339V239.082H362.211V232.337H362.126L356.86 239.082H353.009L359.286 231.061L353.371 223.731H357.009L362.126 230.231H362.211V223.731H365.339V230.231H365.424L370.551 223.731H374.126L368.254 231.008ZM392.984 239.082H389.771V232.614H382.856V239.082H379.644V223.731H382.856V229.965H389.771V223.731H392.984V239.082ZM399.236 239.082V223.731H402.449V228.88H405.427C407.051 228.88 408.37 229.352 409.385 230.295C410.399 231.231 410.906 232.458 410.906 233.976C410.906 235.501 410.413 236.735 409.427 237.678C408.448 238.614 407.168 239.082 405.587 239.082H399.236ZM402.449 236.518H404.736C405.658 236.518 406.367 236.302 406.863 235.869C407.367 235.43 407.619 234.798 407.619 233.976C407.619 233.153 407.367 232.522 406.863 232.082C406.36 231.635 405.647 231.412 404.725 231.412H402.449V236.518ZM415.799 239.082H412.587V223.731H415.799V239.082ZM432.232 236.422V239.082H422.062V223.731H432.232V226.38H425.275V230.082H431.838V232.55H425.275V236.422H432.232ZM452.959 239.082H449.746V226.38H445.31V223.731H457.406V226.38H452.959V239.082ZM465.009 239.22C464.711 239.22 464.427 239.203 464.158 239.167C463.888 239.132 463.729 239.096 463.679 239.061V236.444C463.892 236.508 464.204 236.54 464.615 236.54C465.105 236.54 465.523 236.454 465.871 236.284C466.218 236.114 466.523 235.827 466.785 235.422L461.69 223.731H465.094L468.445 232.263H468.573L471.764 223.731H475.147L470.445 234.688C469.75 236.305 469.002 237.465 468.2 238.167C467.399 238.869 466.335 239.22 465.009 239.22ZM480.367 223.731H486.612C488.193 223.731 489.473 224.213 490.452 225.178C491.438 226.142 491.931 227.412 491.931 228.986C491.931 230.554 491.424 231.823 490.41 232.795C489.395 233.759 488.076 234.242 486.452 234.242H483.58V239.082H480.367V223.731ZM483.58 226.274V231.731H485.75C486.672 231.731 487.388 231.493 487.899 231.018C488.41 230.543 488.665 229.869 488.665 228.997C488.665 228.125 488.41 227.454 487.899 226.986C487.395 226.511 486.683 226.274 485.761 226.274H483.58ZM497.64 239.082V223.731H500.853V228.88H503.831C505.456 228.88 506.775 229.352 507.789 230.295C508.803 231.231 509.31 232.458 509.31 233.976C509.31 235.501 508.817 236.735 507.831 237.678C506.853 238.614 505.573 239.082 503.991 239.082H497.64ZM500.853 236.518H503.14C504.062 236.518 504.771 236.302 505.268 235.869C505.771 235.43 506.023 234.798 506.023 233.976C506.023 233.153 505.771 232.522 505.268 232.082C504.764 231.635 504.051 231.412 503.129 231.412H500.853V236.518ZM514.204 239.082H510.991V223.731H514.204V239.082Z" fill="#444444"/>
<path fill-rule="evenodd" clip-rule="evenodd" d="M187.483 18.7738C186.331 18.722 185.487 19.1051 185.042 19.8812C184.872 20.1785 184.68 21.1194 184.703 21.5471L184.717 21.8286L183.441 21.8124L182.165 21.7963L180.698 22.216C179.04 22.6899 177.763 23.1154 177.327 23.3394C176.934 23.5408 176.916 23.6961 177.16 24.7777C177.375 25.7337 177.374 25.7445 177.021 27.187L176.848 27.8945L174.275 28.8549C171.568 29.8651 171.138 30.0584 170.366 30.6136C169.006 31.5915 167.681 33.3866 167.063 35.09C166.377 36.978 163.446 38.9029 160.056 39.6922L159.093 39.9163L157.69 43.4607L156.286 47.0049L156.501 48.4865C156.813 50.6344 156.811 50.8007 156.44 53.0359L156.122 54.9531L156.436 55.654L156.751 56.355L156.617 56.8725C156.441 57.5539 156.12 58.077 155.614 58.5067C155.17 58.8841 154.836 59.3785 154.581 60.0373C154.481 60.2973 154.383 60.4451 154.32 60.4338C154.265 60.4239 153.69 60.1997 153.044 59.9355C151.001 59.0999 148.014 57.6349 145.341 56.1571L144.179 55.5151L144.338 54.7936C144.57 53.7423 144.456 53.2488 143.892 52.8609C143.232 52.4075 142.281 52.4487 141.518 52.9636C141.049 53.2802 141.015 53.29 140.678 53.2063C140.485 53.1583 140.333 53.1374 140.34 53.1598C140.347 53.1822 140.411 53.3845 140.483 53.6092C140.596 53.9649 140.597 54.065 140.488 54.381C140.329 54.8441 140.315 55.4188 140.456 55.7095C140.516 55.8342 140.73 56.0611 140.931 56.2136C141.594 56.7162 142.571 56.7717 143.233 56.3444L143.461 56.1977L145.609 57.46C148.132 58.9426 151.182 60.6325 152.777 61.431C153.591 61.8384 153.959 62.0633 154.084 62.229C154.179 62.356 154.372 62.811 154.513 63.2403C155.064 64.9244 155.174 65.0438 156.416 65.3105C157.286 65.4974 157.319 65.5118 158.665 66.2776C160.265 67.1875 160.223 67.1817 161.043 66.6109C161.697 66.1554 162.258 65.5168 162.885 64.5135C163.346 63.7776 163.366 63.7259 163.505 62.945C163.636 62.2136 163.689 61.2097 163.63 60.5926C163.612 60.4024 163.728 60.1468 164.235 59.2562C164.798 58.2671 165.009 57.9799 164.957 58.2729C164.921 58.4725 165.454 60.0867 165.732 60.6225C166.578 62.2517 168.297 64.0222 170.141 65.1646L170.864 65.6123L172.682 66.0212C175.158 66.5782 179.969 67.7048 179.982 67.731C180.032 67.8306 181.788 72.2466 181.903 72.5626L182.052 72.9736L181.813 72.7684C181.134 72.186 178.696 69.5697 178.017 68.6955C177.555 68.1013 177.137 67.6388 176.986 67.5576C176.013 67.0323 174.311 67.607 173.167 68.847C172.457 69.6163 172.256 69.975 172.12 70.7074C172.016 71.2683 172.019 71.384 172.138 71.6483C172.215 71.8176 172.467 72.1123 172.713 72.3206C176.13 75.2099 176.86 75.8603 179.22 78.1159C181.2 80.009 181.548 80.3631 183.848 82.8228C185.238 84.3106 185.486 84.6124 185.599 84.952C185.936 85.9697 186.789 87.1141 188.239 88.4918C189.888 90.0586 190.283 90.3543 191.487 90.9212C192.024 91.174 192.192 91.3028 192.743 91.8859C193.872 93.08 195.791 95.2085 200.978 101.019C209.412 110.467 209.914 111.023 211.9 113.126C213.714 115.045 213.83 115.153 214.096 115.166C214.459 115.184 215.119 114.895 216.124 114.279C217.412 113.489 218.41 112.541 219.158 111.398C219.475 110.914 220.126 109.649 220.084 109.599C220.071 109.584 219.536 109.201 218.895 108.748C217.756 107.944 217.512 107.715 208.018 98.5471C202.677 93.3892 198.048 88.8689 197.731 88.5021L197.156 87.8351L196.944 86.8942C196.828 86.3766 196.662 85.7792 196.574 85.5666C196.312 84.9274 195.761 84.095 194.938 83.096C193.866 81.7953 193.749 81.6119 193.52 80.8737C193.36 80.3602 192.949 78.3178 192.976 78.1683C192.979 78.1495 193.231 78.1004 193.536 78.0592L194.09 77.9842L194.565 78.2397L195.04 78.4952L195.34 79.396C195.704 80.4911 196.055 81.186 196.482 81.6605C197.645 82.9499 198.879 84.972 200.309 87.9328L201.011 89.3855L202.025 90.5128C203.013 91.613 205.513 94.2103 205.784 94.4185C205.858 94.4759 206.329 94.7685 206.829 95.0686L207.739 95.6144L217.702 105.234C223.181 110.524 228.101 115.252 228.636 115.741C230.424 117.373 231.616 118.318 231.968 118.381C232.438 118.464 233.823 117.747 234.617 117.01C235.689 116.013 236.797 114.137 237.149 112.724L237.238 112.364L236.865 112.078C236.5 111.798 235.031 110.878 234.469 110.579C234.117 110.391 227.918 105.634 225.338 103.572C219.971 99.2827 215.91 95.7673 215.364 94.9398C215.274 94.804 215.178 94.5443 215.15 94.3626C215.122 94.181 214.989 93.7938 214.854 93.5023C214.296 92.2927 213.373 91.2442 211.576 89.7802L210.774 89.1261L210.606 88.5249C210.483 88.0844 210.301 87.72 209.927 87.1615L209.415 86.3993L209.512 85.8464C209.566 85.5424 209.624 84.7516 209.642 84.0893C209.669 83.116 209.647 82.8097 209.53 82.4931C209.236 81.6978 208.082 80.1551 206.447 78.3703C205.877 77.749 205.648 77.3878 204.179 74.7958C203.28 73.21 202.355 71.524 202.123 71.0492C201.355 69.4779 200.349 68.3614 199.434 68.0654C199.085 67.9525 199.078 67.9434 198.91 67.4051C198.201 65.1276 196.549 62.3696 194.71 60.3915C194.296 59.9456 194.114 59.6903 194.104 59.5392C194.081 59.2017 193.74 57.9884 193.58 57.6793C193.286 57.1084 193.047 56.9272 192.308 56.7178C191.53 56.4975 190.507 55.9697 190.064 55.56C189.4 54.9455 189.079 54.2077 189.073 53.2815C189.07 52.6588 189.286 51.9586 189.734 51.1403C190.084 50.4998 190.092 50.4582 189.955 49.9531C189.69 48.9761 188.946 47.9367 188.141 47.4188L187.777 47.1852L187.936 46.2836C188.024 45.7878 188.131 44.9028 188.175 44.3171C188.246 43.3587 188.273 43.2111 188.45 42.8429C188.962 41.7756 190.185 41.4509 191.717 41.976C192.017 42.0789 192.674 42.3898 193.176 42.667C194.805 43.5656 196.531 44.253 198.761 44.8911C201.413 45.6499 201.811 45.8279 202.122 46.3957C202.238 46.6074 202.46 46.8456 202.689 47.0041C203.025 47.237 203.115 47.2664 203.535 47.2817C203.794 47.2911 204.375 47.3653 204.828 47.4466C205.963 47.6505 206.185 47.8152 206.596 48.7572C207.12 49.9589 207.709 50.5399 208.557 50.6913C208.925 50.7569 209.125 50.7476 209.426 50.6506C209.808 50.5276 209.824 50.5289 210.151 50.7063C210.51 50.9008 210.555 51.0368 210.451 51.6171C210.412 51.8362 210.431 51.8735 210.593 51.9026C211.994 52.1525 215.661 53.1372 215.639 53.2573C215.619 53.3653 208.312 58.427 208.066 58.5031C207.768 58.5954 207.303 58.5011 206.415 58.168C205.836 57.9509 205.473 57.9424 205.167 58.1387C204.75 58.406 204.728 59.2058 205.113 60.0671L205.253 60.3794L204.928 60.6312C204.557 60.9182 204.602 60.9894 205.128 60.9526C205.456 60.9297 205.51 60.95 205.916 61.2482C206.438 61.6317 207.121 61.8063 207.552 61.6666C208.114 61.4844 208.441 60.9 208.39 60.1706L208.364 59.8046L209.765 58.8143C210.535 58.2696 212.431 56.901 213.977 55.7731L216.789 53.7222L217.229 53.7498C217.471 53.7651 218.261 53.7542 218.985 53.7256L220.301 53.6737L220.678 53.2015C220.886 52.9418 221.346 52.2905 221.701 51.7541L222.346 50.7788L222.261 50.5057C222.036 49.7812 220.833 48.4609 219.505 47.4804C218.813 46.97 218.804 46.9657 218.382 46.9701C218.148 46.9725 217.601 47.0782 217.167 47.2049L216.377 47.4352L215.046 46.3326L213.714 45.2299L213.528 45.5074L213.343 45.7848L213.182 45.4529C212.679 44.4139 210.917 42.7813 208.041 40.6886C204.819 38.3445 205.086 38.4893 199.031 35.8116C196.08 34.5066 193.64 33.4072 193.608 33.3684C193.574 33.3264 193.65 32.9365 193.797 32.4022L194.043 31.5066L193.9 31.2589C193.7 30.9115 193.718 30.5637 193.982 29.6738C194.607 27.572 194.941 25.3482 194.802 24.2239C194.588 22.5007 192.965 20.6907 190.734 19.688C189.597 19.1768 188.293 18.8103 187.483 18.7738ZM172.075 75.6966C172.276 75.9948 175.104 79.9467 178.358 84.4786C182.986 90.9238 184.245 92.7251 184.137 92.7488C184.062 92.7655 180.336 92.6821 175.857 92.5635L167.713 92.3477L154.515 95.8002L141.317 99.2526L130.501 97.1429C124.553 95.9825 119.344 94.9705 118.928 94.8939L118.17 94.7547L102.712 102.516L87.2545 110.278L82.0376 122.161C79.1683 128.697 76.7816 134.129 76.7338 134.234C76.6859 134.338 71.7521 138.417 65.7697 143.299L55.4261 151.729L56.0344 151.725L65.1427 151.725L74.251 151.725L80.3232 151.725C80.3232 151.725 83.8391 149.33 93.9935 141.541L112.456 127.379L130.673 120.427L148.89 113.475L169.904 104.807C181.462 100.04 190.916 96.1142 190.913 96.0833C190.91 96.0524 189.198 93.4231 187.109 90.2403L183.31 84.4533L177.578 79.8523C174.425 77.3216 171.814 75.2294 171.777 75.2028C171.739 75.1762 171.873 75.3984 172.075 75.6966Z" fill="#D93636"/>
<path fill-rule="evenodd" clip-rule="evenodd" d="M330.835 12.4799C332.737 13.0558 334.025 14.0137 334.51 15.2117C334.755 15.8157 334.779 16.1811 334.701 18.1393C334.616 20.3043 334.623 20.3769 334.915 20.3842C335.169 20.3904 335.216 20.4882 335.203 20.986C335.195 21.3129 335.047 21.8971 334.874 22.2843C334.277 23.6226 333.501 24.2941 332.577 24.2729C332.085 24.2616 331.993 24.3231 331.714 24.852C331.542 25.1774 331.132 25.6553 330.803 25.9139L330.204 26.384L330.249 27.9958L330.294 29.6076L328.05 30.8355L325.806 32.0632L325.708 33.0178C325.578 34.2743 324.994 35.4052 323.965 36.3933C323.024 37.2958 322.06 38.7761 322.045 39.3395C322.039 39.5532 321.76 40.4796 321.425 41.3984L320.815 43.069L321.328 43.3699C322.029 43.7803 322.615 44.7063 322.718 45.5651C322.783 46.1045 323.005 46.5623 323.639 47.4646C324.349 48.4758 324.512 48.8383 324.73 49.8926C324.924 50.8359 325.1 51.2686 325.463 51.7037C325.726 52.0179 326.252 52.7476 326.632 53.3251C327.259 54.2776 327.314 54.4329 327.225 55.0004C327.145 55.5185 327.213 55.8062 327.624 56.6752C328.15 57.7884 328.165 58.4787 327.662 58.4681C327.521 58.4652 327.288 58.6644 327.143 58.9108C326.919 59.2934 326.793 59.3567 326.279 59.3439C325.88 59.334 325.646 59.4051 325.586 59.5545C325.455 59.882 325.073 59.8203 324.577 59.3917C324.269 59.1256 324.072 59.0539 323.897 59.1445C323.415 59.3946 322.949 58.7502 322.486 57.1898C322.122 55.9646 321.976 55.6751 321.576 55.391C321.314 55.2048 320.9 54.6565 320.656 54.1725C320.311 53.4873 320.102 53.2515 319.708 53.1069C319.43 53.0048 319.074 52.7441 318.916 52.5275C318.721 52.2591 318.535 52.1567 318.331 52.206C318.103 52.2612 317.845 52.0474 317.241 51.3033C316.714 50.6548 316.217 50.219 315.757 50.0018C315.125 49.7032 314.995 49.6906 314.25 49.8546C313.266 50.0714 311.846 50.7075 310.197 51.6705C308.68 52.5564 307.484 52.9445 307.091 52.678C306.783 52.4697 306.749 52.6067 306.515 54.9782C306.449 55.6423 306.335 56.257 306.261 56.3443C306.186 56.4316 306.057 56.7834 305.973 57.126L305.821 57.749L307.083 58.2479C308.204 58.6916 311.767 59.3541 339.154 64.2126L369.964 69.6781L395.843 77.4659C410.075 81.7491 421.869 85.3064 422.051 85.3708C422.274 85.4501 420.689 85.8032 417.133 86.466L411.885 87.4441L406.039 85.9042L400.194 84.3645L396.522 86.1311L392.851 87.8977L387.963 85.463L383.075 83.0284L374.62 82.2269L366.164 81.4254L354.366 75.51L342.568 69.5947L324.109 64.8956C313.956 62.3111 305.55 60.2126 305.427 60.2322C305.263 60.2587 304.94 61.36 304.197 64.4302C303.642 66.7196 303.059 68.8565 302.9 69.1791C301.985 71.0418 299.754 72.0921 296.439 72.2205L294.91 72.2798L293.224 73.8025C291.687 75.1898 291.436 75.3577 290.395 75.691C288.907 76.1675 288.791 76.3076 289.178 77.1577C289.343 77.5202 289.489 78.0676 289.503 78.3739L289.528 78.9307L291.752 78.9861C294.256 79.0484 295.147 79.26 296.195 80.041C296.93 80.5885 297.288 81.3586 297.124 82.0407C296.949 82.7715 295.845 83.739 294.889 83.9991L294.069 84.222L290.009 83.1214C286.334 82.1251 285.872 81.9641 285.13 81.423C283.549 80.2685 282.186 79.4887 280.356 78.6901C279.34 78.2467 278.272 77.7509 277.983 77.5884C277.327 77.2201 274.507 74.1378 274.515 73.7985C274.52 73.6144 274.657 73.5522 275.038 73.5617C276.097 73.5879 276.412 72.6654 276.016 70.701C275.803 69.6456 275.927 69.1712 276.489 68.8934C276.732 68.7731 277.24 68.4334 277.617 68.1385C278.802 67.2116 280.486 66.2166 281.956 65.5755C283.561 64.8757 287.278 63.7018 288.964 63.3621C289.914 63.1708 290.128 63.0695 290.349 62.7071C290.688 62.1492 291.599 61.4508 292.437 61.1061C293.409 60.7062 293.683 60.0802 293.593 58.4708C293.555 57.7958 293.478 57.2019 293.422 57.151C293.366 57.1 288.927 55.9467 283.558 54.5883L273.797 52.1182L268.718 49.7563C265.924 48.4572 263.691 47.3786 263.755 47.3594C263.819 47.3403 267.968 46.9471 272.976 46.4855C277.984 46.0241 282.352 45.6131 282.684 45.5724L283.287 45.4982L286.557 48.5265L289.827 51.5548L291.391 52.153C292.252 52.4821 292.989 52.7194 293.028 52.6805C293.068 52.6417 292.894 50.8493 292.642 48.6975C292.39 46.5458 292.187 44.6275 292.192 44.4346C292.212 43.6573 293.404 41.5813 295.122 39.3348L295.942 38.2622L295.587 37.6761C295.077 36.8331 294.906 35.7752 295.126 34.8114C295.496 33.1897 297.22 31.0461 299.426 29.4649C300.33 28.8172 300.419 28.7045 300.518 28.0798C300.92 25.5471 304.51 22.3479 310.884 18.843C311.831 18.3221 313.24 17.5887 314.016 17.2133C315.238 16.6215 315.505 16.5454 316.024 16.6408C317.211 16.8591 318.039 17.2639 318.701 17.949C319.064 18.3238 319.37 18.6139 319.383 18.5939C319.396 18.5739 319.548 18.356 319.721 18.1097C320.159 17.4885 320.493 16.4893 320.703 15.1802C320.801 14.5686 320.969 14.0136 321.078 13.9469C321.364 13.77 322.739 13.8291 322.921 14.0263C323.033 14.1472 323.572 14.1584 324.833 14.0661C327.153 13.8962 327.235 13.8763 327.35 13.4521C327.487 12.9463 327.999 12.5268 328.696 12.3499C329.459 12.1565 329.844 12.1799 330.835 12.4799ZM234.12 15.5326C234.599 15.9065 234.869 16.5827 234.85 17.363C234.835 17.9698 234.876 18.0628 235.199 18.1548C235.485 18.2361 235.563 18.3565 235.555 18.698C235.547 19.0077 235.617 19.1386 235.792 19.1429C235.928 19.1463 236.499 19.3136 237.059 19.5147C237.898 19.8155 238.17 20.001 238.595 20.5593C238.879 20.9327 239.629 21.84 240.263 22.5757C240.897 23.3114 241.617 24.194 241.863 24.537C243.083 26.2329 243.36 27.6438 242.617 28.3707C242.266 28.7141 242.146 28.7414 241.391 28.651C240.931 28.5959 240.401 28.4971 240.213 28.4314C239.96 28.3432 240.491 29.2286 242.26 31.8467C249.236 42.1725 248.786 41.4576 248.583 41.8864C248.481 42.1032 248.347 42.2147 248.283 42.1371C247.943 41.7246 243.461 34.7232 241.577 31.6609C240.106 29.2707 239.374 28.206 239.332 28.3949C239.297 28.549 239.568 29.3362 239.933 30.144C240.494 31.3816 240.574 31.6743 240.444 32.0021C240.324 32.3063 240.384 32.7373 240.718 33.9781L241.146 35.5652L242.293 36.4319C243.884 37.6341 245.886 39.8467 246.957 41.5861C247.991 43.2663 248.364 44.2321 248.341 45.1731C248.331 45.5535 248.41 45.9124 248.525 46.0158C248.635 46.1148 248.792 46.4987 248.873 46.8691C249.01 47.4948 249.065 47.5539 249.644 47.7025C250.157 47.8338 249.92 47.8567 248.321 47.8305C247.251 47.8129 246.21 47.7294 246.009 47.6449C245.517 47.4385 245.261 46.9167 245.509 46.6249C245.723 46.373 245.754 46.412 244.975 45.9454C244.576 45.7064 244.289 45.3858 244.133 45.0046C243.899 44.4337 242.779 43.1062 242.772 43.3918C242.77 43.4728 242.928 43.7944 243.123 44.1062C243.319 44.4182 243.539 45.0032 243.613 45.4062C243.786 46.3496 243.857 46.4621 244.466 46.7518L244.972 46.9927L244.502 46.987C243.778 46.9782 243.268 47.2158 243.259 47.5657C243.252 47.8613 243.163 47.8708 240.908 47.8149C238.942 47.7662 238.533 47.717 238.375 47.51C238.217 47.3041 238.223 47.1968 238.414 46.8656C238.712 46.3478 239.373 46.2939 240.245 46.7165C240.607 46.8922 240.933 46.9891 240.97 46.9317C241.116 46.7009 240.599 46.0857 238.187 43.6213C235.196 40.5649 235.26 40.644 235.043 39.7819C234.923 39.3045 234.575 38.7534 233.873 37.9308C233.323 37.2866 232.65 36.3958 232.378 35.9512C232.092 35.4828 231.737 35.1013 231.536 35.0441C230.902 34.8636 230.346 32.5164 230.297 29.8193C230.268 28.232 230.224 27.9301 230.002 27.8007C229.798 27.6814 229.673 27.7334 229.426 28.0403C229.252 28.2558 229.107 28.5563 229.103 28.7079C229.099 28.8597 228.771 29.3036 228.373 29.6942C227.975 30.0851 227.512 30.6646 227.344 30.9818C226.641 32.3089 226.534 32.4742 226.229 32.7031C225.946 32.9159 225.842 33.3823 225.311 36.8481C224.839 39.9261 224.656 40.8058 224.445 41.0021C224.191 41.2386 224.182 41.2206 224.265 40.6458C224.313 40.313 224.58 38.4616 224.858 36.5318L225.364 33.0228L225.04 32.3109C224.741 31.6548 224.73 31.517 224.894 30.5509C225.021 29.7987 225.182 29.3741 225.464 29.0469C225.68 28.7961 225.904 28.4094 225.961 28.1876C226.116 27.5919 226.557 26.7917 227.147 26.0368C227.435 25.6694 227.761 25.1033 227.872 24.7793C228.2 23.8197 228.637 23.0753 229.257 22.4168C229.578 22.0763 229.985 21.4345 230.162 20.9907C230.339 20.5468 230.625 20.0362 230.798 19.856C231.059 19.5841 231.089 19.4578 230.971 19.1138C230.863 18.799 230.886 18.5938 231.063 18.261C231.222 17.9644 231.293 17.4809 231.285 16.7648C231.276 16.0592 231.336 15.6434 231.466 15.5163C231.777 15.2111 233.723 15.223 234.12 15.5326ZM261.348 46.3113C262.372 46.8016 263.208 47.2458 263.207 47.2982C263.206 47.3505 261.556 47.5395 259.541 47.7181C255.973 48.0345 251.89 48.0861 252.197 47.8108C252.399 47.6306 259.02 45.3756 259.277 45.3997C259.392 45.4106 260.325 45.8209 261.348 46.3113ZM307.054 88.5202C312.801 90.2564 317.451 91.7206 317.387 91.7743C317.324 91.8279 315.758 92.4487 313.906 93.1536L310.54 94.4355L303.642 90.1063C299.848 87.7252 296.58 85.6763 296.38 85.5532C296.063 85.3583 296.055 85.3316 296.312 85.3465C296.474 85.356 301.308 86.7841 307.054 88.5202ZM330.093 90.1274C334.64 90.8207 341.826 92.1805 363.099 96.3736L390.293 101.734L434.707 127.477L477.443 151.726L473.193 151.722C473.193 151.722 467.698 151.69 467.727 151.721L465.299 151.722L464.083 151.725L462.869 151.726L461.654 151.725L460.44 151.725L459.225 151.725L458.011 151.725L456.797 151.725L455.582 151.722L454.368 151.722L452.546 151.725L450.725 151.726L448.297 151.726L447.689 151.726L447.082 151.726L446.475 151.726L445.868 151.726L445.26 151.726L444.653 151.726C444.653 151.726 446.453 151.726 443.439 151.726C440.424 151.726 456.19 151.726 442.224 151.726C428.258 151.726 441.01 151.726 441.01 151.726L439.795 151.726L438.581 151.726L437.974 151.726L414.973 137.591C396.028 125.4 380.304 115.296 380.03 115.137C379.618 114.9 328.752 95.7106 320.302 92.6051L317.76 91.6709L320.984 90.4377C322.757 89.7594 324.224 89.2127 324.244 89.2227C324.264 89.2329 326.896 89.6401 330.093 90.1274Z" fill="#0F94CD"/>
<path d="M26.2894 206.551H37.1151C38.5049 206.551 40.041 206.624 41.5039 206.697C43.04 206.77 44.4298 206.843 45.4538 206.843C53.2805 206.843 63.8137 204.503 63.8137 194.847C63.8137 185.923 57.0842 184.022 49.6232 182.412V182.266C54.5972 180.949 61.3267 179.121 61.3267 171.001C61.3267 164.491 55.4018 160.176 43.2594 160.176C40.2604 160.176 38.7243 160.322 36.1642 160.322C33.2383 160.322 30.0199 160.176 26.8014 160.176V161.639C31.6291 161.639 32.5069 162.663 32.5069 168.222C32.5069 173.927 32.068 190.897 32.068 198.505C32.068 204.064 31.1902 205.088 26.2894 205.088V206.551ZM38.3586 187.386C38.3586 183.729 38.7975 183.071 42.9668 183.071C52.1102 183.071 57.5231 186.289 57.5231 194.628C57.5231 201.577 53.4268 205.38 44.7955 205.38C39.0901 205.38 38.3586 205.161 38.3586 202.089V187.386ZM38.3586 166.466C38.3586 163.102 39.6752 161.639 43.552 161.639C51.3787 161.639 55.0361 164.711 55.0361 172.099C55.0361 178.024 51.6713 181.315 43.2594 181.315C39.0169 181.315 38.3586 181.096 38.3586 178.462V166.466ZM69.6163 161.639C74.8828 161.639 75.7606 162.663 75.7606 168.222V191.19C75.7606 202.016 82.4901 207.136 94.5593 207.136C109.481 207.136 112.261 198.505 112.48 190.02L113.065 172.903C113.358 163.687 114.236 162.224 119.356 161.639V160.176H103.63V161.639C108.165 161.639 110.798 163.028 110.578 168.222L109.847 188.703C109.481 198.505 106.482 204.21 96.2417 204.21C87.0252 204.21 81.6124 198.87 81.6124 191.336V168.222C81.6124 162.663 82.4901 161.639 89.4391 161.639V160.176H69.6163V161.639ZM151.922 161.785C148.484 160.029 144.68 159.591 141.023 159.591C130.124 159.591 125.735 165.808 125.735 171.733C125.735 187.094 149.801 183.144 149.801 196.31C149.801 202.747 144.241 205.673 139.267 205.673C130.344 205.673 126.832 196.091 125.735 193.092H124.638C124.858 195.506 125.077 203.552 126.54 204.868C128.076 206.258 135.464 207.136 138.682 207.136C149.874 207.136 155.213 199.309 155.213 193.384C155.213 178.901 131.148 181.169 131.148 168.953C131.148 163.614 136.268 161.053 139.853 161.053C144.827 161.053 148.557 164.857 150.751 171.513H151.922V161.785Z" fill="#D93636"/>
<path d="M204.71 161.785C201.272 160.029 197.469 159.591 193.812 159.591C182.913 159.591 178.524 165.808 178.524 171.733C178.524 187.094 202.589 183.144 202.589 196.31C202.589 202.747 197.03 205.673 192.056 205.673C183.132 205.673 179.621 196.091 178.524 193.092H177.427C177.646 195.506 177.866 203.552 179.328 204.868C180.865 206.258 188.252 207.136 191.471 207.136C202.662 207.136 208.002 199.309 208.002 193.384C208.002 178.901 183.937 181.169 183.937 168.953C183.937 163.614 189.057 161.053 192.641 161.053C197.615 161.053 201.346 164.857 203.54 171.513H204.71V161.785ZM239.455 160.468V161.931C242.235 161.858 244.21 162.663 244.21 164.418C244.21 166.613 241.723 169.685 237.334 173.854L226.069 184.607V168.222C226.069 162.663 226.947 161.639 231.775 161.639V160.176H214.073V161.639C218.901 161.639 219.779 162.663 219.779 168.222V198.505C219.779 204.064 218.901 205.088 214.073 205.088V206.551H231.628V205.088C226.947 205.088 226.069 204.064 226.069 198.505V186.874L229.361 183.875L241.503 195.871C245.087 199.456 246.989 202.089 246.989 203.113C246.989 204.356 245.38 205.088 242.527 205.088V206.551H263.52V205.088C260.887 205.015 258.108 204.21 254.596 200.699L233.53 179.998L248.598 164.711C251.159 162.151 253.353 161.346 256.571 161.346V160.176L239.455 160.468ZM280.286 168.222C280.286 162.663 281.164 161.639 286.87 161.639V160.176H268.29V161.639C273.118 161.639 273.996 162.663 273.996 168.222V198.505C273.996 204.064 273.118 205.088 268.29 205.088V206.551H285.846V205.088C281.164 205.088 280.286 204.064 280.286 198.505V168.222ZM355.133 158.566C353.012 160.468 352.354 160.907 347.819 160.907H320.315C317.024 160.907 315.268 160.103 313.879 158.566H312.342L309.197 170.928H310.806C313.147 166.174 316.439 163.394 324.119 163.394C329.825 163.394 329.971 163.54 329.971 169.539C329.971 176.414 329.313 194.408 329.313 198.505C329.313 204.064 328.435 205.088 321.632 205.088V206.551H342.625V205.088C336.554 204.795 335.164 203.625 335.164 198.505C335.164 194.408 335.823 176.414 335.823 169.539C335.823 163.321 336.481 163.102 342.552 163.102C350.159 163.102 353.378 164.272 355.133 170.928H356.157V158.566H355.133ZM385.716 159.591C371.233 159.591 361.505 169.539 361.505 183.363C361.505 197.188 371.233 207.136 385.716 207.136C400.199 207.136 409.928 197.188 409.928 183.363C409.928 169.539 400.199 159.591 385.716 159.591ZM385.716 161.053C397.712 161.053 403.198 169.539 403.198 183.363C403.198 197.188 397.712 205.673 385.716 205.673C373.72 205.673 368.234 197.188 368.234 183.363C368.234 169.539 373.72 161.053 385.716 161.053ZM415.063 161.639C420.33 161.639 421.208 162.663 421.208 168.222V191.19C421.208 202.016 427.937 207.136 440.006 207.136C454.928 207.136 457.708 198.505 457.927 190.02L458.513 172.903C458.805 163.687 459.683 162.224 464.803 161.639V160.176H449.077V161.639C453.612 161.639 456.245 163.028 456.026 168.222L455.294 188.703C454.928 198.505 451.929 204.21 441.689 204.21C432.472 204.21 427.059 198.87 427.059 191.336V168.222C427.059 162.663 427.937 161.639 434.886 161.639V160.176H415.063V161.639ZM482.593 165.735C482.593 162.809 483.325 161.931 487.421 161.931C493.053 161.931 498.393 165.296 498.393 172.025C498.393 180.364 493.712 182.559 482.593 182.559V165.735ZM470.158 206.551H488.957V205.088C483.471 205.088 482.593 204.064 482.593 198.505V184.314H488.957L501.538 203.844C503.148 206.331 503.879 206.551 504.537 206.551H512.657V205.088C510.096 205.088 508.268 203.917 506.366 201.065L494.297 183.217C496.418 182.705 505.123 180.437 505.123 172.172C505.123 163.76 497.15 160.176 485.373 160.176H471.182V161.639C475.644 161.639 476.522 162.663 476.522 168.222C476.595 178.462 476.303 187.679 476.303 198.505C476.303 204.064 475.425 205.088 470.158 205.088V206.551Z" fill="#0F94CD"/>
</svg>
