<svg width="93" height="47" viewBox="0 0 93 47" fill="none" xmlns="http://www.w3.org/2000/svg">
<path d="M2.47818 45L2.256 44.2931H1.23194L1.00976 45H0.383615L1.39555 42.0854H2.11259L3.12654 45H2.47818ZM1.7369 42.6429L1.36323 43.8366H2.12471L1.75104 42.6429H1.7369ZM5.4184 45H4.12773V42.0854H5.39618C5.66953 42.0854 5.88633 42.1507 6.04657 42.2813C6.20681 42.4119 6.28693 42.589 6.28693 42.8125C6.28693 42.9714 6.23441 43.1108 6.12938 43.2306C6.02569 43.3505 5.89575 43.4218 5.73955 43.4447V43.4609C5.93884 43.4757 6.10312 43.5491 6.23239 43.6811C6.36166 43.813 6.42629 43.9746 6.42629 44.1658C6.42629 44.423 6.33607 44.6263 6.15564 44.7758C5.9752 44.9253 5.72945 45 5.4184 45ZM4.73772 42.5398V43.2973H5.17602C5.33895 43.2973 5.46486 43.2636 5.55373 43.1963C5.6426 43.1276 5.68704 43.0313 5.68704 42.9075C5.68704 42.7903 5.64799 42.7001 5.56989 42.6368C5.49179 42.5722 5.38137 42.5398 5.23863 42.5398H4.73772ZM4.73772 44.5455H5.26287C5.43927 44.5455 5.57325 44.5092 5.66482 44.4365C5.75773 44.3624 5.80419 44.256 5.80419 44.1173C5.80419 43.9813 5.75638 43.8776 5.66078 43.8063C5.56652 43.7349 5.42917 43.6992 5.24873 43.6992H4.73772V44.5455ZM8.66968 45H8.05969V42.5883H7.21742V42.0854H9.51396V42.5883H8.66968V45ZM10.6666 42.4409C10.9198 42.1702 11.2625 42.0349 11.6947 42.0349C12.127 42.0349 12.469 42.1702 12.7208 42.4409C12.974 42.7115 13.1005 43.0791 13.1005 43.5437C13.1005 44.0069 12.974 44.3739 12.7208 44.6445C12.4677 44.9152 12.1256 45.0505 11.6947 45.0505C11.2625 45.0505 10.9198 44.9152 10.6666 44.6445C10.4148 44.3739 10.2889 44.0069 10.2889 43.5437C10.2889 43.0791 10.4148 42.7115 10.6666 42.4409ZM12.2643 42.8145C12.1229 42.6341 11.9331 42.5439 11.6947 42.5439C11.4564 42.5439 11.2659 42.6341 11.1231 42.8145C10.9817 42.995 10.911 43.238 10.911 43.5437C10.911 43.848 10.9817 44.0904 11.1231 44.2708C11.2645 44.4499 11.455 44.5395 11.6947 44.5395C11.9331 44.5395 12.1229 44.4499 12.2643 44.2708C12.4057 44.0904 12.4764 43.848 12.4764 43.5437C12.4764 43.238 12.4057 42.995 12.2643 42.8145ZM16.4023 44.081C16.4023 44.3557 16.3087 44.5779 16.1215 44.7475C15.9357 44.9158 15.6927 45 15.3924 45H14.1967V42.0854H16.1337V42.5883H14.8066V43.1801H15.3722C15.6779 43.1801 15.9256 43.2629 16.1155 43.4286C16.3067 43.5942 16.4023 43.8117 16.4023 44.081ZM14.8066 44.5132H15.2409C15.4119 44.5132 15.5439 44.4762 15.6368 44.4021C15.731 44.3281 15.7782 44.221 15.7782 44.081C15.7782 43.9409 15.731 43.8332 15.6368 43.7578C15.5439 43.6824 15.4112 43.6447 15.2389 43.6447H14.8066V44.5132ZM17.7711 45.0263C17.7145 45.0263 17.6607 45.0229 17.6095 45.0162C17.5583 45.0094 17.528 45.0027 17.5186 44.996V44.4991C17.559 44.5112 17.6183 44.5173 17.6964 44.5173C17.7893 44.5173 17.8687 44.5011 17.9347 44.4688C18.0007 44.4365 18.0586 44.3819 18.1084 44.3052L17.1409 42.0854H17.7873L18.4235 43.7053H18.4477L19.0537 42.0854H19.696L18.8032 44.1658C18.6713 44.4728 18.5292 44.693 18.377 44.8263C18.2249 44.9596 18.0229 45.0263 17.7711 45.0263ZM21.8222 45.0646C21.3981 45.0646 21.0621 44.9286 20.8143 44.6566C20.5666 44.3833 20.4427 44.0116 20.4427 43.5417C20.4427 43.0731 20.5666 42.7028 20.8143 42.4308C21.0634 42.1574 21.3994 42.0208 21.8222 42.0208C22.1616 42.0208 22.449 42.1184 22.6847 42.3136C22.9217 42.5075 23.0597 42.7593 23.0988 43.069H22.4989C22.4598 42.9088 22.379 42.7809 22.2565 42.6853C22.134 42.5883 21.9892 42.5398 21.8222 42.5398C21.592 42.5398 21.4082 42.6301 21.2708 42.8105C21.1335 42.9909 21.0648 43.234 21.0648 43.5397C21.0648 43.8507 21.1328 44.0965 21.2688 44.2769C21.4048 44.456 21.5899 44.5455 21.8242 44.5455C21.9939 44.5455 22.138 44.5018 22.2565 44.4142C22.3763 44.3254 22.4578 44.2028 22.5009 44.0466H23.1008C23.0536 44.359 22.915 44.6068 22.6847 44.7899C22.4558 44.9731 22.1683 45.0646 21.8222 45.0646ZM26.7136 45H26.1036V43.7719H24.7907V45H24.1807V42.0854H24.7907V43.269H26.1036V42.0854H26.7136V45ZM27.9006 45V42.0854H28.5106V43.063H29.0762C29.3845 43.063 29.635 43.1525 29.8275 43.3316C30.0201 43.5094 30.1164 43.7423 30.1164 44.0305C30.1164 44.32 30.0228 44.5543 29.8356 44.7334C29.6498 44.9111 29.4067 45 29.1065 45H27.9006ZM28.5106 44.5132H28.9449C29.1199 44.5132 29.2546 44.4722 29.3488 44.39C29.4444 44.3065 29.4922 44.1867 29.4922 44.0305C29.4922 43.8743 29.4444 43.7544 29.3488 43.671C29.2532 43.5861 29.1179 43.5437 28.9428 43.5437H28.5106V44.5132ZM31.0455 45H30.4355V42.0854H31.0455V45ZM34.1655 44.495V45H32.2345V42.0854H34.1655V42.5883H32.8445V43.2912H34.0907V43.7598H32.8445V44.495H34.1655ZM37.406 45H36.794V42.0854H38.6724V42.5903H37.406V45ZM39.8797 42.4409C40.1328 42.1702 40.4755 42.0349 40.9077 42.0349C41.34 42.0349 41.682 42.1702 41.9338 42.4409C42.187 42.7115 42.3135 43.0791 42.3135 43.5437C42.3135 44.0069 42.187 44.3739 41.9338 44.6445C41.6807 44.9152 41.3386 45.0505 40.9077 45.0505C40.4755 45.0505 40.1328 44.9152 39.8797 44.6445C39.6278 44.3739 39.5019 44.0069 39.5019 43.5437C39.5019 43.0791 39.6278 42.7115 39.8797 42.4409ZM41.4773 42.8145C41.3359 42.6341 41.1461 42.5439 40.9077 42.5439C40.6694 42.5439 40.4789 42.6341 40.3361 42.8145C40.1947 42.995 40.124 43.238 40.124 43.5437C40.124 43.848 40.1947 44.0904 40.3361 44.2708C40.4775 44.4499 40.6681 44.5395 40.9077 44.5395C41.1461 44.5395 41.3359 44.4499 41.4773 44.2708C41.6187 44.0904 41.6894 43.848 41.6894 43.5437C41.6894 43.238 41.6187 42.995 41.4773 42.8145ZM43.4097 42.0854H44.5953C44.8956 42.0854 45.1386 42.177 45.3245 42.3601C45.5116 42.5432 45.6052 42.7842 45.6052 43.0832C45.6052 43.3808 45.5089 43.6218 45.3164 43.8063C45.1238 43.9894 44.8734 44.081 44.565 44.081H44.0196V45H43.4097V42.0854ZM44.0196 42.5681V43.6043H44.4317C44.6067 43.6043 44.7427 43.5592 44.8397 43.469C44.9367 43.3788 44.9851 43.2508 44.9851 43.0852C44.9851 42.9196 44.9367 42.7923 44.8397 42.7035C44.7441 42.6132 44.6088 42.5681 44.4337 42.5681H44.0196ZM49.2221 45H48.6121V43.7719H47.2992V45H46.6892V42.0854H47.2992V43.269H48.6121V42.0854H49.2221V45ZM50.6959 42.4409C50.9491 42.1702 51.2918 42.0349 51.724 42.0349C52.1562 42.0349 52.4983 42.1702 52.7501 42.4409C53.0032 42.7115 53.1298 43.0791 53.1298 43.5437C53.1298 44.0069 53.0032 44.3739 52.7501 44.6445C52.4969 44.9152 52.1549 45.0505 51.724 45.0505C51.2918 45.0505 50.9491 44.9152 50.6959 44.6445C50.4441 44.3739 50.3182 44.0069 50.3182 43.5437C50.3182 43.0791 50.4441 42.7115 50.6959 42.4409ZM52.2936 42.8145C52.1522 42.6341 51.9623 42.5439 51.724 42.5439C51.4857 42.5439 51.2951 42.6341 51.1524 42.8145C51.011 42.995 50.9403 43.238 50.9403 43.5437C50.9403 43.848 51.011 44.0904 51.1524 44.2708C51.2938 44.4499 51.4843 44.5395 51.724 44.5395C51.9623 44.5395 52.1522 44.4499 52.2936 44.2708C52.435 44.0904 52.5057 43.848 52.5057 43.5437C52.5057 43.238 52.435 42.995 52.2936 42.8145ZM56.5265 45H55.9165V42.5883H55.0662L54.9955 43.8487C54.9739 44.2392 54.8952 44.5334 54.7592 44.7314C54.6245 44.928 54.4158 45.0263 54.133 45.0263C54.0401 45.0263 53.9667 45.0168 53.9128 44.998V44.4647C53.9627 44.4755 54.0078 44.4809 54.0482 44.4809C54.1788 44.4809 54.2724 44.4264 54.3289 44.3173C54.3868 44.2082 54.4218 44.0386 54.434 43.8083L54.5208 42.0854H56.5265V45ZM57.7155 45V42.0854H58.3255V43.063H58.8911C59.1994 43.063 59.4499 43.1525 59.6425 43.3316C59.835 43.5094 59.9313 43.7423 59.9313 44.0305C59.9313 44.32 59.8377 44.5543 59.6505 44.7334C59.4647 44.9111 59.2217 45 58.9214 45H57.7155ZM58.3255 44.5132H58.7598C58.9348 44.5132 59.0695 44.4722 59.1638 44.39C59.2594 44.3065 59.3072 44.1867 59.3072 44.0305C59.3072 43.8743 59.2594 43.7544 59.1638 43.671C59.0681 43.5861 58.9328 43.5437 58.7578 43.5437H58.3255V44.5132ZM60.8604 45H60.2504V42.0854H60.8604V45ZM64.7176 43.467L65.9214 45H65.1741L64.1804 43.7194H64.1642V45H63.5704V43.7194H63.5542L62.5544 45H61.8232L63.0149 43.477L61.8919 42.0854H62.5827L63.5542 43.3195H63.5704V42.0854H64.1642V43.3195H64.1804L65.1539 42.0854H65.8326L64.7176 43.467ZM69.4131 45H68.8031V43.7719H67.4902V45H66.8802V42.0854H67.4902V43.269H68.8031V42.0854H69.4131V45ZM70.6001 45V42.0854H71.2101V43.063H71.7756C72.084 43.063 72.3345 43.1525 72.527 43.3316C72.7196 43.5094 72.8158 43.7423 72.8158 44.0305C72.8158 44.32 72.7223 44.5543 72.5351 44.7334C72.3493 44.9111 72.1062 45 71.8059 45H70.6001ZM71.2101 44.5132H71.6443C71.8194 44.5132 71.9541 44.4722 72.0483 44.39C72.1439 44.3065 72.1917 44.1867 72.1917 44.0305C72.1917 43.8743 72.1439 43.7544 72.0483 43.671C71.9527 43.5861 71.8174 43.5437 71.6423 43.5437H71.2101V44.5132ZM73.745 45H73.135V42.0854H73.745V45ZM76.865 44.495V45H74.934V42.0854H76.865V42.5883H75.544V43.2912H76.7902V43.7598H75.544V44.495H76.865ZM80.8003 45H80.1903V42.5883H79.3481V42.0854H81.6446V42.5883H80.8003V45ZM83.0881 45.0263C83.0316 45.0263 82.9777 45.0229 82.9265 45.0162C82.8754 45.0094 82.8451 45.0027 82.8356 44.996V44.4991C82.876 44.5112 82.9353 44.5173 83.0134 44.5173C83.1063 44.5173 83.1858 44.5011 83.2517 44.4688C83.3177 44.4365 83.3756 44.3819 83.4254 44.3052L82.4579 42.0854H83.1043L83.7405 43.7053H83.7648L84.3707 42.0854H85.013L84.1203 44.1658C83.9883 44.4728 83.8462 44.693 83.6941 44.8263C83.5419 44.9596 83.3399 45.0263 83.0881 45.0263ZM86.0041 42.0854H87.1897C87.49 42.0854 87.7331 42.177 87.9189 42.3601C88.1061 42.5432 88.1997 42.7842 88.1997 43.0832C88.1997 43.3808 88.1034 43.6218 87.9108 43.8063C87.7183 43.9894 87.4678 44.081 87.1595 44.081H86.6141V45H86.0041V42.0854ZM86.6141 42.5681V43.6043H87.0261C87.2012 43.6043 87.3372 43.5592 87.4341 43.469C87.5311 43.3788 87.5796 43.2508 87.5796 43.0852C87.5796 42.9196 87.5311 42.7923 87.4341 42.7035C87.3385 42.6132 87.2032 42.5681 87.0282 42.5681H86.6141ZM89.2837 45V42.0854H89.8937V43.063H90.4592C90.7676 43.063 91.018 43.1525 91.2106 43.3316C91.4031 43.5094 91.4994 43.7423 91.4994 44.0305C91.4994 44.32 91.4058 44.5543 91.2187 44.7334C91.0328 44.9111 90.7898 45 90.4895 45H89.2837ZM89.8937 44.5132H90.3279C90.503 44.5132 90.6376 44.4722 90.7319 44.39C90.8275 44.3065 90.8753 44.1867 90.8753 44.0305C90.8753 43.8743 90.8275 43.7544 90.7319 43.671C90.6363 43.5861 90.5009 43.5437 90.3259 43.5437H89.8937V44.5132ZM92.4285 45H91.8185V42.0854H92.4285V45Z" fill="#444444"/>
<path fill-rule="evenodd" clip-rule="evenodd" d="M30.5971 3.5645C30.3783 3.55466 30.218 3.6274 30.1336 3.77476C30.1013 3.8312 30.0649 4.00985 30.0691 4.09105L30.0719 4.14449L29.8297 4.14142L29.5874 4.13837L29.3087 4.21805C28.9939 4.30804 28.7515 4.38883 28.6686 4.43135C28.5942 4.46958 28.5907 4.49907 28.6369 4.70442C28.6778 4.88594 28.6776 4.88798 28.6107 5.16187L28.5778 5.2962L28.0892 5.47854C27.5752 5.67035 27.4936 5.70706 27.3471 5.81247C27.0889 5.99813 26.8374 6.33897 26.7199 6.66238C26.5896 7.02085 26.0332 7.38632 25.3896 7.53618L25.2067 7.57874L24.9403 8.25168L24.6738 8.92462L24.7146 9.20591C24.7738 9.61372 24.7734 9.6453 24.703 10.0697L24.6426 10.4337L24.7023 10.5668L24.7621 10.6999L24.7366 10.7981C24.7031 10.9275 24.6422 11.0268 24.5462 11.1084C24.4619 11.1801 24.3985 11.2739 24.3501 11.399C24.331 11.4484 24.3125 11.4764 24.3005 11.4743C24.29 11.4724 24.181 11.4298 24.0583 11.3797C23.6703 11.221 23.1032 10.9429 22.5956 10.6623L22.3751 10.5404L22.4053 10.4034C22.4493 10.2038 22.4276 10.1101 22.3205 10.0365C22.1953 9.95038 22.0146 9.95819 21.8699 10.056C21.7808 10.1161 21.7744 10.1179 21.7104 10.102C21.6738 10.0929 21.6448 10.089 21.6461 10.0932C21.6474 10.0975 21.6597 10.1359 21.6733 10.1785C21.6948 10.2461 21.695 10.2651 21.6743 10.3251C21.644 10.413 21.6414 10.5221 21.6681 10.5773C21.6796 10.601 21.7203 10.6441 21.7584 10.673C21.8843 10.7685 22.0698 10.779 22.1955 10.6978L22.2387 10.67L22.6465 10.9097C23.1256 11.1912 23.7048 11.512 24.0076 11.6636C24.1621 11.741 24.2319 11.7837 24.2556 11.8151C24.2737 11.8392 24.3104 11.9256 24.337 12.0072C24.4418 12.3269 24.4626 12.3496 24.6984 12.4002C24.8636 12.4357 24.8699 12.4384 25.1255 12.5838C25.4292 12.7566 25.4213 12.7555 25.5769 12.6471C25.7011 12.5606 25.8076 12.4394 25.9268 12.2489C26.0142 12.1092 26.018 12.0994 26.0445 11.9511C26.0692 11.8122 26.0793 11.6216 26.0682 11.5045C26.0648 11.4683 26.0868 11.4198 26.183 11.2507C26.29 11.0629 26.33 11.0084 26.3201 11.064C26.3133 11.1019 26.4145 11.4084 26.4673 11.5101C26.6279 11.8195 26.9542 12.1556 27.3044 12.3725L27.4417 12.4575L27.7869 12.5352C28.257 12.6409 29.1703 12.8548 29.1728 12.8598C29.1823 12.8787 29.5157 13.7171 29.5375 13.7771L29.5659 13.8552L29.5205 13.8162C29.3916 13.7056 28.9286 13.2089 28.7997 13.0429C28.7121 12.9301 28.6326 12.8423 28.604 12.8269C28.4192 12.7271 28.096 12.8362 27.8789 13.0717C27.7441 13.2177 27.7058 13.2858 27.6801 13.4249C27.6604 13.5314 27.6608 13.5534 27.6835 13.6035C27.6981 13.6357 27.7459 13.6916 27.7927 13.7312C28.4414 14.2798 28.58 14.4033 29.0281 14.8315C29.4041 15.1909 29.4702 15.2582 29.9068 15.7252C30.1708 16.0077 30.2179 16.065 30.2393 16.1294C30.3032 16.3227 30.4653 16.54 30.7405 16.8015C31.0535 17.099 31.1286 17.1552 31.3573 17.2628C31.4592 17.3108 31.4911 17.3353 31.5957 17.446C31.81 17.6727 32.1744 18.0768 33.1592 19.18C34.7606 20.9739 34.8559 21.0795 35.233 21.4786C35.5774 21.8432 35.5995 21.8636 35.65 21.8661C35.7188 21.8695 35.8441 21.8146 36.035 21.6976C36.2796 21.5476 36.469 21.3677 36.6111 21.1507C36.6712 21.0587 36.7947 20.8186 36.7867 20.809C36.7843 20.8062 36.6828 20.7335 36.5611 20.6476C36.3448 20.4948 36.2985 20.4514 34.496 18.7107C33.4818 17.7314 32.6029 16.8731 32.5428 16.8035L32.4335 16.6769L32.3934 16.4982C32.3713 16.3999 32.3397 16.2865 32.3232 16.2461C32.2734 16.1248 32.1687 15.9667 32.0124 15.7771C31.809 15.5301 31.7868 15.4953 31.7431 15.3551C31.7128 15.2576 31.6349 14.8698 31.64 14.8415C31.6406 14.8379 31.6884 14.8286 31.7462 14.8207L31.8514 14.8065L31.9416 14.855L32.0319 14.9035L32.0888 15.0746C32.1579 15.2825 32.2245 15.4144 32.3057 15.5045C32.5264 15.7493 32.7606 16.1332 33.0323 16.6954L33.1656 16.9712L33.3579 17.1853C33.5457 17.3942 34.0203 17.8873 34.0716 17.9268C34.0858 17.9377 34.1752 17.9933 34.2702 18.0502L34.443 18.1539L36.3344 19.9802C37.3747 20.9848 38.3089 21.8825 38.4104 21.9751C38.75 22.2851 38.9764 22.4645 39.0432 22.4764C39.1324 22.4923 39.3954 22.3561 39.5461 22.2161C39.7497 22.0269 39.9601 21.6707 40.0268 21.4025L40.0438 21.334L39.9729 21.2797C39.9036 21.2265 39.6247 21.052 39.5181 20.9951C39.4511 20.9594 38.2742 20.0563 37.7844 19.6648C36.7654 18.8504 35.9942 18.1829 35.8906 18.0258C35.8736 18 35.8554 17.9507 35.85 17.9162C35.8447 17.8817 35.8194 17.8082 35.7939 17.7529C35.6879 17.5232 35.5125 17.3241 35.1715 17.0462L35.0191 16.922L34.9873 16.8078C34.9639 16.7242 34.9294 16.655 34.8582 16.549L34.7611 16.4042L34.7796 16.2993C34.7898 16.2415 34.8009 16.0914 34.8043 15.9657C34.8093 15.7809 34.8053 15.7227 34.783 15.6626C34.7272 15.5116 34.5081 15.2187 34.1975 14.8798C34.0894 14.7619 34.0459 14.6933 33.767 14.2011C33.5963 13.9001 33.4207 13.5799 33.3766 13.4898C33.2307 13.1915 33.0397 12.9795 32.8661 12.9233C32.7999 12.9018 32.7985 12.9001 32.7667 12.7979C32.6319 12.3655 32.3183 11.8418 31.9692 11.4663C31.8905 11.3816 31.8561 11.3331 31.8541 11.3044C31.8498 11.2404 31.7849 11.01 31.7547 10.9513C31.6988 10.8429 31.6533 10.8085 31.513 10.7688C31.3654 10.7269 31.1712 10.6267 31.0871 10.5489C30.9609 10.4322 30.9 10.2922 30.899 10.1163C30.8983 9.99808 30.9393 9.86514 31.0243 9.70977C31.0909 9.58817 31.0924 9.58026 31.0664 9.48438C31.0161 9.29887 30.8748 9.10152 30.7218 9.0032L30.6528 8.95883L30.6831 8.78766C30.6997 8.69351 30.7201 8.52549 30.7283 8.41428C30.7418 8.23231 30.747 8.2043 30.7806 8.13439C30.8777 7.93174 31.1101 7.87009 31.4009 7.96979C31.4579 7.98933 31.5825 8.04837 31.6779 8.101C31.9872 8.2716 32.3149 8.40211 32.7384 8.52327C33.2419 8.66734 33.3174 8.70114 33.3764 8.80893C33.3984 8.84914 33.4406 8.89436 33.4841 8.92445C33.548 8.96868 33.5649 8.97426 33.6447 8.97716C33.6938 8.97894 33.8042 8.99303 33.8901 9.00847C34.1057 9.04719 34.1479 9.07845 34.2259 9.25731C34.3253 9.48548 34.4372 9.59578 34.5982 9.62452C34.668 9.63698 34.706 9.63521 34.7631 9.6168C34.8357 9.59345 34.8388 9.5937 34.901 9.62738C34.969 9.66431 34.9776 9.69013 34.9579 9.8003C34.9505 9.8419 34.954 9.849 34.9849 9.8545C35.2507 9.90196 35.947 10.0889 35.9428 10.1117C35.939 10.1322 34.5517 11.0933 34.505 11.1077C34.4483 11.1252 34.3601 11.1073 34.1915 11.0441C34.0816 11.0029 34.0127 11.0013 33.9546 11.0385C33.8754 11.0893 33.8712 11.2411 33.9444 11.4047L33.971 11.464L33.9092 11.5118C33.8388 11.5663 33.8472 11.5798 33.9472 11.5728C34.0095 11.5684 34.0197 11.5723 34.0968 11.6289C34.196 11.7017 34.3255 11.7349 34.4073 11.7084C34.5141 11.6738 34.5763 11.5628 34.5665 11.4243L34.5616 11.3548L34.8276 11.1668C34.9738 11.0634 35.3337 10.8035 35.6273 10.5894L36.1612 10.2L36.2447 10.2052C36.2906 10.2081 36.4407 10.2061 36.5781 10.2006L36.8279 10.1908L36.8996 10.1011C36.939 10.0518 37.0264 9.92817 37.0937 9.82633L37.2162 9.64115L37.2001 9.58929C37.1574 9.45173 36.929 9.20105 36.6768 9.0149C36.5456 8.91799 36.5437 8.91717 36.4637 8.91801C36.4193 8.91846 36.3154 8.93852 36.233 8.96258L36.083 9.00631L35.8302 8.79696L35.5774 8.5876L35.5421 8.64028L35.5068 8.69296L35.4763 8.62995C35.3808 8.43266 35.0463 8.12269 34.5002 7.72536C33.8885 7.2803 33.9393 7.30778 32.7896 6.79939C32.2293 6.55162 31.7659 6.34287 31.7599 6.33551C31.7534 6.32753 31.7679 6.25351 31.7958 6.15207L31.8426 5.98201L31.8154 5.93499C31.7773 5.86903 31.7808 5.80299 31.831 5.63403C31.9496 5.23497 32.0131 4.81276 31.9866 4.59929C31.946 4.2721 31.6378 3.92845 31.2143 3.73807C30.9983 3.64101 30.7509 3.57142 30.5971 3.5645ZM27.6715 14.3722C27.7097 14.4288 28.2466 15.1791 28.8644 16.0396C29.7432 17.2633 29.9822 17.6053 29.9618 17.6098C29.9475 17.613 29.24 17.5971 28.3896 17.5746L26.8434 17.5336L24.3375 18.1891L21.8317 18.8446L19.7782 18.4441C18.6487 18.2238 17.6598 18.0316 17.5807 18.0171L17.4368 17.9906L14.5019 19.4643L11.5671 20.938L10.5766 23.1941C10.0318 24.4351 9.57862 25.4665 9.56954 25.4863C9.56045 25.5062 8.62369 26.2807 7.48784 27.2075L5.52396 28.8081L5.63945 28.8073L7.3688 28.8073L9.09815 28.8073L10.2511 28.8073C10.2511 28.8073 10.9186 28.3527 12.8466 26.8738L16.352 24.1848L19.8108 22.8649L23.2696 21.545L27.2594 19.8993C29.4538 18.9941 31.2488 18.2488 31.2482 18.2429C31.2477 18.237 30.9227 17.7378 30.526 17.1335L29.8047 16.0348L28.7163 15.1612C28.1177 14.6807 27.6221 14.2835 27.6149 14.2784C27.6078 14.2734 27.6332 14.3156 27.6715 14.3722Z" fill="#D93636"/>
<path fill-rule="evenodd" clip-rule="evenodd" d="M57.8136 2.36809C58.1747 2.47745 58.4194 2.65931 58.5115 2.88677C58.5579 3.00144 58.5624 3.07083 58.5477 3.44261C58.5315 3.85368 58.5328 3.86746 58.5884 3.86884C58.6365 3.87003 58.6454 3.88859 58.643 3.98312C58.6415 4.04517 58.6134 4.1561 58.5806 4.22961C58.4671 4.48372 58.3198 4.61121 58.1443 4.60718C58.0509 4.60504 58.0335 4.61671 57.9806 4.71714C57.9479 4.77891 57.8701 4.86964 57.8076 4.91874L57.6939 5.008L57.7024 5.31403L57.7109 5.62005L57.2848 5.85318L56.8589 6.08629L56.8402 6.26753C56.8156 6.50611 56.7047 6.72081 56.5092 6.90843C56.3307 7.07977 56.1475 7.36084 56.1447 7.46781C56.1436 7.50837 56.0906 7.68427 56.0269 7.85872L55.9111 8.1759L56.0086 8.23303C56.1416 8.31097 56.253 8.48678 56.2726 8.64983C56.2849 8.75225 56.327 8.83917 56.4473 9.01048C56.5822 9.20248 56.6131 9.27131 56.6545 9.47148C56.6914 9.65058 56.7247 9.73273 56.7937 9.81533C56.8436 9.87501 56.9435 10.0136 57.0156 10.1232C57.1346 10.304 57.1451 10.3335 57.1283 10.4413C57.113 10.5396 57.126 10.5943 57.204 10.7593C57.3039 10.9706 57.3066 11.1017 57.2111 11.0997C57.1845 11.0991 57.1402 11.1369 57.1128 11.1837C57.0701 11.2564 57.0462 11.2684 56.9486 11.266C56.8728 11.2641 56.8285 11.2776 56.8171 11.3059C56.7921 11.3681 56.7196 11.3564 56.6255 11.275C56.567 11.2245 56.5296 11.2109 56.4964 11.2281C56.4048 11.2756 56.3164 11.1532 56.2284 10.857C56.1594 10.6243 56.1316 10.5694 56.0557 10.5154C56.0059 10.4801 55.9274 10.376 55.8811 10.2841C55.8156 10.154 55.7757 10.1092 55.701 10.0818C55.6482 10.0624 55.5806 10.0129 55.5507 9.97175C55.5136 9.92078 55.4783 9.90134 55.4396 9.91071C55.3963 9.92119 55.3473 9.8806 55.2325 9.73932C55.1326 9.6162 55.0382 9.53346 54.9509 9.4922C54.8308 9.43552 54.8063 9.43312 54.6647 9.46427C54.4778 9.50542 54.2083 9.62619 53.8952 9.80905C53.6072 9.97725 53.3801 10.0509 53.3055 10.0003C53.2471 9.96077 53.2405 9.98678 53.1961 10.437C53.1836 10.5632 53.1619 10.6799 53.1478 10.6964C53.1337 10.713 53.1092 10.7798 53.0933 10.8448L53.0644 10.9631L53.3039 11.0579C53.5168 11.1421 54.1933 11.2679 59.3932 12.1903L65.243 13.2281L70.1563 14.7067C72.8587 15.5199 75.0979 16.1953 75.1324 16.2076C75.1748 16.2226 74.8739 16.2897 74.1986 16.4155L73.2022 16.6012L72.0923 16.3088L70.9824 16.0165L70.2854 16.3519L69.5884 16.6873L68.6604 16.2251L67.7323 15.7628L66.1268 15.6106L64.5213 15.4585L62.2813 14.3353L60.0413 13.2122L56.5365 12.32C54.6089 11.8293 53.0128 11.4309 52.9896 11.4346C52.9584 11.4396 52.8971 11.6487 52.7559 12.2317C52.6506 12.6663 52.5399 13.0721 52.5098 13.1333C52.3361 13.487 51.9124 13.6864 51.2829 13.7108L50.9926 13.722L50.6725 14.0111C50.3809 14.2745 50.3332 14.3064 50.1355 14.3697C49.853 14.4602 49.8309 14.4868 49.9044 14.6482C49.9357 14.717 49.9635 14.8209 49.9662 14.8791L49.9709 14.9848L50.3932 14.9953C50.8685 15.0072 51.0377 15.0473 51.2367 15.1956C51.3762 15.2996 51.4442 15.4458 51.4131 15.5753C51.3799 15.714 51.1702 15.8977 50.9887 15.9471L50.8331 15.9894L50.0623 15.7805C49.3644 15.5913 49.2767 15.5607 49.1359 15.458C48.8356 15.2388 48.5769 15.0907 48.2295 14.9391C48.0366 14.8549 47.8338 14.7608 47.7788 14.73C47.6543 14.66 47.1188 14.0748 47.1204 14.0104C47.1213 13.9754 47.1473 13.9636 47.2197 13.9654C47.4208 13.9704 47.4807 13.7952 47.4054 13.4223C47.3649 13.2219 47.3885 13.1318 47.4952 13.0791C47.5414 13.0562 47.6378 12.9917 47.7093 12.9357C47.9343 12.7598 48.2541 12.5708 48.5333 12.4491C48.838 12.3162 49.5438 12.0934 49.8638 12.0289C50.0442 11.9926 50.0848 11.9733 50.1267 11.9045C50.1911 11.7986 50.364 11.666 50.5232 11.6005C50.7077 11.5246 50.7598 11.4057 50.7426 11.1002C50.7354 10.972 50.7208 10.8593 50.7101 10.8496C50.6995 10.8399 49.8568 10.6209 48.8374 10.363L46.984 9.89404L46.0197 9.44559C45.4893 9.19894 45.0653 8.99416 45.0774 8.99051C45.0896 8.98689 45.8774 8.91223 46.8282 8.82459C47.779 8.73699 48.6084 8.65895 48.6714 8.65122L48.7859 8.63714L49.4067 9.21211L50.0275 9.78708L50.3246 9.90064C50.4881 9.96313 50.6279 10.0082 50.6355 10.0008C50.643 9.99343 50.61 9.65313 50.5621 9.24457C50.5142 8.83604 50.4758 8.47182 50.4767 8.4352C50.4804 8.2876 50.7068 7.89345 51.0329 7.46691L51.1886 7.26326L51.1212 7.15198C51.0244 6.99192 50.992 6.79108 51.0338 6.60807C51.1039 6.30016 51.4313 5.89317 51.8502 5.59296C52.0218 5.46999 52.0387 5.44858 52.0575 5.32999C52.1338 4.84911 52.8155 4.2417 54.0256 3.57622C54.2055 3.47733 54.4731 3.33808 54.6202 3.2668C54.8523 3.15444 54.903 3.13999 55.0015 3.15811C55.2269 3.19956 55.3842 3.27642 55.5099 3.4065C55.5786 3.47765 55.6369 3.53274 55.6393 3.52894C55.6417 3.52513 55.6707 3.48376 55.7036 3.43701C55.7865 3.31905 55.8501 3.12935 55.8899 2.8808C55.9085 2.76468 55.9405 2.65929 55.961 2.64663C56.0155 2.61304 56.2764 2.62426 56.3111 2.6617C56.3323 2.68466 56.4347 2.68679 56.6741 2.66925C57.1146 2.63701 57.1302 2.63322 57.1519 2.55269C57.1779 2.45664 57.2753 2.37701 57.4076 2.34342C57.5524 2.3067 57.6255 2.31114 57.8136 2.36809ZM39.4509 2.9477C39.5418 3.01868 39.593 3.14708 39.5893 3.29523C39.5865 3.41044 39.5943 3.4281 39.6557 3.44557C39.7099 3.46101 39.7249 3.48386 39.7233 3.54869C39.7218 3.60749 39.735 3.63235 39.7683 3.63318C39.7942 3.63382 39.9024 3.66559 40.0089 3.70377C40.168 3.76087 40.2198 3.79609 40.3004 3.9021C40.3543 3.973 40.4968 4.14526 40.6171 4.28495C40.7374 4.42463 40.8742 4.5922 40.921 4.65733C41.1525 4.97931 41.2051 5.24719 41.064 5.38522C40.9974 5.45042 40.9747 5.45559 40.8313 5.43843C40.744 5.42797 40.6433 5.40921 40.6077 5.39674C40.5596 5.37998 40.6604 5.5481 40.9962 6.04518C42.3209 8.0057 42.2354 7.86996 42.1969 7.95137C42.1774 7.99254 42.1521 8.01371 42.1399 7.99897C42.0753 7.92065 41.2244 6.59134 40.8667 6.00991C40.5874 5.55609 40.4484 5.35393 40.4403 5.3898C40.4337 5.41907 40.4851 5.56852 40.5546 5.72191C40.6609 5.95687 40.6762 6.01246 40.6516 6.07469C40.6287 6.13245 40.6401 6.21428 40.7036 6.44986L40.7847 6.75119L41.0025 6.91575C41.3046 7.144 41.6847 7.56411 41.8881 7.89436C42.0845 8.21338 42.1553 8.39675 42.1508 8.5754C42.149 8.64763 42.164 8.71578 42.1858 8.7354C42.2068 8.7542 42.2365 8.82709 42.2519 8.89741C42.2779 9.01623 42.2883 9.02744 42.3984 9.05565C42.4956 9.08057 42.4507 9.08494 42.1472 9.07995C41.9439 9.07662 41.7463 9.06077 41.7081 9.04472C41.6147 9.00553 41.5662 8.90645 41.6132 8.85106C41.6538 8.80323 41.6597 8.81064 41.5118 8.72205C41.436 8.67667 41.3815 8.61579 41.3519 8.54341C41.3075 8.43501 41.0949 8.18297 41.0935 8.2372C41.0931 8.25258 41.1231 8.31363 41.1602 8.37284C41.1973 8.43208 41.2391 8.54316 41.2532 8.61967C41.2861 8.79879 41.2996 8.82014 41.4151 8.87515L41.5113 8.92089L41.422 8.9198C41.2846 8.91813 41.1877 8.96324 41.1861 9.02968C41.1847 9.0858 41.1677 9.0876 40.7396 9.07699C40.3664 9.06775 40.2888 9.05841 40.2586 9.01909C40.2286 8.98001 40.2299 8.95963 40.2661 8.89676C40.3227 8.79844 40.4482 8.78821 40.6137 8.86844C40.6825 8.9018 40.7444 8.9202 40.7513 8.9093C40.7792 8.86548 40.681 8.74869 40.223 8.28078C39.655 7.70046 39.6673 7.7155 39.6261 7.5518C39.6033 7.46117 39.5371 7.35653 39.4038 7.20035C39.2994 7.07804 39.1718 6.90891 39.1201 6.82449C39.0657 6.73556 38.9984 6.66312 38.9603 6.65225C38.8399 6.61799 38.7342 6.17234 38.7249 5.66026C38.7195 5.35887 38.7111 5.30155 38.669 5.27698C38.6301 5.25434 38.6064 5.26422 38.5595 5.32247C38.5265 5.3634 38.499 5.42046 38.4983 5.44924C38.4976 5.47805 38.4351 5.56233 38.3596 5.6365C38.2841 5.71071 38.1961 5.82073 38.1642 5.88097C38.0309 6.13294 38.0105 6.16433 37.9526 6.20778C37.8988 6.24819 37.8791 6.33675 37.7783 6.99477C37.6887 7.57918 37.6538 7.74621 37.6138 7.78348C37.5656 7.82838 37.5639 7.82496 37.5796 7.71583C37.5887 7.65264 37.6394 7.30112 37.6923 6.93472L37.7884 6.26849L37.7268 6.13331C37.6701 6.00875 37.6679 5.98258 37.699 5.79916C37.7233 5.65634 37.7539 5.57572 37.8073 5.51359C37.8483 5.46597 37.8908 5.39256 37.9017 5.35045C37.9311 5.23734 38.0149 5.08541 38.127 4.94209C38.1815 4.87232 38.2434 4.76485 38.2645 4.70333C38.3268 4.52113 38.4097 4.37979 38.5276 4.25477C38.5885 4.19011 38.6658 4.06827 38.6993 3.984C38.7329 3.89973 38.7872 3.80277 38.8201 3.76856C38.8697 3.71694 38.8752 3.69295 38.8529 3.62765C38.8325 3.56787 38.8367 3.52891 38.8705 3.46572C38.9006 3.40942 38.9141 3.31762 38.9125 3.18165C38.9108 3.04767 38.9223 2.96874 38.9469 2.94461C39.0059 2.88666 39.3755 2.88892 39.4509 2.9477ZM44.6205 8.79152C44.8148 8.8846 44.9737 8.96894 44.9734 8.97888C44.9732 8.98882 44.6599 9.02471 44.2773 9.05861C43.6 9.11869 42.8246 9.12848 42.883 9.07622C42.9213 9.042 44.1785 8.61385 44.2272 8.61843C44.2491 8.6205 44.4261 8.6984 44.6205 8.79152ZM53.2985 16.8055C54.3896 17.1352 55.2724 17.4132 55.2604 17.4234C55.2484 17.4335 54.951 17.5514 54.5995 17.6852L53.9603 17.9286L52.6506 17.1067C51.9303 16.6546 51.3099 16.2656 51.2719 16.2422C51.2117 16.2052 51.21 16.2001 51.2588 16.2029C51.2896 16.2047 52.2075 16.4759 53.2985 16.8055ZM57.6727 17.1107C58.5361 17.2423 59.9004 17.5005 63.9395 18.2966L69.1027 19.3143L77.5354 24.202L85.6495 28.806L84.8425 28.8054C84.8425 28.8054 83.7991 28.7993 83.8046 28.8052L83.3437 28.8054L83.1129 28.806L82.8823 28.806L82.6517 28.806L82.4211 28.806L82.1906 28.806L81.96 28.806L81.7294 28.806L81.4988 28.8054L81.2682 28.8054L80.9224 28.806L80.5767 28.806L80.1155 28.806L80.0003 28.806L79.885 28.806L79.7697 28.806L79.6544 28.806L79.5391 28.806L79.4238 28.806C79.4238 28.806 79.7655 28.806 79.1932 28.806C78.6209 28.806 81.6143 28.806 78.9626 28.806C76.311 28.806 78.7321 28.806 78.7321 28.806L78.5015 28.806L78.2709 28.806L78.1556 28.806L73.7885 26.1224C70.1916 23.8077 67.2061 21.8892 67.154 21.8592C67.0759 21.8141 57.4182 18.1707 55.8138 17.5811L55.3312 17.4037L55.9433 17.1696C56.28 17.0408 56.5585 16.937 56.5622 16.9389C56.566 16.9408 57.0657 17.0181 57.6727 17.1107Z" fill="#0F94CD"/>
<path d="M0.9809 39.0703H3.01446C3.27553 39.0703 3.56408 39.0841 3.83888 39.0978C4.12743 39.1115 4.38849 39.1253 4.58086 39.1253C6.05107 39.1253 8.02968 38.6856 8.02968 36.8719C8.02968 35.1955 6.76557 34.8383 5.36406 34.536V34.5085C6.2984 34.2612 7.5625 33.9177 7.5625 32.3925C7.5625 31.1696 6.44954 30.359 4.16865 30.359C3.6053 30.359 3.31675 30.3864 2.83584 30.3864C2.28623 30.3864 1.68166 30.359 1.07708 30.359V30.6338C1.98394 30.6338 2.14883 30.8261 2.14883 31.8704C2.14883 32.9421 2.06638 36.1299 2.06638 37.5589C2.06638 38.6031 1.9015 38.7955 0.9809 38.7955V39.0703ZM3.24805 35.4704C3.24805 34.7833 3.33049 34.6597 4.11369 34.6597C5.83123 34.6597 6.84801 35.2642 6.84801 36.8306C6.84801 38.136 6.07855 38.8505 4.4572 38.8505C3.38545 38.8505 3.24805 38.8092 3.24805 38.2322V35.4704ZM3.24805 31.5406C3.24805 30.9086 3.49538 30.6338 4.22361 30.6338C5.69382 30.6338 6.38084 31.2109 6.38084 32.5986C6.38084 33.7116 5.74878 34.3299 4.16865 34.3299C3.37171 34.3299 3.24805 34.2887 3.24805 33.794V31.5406ZM9.11967 30.6338C10.109 30.6338 10.2739 30.8261 10.2739 31.8704V36.1848C10.2739 38.2184 11.538 39.1802 13.8051 39.1802C16.6081 39.1802 17.1303 37.5589 17.1715 35.965L17.2814 32.7498C17.3364 31.0185 17.5013 30.7437 18.4631 30.6338V30.359H15.5089V30.6338C16.3608 30.6338 16.8555 30.8948 16.8142 31.8704L16.6768 35.7177C16.6081 37.5589 16.0448 38.6306 14.1211 38.6306C12.3899 38.6306 11.3731 37.6276 11.3731 36.2123V31.8704C11.3731 30.8261 11.538 30.6338 12.8433 30.6338V30.359H9.11967V30.6338ZM24.5804 30.6612C23.9346 30.3315 23.2201 30.249 22.5331 30.249C20.4858 30.249 19.6614 31.417 19.6614 32.5299C19.6614 35.4154 24.1819 34.6734 24.1819 37.1467C24.1819 38.3558 23.1377 38.9054 22.2033 38.9054C20.527 38.9054 19.8675 37.1054 19.6614 36.5421H19.4553C19.4965 36.9955 19.5377 38.507 19.8125 38.7543C20.1011 39.0154 21.4888 39.1802 22.0934 39.1802C24.1957 39.1802 25.1987 37.71 25.1987 36.5971C25.1987 33.8765 20.6782 34.3024 20.6782 32.0078C20.6782 31.0048 21.64 30.5238 22.3133 30.5238C23.2476 30.5238 23.9484 31.2383 24.3606 32.4887H24.5804V30.6612Z" fill="#D93636"/>
<path d="M34.4965 30.6612C33.8507 30.3315 33.1362 30.249 32.4492 30.249C30.4019 30.249 29.5775 31.417 29.5775 32.5299C29.5775 35.4154 34.098 34.6734 34.098 37.1467C34.098 38.3558 33.0538 38.9054 32.1194 38.9054C30.4431 38.9054 29.7836 37.1054 29.5775 36.5421H29.3714C29.4126 36.9955 29.4538 38.507 29.7286 38.7543C30.0172 39.0154 31.4049 39.1802 32.0095 39.1802C34.1118 39.1802 35.1148 37.71 35.1148 36.5971C35.1148 33.8765 30.5943 34.3024 30.5943 32.0078C30.5943 31.0048 31.5561 30.5238 32.2294 30.5238C33.1637 30.5238 33.8644 31.2383 34.2767 32.4887H34.4965V30.6612ZM41.0231 30.4139V30.6887C41.5453 30.675 41.9163 30.8261 41.9163 31.1559C41.9163 31.5681 41.4491 32.1452 40.6247 32.9284L38.5087 34.9482V31.8704C38.5087 30.8261 38.6736 30.6338 39.5804 30.6338V30.359H36.2553V30.6338C37.1621 30.6338 37.327 30.8261 37.327 31.8704V37.5589C37.327 38.6031 37.1621 38.7955 36.2553 38.7955V39.0703H39.5529V38.7955C38.6736 38.7955 38.5087 38.6031 38.5087 37.5589V35.3742L39.127 34.8108L41.4079 37.0642C42.0812 37.7375 42.4384 38.2322 42.4384 38.4245C42.4384 38.6581 42.1361 38.7955 41.6002 38.7955V39.0703H45.5437V38.7955C45.0491 38.7818 44.5269 38.6306 43.8674 37.9711L39.9102 34.0826L42.7407 31.2109C43.2216 30.7299 43.6338 30.5788 44.2384 30.5788V30.359L41.0231 30.4139ZM48.6931 31.8704C48.6931 30.8261 48.858 30.6338 49.9298 30.6338V30.359H46.4397V30.6338C47.3466 30.6338 47.5115 30.8261 47.5115 31.8704V37.5589C47.5115 38.6031 47.3466 38.7955 46.4397 38.7955V39.0703H49.7374V38.7955C48.858 38.7955 48.6931 38.6031 48.6931 37.5589V31.8704ZM62.7528 30.0567C62.3543 30.4139 62.2307 30.4964 61.3788 30.4964H56.2124C55.5941 30.4964 55.2643 30.3452 55.0033 30.0567H54.7147L54.1239 32.3788H54.4262C54.8659 31.4857 55.4842 30.9635 56.9269 30.9635C57.9986 30.9635 58.0261 30.991 58.0261 32.1177C58.0261 33.4093 57.9025 36.7894 57.9025 37.5589C57.9025 38.6031 57.7376 38.7955 56.4597 38.7955V39.0703H60.4032V38.7955C59.2628 38.7405 59.0017 38.5207 59.0017 37.5589C59.0017 36.7894 59.1253 33.4093 59.1253 32.1177C59.1253 30.9498 59.249 30.9086 60.3895 30.9086C61.8184 30.9086 62.423 31.1284 62.7528 32.3788H62.9452V30.0567H62.7528ZM68.4976 30.249C65.7771 30.249 63.9496 32.1177 63.9496 34.7146C63.9496 37.3116 65.7771 39.1802 68.4976 39.1802C71.2182 39.1802 73.0457 37.3116 73.0457 34.7146C73.0457 32.1177 71.2182 30.249 68.4976 30.249ZM68.4976 30.5238C70.751 30.5238 71.7816 32.1177 71.7816 34.7146C71.7816 37.3116 70.751 38.9054 68.4976 38.9054C66.2442 38.9054 65.2137 37.3116 65.2137 34.7146C65.2137 32.1177 66.2442 30.5238 68.4976 30.5238ZM74.0104 30.6338C74.9997 30.6338 75.1646 30.8261 75.1646 31.8704V36.1848C75.1646 38.2184 76.4287 39.1802 78.6958 39.1802C81.4989 39.1802 82.021 37.5589 82.0622 35.965L82.1721 32.7498C82.2271 31.0185 82.392 30.7437 83.3538 30.6338V30.359H80.3996V30.6338C81.2515 30.6338 81.7462 30.8948 81.705 31.8704L81.5676 35.7177C81.4989 37.5589 80.9355 38.6306 79.0119 38.6306C77.2806 38.6306 76.2638 37.6276 76.2638 36.2123V31.8704C76.2638 30.8261 76.4287 30.6338 77.734 30.6338V30.359H74.0104V30.6338ZM86.6956 31.4032C86.6956 30.8536 86.833 30.6887 87.6025 30.6887C88.6605 30.6887 89.6635 31.3208 89.6635 32.5849C89.6635 34.1513 88.7841 34.5635 86.6956 34.5635V31.4032ZM84.3597 39.0703H87.891V38.7955C86.8605 38.7955 86.6956 38.6031 86.6956 37.5589V34.8933H87.891L90.2543 38.5619C90.5566 39.0291 90.694 39.0703 90.8177 39.0703H92.3429V38.7955C91.8619 38.7955 91.5184 38.5757 91.1612 38.0398L88.894 34.6872C89.2925 34.591 90.9276 34.165 90.9276 32.6124C90.9276 31.0322 89.4299 30.359 87.2177 30.359H84.5521V30.6338C85.3903 30.6338 85.5551 30.8261 85.5551 31.8704C85.5689 33.794 85.5139 35.5253 85.5139 37.5589C85.5139 38.6031 85.349 38.7955 84.3597 38.7955V39.0703Z" fill="#0F94CD"/>
</svg>
